<?xml version="1.0" encoding="UTF-8" standalone="no"?>
<!-- Created with Inkscape (http://www.inkscape.org/) -->

<svg
   width="500mm"
   height="300mm"
   viewBox="0 0 500 300"
   version="1.1"
   id="svg1"
   inkscape:version="1.4 (86a8ad7, 2024-10-11)"
   sodipodi:docname="bandgaps.svg"
   xmlns:inkscape="http://www.inkscape.org/namespaces/inkscape"
   xmlns:sodipodi="http://sodipodi.sourceforge.net/DTD/sodipodi-0.dtd"
   xmlns="http://www.w3.org/2000/svg"
   xmlns:svg="http://www.w3.org/2000/svg">
  <sodipodi:namedview
     id="namedview1"
     pagecolor="#ffffff"
     bordercolor="#000000"
     borderopacity="0.25"
     inkscape:showpageshadow="2"
     inkscape:pageopacity="0.0"
     inkscape:pagecheckerboard="0"
     inkscape:deskcolor="#d1d1d1"
     inkscape:document-units="mm"
     inkscape:zoom="0.51339147"
     inkscape:cx="930.08947"
     inkscape:cy="579.47983"
     inkscape:window-width="1920"
     inkscape:window-height="1017"
     inkscape:window-x="1912"
     inkscape:window-y="1"
     inkscape:window-maximized="1"
     inkscape:current-layer="layer1" />
  <defs
     id="defs1">
    <marker
       style="overflow:visible"
       id="marker219"
       refX="0"
       refY="0"
       orient="auto-start-reverse"
       inkscape:stockid="Concave triangle arrow"
       markerWidth="1"
       markerHeight="1"
       viewBox="0 0 1 1"
       inkscape:isstock="true"
       inkscape:collect="always"
       preserveAspectRatio="xMidYMid">
      <path
         transform="scale(0.7)"
         d="M -2,-4 9,0 -2,4 c 2,-2.33 2,-5.66 0,-8 z"
         style="fill:context-stroke;fill-rule:evenodd;stroke:none"
         id="path219" />
    </marker>
    <marker
       style="overflow:visible"
       id="marker216"
       refX="0"
       refY="0"
       orient="auto-start-reverse"
       inkscape:stockid="Concave triangle arrow"
       markerWidth="1"
       markerHeight="1"
       viewBox="0 0 1 1"
       inkscape:isstock="true"
       inkscape:collect="always"
       preserveAspectRatio="xMidYMid">
      <path
         transform="scale(0.7)"
         d="M -2,-4 9,0 -2,4 c 2,-2.33 2,-5.66 0,-8 z"
         style="fill:context-stroke;fill-rule:evenodd;stroke:none"
         id="path216" />
    </marker>
    <marker
       style="overflow:visible"
       id="marker6"
       refX="0"
       refY="0"
       orient="auto-start-reverse"
       inkscape:stockid="Concave triangle arrow"
       markerWidth="1"
       markerHeight="1"
       viewBox="0 0 1 1"
       inkscape:isstock="true"
       inkscape:collect="always"
       preserveAspectRatio="xMidYMid">
      <path
         transform="scale(0.7)"
         d="M -2,-4 9,0 -2,4 c 2,-2.33 2,-5.66 0,-8 z"
         style="fill:context-stroke;fill-rule:evenodd;stroke:none"
         id="path6" />
    </marker>
    <marker
       style="overflow:visible"
       id="ConcaveTriangle"
       refX="0"
       refY="0"
       orient="auto-start-reverse"
       inkscape:stockid="Concave triangle arrow"
       markerWidth="1"
       markerHeight="1"
       viewBox="0 0 1 1"
       inkscape:isstock="true"
       inkscape:collect="always"
       preserveAspectRatio="xMidYMid">
      <path
         transform="scale(0.7)"
         d="M -2,-4 9,0 -2,4 c 2,-2.33 2,-5.66 0,-8 z"
         style="fill:context-stroke;fill-rule:evenodd;stroke:none"
         id="path7" />
    </marker>
    <symbol
       id="id-8fc75951-a507-43dd-92ef-06d354d45b3d-5"
       overflow="visible">
      <path
         d="m 3.088379,3.9692383 q 0.6713866,0 0.8271483,0.1315917 0.1557617,0.131592 0.1772461,0.6203614 0.042969,0.053711 0.1745606,0.053711 0.131592,0 0.1853027,-0.053711 -0.021484,-0.5263674 -0.021484,-0.9506836 0,-0.3974609 0.021484,-0.9667968 Q 4.398926,2.75 4.267334,2.75 4.135742,2.75 4.0927734,2.803711 4.071289,3.099121 4.025635,3.2280273 3.9799805,3.3569336 3.7597656,3.4562988 3.5395508,3.555664 3.088379,3.555664 H 2.0893555 V 1.1225586 q 0,-0.38671876 0.1369629,-0.5397949 0.1369629,-0.1530762 0.4807129,-0.1530762 h 1.2729492 q 1.0473633,0 1.4448242,1.4394531 Q 5.623535,1.9121094 5.8061523,1.8154297 5.671875,0.9453125 5.4033203,-0.02148438 4.522461,0 3.9907227,0 H 1.6274414 q -0.6176758,0 -1.42871093,-0.02148438 -0.0429687,0.04296876 -0.0429687,0.17456055 0,0.1315918 0.0429687,0.18530273 0.61767578,0.0214844 0.78686523,0.1826172 0.1691895,0.1611328 0.1691895,0.8217773 v 4.409668 q 0,0.6606446 -0.1691895,0.8190916 -0.16918945,0.1584475 -0.78686523,0.179932 -0.0429687,0.042969 -0.0429687,0.177246 0,0.1342773 0.0429687,0.187988 Q 1.0795898,7.095215 1.6166992,7.095215 H 4.42041 q 0.284668,0 0.5424806,0.042969 0.042969,0 0.042969,-0.032227 Q 5.091797,6.7299805 5.2475586,5.510742 5.0703125,5.4248047 4.882324,5.4570313 4.6728516,6.117676 4.4418945,6.3862305 4.2109375,6.654785 3.6416016,6.654785 H 2.8144531 q -0.4296875,0 -0.5773926,-0.158447 Q 2.0893555,6.3378906 2.0893555,5.951172 V 3.9692383 Z"
         id="path24-2" />
    </symbol>
    <symbol
       id="id-0bb5c2b5-c925-4793-8710-23ef39222bfd-0"
       overflow="visible">
      <path
         d="m 2.0249023,3.9370117 q 0.7788087,0.8916016 1.8046875,0.8916016 0.6284182,0 0.9130862,-0.3759766 Q 5.038086,4.055176 5.038086,2.980957 V 1.3427734 q 0,-0.6499023 0.1262206,-0.8029785 Q 5.2905273,0.38671875 5.773926,0.3383789 5.816894,0.284668 5.816894,0.15307617 q 0,-0.13159179 -0.042968,-0.17456055 Q 5.1132813,0 4.6083984,0 4.1464844,0 3.4858398,-0.02148438 3.442871,0.03222656 3.442871,0.16381836 q 0,0.1315918 0.042969,0.17456054 0.4511719,0.0429688 0.5666502,0.1987305 0.1154788,0.1557617 0.1154788,0.805664 v 1.6704102 q 0,0.5854492 -0.1289063,0.8486328 Q 3.82959,4.2592773 3.4536135,4.2592773 2.7822268,4.2592773 2.11084,3.609375 1.9228516,3.3999023 1.9228516,3.147461 V 1.3427734 q 0,-0.6499023 0.1154784,-0.8029785 Q 2.1538086,0.38671875 2.5942383,0.3383789 2.637207,0.28466797 2.6398926,0.15307617 2.6425781,0.02148438 2.5942383,-0.02148438 1.9335938,0 1.4985352,0 0.9506836,0 0.28466797,-0.02148438 q -0.0429687,0.04296876 -0.0429687,0.17456055 0,0.1315918 0.0429687,0.18530273 0.515625,0.0429688 0.64453123,0.1933594 0.1289063,0.1503906 0.1289063,0.8110351 v 2.1430664 q 0,0.4619142 -0.12622073,0.5827637 Q 0.80566406,4.189453 0.3383789,4.232422 0.27392578,4.42041 0.31689453,4.5439453 1.1333008,4.651367 1.6704102,4.86084 q 0.085937,0 0.1342773,-0.085938 0.064453,-0.1342773 0.085937,-0.8378906 0,-0.1450195 0.1342778,3e-7 z"
         id="path25-0" />
    </symbol>
    <symbol
       id="id-5b5bf21c-9b82-42a5-b62c-77974c97cafd-3"
       overflow="visible">
      <path
         d="m 1.3642578,3.1044922 1.9926758,0.032227 q 0.1665039,0 0.1611328,0.1503906 0,0.6284179 -0.2685547,0.8916016 -0.2685547,0.2631835 -0.6445312,0.2631835 -0.1450195,0 -0.284668,-0.037598 Q 2.180664,4.366699 1.9765625,4.2458496 1.7724609,4.125 1.605957,3.8295898 1.4394531,3.5341797 1.3642578,3.1044922 Z M 4.248535,1.0205078 q 0.1879884,-0.010742 0.230957,-0.171875 -0.7358397,-0.95605467 -1.8745115,-0.95605467 -1.0903321,0 -1.6811524,0.70361327 -0.51562497,0.5961914 -0.51562497,1.6274414 0,1.1655274 0.69824217,1.8745117 0.6982422,0.7089845 1.4985352,0.7089845 1.8583985,0 1.8583985,-1.9121095 0,-0.1879882 -0.2041017,-0.1879882 l -2.927246,0.021484 q 0,-0.9238281 0.349121,-1.5092773 0.4833985,-0.7895508 1.203125,-0.7895508 0.4619141,0 0.7546387,0.1315918 0.2927246,0.1315918 0.609619,0.4592288 z"
         id="path26-9" />
    </symbol>
    <symbol
       id="id-76ce4091-a25c-4140-858e-7e35c354daa2-1"
       overflow="visible">
      <path
         d="m 1.9335938,3.9370117 q 0,-0.053711 0.034912,-0.075195 0.034912,-0.021484 0.088623,0.053711 0.2202148,0.3759767 0.545166,0.6445313 0.324951,0.2685547 0.6740722,0.2685547 0.3168945,0 0.4887695,-0.1691893 0.171875,-0.1691896 0.171875,-0.357178 0,-0.2094726 -0.1584472,-0.3813476 -0.1584473,-0.171875 -0.3571778,-0.171875 -0.2041015,0 -0.3974609,0.2578126 -0.1074218,0.1396484 -0.284668,0.1396484 -0.1342773,0 -0.5048828,-0.5371094 Q 1.9711914,3.211914 1.9711914,2.8735352 V 1.3427734 q 0,-0.6606445 0.1477051,-0.8083496 0.1477051,-0.14770505 0.7546387,-0.1960449 0.053711,-0.0537109 0.053711,-0.18530273 0,-0.13159179 -0.053711,-0.17456055 Q 2.1054688,0 1.5415039,0 1.0581055,0 0.28466797,-0.02148438 q -0.0429687,0.04296876 -0.0429687,0.17456055 0,0.1315918 0.0429687,0.18530273 0.53710937,0.0322266 0.67675783,0.1879883 0.1396484,0.1557617 0.1396484,0.8164062 v 2.1430664 q 0,0.4619142 -0.1262207,0.5827637 Q 0.8486328,4.189453 0.38671875,4.232422 0.32226563,4.42041 0.36523438,4.5439453 1.1816406,4.651367 1.7133789,4.86084 q 0.085937,0 0.1342774,-0.085938 0.053711,-0.1342773 0.085937,-0.8378903 z"
         id="path27-8" />
    </symbol>
    <symbol
       id="id-08472373-db2f-41ec-9cae-382b072b41ea-1"
       overflow="visible">
      <path
         d="m 3.5073242,3.0668945 q 0,0.6821289 -0.2739258,1.0527345 -0.2739257,0.3706054 -0.7895507,0.3706054 -0.8808594,0 -0.8808594,-1.1708984 0,-0.3061524 0.032226,-0.5317383 0.032227,-0.225586 0.1315918,-0.4619141 0.099365,-0.2363281 0.314209,-0.3625488 0.2148438,-0.1262207 0.5424804,-0.1262207 0.9238282,0 0.9238287,1.2299804 z M 1.4501953,-0.10742187 Q 1.1118164,-0.515625 1.1118164,-1.144043 q 0,-0.4941406 0.4619141,-0.7814941 0.461914,-0.2873535 0.859375,-0.2873535 0.515625,0 0.9990235,0.1342773 0.4833983,0.1342774 0.8190917,0.4189453 0.3356933,0.284668 0.3356933,0.66064456 0,0.20947264 -0.1208495,0.35180664 -0.1208495,0.142334 -0.4377442,0.33032227 -0.3383789,0.18798828 -1.3320313,0.18261719 -0.053711,0 -0.3303222,-0.0161133 -0.2766113,-0.0161133 -0.4753418,-0.0161133 -0.2416992,0.005371 -0.4404297,0.0590821 z M 4.882324,4.2592773 q -0.2094724,0 -0.306152,0.1933594 -0.085938,0.1342773 -0.220215,0.1342773 -0.09668,0 -0.236328,-0.088623 Q 3.9799805,4.409668 3.9155273,4.3237305 4.3881836,3.840332 4.3881836,3.1796875 q 0,-0.7680665 -0.545166,-1.2246094 -0.545166,-0.4565429 -1.3132324,-0.4565429 -0.6069336,0 -0.9990235,0.230957 Q 1.3320313,1.4555664 1.3320313,1.090332 q 0,-0.3168945 0.2094726,-0.4726562 0.2094727,-0.15576174 0.4941406,-0.15576174 l 0.3276368,0.0214844 q 0.4404297,0.053711 0.7412109,0.053711 1.1655273,0 1.6059568,-0.3598633 0.4833987,-0.39746094 0.4833987,-0.89160157 0,-0.56933589 -0.4672852,-1.01782219 Q 4.2592773,-2.180664 3.5583496,-2.3981934 2.8574219,-2.6157227 2.1000977,-2.6157227 q -0.7358399,0 -1.2407227,0.2954102 -0.5048828,0.2954102 -0.5048828,0.9560547 0,0.78955077 0.8969726,1.33203124 -0.50488277,0.2524414 -0.50488277,0.84863281 0,0.29541015 0.13159177,0.60961915 0.1315918,0.314209 0.3518067,0.4968262 -0.56933597,0.5478515 -0.56933597,1.2353515 0,0.7358399 0.56127927,1.2031249 0.5612793,0.4672853 1.3186035,0.4672853 0.682129,0 1.144043,-0.3061523 0.1987305,0.2631835 0.5290527,0.4108886 0.3303223,0.1477051 0.5720215,0.1477051 0.2202149,0 0.3625489,-0.1154787 0.1423339,-0.1154783 0.1423339,-0.2927244 0,-0.1665039 -0.1262207,-0.2900391 Q 5.038086,4.2592773 4.882324,4.2592773 Z"
         id="path28-9" />
    </symbol>
    <symbol
       id="id-6ba826d1-482d-42ec-bc10-3aeeec4dd9a8-5"
       overflow="visible">
      <path
         d="m 2.2451172,-1.7617188 q -0.4511719,-0.7895507 -1.0688477,-0.7895507 -0.2202148,0 -0.3679199,0.1154785 -0.14770507,0.1154785 -0.14770507,0.2927246 0,0.1450195 0.13696287,0.3088379 0.1369629,0.1638183 0.3464356,0.1638183 0.053711,0 0.147705,-0.016113 0.093994,-0.016113 0.1691895,-0.016113 0.3759766,0 0.5532227,0.3168945 0.2631836,0.5371094 0.4296875,1.00976564 Q 2.578125,0 2.288086,0.66064453 L 1.0419922,3.555664 Q 0.83251953,4.0444336 0.67407227,4.189453 0.515625,4.3344727 0.1772461,4.3774414 0.13427734,4.42041 0.13427734,4.552002 q 0,0.1315918 0.0429688,0.190674 0.4404297,-0.021485 0.89160156,-0.021485 0.4296875,0 1.2407226,0.021485 0.042969,-0.053711 0.042969,-0.1879885 0,-0.1342775 -0.042969,-0.1772461 Q 1.8798828,4.345215 1.8234863,4.1760254 1.7670898,4.006836 1.949707,3.663086 L 2.927246,1.375 Q 3.0615234,1.0634766 3.1904297,1.3642578 l 1.090332,2.519043 Q 4.404297,4.1464844 4.243164,4.2458496 4.0820313,4.345215 3.7490234,4.3774414 3.6953125,4.42041 3.6953125,4.552002 q 0,0.1315918 0.053711,0.190674 0.6606446,-0.021485 1.001709,-0.021485 0.3410646,0 0.7814942,0.021485 0.053711,-0.053711 0.053711,-0.1879885 0,-0.1342775 -0.053711,-0.1772461 Q 5.15625,4.3344727 4.9870605,4.1867676 4.817871,4.0390625 4.640625,3.6738281 3.834961,1.9335938 2.696289,-0.81640625 2.465332,-1.3642578 2.2451172,-1.7617188 Z"
         id="path29-3" />
    </symbol>
    <symbol
       id="id-29b98652-5645-473b-ba8d-112e07f2e1f3-1"
       overflow="visible">
      <path
         d="M 4.930664,6.751465 Q 4.8876953,6.7944336 4.88501,6.928711 4.882324,7.0629883 4.930664,7.116699 5.833008,7.095215 6.128418,7.095215 q 0.3061523,0 0.966797,0.021484 0.053711,-0.053711 0.053711,-0.1853025 0,-0.1315918 -0.053711,-0.1799315 Q 6.8481445,6.7246094 6.6708984,6.644043 6.4936523,6.5634766 6.370117,6.399658 6.246582,6.23584 6.182129,6.109619 6.117676,5.9833984 6.015625,5.730957 L 3.7382813,0.12353516 q -0.09668,-0.25244141 -0.2631836,-0.2578125 -0.1557617,0 -0.2524414,0.2578125 L 1.0527344,5.7524414 Q 0.81640625,6.359375 0.657959,6.536621 0.49951172,6.713867 0.06445312,6.751465 0.01074219,6.805176 0.01074219,6.934082 q 0,0.1289063 0.04296875,0.182617 0.72509766,-0.021484 1.14404296,-0.021484 0.4511719,0 1.3320313,0.021484 0.042969,-0.053711 0.042969,-0.1853025 0,-0.1315918 -0.042969,-0.1799315 Q 1.9765625,6.692383 1.8745117,6.5285645 1.7724609,6.364746 1.9711914,5.8759766 L 3.722168,1.3964844 H 3.775879 L 5.510742,5.8061523 Q 5.720215,6.257324 5.6101074,6.48291 5.5,6.708496 4.930664,6.751465 Z"
         id="path44-2" />
    </symbol>
    <symbol
       id="id-cca2e47e-99cb-463d-9349-bb8b6ed58bd6-5"
       overflow="visible">
      <path
         d="M 3.2226563,2.5620117 2.352539,2.3310547 Q 1.3051758,2.067871 1.3105469,1.1225586 q 0,-0.29541016 0.201416,-0.5397949 0.201416,-0.2443848 0.5881348,-0.2443848 0.3759765,0 0.9667968,0.48876954 0.1557618,0.12353516 0.1557618,0.28466796 z m 0,-2.0356445 H 3.2011719 L 2.980957,0.3544922 q -0.5961914,-0.46191407 -1.1977539,-0.46191407 -1.38574216,0 -1.38574216,1.18701167 0,0.5478516 0.49951172,0.9667969 0.49951174,0.4189453 1.31591794,0.628418 l 0.9453125,0.230957 q 0.064453,0.021484 0.064453,0.1289063 0,1.428711 -0.8916016,1.428711 -0.3652344,0 -0.6230469,-0.1154786 Q 1.4501953,4.232422 1.4501953,4.001465 q 0,-0.1557619 0.021484,-0.214844 0.032227,-0.064453 0.037598,-0.1987304 0,-0.1235351 -0.1503906,-0.2497558 Q 1.2084961,3.211914 0.98828125,3.211914 q -0.38671875,0 -0.38134765,0.397461 0,0.461914 0.5666504,0.840576 0.5666504,0.3786623 1.2487793,0.3786623 1.659668,0 1.659668,-1.8583985 V 1.3535156 q 0,-0.230957 0.00537,-0.3625488 Q 4.0927734,0.859375 4.125,0.7036133 4.1572266,0.54785156 4.2297363,0.48339844 4.302246,0.4189453 4.409668,0.4189453 q 0.1987304,0 0.408203,0.1772461 Q 4.973633,0.5102539 5.0058594,0.29541016 4.586914,-0.11279297 3.958496,-0.10742187 q -0.3759765,0 -0.5290526,0.16381835 Q 3.2763672,0.22021484 3.2226563,0.5263672 Z"
         id="path45-0" />
    </symbol>
    <symbol
       id="id-77a02b1e-2a23-417c-8348-2ae52cbd338c-8"
       overflow="visible">
      <path
         d="m 1.0473633,1.3427734 v 4.8071289 q 0,0.6069337 -0.11010744,0.7385254 Q 0.82714844,7.0200195 0.3383789,7.052246 0.21484375,7.1757813 0.27392578,7.379883 1.2514648,7.455078 1.8154297,7.680664 q 0.1450195,0 0.1450195,-0.112793 -0.042969,-0.4404296 -0.04834,-1.154785 V 1.3427734 q 0,-0.6606445 0.1396484,-0.81909176 Q 2.1914063,0.36523438 2.7070313,0.3383789 2.75,0.28466797 2.75,0.15307617 2.75,0.02148438 2.7070313,-0.02148438 1.9819336,0 1.4824219,0 1.0205078,0 0.2524414,-0.02148438 0.1987305,0.02148438 0.1987305,0.15307617 q 0,0.1315918 0.0537109,0.18530273 0.515625,0.0214844 0.65527344,0.1826172 0.13964846,0.1611328 0.13964846,0.8217773 z"
         id="path46-3" />
    </symbol>
    <symbol
       id="id-2822cad4-cfb6-4ce9-bce1-23acc7592169-9"
       overflow="visible">
      <path
         d="m 2.0249023,3.9370117 q 0.7788087,0.8916016 1.8046875,0.8916016 0.6284182,0 0.9130862,-0.3759766 Q 5.038086,4.055176 5.038086,2.980957 V 1.3427734 q 0,-0.6499023 0.1262206,-0.8029785 Q 5.2905273,0.38671875 5.773926,0.3383789 5.816894,0.284668 5.816894,0.15307617 q 0,-0.13159179 -0.042968,-0.17456055 Q 5.1132813,0 4.6083984,0 4.1464844,0 3.4858398,-0.02148438 3.442871,0.03222656 3.442871,0.16381836 q 0,0.1315918 0.042969,0.17456054 0.4511719,0.0429688 0.5666502,0.1987305 0.1154788,0.1557617 0.1154788,0.805664 v 1.6704102 q 0,0.5854492 -0.1289063,0.8486328 Q 3.82959,4.2592773 3.4536135,4.2592773 2.7822268,4.2592773 2.11084,3.609375 1.9228516,3.3999023 1.9228516,3.147461 V 1.3427734 q 0,-0.6499023 0.1154784,-0.8029785 Q 2.1538086,0.38671875 2.5942383,0.3383789 2.637207,0.28466797 2.6398926,0.15307617 2.6425781,0.02148438 2.5942383,-0.02148438 1.9335938,0 1.4985352,0 0.9506836,0 0.28466797,-0.02148438 q -0.0429687,0.04296876 -0.0429687,0.17456055 0,0.1315918 0.0429687,0.18530273 0.515625,0.0429688 0.64453123,0.1933594 0.1289063,0.1503906 0.1289063,0.8110351 v 2.1430664 q 0,0.4619142 -0.12622073,0.5827637 Q 0.80566406,4.189453 0.3383789,4.232422 0.27392578,4.42041 0.31689453,4.5439453 1.1333008,4.651367 1.6704102,4.86084 q 0.085937,0 0.1342773,-0.085938 0.064453,-0.1342773 0.085937,-0.8378906 0,-0.1450195 0.1342778,3e-7 z"
         id="path47-3" />
    </symbol>
    <symbol
       id="id-eab62835-afa5-4fcf-9c38-eaf85e9550b6-9"
       overflow="visible">
      <path
         d="M 4.3774414,0.99902344 Q 3.9907227,0.35986328 3.5637207,0.1262207 3.1367188,-0.10742187 2.583496,-0.10742187 q -1.0205077,0 -1.5979003,0.65258787 -0.57739257,0.6525879 -0.57739257,1.74292 0,1.1118163 0.69287107,1.826172 0.6928711,0.7143553 1.5629883,0.7143553 0.7788085,0 1.2299805,-0.2900393 0.451172,-0.290039 0.451172,-0.751953 0,-0.230957 -0.171875,-0.3598632 -0.171875,-0.1289062 -0.3652345,-0.1289062 -0.3759765,0 -0.4189453,0.3974609 -0.021484,0.2416992 -0.07251,0.3786621 Q 3.265625,4.2109375 3.0910645,4.337158 2.916504,4.463379 2.6049805,4.463379 2.057129,4.463379 1.7053223,3.9423828 1.3535156,3.4213867 1.3535156,2.5297852 q 0,-0.9453125 0.4296875,-1.5227051 0.4296875,-0.5773926 1.0419922,-0.5773926 0.7573242,0 1.3212891,0.7250977 0.1772461,-0.021484 0.230957,-0.15576176 z"
         id="path48-6" />
    </symbol>
    <symbol
       id="id-4ec21f67-d0bc-4548-ba98-269ad4a20e8e-7"
       overflow="visible">
      <path
         d="m 1.3642578,3.1044922 1.9926758,0.032227 q 0.1665039,0 0.1611328,0.1503906 0,0.6284179 -0.2685547,0.8916016 -0.2685547,0.2631835 -0.6445312,0.2631835 -0.1450195,0 -0.284668,-0.037598 Q 2.180664,4.366699 1.9765625,4.2458496 1.7724609,4.125 1.605957,3.8295898 1.4394531,3.5341797 1.3642578,3.1044922 Z M 4.248535,1.0205078 q 0.1879884,-0.010742 0.230957,-0.171875 -0.7358397,-0.95605467 -1.8745115,-0.95605467 -1.0903321,0 -1.6811524,0.70361327 -0.51562497,0.5961914 -0.51562497,1.6274414 0,1.1655274 0.69824217,1.8745117 0.6982422,0.7089845 1.4985352,0.7089845 1.8583985,0 1.8583985,-1.9121095 0,-0.1879882 -0.2041017,-0.1879882 l -2.927246,0.021484 q 0,-0.9238281 0.349121,-1.5092773 0.4833985,-0.7895508 1.203125,-0.7895508 0.4619141,0 0.7546387,0.1315918 0.2927246,0.1315918 0.609619,0.4592288 z"
         id="path49-9" />
    </symbol>
    <symbol
       id="id-29b98652-5645-473b-ba8d-112e07f2e1f3-5"
       overflow="visible">
      <path
         d="M 4.930664,6.751465 Q 4.8876953,6.7944336 4.88501,6.928711 4.882324,7.0629883 4.930664,7.116699 5.833008,7.095215 6.128418,7.095215 q 0.3061523,0 0.966797,0.021484 0.053711,-0.053711 0.053711,-0.1853025 0,-0.1315918 -0.053711,-0.1799315 Q 6.8481445,6.7246094 6.6708984,6.644043 6.4936523,6.5634766 6.370117,6.399658 6.246582,6.23584 6.182129,6.109619 6.117676,5.9833984 6.015625,5.730957 L 3.7382813,0.12353516 q -0.09668,-0.25244141 -0.2631836,-0.2578125 -0.1557617,0 -0.2524414,0.2578125 L 1.0527344,5.7524414 Q 0.81640625,6.359375 0.657959,6.536621 0.49951172,6.713867 0.06445312,6.751465 0.01074219,6.805176 0.01074219,6.934082 q 0,0.1289063 0.04296875,0.182617 0.72509766,-0.021484 1.14404296,-0.021484 0.4511719,0 1.3320313,0.021484 0.042969,-0.053711 0.042969,-0.1853025 0,-0.1315918 -0.042969,-0.1799315 Q 1.9765625,6.692383 1.8745117,6.5285645 1.7724609,6.364746 1.9711914,5.8759766 L 3.722168,1.3964844 H 3.775879 L 5.510742,5.8061523 Q 5.720215,6.257324 5.6101074,6.48291 5.5,6.708496 4.930664,6.751465 Z"
         id="path44-3" />
    </symbol>
    <symbol
       id="id-cca2e47e-99cb-463d-9349-bb8b6ed58bd6-2"
       overflow="visible">
      <path
         d="M 3.2226563,2.5620117 2.352539,2.3310547 Q 1.3051758,2.067871 1.3105469,1.1225586 q 0,-0.29541016 0.201416,-0.5397949 0.201416,-0.2443848 0.5881348,-0.2443848 0.3759765,0 0.9667968,0.48876954 0.1557618,0.12353516 0.1557618,0.28466796 z m 0,-2.0356445 H 3.2011719 L 2.980957,0.3544922 q -0.5961914,-0.46191407 -1.1977539,-0.46191407 -1.38574216,0 -1.38574216,1.18701167 0,0.5478516 0.49951172,0.9667969 0.49951174,0.4189453 1.31591794,0.628418 l 0.9453125,0.230957 q 0.064453,0.021484 0.064453,0.1289063 0,1.428711 -0.8916016,1.428711 -0.3652344,0 -0.6230469,-0.1154786 Q 1.4501953,4.232422 1.4501953,4.001465 q 0,-0.1557619 0.021484,-0.214844 0.032227,-0.064453 0.037598,-0.1987304 0,-0.1235351 -0.1503906,-0.2497558 Q 1.2084961,3.211914 0.98828125,3.211914 q -0.38671875,0 -0.38134765,0.397461 0,0.461914 0.5666504,0.840576 0.5666504,0.3786623 1.2487793,0.3786623 1.659668,0 1.659668,-1.8583985 V 1.3535156 q 0,-0.230957 0.00537,-0.3625488 Q 4.0927734,0.859375 4.125,0.7036133 4.1572266,0.54785156 4.2297363,0.48339844 4.302246,0.4189453 4.409668,0.4189453 q 0.1987304,0 0.408203,0.1772461 Q 4.973633,0.5102539 5.0058594,0.29541016 4.586914,-0.11279297 3.958496,-0.10742187 q -0.3759765,0 -0.5290526,0.16381835 Q 3.2763672,0.22021484 3.2226563,0.5263672 Z"
         id="path45-8" />
    </symbol>
    <symbol
       id="id-77a02b1e-2a23-417c-8348-2ae52cbd338c-2"
       overflow="visible">
      <path
         d="m 1.0473633,1.3427734 v 4.8071289 q 0,0.6069337 -0.11010744,0.7385254 Q 0.82714844,7.0200195 0.3383789,7.052246 0.21484375,7.1757813 0.27392578,7.379883 1.2514648,7.455078 1.8154297,7.680664 q 0.1450195,0 0.1450195,-0.112793 -0.042969,-0.4404296 -0.04834,-1.154785 V 1.3427734 q 0,-0.6606445 0.1396484,-0.81909176 Q 2.1914063,0.36523438 2.7070313,0.3383789 2.75,0.28466797 2.75,0.15307617 2.75,0.02148438 2.7070313,-0.02148438 1.9819336,0 1.4824219,0 1.0205078,0 0.2524414,-0.02148438 0.1987305,0.02148438 0.1987305,0.15307617 q 0,0.1315918 0.0537109,0.18530273 0.515625,0.0214844 0.65527344,0.1826172 0.13964846,0.1611328 0.13964846,0.8217773 z"
         id="path46-5" />
    </symbol>
    <symbol
       id="id-2822cad4-cfb6-4ce9-bce1-23acc7592169-3"
       overflow="visible">
      <path
         d="m 2.0249023,3.9370117 q 0.7788087,0.8916016 1.8046875,0.8916016 0.6284182,0 0.9130862,-0.3759766 Q 5.038086,4.055176 5.038086,2.980957 V 1.3427734 q 0,-0.6499023 0.1262206,-0.8029785 Q 5.2905273,0.38671875 5.773926,0.3383789 5.816894,0.284668 5.816894,0.15307617 q 0,-0.13159179 -0.042968,-0.17456055 Q 5.1132813,0 4.6083984,0 4.1464844,0 3.4858398,-0.02148438 3.442871,0.03222656 3.442871,0.16381836 q 0,0.1315918 0.042969,0.17456054 0.4511719,0.0429688 0.5666502,0.1987305 0.1154788,0.1557617 0.1154788,0.805664 v 1.6704102 q 0,0.5854492 -0.1289063,0.8486328 Q 3.82959,4.2592773 3.4536135,4.2592773 2.7822268,4.2592773 2.11084,3.609375 1.9228516,3.3999023 1.9228516,3.147461 V 1.3427734 q 0,-0.6499023 0.1154784,-0.8029785 Q 2.1538086,0.38671875 2.5942383,0.3383789 2.637207,0.28466797 2.6398926,0.15307617 2.6425781,0.02148438 2.5942383,-0.02148438 1.9335938,0 1.4985352,0 0.9506836,0 0.28466797,-0.02148438 q -0.0429687,0.04296876 -0.0429687,0.17456055 0,0.1315918 0.0429687,0.18530273 0.515625,0.0429688 0.64453123,0.1933594 0.1289063,0.1503906 0.1289063,0.8110351 v 2.1430664 q 0,0.4619142 -0.12622073,0.5827637 Q 0.80566406,4.189453 0.3383789,4.232422 0.27392578,4.42041 0.31689453,4.5439453 1.1333008,4.651367 1.6704102,4.86084 q 0.085937,0 0.1342773,-0.085938 0.064453,-0.1342773 0.085937,-0.8378906 0,-0.1450195 0.1342778,3e-7 z"
         id="path47-6" />
    </symbol>
    <symbol
       id="id-eab62835-afa5-4fcf-9c38-eaf85e9550b6-1"
       overflow="visible">
      <path
         d="M 4.3774414,0.99902344 Q 3.9907227,0.35986328 3.5637207,0.1262207 3.1367188,-0.10742187 2.583496,-0.10742187 q -1.0205077,0 -1.5979003,0.65258787 -0.57739257,0.6525879 -0.57739257,1.74292 0,1.1118163 0.69287107,1.826172 0.6928711,0.7143553 1.5629883,0.7143553 0.7788085,0 1.2299805,-0.2900393 0.451172,-0.290039 0.451172,-0.751953 0,-0.230957 -0.171875,-0.3598632 -0.171875,-0.1289062 -0.3652345,-0.1289062 -0.3759765,0 -0.4189453,0.3974609 -0.021484,0.2416992 -0.07251,0.3786621 Q 3.265625,4.2109375 3.0910645,4.337158 2.916504,4.463379 2.6049805,4.463379 2.057129,4.463379 1.7053223,3.9423828 1.3535156,3.4213867 1.3535156,2.5297852 q 0,-0.9453125 0.4296875,-1.5227051 0.4296875,-0.5773926 1.0419922,-0.5773926 0.7573242,0 1.3212891,0.7250977 0.1772461,-0.021484 0.230957,-0.15576176 z"
         id="path48-8" />
    </symbol>
    <symbol
       id="id-4ec21f67-d0bc-4548-ba98-269ad4a20e8e-6"
       overflow="visible">
      <path
         d="m 1.3642578,3.1044922 1.9926758,0.032227 q 0.1665039,0 0.1611328,0.1503906 0,0.6284179 -0.2685547,0.8916016 -0.2685547,0.2631835 -0.6445312,0.2631835 -0.1450195,0 -0.284668,-0.037598 Q 2.180664,4.366699 1.9765625,4.2458496 1.7724609,4.125 1.605957,3.8295898 1.4394531,3.5341797 1.3642578,3.1044922 Z M 4.248535,1.0205078 q 0.1879884,-0.010742 0.230957,-0.171875 -0.7358397,-0.95605467 -1.8745115,-0.95605467 -1.0903321,0 -1.6811524,0.70361327 -0.51562497,0.5961914 -0.51562497,1.6274414 0,1.1655274 0.69824217,1.8745117 0.6982422,0.7089845 1.4985352,0.7089845 1.8583985,0 1.8583985,-1.9121095 0,-0.1879882 -0.2041017,-0.1879882 l -2.927246,0.021484 q 0,-0.9238281 0.349121,-1.5092773 0.4833985,-0.7895508 1.203125,-0.7895508 0.4619141,0 0.7546387,0.1315918 0.2927246,0.1315918 0.609619,0.4592288 z"
         id="path49-2" />
    </symbol>
    <symbol
       id="id-ae3559ca-d190-43cd-bbf4-a533d10d09af-5"
       overflow="visible">
      <path
         d="m 1.8691406,3.9370117 q 0.010742,-0.1450195 0.1342774,0 0.7895508,0.8916016 1.6704101,0.8916016 0.4189453,0 0.7197266,-0.2282713 Q 4.694336,4.3720703 4.7749023,4.022949 4.801758,3.9155273 4.8930664,4.017578 5.661133,4.8286133 6.708496,4.8286133 q 0.671387,0 0.902344,-0.4511719 Q 7.841797,3.9262695 7.841797,3.0776367 V 1.3427734 q 0,-0.6606445 0.1154784,-0.81372067 Q 8.072754,0.37597656 8.54541,0.3383789 8.588379,0.28466797 8.588379,0.15307617 8.588379,0.02148438 8.54541,-0.02148438 7.9277344,0 7.4121094,0 6.8427734,0 6.289551,-0.02148438 6.246582,0.02148438 6.246582,0.15307617 q 0,0.1315918 0.042969,0.18530273 0.4511717,0.0322266 0.56665,0.1933594 0.1154787,0.1611328 0.1154787,0.8110351 v 1.9335938 q 0,0.5263672 -0.1638184,0.7546388 -0.1638183,0.2282713 -0.491455,0.2282713 -0.7895508,0 -1.4555663,-0.7304687 Q 4.871582,3.3945313 4.871582,3.088379 V 1.3427734 q 0,-0.6606445 0.1101075,-0.81372067 Q 5.091797,0.37597656 5.5214844,0.3383789 5.564453,0.28466797 5.564453,0.15844727 q 0,-0.12622071 -0.042969,-0.17993165 Q 4.973633,0 4.4418945,0 3.8725586,0 3.319336,-0.02148438 3.276367,0.03222656 3.276367,0.16381836 q 0,0.1315918 0.042969,0.17456054 Q 3.78125,0.3706055 3.8913574,0.5263672 4.001465,0.6821289 4.001465,1.3427734 v 1.9121094 q 0,0.9990235 -0.7250978,1.0043945 Q 2.75,4.2592773 2.0893555,3.609375 1.9013672,3.4106445 1.9013672,3.147461 V 1.3427734 q 0,-0.45654293 0.064453,-0.6552734 0.064453,-0.19873047 0.1826172,-0.2578125 0.1181641,-0.059082 0.4350585,-0.0913086 0.04834,-0.0483398 0.04834,-0.17993163 0,-0.1315918 -0.04834,-0.17993165 Q 1.9228516,0 1.4716797,0 0.9453125,0 0.28466797,-0.02148438 q -0.0429687,0.04296876 -0.0429687,0.17456055 0,0.1315918 0.0429687,0.18530273 Q 0.7680664,0.3706055 0.90234375,0.5317383 1.0366211,0.6928711 1.0366211,1.3427734 v 2.1430664 q 0,0.4619142 -0.12890626,0.5827637 Q 0.7788086,4.189453 0.31689453,4.232422 0.2524414,4.42041 0.29541016,4.5439453 1.1118164,4.651367 1.6489258,4.86084 q 0.085937,0 0.1342773,-0.085938 0.053711,-0.1235353 0.085937,-0.8378903 z"
         id="path109-9" />
    </symbol>
    <symbol
       id="id-85d8bdcb-718b-42ad-91ca-d96c763e1a4e-6"
       overflow="visible">
      <path
         d="m 1.3642578,3.1044922 1.9926758,0.032227 q 0.1665039,0 0.1611328,0.1503906 0,0.6284179 -0.2685547,0.8916016 -0.2685547,0.2631835 -0.6445312,0.2631835 -0.1450195,0 -0.284668,-0.037598 Q 2.180664,4.366699 1.9765625,4.2458496 1.7724609,4.125 1.605957,3.8295898 1.4394531,3.5341797 1.3642578,3.1044922 Z M 4.248535,1.0205078 q 0.1879884,-0.010742 0.230957,-0.171875 -0.7358397,-0.95605467 -1.8745115,-0.95605467 -1.0903321,0 -1.6811524,0.70361327 -0.51562497,0.5961914 -0.51562497,1.6274414 0,1.1655274 0.69824217,1.8745117 0.6982422,0.7089845 1.4985352,0.7089845 1.8583985,0 1.8583985,-1.9121095 0,-0.1879882 -0.2041017,-0.1879882 l -2.927246,0.021484 q 0,-0.9238281 0.349121,-1.5092773 0.4833985,-0.7895508 1.203125,-0.7895508 0.4619141,0 0.7546387,0.1315918 0.2927246,0.1315918 0.609619,0.4592288 z"
         id="path110-3" />
    </symbol>
    <symbol
       id="id-d253db54-5f92-4b5a-bbad-5ff716404acf-4"
       overflow="visible">
      <path
         d="m 0.47265625,4.7211914 h 0.50488281 q 0,0.4189453 -0.005371,0.6928711 -0.005371,0.2739258 -0.0107422,0.3571775 -0.005371,0.083252 -0.0107422,0.136963 -0.005371,0.053711 -0.005371,0.085938 0,0.080566 0.24169924,0.1503907 0.1933594,0.053711 0.3759766,0.1557617 0.1826172,0.09668 0.2416992,0.1020508 0.085937,0 0.085937,-0.09668 Q 1.8476563,5.8652344 1.8476563,5.145508 V 4.7211914 h 1.321289 q 0.085937,0 0.085937,-0.069824 V 4.4311523 q 0,-0.1450193 -0.2631836,-0.1396483 H 1.8476563 V 1.5092773 q 0,-0.53710933 0.077881,-0.776123 0.077881,-0.23901367 0.2873535,-0.23901367 0.5048828,0 0.9023438,0.31152343 Q 3.2817383,0.7949219 3.3085938,0.6176758 2.6586914,-0.10742187 1.8261719,-0.10742187 q -0.84863284,0 -0.84863284,1.08496093 V 4.291504 H 0.32763672 q -0.0537109,0 -0.0537109,0.064453 v 0.1450196 q 0,0.2202148 0.19873043,0.2202148 z"
         id="path111-2" />
    </symbol>
    <symbol
       id="id-2a711e6f-3d29-4645-ae79-f84e90c2aa73-8"
       overflow="visible">
      <path
         d="M 3.2226563,2.5620117 2.352539,2.3310547 Q 1.3051758,2.067871 1.3105469,1.1225586 q 0,-0.29541016 0.201416,-0.5397949 0.201416,-0.2443848 0.5881348,-0.2443848 0.3759765,0 0.9667968,0.48876954 0.1557618,0.12353516 0.1557618,0.28466796 z m 0,-2.0356445 H 3.2011719 L 2.980957,0.3544922 q -0.5961914,-0.46191407 -1.1977539,-0.46191407 -1.38574216,0 -1.38574216,1.18701167 0,0.5478516 0.49951172,0.9667969 0.49951174,0.4189453 1.31591794,0.628418 l 0.9453125,0.230957 q 0.064453,0.021484 0.064453,0.1289063 0,1.428711 -0.8916016,1.428711 -0.3652344,0 -0.6230469,-0.1154786 Q 1.4501953,4.232422 1.4501953,4.001465 q 0,-0.1557619 0.021484,-0.214844 0.032227,-0.064453 0.037598,-0.1987304 0,-0.1235351 -0.1503906,-0.2497558 Q 1.2084961,3.211914 0.98828125,3.211914 q -0.38671875,0 -0.38134765,0.397461 0,0.461914 0.5666504,0.840576 0.5666504,0.3786623 1.2487793,0.3786623 1.659668,0 1.659668,-1.8583985 V 1.3535156 q 0,-0.230957 0.00537,-0.3625488 Q 4.0927734,0.859375 4.125,0.7036133 4.1572266,0.54785156 4.2297363,0.48339844 4.302246,0.4189453 4.409668,0.4189453 q 0.1987304,0 0.408203,0.1772461 Q 4.973633,0.5102539 5.0058594,0.29541016 4.586914,-0.11279297 3.958496,-0.10742187 q -0.3759765,0 -0.5290526,0.16381835 Q 3.2763672,0.22021484 3.2226563,0.5263672 Z"
         id="path112-8" />
    </symbol>
    <symbol
       id="id-84ee90c3-cf79-4b76-bb4b-48fa188efe50-7"
       overflow="visible">
      <path
         d="m 1.0473633,1.3427734 v 4.8071289 q 0,0.6069337 -0.11010744,0.7385254 Q 0.82714844,7.0200195 0.3383789,7.052246 0.21484375,7.1757813 0.27392578,7.379883 1.2514648,7.455078 1.8154297,7.680664 q 0.1450195,0 0.1450195,-0.112793 -0.042969,-0.4404296 -0.04834,-1.154785 V 1.3427734 q 0,-0.6606445 0.1396484,-0.81909176 Q 2.1914063,0.36523438 2.7070313,0.3383789 2.75,0.28466797 2.75,0.15307617 2.75,0.02148438 2.7070313,-0.02148438 1.9819336,0 1.4824219,0 1.0205078,0 0.2524414,-0.02148438 0.1987305,0.02148438 0.1987305,0.15307617 q 0,0.1315918 0.0537109,0.18530273 0.515625,0.0214844 0.65527344,0.1826172 0.13964846,0.1611328 0.13964846,0.8217773 z"
         id="path113-5" />
    </symbol>
    <symbol
       id="id-2a448e32-3a85-4dc9-b1ca-cba1e9243dec-3"
       overflow="visible">
      <path
         d="m 0.5263672,1.5200195 q 0.0537109,0.053711 0.171875,0.053711 0.11816405,0 0.171875,-0.042969 Q 1.0473633,0.7841797 1.2998047,0.51831055 1.5522461,0.2524414 2.0786133,0.2524414 q 0.3544922,0 0.6445312,0.19873048 0.2900391,0.19873046 0.2900391,0.56933592 0,0.3652344 -0.2255859,0.5854492 Q 2.5620117,1.8261719 1.890625,2.1000977 1.2299805,2.3740234 0.9560547,2.6936035 0.6821289,3.0131836 0.6821289,3.5986328 q 0,0.5156252 0.4619141,0.8728027 0.461914,0.3571778 1.090332,0.3571778 0.2524414,0 0.515625,-0.037598 Q 3.0131836,4.753418 3.3059082,4.6916504 3.5986328,4.629883 3.6738281,4.6191406 3.6523438,4.0336914 3.609375,3.4536133 3.555664,3.3999023 3.432129,3.3999023 q -0.1235352,0 -0.1772462,0.042969 Q 3.2011719,3.7705078 3.0749512,3.9907227 2.9487305,4.2109375 2.7768555,4.3049316 2.6049805,4.398926 2.4787598,4.4311523 2.352539,4.463379 2.234375,4.463379 q -0.2954102,0 -0.5344238,-0.190674 -0.2390137,-0.1906737 -0.2390137,-0.5129394 0,-0.4135742 0.2497559,-0.604248 Q 1.9604492,2.9648438 2.5620117,2.7392578 3.8510742,2.2612305 3.8510742,1.2783203 3.8510742,0.89160156 3.668457,0.60424805 3.4858398,0.31689453 3.2011719,0.16918945 2.916504,0.02148438 2.6398926,-0.04296875 2.3632813,-0.10742187 2.1000977,-0.10742187 q -0.5371094,0 -0.9990235,0.11816406 Q 1.0258789,0.03222656 0.8808594,0.03222656 0.7734375,0.03222656 0.6069336,0 0.6015625,0.57470703 0.5263672,1.5200195 Z"
         id="path133-2" />
    </symbol>
    <symbol
       id="id-e5535a42-7c08-458a-8422-6cbc79eb9da2-1"
       overflow="visible">
      <path
         d="m 1.3642578,3.1044922 1.9926758,0.032227 q 0.1665039,0 0.1611328,0.1503906 0,0.6284179 -0.2685547,0.8916016 -0.2685547,0.2631835 -0.6445312,0.2631835 -0.1450195,0 -0.284668,-0.037598 Q 2.180664,4.366699 1.9765625,4.2458496 1.7724609,4.125 1.605957,3.8295898 1.4394531,3.5341797 1.3642578,3.1044922 Z M 4.248535,1.0205078 q 0.1879884,-0.010742 0.230957,-0.171875 -0.7358397,-0.95605467 -1.8745115,-0.95605467 -1.0903321,0 -1.6811524,0.70361327 -0.51562497,0.5961914 -0.51562497,1.6274414 0,1.1655274 0.69824217,1.8745117 0.6982422,0.7089845 1.4985352,0.7089845 1.8583985,0 1.8583985,-1.9121095 0,-0.1879882 -0.2041017,-0.1879882 l -2.927246,0.021484 q 0,-0.9238281 0.349121,-1.5092773 0.4833985,-0.7895508 1.203125,-0.7895508 0.4619141,0 0.7546387,0.1315918 0.2927246,0.1315918 0.609619,0.4592288 z"
         id="path134-1" />
    </symbol>
    <symbol
       id="id-b198d4f6-d3f8-4053-aecd-c009362082b4-3"
       overflow="visible">
      <path
         d="m 1.8691406,3.9370117 q 0.010742,-0.1450195 0.1342774,0 0.7895508,0.8916016 1.6704101,0.8916016 0.4189453,0 0.7197266,-0.2282713 Q 4.694336,4.3720703 4.7749023,4.022949 4.801758,3.9155273 4.8930664,4.017578 5.661133,4.8286133 6.708496,4.8286133 q 0.671387,0 0.902344,-0.4511719 Q 7.841797,3.9262695 7.841797,3.0776367 V 1.3427734 q 0,-0.6606445 0.1154784,-0.81372067 Q 8.072754,0.37597656 8.54541,0.3383789 8.588379,0.28466797 8.588379,0.15307617 8.588379,0.02148438 8.54541,-0.02148438 7.9277344,0 7.4121094,0 6.8427734,0 6.289551,-0.02148438 6.246582,0.02148438 6.246582,0.15307617 q 0,0.1315918 0.042969,0.18530273 0.4511717,0.0322266 0.56665,0.1933594 0.1154787,0.1611328 0.1154787,0.8110351 v 1.9335938 q 0,0.5263672 -0.1638184,0.7546388 -0.1638183,0.2282713 -0.491455,0.2282713 -0.7895508,0 -1.4555663,-0.7304687 Q 4.871582,3.3945313 4.871582,3.088379 V 1.3427734 q 0,-0.6606445 0.1101075,-0.81372067 Q 5.091797,0.37597656 5.5214844,0.3383789 5.564453,0.28466797 5.564453,0.15844727 q 0,-0.12622071 -0.042969,-0.17993165 Q 4.973633,0 4.4418945,0 3.8725586,0 3.319336,-0.02148438 3.276367,0.03222656 3.276367,0.16381836 q 0,0.1315918 0.042969,0.17456054 Q 3.78125,0.3706055 3.8913574,0.5263672 4.001465,0.6821289 4.001465,1.3427734 v 1.9121094 q 0,0.9990235 -0.7250978,1.0043945 Q 2.75,4.2592773 2.0893555,3.609375 1.9013672,3.4106445 1.9013672,3.147461 V 1.3427734 q 0,-0.45654293 0.064453,-0.6552734 0.064453,-0.19873047 0.1826172,-0.2578125 0.1181641,-0.059082 0.4350585,-0.0913086 0.04834,-0.0483398 0.04834,-0.17993163 0,-0.1315918 -0.04834,-0.17993165 Q 1.9228516,0 1.4716797,0 0.9453125,0 0.28466797,-0.02148438 q -0.0429687,0.04296876 -0.0429687,0.17456055 0,0.1315918 0.0429687,0.18530273 Q 0.7680664,0.3706055 0.90234375,0.5317383 1.0366211,0.6928711 1.0366211,1.3427734 v 2.1430664 q 0,0.4619142 -0.12890626,0.5827637 Q 0.7788086,4.189453 0.31689453,4.232422 0.2524414,4.42041 0.29541016,4.5439453 1.1118164,4.651367 1.6489258,4.86084 q 0.085937,0 0.1342773,-0.085938 0.053711,-0.1235353 0.085937,-0.8378903 z"
         id="path135-2" />
    </symbol>
    <symbol
       id="id-bc2770f1-448b-4612-9b3f-ea32fe891b4e-5"
       overflow="visible">
      <path
         d="m 0.98828125,6.590332 q 0,0.1987305 0.18798825,0.362549 0.1879883,0.163818 0.3867188,0.163818 0.2094726,0 0.3679199,-0.182617 Q 2.0893555,6.751465 2.0893555,6.5473633 2.0893555,6.359375 1.9147949,6.1875 1.7402344,6.015625 1.5200195,6.015625 q -0.1987304,0 -0.3652343,0.182617 -0.16650395,0.1826174 -0.16650395,0.39209 z M 1.9926758,1.3427734 q 0,-0.6606445 0.1315918,-0.81372067 0.1315918,-0.15307617 0.657959,-0.19067383 0.053711,-0.0537109 0.053711,-0.18530273 0,-0.13159179 -0.053711,-0.17456055 Q 2.057129,0 1.5629883,0 1.0581055,0 0.32763672,-0.02148438 q -0.0429687,0.04296876 -0.0429687,0.17456055 0,0.1315918 0.0429687,0.18530273 Q 0.8540039,0.3813477 0.98828125,0.5317383 1.1225586,0.6821289 1.1225586,1.3427734 v 2.1430664 q 0,0.4619142 -0.1262207,0.5827637 Q 0.8701172,4.189453 0.40820313,4.232422 0.34375,4.42041 0.38671875,4.5439453 1.4072266,4.6782227 1.890625,4.86084 q 0.1450195,0 0.1450195,-0.075195 -0.042969,-0.7036132 -0.042969,-1.2514648 z"
         id="path136-3" />
    </symbol>
    <symbol
       id="id-3f29479d-ebe0-460b-803a-b7bd22f44a64-5"
       overflow="visible">
      <path
         d="M 4.3774414,0.99902344 Q 3.9907227,0.35986328 3.5637207,0.1262207 3.1367188,-0.10742187 2.583496,-0.10742187 q -1.0205077,0 -1.5979003,0.65258787 -0.57739257,0.6525879 -0.57739257,1.74292 0,1.1118163 0.69287107,1.826172 0.6928711,0.7143553 1.5629883,0.7143553 0.7788085,0 1.2299805,-0.2900393 0.451172,-0.290039 0.451172,-0.751953 0,-0.230957 -0.171875,-0.3598632 -0.171875,-0.1289062 -0.3652345,-0.1289062 -0.3759765,0 -0.4189453,0.3974609 -0.021484,0.2416992 -0.07251,0.3786621 Q 3.265625,4.2109375 3.0910645,4.337158 2.916504,4.463379 2.6049805,4.463379 2.057129,4.463379 1.7053223,3.9423828 1.3535156,3.4213867 1.3535156,2.5297852 q 0,-0.9453125 0.4296875,-1.5227051 0.4296875,-0.5773926 1.0419922,-0.5773926 0.7573242,0 1.3212891,0.7250977 0.1772461,-0.021484 0.230957,-0.15576176 z"
         id="path137-1" />
    </symbol>
    <symbol
       id="id-08223049-3a76-4c7a-93b9-661798c31d4f-2"
       overflow="visible">
      <path
         d="m 0.45117188,2.2558594 q 0,1.090332 0.60693362,1.8046876 0.6552734,0.7680663 1.7241211,0.7680663 0.7895507,0 1.3347168,-0.3894043 0.545166,-0.3894043 0.7600096,-0.9291992 0.214844,-0.539795 0.214844,-1.1574708 0,-1.149414 -0.7143556,-1.8476562 -0.628418,-0.61767577 -1.6166992,-0.61230467 -1.1010742,0 -1.7053223,0.71435547 Q 0.45117188,1.3212891 0.45117188,2.2558594 Z M 2.6157227,4.4418945 q -1.2192383,0 -1.2192383,-1.9335937 0,-0.3544922 0.083252,-0.717041 Q 1.5629883,1.4287109 1.7268066,1.0769043 1.890625,0.72509766 2.199463,0.49951172 2.5083008,0.27392578 2.916504,0.27392578 q 0.4833983,0 0.8566894,0.39746092 0.373291,0.397461 0.373291,1.3320313 0,1.1762695 -0.4082031,1.807373 -0.4082032,0.6311035 -1.1225586,0.6311035 z"
         id="path138-2" />
    </symbol>
    <symbol
       id="id-145f7e8a-8d4e-4202-aa95-fe6e21d21687-2"
       overflow="visible">
      <path
         d="m 2.0249023,3.9370117 q 0.7788087,0.8916016 1.8046875,0.8916016 0.6284182,0 0.9130862,-0.3759766 Q 5.038086,4.055176 5.038086,2.980957 V 1.3427734 q 0,-0.6499023 0.1262206,-0.8029785 Q 5.2905273,0.38671875 5.773926,0.3383789 5.816894,0.284668 5.816894,0.15307617 q 0,-0.13159179 -0.042968,-0.17456055 Q 5.1132813,0 4.6083984,0 4.1464844,0 3.4858398,-0.02148438 3.442871,0.03222656 3.442871,0.16381836 q 0,0.1315918 0.042969,0.17456054 0.4511719,0.0429688 0.5666502,0.1987305 0.1154788,0.1557617 0.1154788,0.805664 v 1.6704102 q 0,0.5854492 -0.1289063,0.8486328 Q 3.82959,4.2592773 3.4536135,4.2592773 2.7822268,4.2592773 2.11084,3.609375 1.9228516,3.3999023 1.9228516,3.147461 V 1.3427734 q 0,-0.6499023 0.1154784,-0.8029785 Q 2.1538086,0.38671875 2.5942383,0.3383789 2.637207,0.28466797 2.6398926,0.15307617 2.6425781,0.02148438 2.5942383,-0.02148438 1.9335938,0 1.4985352,0 0.9506836,0 0.28466797,-0.02148438 q -0.0429687,0.04296876 -0.0429687,0.17456055 0,0.1315918 0.0429687,0.18530273 0.515625,0.0429688 0.64453123,0.1933594 0.1289063,0.1503906 0.1289063,0.8110351 v 2.1430664 q 0,0.4619142 -0.12622073,0.5827637 Q 0.80566406,4.189453 0.3383789,4.232422 0.27392578,4.42041 0.31689453,4.5439453 1.1333008,4.651367 1.6704102,4.86084 q 0.085937,0 0.1342773,-0.085938 0.064453,-0.1342773 0.085937,-0.8378906 0,-0.1450195 0.1342778,3e-7 z"
         id="path139-6" />
    </symbol>
    <symbol
       id="id-abce91eb-21fa-440f-a90f-4a0a4adf7500-4"
       overflow="visible">
      <path
         d="m 3.7973633,1.3642578 v 2.0893555 q 0,0.2524414 -0.034912,0.3571777 Q 3.727539,3.9155273 3.609375,4.0498047 3.270996,4.4472656 2.7177734,4.4418945 2.057129,4.4418945 1.6918945,3.894043 1.375,3.442871 1.375,2.4331055 1.375,1.4663086 1.7375488,0.93725586 2.1000977,0.40820313 2.583496,0.40820313 q 0.4296876,0 1.0366212,0.52636717 0.1772461,0.1557617 0.1772461,0.4296875 z M 3.6738281,0.55322266 q -0.8056641,-0.66064453 -1.375,-0.66064453 -0.8701172,0 -1.3696289,0.64721677 -0.4995117,0.6472168 -0.4995117,1.6945801 0,1.1762695 0.7573242,1.9335938 0.6928711,0.6606445 1.6489258,0.6606445 0.1665039,0 0.3652344,-0.04834 0.1987304,-0.04834 0.3410644,-0.093994 0.142334,-0.045654 0.1530762,-0.045654 0.09668,0 0.1020508,0.102051 v 1.4072263 q 0,0.3544922 -0.018799,0.5290527 -0.018799,0.1745606 -0.1396485,0.2578126 -0.1208496,0.083252 -0.1853027,0.088623 -0.064453,0.00537 -0.3652343,0.026855 -0.1235352,0.1235353 -0.064453,0.327637 0.9775392,0.075195 1.5415039,0.300781 0.1450193,0 0.1450193,-0.112793 -0.042968,-0.4404296 -0.04834,-1.154785 v -4.984375 q 0,-0.42968746 0.1503906,-0.5935058 Q 4.9628902,0.6713867 5.467773,0.62841797 5.521484,0.57470707 5.521484,0.4753418 q 0,-0.0993652 -0.053711,-0.14770508 -0.8808594,-0.0966797 -1.2998046,-0.43505859 -0.09668,-0.0429688 -0.2094728,0 -0.09668,0.38671875 -0.118164,0.64453127 -0.010742,0.0537109 -0.067139,0.0537109 -0.056396,0 -0.099364,-0.0375976 z"
         id="path140-0" />
    </symbol>
    <symbol
       id="id-eaea5a26-16ea-471a-ae70-ba6e7037e3fa-7"
       overflow="visible">
      <path
         d="m 2.3847656,-0.10742187 q -0.7573242,0 -1.0876465,0.42163085 Q 0.9667969,0.73583984 0.9667969,1.3857422 V 3.496582 q 0,0.515625 -0.1369629,0.682129 -0.1369629,0.166504 -0.54516603,0.1987304 -0.0429687,0.042969 -0.0429687,0.1745606 0,0.1315918 0.0429687,0.190674 Q 1.03125,4.721191 1.4072266,4.721191 q 0.2739257,0 0.3867187,0.021485 0.085937,0 0.085937,-0.069824 Q 1.8369141,3.8671875 1.8369141,3.5395508 V 1.5415039 q 0,-0.64990234 0.2685547,-0.89160156 0.2685546,-0.24169921 0.6123046,-0.24169921 0.4941406,0 1.1010743,0.52636717 0.1772461,0.1557617 0.171875,0.4296875 v 2.121582 q 0,0.5263672 -0.1315918,0.6982422 Q 3.727539,4.355957 3.3085938,4.3774414 3.2548828,4.42041 3.2548828,4.552002 q 0,0.1315918 0.053711,0.190674 0.7465822,-0.021485 1.1225585,-0.021485 0.2739257,0 0.3867187,0.021485 0.085938,0 0.085938,-0.069824 Q 4.86084,3.8671875 4.86084,3.5395508 V 1.4287109 q 0,-0.42968746 0.1503905,-0.5935058 Q 5.161621,0.6713867 5.666504,0.62841797 5.720215,0.57470703 5.720215,0.4753418 q 0,-0.0993652 -0.053711,-0.14770508 -0.8808595,-0.0966797 -1.299805,-0.43505859 -0.096679,-0.0429688 -0.2094724,0 Q 4.060547,0.2685547 4.0390625,0.5371094 4.0283203,0.5908203 3.9719238,0.58813477 3.9155273,0.5854492 3.8725586,0.54785156 3.0561523,-0.10742187 2.3847656,-0.10742187 Z"
         id="path141-0" />
    </symbol>
    <symbol
       id="id-a830b53a-caa3-4e2d-8e36-62cac3a2e88c-3"
       overflow="visible">
      <path
         d="m 0.47265625,4.7211914 h 0.50488281 q 0,0.4189453 -0.005371,0.6928711 -0.005371,0.2739258 -0.0107422,0.3571775 -0.005371,0.083252 -0.0107422,0.136963 -0.005371,0.053711 -0.005371,0.085938 0,0.080566 0.24169924,0.1503907 0.1933594,0.053711 0.3759766,0.1557617 0.1826172,0.09668 0.2416992,0.1020508 0.085937,0 0.085937,-0.09668 Q 1.8476563,5.8652344 1.8476563,5.145508 V 4.7211914 h 1.321289 q 0.085937,0 0.085937,-0.069824 V 4.4311523 q 0,-0.1450193 -0.2631836,-0.1396483 H 1.8476563 V 1.5092773 q 0,-0.53710933 0.077881,-0.776123 0.077881,-0.23901367 0.2873535,-0.23901367 0.5048828,0 0.9023438,0.31152343 Q 3.2817383,0.7949219 3.3085938,0.6176758 2.6586914,-0.10742187 1.8261719,-0.10742187 q -0.84863284,0 -0.84863284,1.08496093 V 4.291504 H 0.32763672 q -0.0537109,0 -0.0537109,0.064453 v 0.1450196 q 0,0.2202148 0.19873043,0.2202148 z"
         id="path142-4" />
    </symbol>
    <symbol
       id="id-376e5326-4996-496d-8dce-e01a251fca02-0"
       overflow="visible">
      <path
         d="m 1.9335938,3.9370117 q 0,-0.053711 0.034912,-0.075195 0.034912,-0.021484 0.088623,0.053711 0.2202148,0.3759767 0.545166,0.6445313 0.324951,0.2685547 0.6740722,0.2685547 0.3168945,0 0.4887695,-0.1691893 0.171875,-0.1691896 0.171875,-0.357178 0,-0.2094726 -0.1584472,-0.3813476 -0.1584473,-0.171875 -0.3571778,-0.171875 -0.2041015,0 -0.3974609,0.2578126 -0.1074218,0.1396484 -0.284668,0.1396484 -0.1342773,0 -0.5048828,-0.5371094 Q 1.9711914,3.211914 1.9711914,2.8735352 V 1.3427734 q 0,-0.6606445 0.1477051,-0.8083496 0.1477051,-0.14770505 0.7546387,-0.1960449 0.053711,-0.0537109 0.053711,-0.18530273 0,-0.13159179 -0.053711,-0.17456055 Q 2.1054688,0 1.5415039,0 1.0581055,0 0.28466797,-0.02148438 q -0.0429687,0.04296876 -0.0429687,0.17456055 0,0.1315918 0.0429687,0.18530273 0.53710937,0.0322266 0.67675783,0.1879883 0.1396484,0.1557617 0.1396484,0.8164062 v 2.1430664 q 0,0.4619142 -0.1262207,0.5827637 Q 0.8486328,4.189453 0.38671875,4.232422 0.32226563,4.42041 0.36523438,4.5439453 1.1816406,4.651367 1.7133789,4.86084 q 0.085937,0 0.1342774,-0.085938 0.053711,-0.1342773 0.085937,-0.8378903 z"
         id="path143-0" />
    </symbol>
    <symbol
       id="id-ae3559ca-d190-43cd-bbf4-a533d10d09af-1"
       overflow="visible">
      <path
         d="m 1.8691406,3.9370117 q 0.010742,-0.1450195 0.1342774,0 0.7895508,0.8916016 1.6704101,0.8916016 0.4189453,0 0.7197266,-0.2282713 Q 4.694336,4.3720703 4.7749023,4.022949 4.801758,3.9155273 4.8930664,4.017578 5.661133,4.8286133 6.708496,4.8286133 q 0.671387,0 0.902344,-0.4511719 Q 7.841797,3.9262695 7.841797,3.0776367 V 1.3427734 q 0,-0.6606445 0.1154784,-0.81372067 Q 8.072754,0.37597656 8.54541,0.3383789 8.588379,0.28466797 8.588379,0.15307617 8.588379,0.02148438 8.54541,-0.02148438 7.9277344,0 7.4121094,0 6.8427734,0 6.289551,-0.02148438 6.246582,0.02148438 6.246582,0.15307617 q 0,0.1315918 0.042969,0.18530273 0.4511717,0.0322266 0.56665,0.1933594 0.1154787,0.1611328 0.1154787,0.8110351 v 1.9335938 q 0,0.5263672 -0.1638184,0.7546388 -0.1638183,0.2282713 -0.491455,0.2282713 -0.7895508,0 -1.4555663,-0.7304687 Q 4.871582,3.3945313 4.871582,3.088379 V 1.3427734 q 0,-0.6606445 0.1101075,-0.81372067 Q 5.091797,0.37597656 5.5214844,0.3383789 5.564453,0.28466797 5.564453,0.15844727 q 0,-0.12622071 -0.042969,-0.17993165 Q 4.973633,0 4.4418945,0 3.8725586,0 3.319336,-0.02148438 3.276367,0.03222656 3.276367,0.16381836 q 0,0.1315918 0.042969,0.17456054 Q 3.78125,0.3706055 3.8913574,0.5263672 4.001465,0.6821289 4.001465,1.3427734 v 1.9121094 q 0,0.9990235 -0.7250978,1.0043945 Q 2.75,4.2592773 2.0893555,3.609375 1.9013672,3.4106445 1.9013672,3.147461 V 1.3427734 q 0,-0.45654293 0.064453,-0.6552734 0.064453,-0.19873047 0.1826172,-0.2578125 0.1181641,-0.059082 0.4350585,-0.0913086 0.04834,-0.0483398 0.04834,-0.17993163 0,-0.1315918 -0.04834,-0.17993165 Q 1.9228516,0 1.4716797,0 0.9453125,0 0.28466797,-0.02148438 q -0.0429687,0.04296876 -0.0429687,0.17456055 0,0.1315918 0.0429687,0.18530273 Q 0.7680664,0.3706055 0.90234375,0.5317383 1.0366211,0.6928711 1.0366211,1.3427734 v 2.1430664 q 0,0.4619142 -0.12890626,0.5827637 Q 0.7788086,4.189453 0.31689453,4.232422 0.2524414,4.42041 0.29541016,4.5439453 1.1118164,4.651367 1.6489258,4.86084 q 0.085937,0 0.1342773,-0.085938 0.053711,-0.1235353 0.085937,-0.8378903 z"
         id="path109-6" />
    </symbol>
    <symbol
       id="id-85d8bdcb-718b-42ad-91ca-d96c763e1a4e-8"
       overflow="visible">
      <path
         d="m 1.3642578,3.1044922 1.9926758,0.032227 q 0.1665039,0 0.1611328,0.1503906 0,0.6284179 -0.2685547,0.8916016 -0.2685547,0.2631835 -0.6445312,0.2631835 -0.1450195,0 -0.284668,-0.037598 Q 2.180664,4.366699 1.9765625,4.2458496 1.7724609,4.125 1.605957,3.8295898 1.4394531,3.5341797 1.3642578,3.1044922 Z M 4.248535,1.0205078 q 0.1879884,-0.010742 0.230957,-0.171875 -0.7358397,-0.95605467 -1.8745115,-0.95605467 -1.0903321,0 -1.6811524,0.70361327 -0.51562497,0.5961914 -0.51562497,1.6274414 0,1.1655274 0.69824217,1.8745117 0.6982422,0.7089845 1.4985352,0.7089845 1.8583985,0 1.8583985,-1.9121095 0,-0.1879882 -0.2041017,-0.1879882 l -2.927246,0.021484 q 0,-0.9238281 0.349121,-1.5092773 0.4833985,-0.7895508 1.203125,-0.7895508 0.4619141,0 0.7546387,0.1315918 0.2927246,0.1315918 0.609619,0.4592288 z"
         id="path110-31" />
    </symbol>
    <symbol
       id="id-d253db54-5f92-4b5a-bbad-5ff716404acf-48"
       overflow="visible">
      <path
         d="m 0.47265625,4.7211914 h 0.50488281 q 0,0.4189453 -0.005371,0.6928711 -0.005371,0.2739258 -0.0107422,0.3571775 -0.005371,0.083252 -0.0107422,0.136963 -0.005371,0.053711 -0.005371,0.085938 0,0.080566 0.24169924,0.1503907 0.1933594,0.053711 0.3759766,0.1557617 0.1826172,0.09668 0.2416992,0.1020508 0.085937,0 0.085937,-0.09668 Q 1.8476563,5.8652344 1.8476563,5.145508 V 4.7211914 h 1.321289 q 0.085937,0 0.085937,-0.069824 V 4.4311523 q 0,-0.1450193 -0.2631836,-0.1396483 H 1.8476563 V 1.5092773 q 0,-0.53710933 0.077881,-0.776123 0.077881,-0.23901367 0.2873535,-0.23901367 0.5048828,0 0.9023438,0.31152343 Q 3.2817383,0.7949219 3.3085938,0.6176758 2.6586914,-0.10742187 1.8261719,-0.10742187 q -0.84863284,0 -0.84863284,1.08496093 V 4.291504 H 0.32763672 q -0.0537109,0 -0.0537109,0.064453 v 0.1450196 q 0,0.2202148 0.19873043,0.2202148 z"
         id="path111-4" />
    </symbol>
    <symbol
       id="id-2a711e6f-3d29-4645-ae79-f84e90c2aa73-9"
       overflow="visible">
      <path
         d="M 3.2226563,2.5620117 2.352539,2.3310547 Q 1.3051758,2.067871 1.3105469,1.1225586 q 0,-0.29541016 0.201416,-0.5397949 0.201416,-0.2443848 0.5881348,-0.2443848 0.3759765,0 0.9667968,0.48876954 0.1557618,0.12353516 0.1557618,0.28466796 z m 0,-2.0356445 H 3.2011719 L 2.980957,0.3544922 q -0.5961914,-0.46191407 -1.1977539,-0.46191407 -1.38574216,0 -1.38574216,1.18701167 0,0.5478516 0.49951172,0.9667969 0.49951174,0.4189453 1.31591794,0.628418 l 0.9453125,0.230957 q 0.064453,0.021484 0.064453,0.1289063 0,1.428711 -0.8916016,1.428711 -0.3652344,0 -0.6230469,-0.1154786 Q 1.4501953,4.232422 1.4501953,4.001465 q 0,-0.1557619 0.021484,-0.214844 0.032227,-0.064453 0.037598,-0.1987304 0,-0.1235351 -0.1503906,-0.2497558 Q 1.2084961,3.211914 0.98828125,3.211914 q -0.38671875,0 -0.38134765,0.397461 0,0.461914 0.5666504,0.840576 0.5666504,0.3786623 1.2487793,0.3786623 1.659668,0 1.659668,-1.8583985 V 1.3535156 q 0,-0.230957 0.00537,-0.3625488 Q 4.0927734,0.859375 4.125,0.7036133 4.1572266,0.54785156 4.2297363,0.48339844 4.302246,0.4189453 4.409668,0.4189453 q 0.1987304,0 0.408203,0.1772461 Q 4.973633,0.5102539 5.0058594,0.29541016 4.586914,-0.11279297 3.958496,-0.10742187 q -0.3759765,0 -0.5290526,0.16381835 Q 3.2763672,0.22021484 3.2226563,0.5263672 Z"
         id="path112-2" />
    </symbol>
    <symbol
       id="id-84ee90c3-cf79-4b76-bb4b-48fa188efe50-0"
       overflow="visible">
      <path
         d="m 1.0473633,1.3427734 v 4.8071289 q 0,0.6069337 -0.11010744,0.7385254 Q 0.82714844,7.0200195 0.3383789,7.052246 0.21484375,7.1757813 0.27392578,7.379883 1.2514648,7.455078 1.8154297,7.680664 q 0.1450195,0 0.1450195,-0.112793 -0.042969,-0.4404296 -0.04834,-1.154785 V 1.3427734 q 0,-0.6606445 0.1396484,-0.81909176 Q 2.1914063,0.36523438 2.7070313,0.3383789 2.75,0.28466797 2.75,0.15307617 2.75,0.02148438 2.7070313,-0.02148438 1.9819336,0 1.4824219,0 1.0205078,0 0.2524414,-0.02148438 0.1987305,0.02148438 0.1987305,0.15307617 q 0,0.1315918 0.0537109,0.18530273 0.515625,0.0214844 0.65527344,0.1826172 0.13964846,0.1611328 0.13964846,0.8217773 z"
         id="path113-7" />
    </symbol>
    <symbol
       id="id-a23ac601-2e9f-480e-9323-46b3776c03d7-3"
       overflow="visible">
      <path
         d="m 0.45117188,2.2558594 q 0,1.090332 0.60693362,1.8046876 0.6552734,0.7680663 1.7241211,0.7680663 0.7895507,0 1.3347168,-0.3894043 0.545166,-0.3894043 0.7600096,-0.9291992 0.214844,-0.539795 0.214844,-1.1574708 0,-1.149414 -0.7143556,-1.8476562 -0.628418,-0.61767577 -1.6166992,-0.61230467 -1.1010742,0 -1.7053223,0.71435547 Q 0.45117188,1.3212891 0.45117188,2.2558594 Z M 2.6157227,4.4418945 q -1.2192383,0 -1.2192383,-1.9335937 0,-0.3544922 0.083252,-0.717041 Q 1.5629883,1.4287109 1.7268066,1.0769043 1.890625,0.72509766 2.199463,0.49951172 2.5083008,0.27392578 2.916504,0.27392578 q 0.4833983,0 0.8566894,0.39746092 0.373291,0.397461 0.373291,1.3320313 0,1.1762695 -0.4082031,1.807373 -0.4082032,0.6311035 -1.1225586,0.6311035 z"
         id="path187-0" />
    </symbol>
    <symbol
       id="id-37b6c90c-2b54-4b6c-b37a-3ad538f6e1c5-2"
       overflow="visible">
      <path
         d="M 3.5771484,4.3774414 Q 3.5234375,4.42041 3.520752,4.552002 3.5180664,4.6835938 3.5771484,4.742676 4.125,4.7211914 4.586914,4.7211914 q 0.327637,0 0.7680665,0.021485 Q 5.4086914,4.688965 5.411377,4.5546875 5.4140625,4.42041 5.3549805,4.3774414 4.936035,4.3398438 4.7668457,4.1679688 4.5976563,3.9960938 4.415039,3.5664063 L 2.9487305,0.12353516 q -0.1074219,-0.25244141 -0.2631836,-0.2578125 -0.1879883,0 -0.2739259,0.23095703 L 1.0043945,3.5771484 Q 0.82177734,4.0390625 0.6767578,4.184082 0.5317383,4.3291016 0.12353516,4.3774414 0.06982422,4.42041 0.06713867,4.552002 0.06445312,4.6835938 0.12353516,4.742676 0.7841797,4.7211914 1.144043,4.7211914 q 0.3867187,0 1.1118164,0.021485 0.053711,-0.053711 0.053711,-0.1879885 0,-0.1342775 -0.053711,-0.1772461 Q 1.8422852,4.3237305 1.7912598,4.178711 1.7402344,4.0336914 1.9121094,3.6416016 L 2.7070313,1.5200195 Q 2.8413086,1.1816406 2.9111328,1.1682129 2.980957,1.1547852 3.1152344,1.4824219 L 4.001465,3.6416016 Q 4.178711,4.060547 4.0981445,4.202881 4.017578,4.345215 3.5771484,4.3774414 Z"
         id="path188-2" />
    </symbol>
    <symbol
       id="id-4d64d0cb-1176-44c9-be65-f1add02b8292-3"
       overflow="visible">
      <path
         d="m 1.3642578,3.1044922 1.9926758,0.032227 q 0.1665039,0 0.1611328,0.1503906 0,0.6284179 -0.2685547,0.8916016 -0.2685547,0.2631835 -0.6445312,0.2631835 -0.1450195,0 -0.284668,-0.037598 Q 2.180664,4.366699 1.9765625,4.2458496 1.7724609,4.125 1.605957,3.8295898 1.4394531,3.5341797 1.3642578,3.1044922 Z M 4.248535,1.0205078 q 0.1879884,-0.010742 0.230957,-0.171875 -0.7358397,-0.95605467 -1.8745115,-0.95605467 -1.0903321,0 -1.6811524,0.70361327 -0.51562497,0.5961914 -0.51562497,1.6274414 0,1.1655274 0.69824217,1.8745117 0.6982422,0.7089845 1.4985352,0.7089845 1.8583985,0 1.8583985,-1.9121095 0,-0.1879882 -0.2041017,-0.1879882 l -2.927246,0.021484 q 0,-0.9238281 0.349121,-1.5092773 0.4833985,-0.7895508 1.203125,-0.7895508 0.4619141,0 0.7546387,0.1315918 0.2927246,0.1315918 0.609619,0.4592288 z"
         id="path189-6" />
    </symbol>
    <symbol
       id="id-1089cb21-6370-49e8-a377-cbe6230b5ab6-7"
       overflow="visible">
      <path
         d="m 1.9335938,3.9370117 q 0,-0.053711 0.034912,-0.075195 0.034912,-0.021484 0.088623,0.053711 0.2202148,0.3759767 0.545166,0.6445313 0.324951,0.2685547 0.6740722,0.2685547 0.3168945,0 0.4887695,-0.1691893 0.171875,-0.1691896 0.171875,-0.357178 0,-0.2094726 -0.1584472,-0.3813476 -0.1584473,-0.171875 -0.3571778,-0.171875 -0.2041015,0 -0.3974609,0.2578126 -0.1074218,0.1396484 -0.284668,0.1396484 -0.1342773,0 -0.5048828,-0.5371094 Q 1.9711914,3.211914 1.9711914,2.8735352 V 1.3427734 q 0,-0.6606445 0.1477051,-0.8083496 0.1477051,-0.14770505 0.7546387,-0.1960449 0.053711,-0.0537109 0.053711,-0.18530273 0,-0.13159179 -0.053711,-0.17456055 Q 2.1054688,0 1.5415039,0 1.0581055,0 0.28466797,-0.02148438 q -0.0429687,0.04296876 -0.0429687,0.17456055 0,0.1315918 0.0429687,0.18530273 0.53710937,0.0322266 0.67675783,0.1879883 0.1396484,0.1557617 0.1396484,0.8164062 v 2.1430664 q 0,0.4619142 -0.1262207,0.5827637 Q 0.8486328,4.189453 0.38671875,4.232422 0.32226563,4.42041 0.36523438,4.5439453 1.1816406,4.651367 1.7133789,4.86084 q 0.085937,0 0.1342774,-0.085938 0.053711,-0.1342773 0.085937,-0.8378903 z"
         id="path190-1" />
    </symbol>
    <symbol
       id="id-b5528462-94ba-4fec-93e4-fed215e295de-5"
       overflow="visible">
      <path
         d="m 1.0473633,1.3427734 v 4.8071289 q 0,0.6069337 -0.11010744,0.7385254 Q 0.82714844,7.0200195 0.3383789,7.052246 0.21484375,7.1757813 0.27392578,7.379883 1.2514648,7.455078 1.8154297,7.680664 q 0.1450195,0 0.1450195,-0.112793 -0.042969,-0.4404296 -0.04834,-1.154785 V 1.3427734 q 0,-0.6606445 0.1396484,-0.81909176 Q 2.1914063,0.36523438 2.7070313,0.3383789 2.75,0.28466797 2.75,0.15307617 2.75,0.02148438 2.7070313,-0.02148438 1.9819336,0 1.4824219,0 1.0205078,0 0.2524414,-0.02148438 0.1987305,0.02148438 0.1987305,0.15307617 q 0,0.1315918 0.0537109,0.18530273 0.515625,0.0214844 0.65527344,0.1826172 0.13964846,0.1611328 0.13964846,0.8217773 z"
         id="path191-5" />
    </symbol>
    <symbol
       id="id-e0372fa1-f265-46c9-a0b2-687d4b0a8710-4"
       overflow="visible">
      <path
         d="M 3.2226563,2.5620117 2.352539,2.3310547 Q 1.3051758,2.067871 1.3105469,1.1225586 q 0,-0.29541016 0.201416,-0.5397949 0.201416,-0.2443848 0.5881348,-0.2443848 0.3759765,0 0.9667968,0.48876954 0.1557618,0.12353516 0.1557618,0.28466796 z m 0,-2.0356445 H 3.2011719 L 2.980957,0.3544922 q -0.5961914,-0.46191407 -1.1977539,-0.46191407 -1.38574216,0 -1.38574216,1.18701167 0,0.5478516 0.49951172,0.9667969 0.49951174,0.4189453 1.31591794,0.628418 l 0.9453125,0.230957 q 0.064453,0.021484 0.064453,0.1289063 0,1.428711 -0.8916016,1.428711 -0.3652344,0 -0.6230469,-0.1154786 Q 1.4501953,4.232422 1.4501953,4.001465 q 0,-0.1557619 0.021484,-0.214844 0.032227,-0.064453 0.037598,-0.1987304 0,-0.1235351 -0.1503906,-0.2497558 Q 1.2084961,3.211914 0.98828125,3.211914 q -0.38671875,0 -0.38134765,0.397461 0,0.461914 0.5666504,0.840576 0.5666504,0.3786623 1.2487793,0.3786623 1.659668,0 1.659668,-1.8583985 V 1.3535156 q 0,-0.230957 0.00537,-0.3625488 Q 4.0927734,0.859375 4.125,0.7036133 4.1572266,0.54785156 4.2297363,0.48339844 4.302246,0.4189453 4.409668,0.4189453 q 0.1987304,0 0.408203,0.1772461 Q 4.973633,0.5102539 5.0058594,0.29541016 4.586914,-0.11279297 3.958496,-0.10742187 q -0.3759765,0 -0.5290526,0.16381835 Q 3.2763672,0.22021484 3.2226563,0.5263672 Z"
         id="path192-0" />
    </symbol>
    <symbol
       id="id-2944dfac-5851-41cf-ad49-527fc81fc873-2"
       overflow="visible">
      <path
         d="M 1.9228516,3.6416016 Q 1.7456055,3.4213867 1.7509766,3.1582031 V 1.1547852 q 0,-0.2900391 0.045654,-0.397461 Q 1.8422852,0.64990234 2.0141602,0.49414063 2.2719727,0.2631836 2.7929688,0.2631836 q 0.4404296,0 0.7600097,0.18261718 0.3195801,0.18261719 0.4833985,0.49414062 0.1638183,0.3115234 0.236328,0.6418457 0.07251,0.3303223 0.07251,0.7062989 0,0.9023437 -0.3786623,1.468994 -0.3786621,0.5666505 -0.9318847,0.5666505 -0.230957,0 -0.5612793,-0.2041015 Q 2.1430664,3.9155273 1.9228516,3.6416016 Z M 1.7133789,4.0498047 q 0.010742,-0.1665039 0.1235352,-0.04834 0.7358399,0.8271483 1.5092773,0.8271483 0.8271486,0 1.3857422,-0.6713867 0.5585937,-0.6713868 0.5585937,-1.5737306 0,-1.2890624 -0.8110353,-2.0786132 -0.6499022,-0.61767577 -1.6220701,-0.61230467 -0.5371094,0 -0.9560547,0.1665039 Q 1.8154297,0.10205078 1.7832031,0.09130859 1.7509766,0.08056641 1.7509766,-0.02148438 V -1.2084961 q 0,-0.6606445 0.147705,-0.8164062 0.1477051,-0.1557617 0.7546387,-0.1879883 0.053711,-0.053711 0.053711,-0.1853028 0,-0.1315918 -0.053711,-0.1745606 -0.7250976,0.021485 -1.3320312,0.021485 -0.4619141,0 -1.2353516,-0.021485 -0.04296875,0.042969 -0.04296875,0.1745606 0,0.1315918 0.04296875,0.1853028 0.515625,0.021484 0.65527344,0.1826172 0.13964846,0.1611328 0.13964846,0.8217773 v 4.6943359 q 0,0.4619142 -0.1262207,0.5827637 Q 0.62841797,4.189453 0.1665039,4.232422 0.10205078,4.42041 0.14501953,4.5439453 0.9614258,4.651367 1.4985352,4.86084 q 0.085937,0 0.1289062,-0.085938 0.053711,-0.1289063 0.085937,-0.7250973 z"
         id="path193-6" />
    </symbol>
  </defs>
  <g
     inkscape:label="Layer 1"
     inkscape:groupmode="layer"
     id="layer1">
    <rect
       style="opacity:0.710297;fill:#f04612;fill-opacity:1;stroke:none;stroke-width:0;stroke-dasharray:none;stroke-opacity:1;paint-order:stroke markers fill"
       id="rect9"
       width="94.520035"
       height="85.189018"
       x="50.118896"
       y="129.57956" />
    <rect
       style="opacity:0.710297;fill:#f04612;fill-opacity:1;stroke:none;stroke-width:0;stroke-dasharray:none;stroke-opacity:1;paint-order:stroke markers fill"
       id="rect10"
       width="94.520035"
       height="85.189018"
       x="175.75256"
       y="153.28566" />
    <rect
       style="opacity:0.710297;fill:#f04612;fill-opacity:1;stroke:none;stroke-width:0;stroke-dasharray:none;stroke-opacity:1;paint-order:stroke markers fill"
       id="rect11"
       width="94.520035"
       height="85.189018"
       x="301.80582"
       y="176.15099" />
    <path
       style="fill:none;stroke:#000001;stroke-width:0;stroke-dasharray:none;marker-end:url(#ConcaveTriangle);paint-order:stroke markers fill"
       d="M 27.834283,254.58967 28.349647,31.437185"
       id="path2" />
    <path
       style="fill:none;stroke:#000001;stroke-width:3;stroke-dasharray:none;marker-end:url(#marker6);paint-order:stroke markers fill"
       d="M 27.834283,254.58967 V 46.898096"
       id="path3" />
    <rect
       style="opacity:0.74171;fill:#8223e8;fill-opacity:1;stroke:none;stroke-width:4.27868;stroke-dasharray:none;paint-order:stroke markers fill"
       id="rect12"
       width="94.520035"
       height="85.189018"
       x="50.118896"
       y="67.667091" />
    <rect
       style="opacity:0.74171;fill:#8223e8;fill-opacity:1;stroke:none;stroke-width:4.27868;stroke-dasharray:none;paint-order:stroke markers fill"
       id="rect13"
       width="94.520035"
       height="85.189018"
       x="175.75256"
       y="45.865143" />
    <rect
       style="opacity:0.74171;fill:#8223e8;fill-opacity:1;stroke:none;stroke-width:4.27868;stroke-dasharray:none;paint-order:stroke markers fill"
       id="rect14"
       width="94.520035"
       height="85.189018"
       x="301.80582"
       y="26.397408" />
    <path
       style="opacity:1;fill:#f04612;fill-opacity:1;stroke:#06060b;stroke-width:0.967929;stroke-dasharray:1.93586, 0.967929;stroke-dashoffset:0;stroke-opacity:1;paint-order:stroke markers fill"
       d="m 28.826042,142.73972 370.458678,0.54742 v 0 0"
       id="path15" />
    <path
       style="opacity:1;fill:#f04612;fill-opacity:1;stroke:#06060b;stroke-width:1;stroke-dasharray:none;stroke-dashoffset:0;stroke-opacity:1;marker-end:url(#marker216);paint-order:stroke markers fill"
       d="m 348.63721,144.81774 -0.12926,25.47179"
       id="path215" />
    <path
       style="opacity:1;fill:#f04612;fill-opacity:1;stroke:#06060b;stroke-width:1;stroke-dasharray:none;stroke-dashoffset:0;stroke-opacity:1;marker-end:url(#marker219);paint-order:stroke markers fill"
       d="m 349.46587,126.1472 -0.18107,-8.95132"
       id="path218" />
    <text
       xml:space="preserve"
       style="font-style:normal;font-variant:normal;font-weight:normal;font-stretch:normal;font-size:14.1111px;font-family:sans-serif;-inkscape-font-specification:'sans-serif, Normal';font-variant-ligatures:normal;font-variant-caps:normal;font-variant-numeric:normal;font-variant-east-asian:normal;text-align:start;writing-mode:lr-tb;direction:ltr;text-anchor:start;fill:#07060c;fill-opacity:1;stroke:#08080e;stroke-width:0.5;stroke-dasharray:none;stroke-dashoffset:0;stroke-opacity:1;paint-order:stroke markers fill"
       x="438.12131"
       y="137.65741"
       id="text221-7-3-9"
       transform="scale(0.93254032,1.0723397)"><tspan
         sodipodi:role="line"
         id="tspan224"
         x="438.12131"
         y="137.65741">Fermi Energy</tspan></text>
    <text
       xml:space="preserve"
       style="font-style:normal;font-variant:normal;font-weight:normal;font-stretch:normal;font-size:14.1111px;font-family:sans-serif;-inkscape-font-specification:'sans-serif, Normal';font-variant-ligatures:normal;font-variant-caps:normal;font-variant-numeric:normal;font-variant-east-asian:normal;text-align:start;writing-mode:lr-tb;direction:ltr;text-anchor:start;fill:#07060c;fill-opacity:1;stroke:#08080e;stroke-width:0.5;stroke-dasharray:none;stroke-dashoffset:0;stroke-opacity:1;paint-order:stroke markers fill"
       x="4.7554932"
       y="22.562628"
       id="text221-7-3-9-9"
       transform="scale(0.93254032,1.0723397)"><tspan
         sodipodi:role="line"
         id="tspan1"
         x="4.7554932"
         y="22.562628">Energy</tspan></text>
    <text
       xml:space="preserve"
       style="font-style:normal;font-variant:normal;font-weight:normal;font-stretch:normal;font-size:14.1111px;font-family:sans-serif;-inkscape-font-specification:'sans-serif, Normal';font-variant-ligatures:normal;font-variant-caps:normal;font-variant-numeric:normal;font-variant-east-asian:normal;text-align:start;writing-mode:lr-tb;direction:ltr;text-anchor:start;fill:#07060c;fill-opacity:1;stroke:#08080e;stroke-width:0.5;stroke-dasharray:none;stroke-dashoffset:0;stroke-opacity:1;paint-order:stroke markers fill"
       x="436.93616"
       y="63.868416"
       id="text221-7-3-9-4"
       transform="scale(0.93254032,1.0723397)"><tspan
         sodipodi:role="line"
         id="tspan2"
         x="436.93616"
         y="63.868416">conduction</tspan><tspan
         sodipodi:role="line"
         id="tspan3"
         x="436.93616"
         y="81.507294">     band</tspan></text>
    <text
       xml:space="preserve"
       style="font-style:normal;font-variant:normal;font-weight:normal;font-stretch:normal;font-size:14.1111px;font-family:sans-serif;-inkscape-font-specification:'sans-serif, Normal';font-variant-ligatures:normal;font-variant-caps:normal;font-variant-numeric:normal;font-variant-east-asian:normal;text-align:start;writing-mode:lr-tb;direction:ltr;text-anchor:start;fill:#07060c;fill-opacity:1;stroke:#08080e;stroke-width:0.5;stroke-dasharray:none;stroke-dashoffset:0;stroke-opacity:1;paint-order:stroke markers fill"
       x="448.508"
       y="197.92937"
       id="text221-7-3-9-4-5"
       transform="scale(0.93254032,1.0723397)"><tspan
         sodipodi:role="line"
         id="tspan4"
         x="448.508"
         y="197.92937">valence</tspan><tspan
         sodipodi:role="line"
         id="tspan5"
         x="448.508"
         y="215.56824">  band</tspan></text>
    <text
       xml:space="preserve"
       style="font-style:normal;font-variant:normal;font-weight:normal;font-stretch:normal;font-size:14.1111px;font-family:sans-serif;-inkscape-font-specification:'sans-serif, Normal';font-variant-ligatures:normal;font-variant-caps:normal;font-variant-numeric:normal;font-variant-east-asian:normal;text-align:start;writing-mode:lr-tb;direction:ltr;text-anchor:start;fill:#07060c;fill-opacity:1;stroke:#08080e;stroke-width:0.5;stroke-dasharray:none;stroke-dashoffset:0;stroke-opacity:1;paint-order:stroke markers fill"
       x="343.97177"
       y="266.44406"
       id="text221-7-3-9-4-2"
       transform="scale(0.93254032,1.0723397)"><tspan
         sodipodi:role="line"
         id="tspan6"
         x="343.97177"
         y="266.44406">insulator</tspan></text>
    <text
       xml:space="preserve"
       style="font-style:normal;font-variant:normal;font-weight:normal;font-stretch:normal;font-size:14.1111px;font-family:sans-serif;-inkscape-font-specification:'sans-serif, Normal';font-variant-ligatures:normal;font-variant-caps:normal;font-variant-numeric:normal;font-variant-east-asian:normal;text-align:start;writing-mode:lr-tb;direction:ltr;text-anchor:start;fill:#07060c;fill-opacity:1;stroke:#08080e;stroke-width:0.5;stroke-dasharray:none;stroke-dashoffset:0;stroke-opacity:1;paint-order:stroke markers fill"
       x="186.10861"
       y="266.91177"
       id="text7"
       transform="scale(0.93254032,1.0723397)"><tspan
         sodipodi:role="line"
         id="tspan7"
         x="186.10861"
         y="266.91177">semiconductor</tspan></text>
    <text
       xml:space="preserve"
       style="font-style:normal;font-variant:normal;font-weight:normal;font-stretch:normal;font-size:14.1111px;font-family:sans-serif;-inkscape-font-specification:'sans-serif, Normal';font-variant-ligatures:normal;font-variant-caps:normal;font-variant-numeric:normal;font-variant-east-asian:normal;text-align:start;writing-mode:lr-tb;direction:ltr;text-anchor:start;fill:#07060c;fill-opacity:1;stroke:#08080e;stroke-width:0.5;stroke-dasharray:none;stroke-dashoffset:0;stroke-opacity:1;paint-order:stroke markers fill"
       x="83.941948"
       y="266.33493"
       id="text8"
       transform="scale(0.93254032,1.0723397)"><tspan
         sodipodi:role="line"
         id="tspan8"
         x="83.941948"
         y="266.33493">metal</tspan></text>
    <text
       xml:space="preserve"
       style="font-style:normal;font-variant:normal;font-weight:normal;font-stretch:normal;font-size:14.1111px;font-family:sans-serif;-inkscape-font-specification:'sans-serif, Normal';font-variant-ligatures:normal;font-variant-caps:normal;font-variant-numeric:normal;font-variant-east-asian:normal;text-align:start;writing-mode:lr-tb;direction:ltr;text-anchor:start;fill:#07060c;fill-opacity:1;stroke:#08080e;stroke-width:0.5;stroke-dasharray:none;stroke-dashoffset:0;stroke-opacity:1;paint-order:stroke markers fill"
       x="78.215607"
       y="137.03317"
       id="text8-0"
       transform="scale(0.93254032,1.0723397)"><tspan
         sodipodi:role="line"
         id="tspan9"
         x="78.215607"
         y="137.03317">overlap</tspan></text>
    <text
       xml:space="preserve"
       style="font-style:normal;font-variant:normal;font-weight:normal;font-stretch:normal;font-size:14.1111px;font-family:sans-serif;-inkscape-font-specification:'sans-serif, Normal';font-variant-ligatures:normal;font-variant-caps:normal;font-variant-numeric:normal;font-variant-east-asian:normal;text-align:start;writing-mode:lr-tb;direction:ltr;text-anchor:start;fill:#07060c;fill-opacity:1;stroke:#08080e;stroke-width:0.5;stroke-dasharray:none;stroke-dashoffset:0;stroke-opacity:1;paint-order:stroke markers fill"
       x="340.87399"
       y="131.16434"
       id="text8-0-1"
       transform="scale(0.93254032,1.0723397)"><tspan
         sodipodi:role="line"
         id="tspan10"
         x="340.87399"
         y="131.16434">band gap</tspan></text>
  </g>
</svg>
