<?xml version="1.0" encoding="utf-8" standalone="no"?>
<!DOCTYPE svg PUBLIC "-//W3C//DTD SVG 1.1//EN"
  "http://www.w3.org/Graphics/SVG/1.1/DTD/svg11.dtd">
<svg xmlns:xlink="http://www.w3.org/1999/xlink" width="460.8pt" height="345.6pt" viewBox="0 0 460.8 345.6" xmlns="http://www.w3.org/2000/svg" version="1.1">
 <metadata>
  <rdf:RDF xmlns:dc="http://purl.org/dc/elements/1.1/" xmlns:cc="http://creativecommons.org/ns#" xmlns:rdf="http://www.w3.org/1999/02/22-rdf-syntax-ns#">
   <cc:Work>
    <dc:type rdf:resource="http://purl.org/dc/dcmitype/StillImage"/>
    <dc:date>2025-05-02T08:51:13.852000</dc:date>
    <dc:format>image/svg+xml</dc:format>
    <dc:creator>
     <cc:Agent>
      <dc:title>Matplotlib v3.8.4, https://matplotlib.org/</dc:title>
     </cc:Agent>
    </dc:creator>
   </cc:Work>
  </rdf:RDF>
 </metadata>
 <defs>
  <style type="text/css">*{stroke-linejoin: round; stroke-linecap: butt}</style>
 </defs>
 <g id="figure_1">
  <g id="patch_1">
   <path d="M 0 345.6 
L 460.8 345.6 
L 460.8 0 
L 0 0 
z
" style="fill: #ffffff"/>
  </g>
  <g id="axes_1">
   <g id="patch_2">
    <path d="M 57.6 307.584 
L 414.72 307.584 
L 414.72 41.472 
L 57.6 41.472 
z
" style="fill: #ffffff"/>
   </g>
   <g id="PolyCollection_1">
    <defs>
     <path id="m694731053e" d="M 73.944672 -55.98182 
L 73.944672 -55.98182 
L 77.142924 -58.353464 
L 80.341175 -60.725108 
L 83.539427 -63.096753 
L 86.737679 -65.468397 
L 89.935931 -67.840041 
L 93.134183 -70.211685 
L 96.332434 -72.58333 
L 99.530686 -74.954974 
L 102.728938 -77.326618 
L 105.92719 -79.698263 
L 109.125442 -82.069907 
L 112.323693 -84.441551 
L 115.521945 -86.813195 
L 118.720197 -89.18484 
L 121.918449 -91.556484 
L 125.116701 -93.928128 
L 128.314952 -96.299773 
L 131.513204 -98.671417 
L 134.711456 -101.043061 
L 137.909708 -103.414706 
L 141.107959 -105.78635 
L 144.306211 -108.157994 
L 147.504463 -110.529638 
L 150.702715 -112.901283 
L 153.900967 -115.272927 
L 157.099218 -117.644571 
L 160.29747 -120.016216 
L 163.495722 -122.38786 
L 166.693974 -124.759504 
L 169.892226 -127.131149 
L 173.090477 -129.502793 
L 176.288729 -131.874437 
L 179.486981 -134.246081 
L 182.685233 -136.617726 
L 185.883485 -138.98937 
L 189.081736 -141.361014 
L 192.279988 -143.732659 
L 195.47824 -146.104303 
L 198.676492 -148.475947 
L 201.874744 -150.847592 
L 205.072995 -153.219236 
L 208.271247 -155.59088 
L 211.469499 -157.962524 
L 214.667751 -160.334169 
L 217.866003 -162.705813 
L 221.064254 -165.077457 
L 224.262506 -167.449102 
L 227.460758 -169.820746 
L 230.65901 -172.19239 
L 233.857262 -174.564034 
L 237.055513 -176.935679 
L 240.253765 -179.307323 
L 243.452017 -181.678967 
L 246.650269 -184.050612 
L 249.848521 -186.422256 
L 253.046772 -188.7939 
L 256.245024 -191.165545 
L 259.443276 -193.537189 
L 262.641528 -195.908833 
L 265.83978 -198.280477 
L 269.038031 -200.652122 
L 272.236283 -203.023766 
L 275.434535 -205.39541 
L 278.632787 -207.767055 
L 281.831038 -210.138699 
L 285.02929 -212.510343 
L 288.227542 -214.881988 
L 291.425794 -217.253632 
L 294.624046 -219.625276 
L 297.822297 -221.99692 
L 301.020549 -224.368565 
L 304.218801 -226.740209 
L 307.417053 -229.111853 
L 310.615305 -231.483498 
L 313.813556 -233.855142 
L 317.011808 -236.226786 
L 320.21006 -238.59843 
L 323.408312 -240.970075 
L 326.606564 -243.341719 
L 329.804815 -245.713363 
L 333.003067 -248.085008 
L 336.201319 -250.456652 
L 339.399571 -252.828296 
L 342.597823 -255.199941 
L 345.796074 -257.571585 
L 348.994326 -259.943229 
L 352.192578 -262.314873 
L 355.39083 -264.686518 
L 358.589082 -267.058162 
L 361.787333 -269.429806 
L 364.985585 -271.801451 
L 368.183837 -274.173095 
L 371.382089 -276.544739 
L 374.580341 -278.916384 
L 377.778592 -281.288028 
L 380.976844 -283.659672 
L 384.175096 -286.031316 
L 387.373348 -288.402961 
L 390.5716 -290.774605 
L 390.5716 -55.98182 
L 390.5716 -55.98182 
L 387.373348 -55.98182 
L 384.175096 -55.98182 
L 380.976844 -55.98182 
L 377.778592 -55.98182 
L 374.580341 -55.98182 
L 371.382089 -55.98182 
L 368.183837 -55.98182 
L 364.985585 -55.98182 
L 361.787333 -55.98182 
L 358.589082 -55.98182 
L 355.39083 -55.98182 
L 352.192578 -55.98182 
L 348.994326 -55.98182 
L 345.796074 -55.98182 
L 342.597823 -55.98182 
L 339.399571 -55.98182 
L 336.201319 -55.98182 
L 333.003067 -55.98182 
L 329.804815 -55.98182 
L 326.606564 -55.98182 
L 323.408312 -55.98182 
L 320.21006 -55.98182 
L 317.011808 -55.98182 
L 313.813556 -55.98182 
L 310.615305 -55.98182 
L 307.417053 -55.98182 
L 304.218801 -55.98182 
L 301.020549 -55.98182 
L 297.822297 -55.98182 
L 294.624046 -55.98182 
L 291.425794 -55.98182 
L 288.227542 -55.98182 
L 285.02929 -55.98182 
L 281.831038 -55.98182 
L 278.632787 -55.98182 
L 275.434535 -55.98182 
L 272.236283 -55.98182 
L 269.038031 -55.98182 
L 265.83978 -55.98182 
L 262.641528 -55.98182 
L 259.443276 -55.98182 
L 256.245024 -55.98182 
L 253.046772 -55.98182 
L 249.848521 -55.98182 
L 246.650269 -55.98182 
L 243.452017 -55.98182 
L 240.253765 -55.98182 
L 237.055513 -55.98182 
L 233.857262 -55.98182 
L 230.65901 -55.98182 
L 227.460758 -55.98182 
L 224.262506 -55.98182 
L 221.064254 -55.98182 
L 217.866003 -55.98182 
L 214.667751 -55.98182 
L 211.469499 -55.98182 
L 208.271247 -55.98182 
L 205.072995 -55.98182 
L 201.874744 -55.98182 
L 198.676492 -55.98182 
L 195.47824 -55.98182 
L 192.279988 -55.98182 
L 189.081736 -55.98182 
L 185.883485 -55.98182 
L 182.685233 -55.98182 
L 179.486981 -55.98182 
L 176.288729 -55.98182 
L 173.090477 -55.98182 
L 169.892226 -55.98182 
L 166.693974 -55.98182 
L 163.495722 -55.98182 
L 160.29747 -55.98182 
L 157.099218 -55.98182 
L 153.900967 -55.98182 
L 150.702715 -55.98182 
L 147.504463 -55.98182 
L 144.306211 -55.98182 
L 141.107959 -55.98182 
L 137.909708 -55.98182 
L 134.711456 -55.98182 
L 131.513204 -55.98182 
L 128.314952 -55.98182 
L 125.116701 -55.98182 
L 121.918449 -55.98182 
L 118.720197 -55.98182 
L 115.521945 -55.98182 
L 112.323693 -55.98182 
L 109.125442 -55.98182 
L 105.92719 -55.98182 
L 102.728938 -55.98182 
L 99.530686 -55.98182 
L 96.332434 -55.98182 
L 93.134183 -55.98182 
L 89.935931 -55.98182 
L 86.737679 -55.98182 
L 83.539427 -55.98182 
L 80.341175 -55.98182 
L 77.142924 -55.98182 
L 73.944672 -55.98182 
z
" style="stroke: #000000; stroke-opacity: 0.5"/>
    </defs>
    <g clip-path="url(#pcf12c2df47)">
     <use xlink:href="#m694731053e" x="0" y="345.6" style="fill: #ffff00; fill-opacity: 0.5; stroke: #000000; stroke-opacity: 0.5"/>
    </g>
   </g>
   <g id="patch_3">
    <path d="M 153.101404 289.61818 
C 153.101404 281.910004 151.053861 274.27678 147.075956 267.155353 
C 143.098051 260.033927 137.267144 253.562792 129.916934 248.112288 
" clip-path="url(#pcf12c2df47)" style="fill: none; stroke: #000000; stroke-linejoin: miter"/>
   </g>
   <g id="patch_4">
    <path d="M 392.267244 53.568 
L 386.670018 66.019768 
L 381.184736 61.95219 
L 74.056616 289.701192 
L 73.832727 289.535169 
L 380.960847 61.786167 
L 375.475566 57.718589 
z
" clip-path="url(#pcf12c2df47)" style="stroke: #000000; stroke-linejoin: miter; stroke-linecap: round"/>
   </g>
   <g id="patch_5">
    <path d="M 390.5716 61.869179 
L 398.487273 73.608818 
L 390.729913 73.608818 
L 390.729913 289.61818 
L 390.413286 289.61818 
L 390.413286 73.608818 
L 382.655926 73.608818 
z
" clip-path="url(#pcf12c2df47)" style="stroke: #000000; stroke-linejoin: miter; stroke-linecap: round"/>
   </g>
   <g id="patch_6">
    <path d="M 390.5716 289.61818 
L 374.740253 295.488 
L 374.740253 289.735577 
L 73.944672 289.735577 
L 73.944672 289.500784 
L 374.740253 289.500784 
L 374.740253 283.748361 
z
" clip-path="url(#pcf12c2df47)" style="stroke: #000000; stroke-linejoin: miter; stroke-linecap: round"/>
   </g>
   <g id="matplotlib.axis_1">
    <g id="text_1">
     <!-- Real Impedance -->
     <g transform="translate(195.963125 319.182437) scale(0.1 -0.1)">
      <defs>
       <path id="DejaVuSans-52" d="M 2841 2188 
Q 3044 2119 3236 1894 
Q 3428 1669 3622 1275 
L 4263 0 
L 3584 0 
L 2988 1197 
Q 2756 1666 2539 1819 
Q 2322 1972 1947 1972 
L 1259 1972 
L 1259 0 
L 628 0 
L 628 4666 
L 2053 4666 
Q 2853 4666 3247 4331 
Q 3641 3997 3641 3322 
Q 3641 2881 3436 2590 
Q 3231 2300 2841 2188 
z
M 1259 4147 
L 1259 2491 
L 2053 2491 
Q 2509 2491 2742 2702 
Q 2975 2913 2975 3322 
Q 2975 3731 2742 3939 
Q 2509 4147 2053 4147 
L 1259 4147 
z
" transform="scale(0.015625)"/>
       <path id="DejaVuSans-65" d="M 3597 1894 
L 3597 1613 
L 953 1613 
Q 991 1019 1311 708 
Q 1631 397 2203 397 
Q 2534 397 2845 478 
Q 3156 559 3463 722 
L 3463 178 
Q 3153 47 2828 -22 
Q 2503 -91 2169 -91 
Q 1331 -91 842 396 
Q 353 884 353 1716 
Q 353 2575 817 3079 
Q 1281 3584 2069 3584 
Q 2775 3584 3186 3129 
Q 3597 2675 3597 1894 
z
M 3022 2063 
Q 3016 2534 2758 2815 
Q 2500 3097 2075 3097 
Q 1594 3097 1305 2825 
Q 1016 2553 972 2059 
L 3022 2063 
z
" transform="scale(0.015625)"/>
       <path id="DejaVuSans-61" d="M 2194 1759 
Q 1497 1759 1228 1600 
Q 959 1441 959 1056 
Q 959 750 1161 570 
Q 1363 391 1709 391 
Q 2188 391 2477 730 
Q 2766 1069 2766 1631 
L 2766 1759 
L 2194 1759 
z
M 3341 1997 
L 3341 0 
L 2766 0 
L 2766 531 
Q 2569 213 2275 61 
Q 1981 -91 1556 -91 
Q 1019 -91 701 211 
Q 384 513 384 1019 
Q 384 1609 779 1909 
Q 1175 2209 1959 2209 
L 2766 2209 
L 2766 2266 
Q 2766 2663 2505 2880 
Q 2244 3097 1772 3097 
Q 1472 3097 1187 3025 
Q 903 2953 641 2809 
L 641 3341 
Q 956 3463 1253 3523 
Q 1550 3584 1831 3584 
Q 2591 3584 2966 3190 
Q 3341 2797 3341 1997 
z
" transform="scale(0.015625)"/>
       <path id="DejaVuSans-6c" d="M 603 4863 
L 1178 4863 
L 1178 0 
L 603 0 
L 603 4863 
z
" transform="scale(0.015625)"/>
       <path id="DejaVuSans-20" transform="scale(0.015625)"/>
       <path id="DejaVuSans-49" d="M 628 4666 
L 1259 4666 
L 1259 0 
L 628 0 
L 628 4666 
z
" transform="scale(0.015625)"/>
       <path id="DejaVuSans-6d" d="M 3328 2828 
Q 3544 3216 3844 3400 
Q 4144 3584 4550 3584 
Q 5097 3584 5394 3201 
Q 5691 2819 5691 2113 
L 5691 0 
L 5113 0 
L 5113 2094 
Q 5113 2597 4934 2840 
Q 4756 3084 4391 3084 
Q 3944 3084 3684 2787 
Q 3425 2491 3425 1978 
L 3425 0 
L 2847 0 
L 2847 2094 
Q 2847 2600 2669 2842 
Q 2491 3084 2119 3084 
Q 1678 3084 1418 2786 
Q 1159 2488 1159 1978 
L 1159 0 
L 581 0 
L 581 3500 
L 1159 3500 
L 1159 2956 
Q 1356 3278 1631 3431 
Q 1906 3584 2284 3584 
Q 2666 3584 2933 3390 
Q 3200 3197 3328 2828 
z
" transform="scale(0.015625)"/>
       <path id="DejaVuSans-70" d="M 1159 525 
L 1159 -1331 
L 581 -1331 
L 581 3500 
L 1159 3500 
L 1159 2969 
Q 1341 3281 1617 3432 
Q 1894 3584 2278 3584 
Q 2916 3584 3314 3078 
Q 3713 2572 3713 1747 
Q 3713 922 3314 415 
Q 2916 -91 2278 -91 
Q 1894 -91 1617 61 
Q 1341 213 1159 525 
z
M 3116 1747 
Q 3116 2381 2855 2742 
Q 2594 3103 2138 3103 
Q 1681 3103 1420 2742 
Q 1159 2381 1159 1747 
Q 1159 1113 1420 752 
Q 1681 391 2138 391 
Q 2594 391 2855 752 
Q 3116 1113 3116 1747 
z
" transform="scale(0.015625)"/>
       <path id="DejaVuSans-64" d="M 2906 2969 
L 2906 4863 
L 3481 4863 
L 3481 0 
L 2906 0 
L 2906 525 
Q 2725 213 2448 61 
Q 2172 -91 1784 -91 
Q 1150 -91 751 415 
Q 353 922 353 1747 
Q 353 2572 751 3078 
Q 1150 3584 1784 3584 
Q 2172 3584 2448 3432 
Q 2725 3281 2906 2969 
z
M 947 1747 
Q 947 1113 1208 752 
Q 1469 391 1925 391 
Q 2381 391 2643 752 
Q 2906 1113 2906 1747 
Q 2906 2381 2643 2742 
Q 2381 3103 1925 3103 
Q 1469 3103 1208 2742 
Q 947 2381 947 1747 
z
" transform="scale(0.015625)"/>
       <path id="DejaVuSans-6e" d="M 3513 2113 
L 3513 0 
L 2938 0 
L 2938 2094 
Q 2938 2591 2744 2837 
Q 2550 3084 2163 3084 
Q 1697 3084 1428 2787 
Q 1159 2491 1159 1978 
L 1159 0 
L 581 0 
L 581 3500 
L 1159 3500 
L 1159 2956 
Q 1366 3272 1645 3428 
Q 1925 3584 2291 3584 
Q 2894 3584 3203 3211 
Q 3513 2838 3513 2113 
z
" transform="scale(0.015625)"/>
       <path id="DejaVuSans-63" d="M 3122 3366 
L 3122 2828 
Q 2878 2963 2633 3030 
Q 2388 3097 2138 3097 
Q 1578 3097 1268 2742 
Q 959 2388 959 1747 
Q 959 1106 1268 751 
Q 1578 397 2138 397 
Q 2388 397 2633 464 
Q 2878 531 3122 666 
L 3122 134 
Q 2881 22 2623 -34 
Q 2366 -91 2075 -91 
Q 1284 -91 818 406 
Q 353 903 353 1747 
Q 353 2603 823 3093 
Q 1294 3584 2113 3584 
Q 2378 3584 2631 3529 
Q 2884 3475 3122 3366 
z
" transform="scale(0.015625)"/>
      </defs>
      <use xlink:href="#DejaVuSans-52"/>
      <use xlink:href="#DejaVuSans-65" x="64.982422"/>
      <use xlink:href="#DejaVuSans-61" x="126.505859"/>
      <use xlink:href="#DejaVuSans-6c" x="187.785156"/>
      <use xlink:href="#DejaVuSans-20" x="215.568359"/>
      <use xlink:href="#DejaVuSans-49" x="247.355469"/>
      <use xlink:href="#DejaVuSans-6d" x="276.847656"/>
      <use xlink:href="#DejaVuSans-70" x="374.259766"/>
      <use xlink:href="#DejaVuSans-65" x="437.736328"/>
      <use xlink:href="#DejaVuSans-64" x="499.259766"/>
      <use xlink:href="#DejaVuSans-61" x="562.736328"/>
      <use xlink:href="#DejaVuSans-6e" x="624.015625"/>
      <use xlink:href="#DejaVuSans-63" x="687.394531"/>
      <use xlink:href="#DejaVuSans-65" x="742.375"/>
     </g>
    </g>
   </g>
   <g id="matplotlib.axis_2">
    <g id="text_2">
     <!-- Imaginary Impedance -->
     <g transform="translate(51.520312 229.166281) rotate(-90) scale(0.1 -0.1)">
      <defs>
       <path id="DejaVuSans-67" d="M 2906 1791 
Q 2906 2416 2648 2759 
Q 2391 3103 1925 3103 
Q 1463 3103 1205 2759 
Q 947 2416 947 1791 
Q 947 1169 1205 825 
Q 1463 481 1925 481 
Q 2391 481 2648 825 
Q 2906 1169 2906 1791 
z
M 3481 434 
Q 3481 -459 3084 -895 
Q 2688 -1331 1869 -1331 
Q 1566 -1331 1297 -1286 
Q 1028 -1241 775 -1147 
L 775 -588 
Q 1028 -725 1275 -790 
Q 1522 -856 1778 -856 
Q 2344 -856 2625 -561 
Q 2906 -266 2906 331 
L 2906 616 
Q 2728 306 2450 153 
Q 2172 0 1784 0 
Q 1141 0 747 490 
Q 353 981 353 1791 
Q 353 2603 747 3093 
Q 1141 3584 1784 3584 
Q 2172 3584 2450 3431 
Q 2728 3278 2906 2969 
L 2906 3500 
L 3481 3500 
L 3481 434 
z
" transform="scale(0.015625)"/>
       <path id="DejaVuSans-69" d="M 603 3500 
L 1178 3500 
L 1178 0 
L 603 0 
L 603 3500 
z
M 603 4863 
L 1178 4863 
L 1178 4134 
L 603 4134 
L 603 4863 
z
" transform="scale(0.015625)"/>
       <path id="DejaVuSans-72" d="M 2631 2963 
Q 2534 3019 2420 3045 
Q 2306 3072 2169 3072 
Q 1681 3072 1420 2755 
Q 1159 2438 1159 1844 
L 1159 0 
L 581 0 
L 581 3500 
L 1159 3500 
L 1159 2956 
Q 1341 3275 1631 3429 
Q 1922 3584 2338 3584 
Q 2397 3584 2469 3576 
Q 2541 3569 2628 3553 
L 2631 2963 
z
" transform="scale(0.015625)"/>
       <path id="DejaVuSans-79" d="M 2059 -325 
Q 1816 -950 1584 -1140 
Q 1353 -1331 966 -1331 
L 506 -1331 
L 506 -850 
L 844 -850 
Q 1081 -850 1212 -737 
Q 1344 -625 1503 -206 
L 1606 56 
L 191 3500 
L 800 3500 
L 1894 763 
L 2988 3500 
L 3597 3500 
L 2059 -325 
z
" transform="scale(0.015625)"/>
      </defs>
      <use xlink:href="#DejaVuSans-49"/>
      <use xlink:href="#DejaVuSans-6d" x="29.492188"/>
      <use xlink:href="#DejaVuSans-61" x="126.904297"/>
      <use xlink:href="#DejaVuSans-67" x="188.183594"/>
      <use xlink:href="#DejaVuSans-69" x="251.660156"/>
      <use xlink:href="#DejaVuSans-6e" x="279.443359"/>
      <use xlink:href="#DejaVuSans-61" x="342.822266"/>
      <use xlink:href="#DejaVuSans-72" x="404.101562"/>
      <use xlink:href="#DejaVuSans-79" x="445.214844"/>
      <use xlink:href="#DejaVuSans-20" x="504.394531"/>
      <use xlink:href="#DejaVuSans-49" x="536.181641"/>
      <use xlink:href="#DejaVuSans-6d" x="565.673828"/>
      <use xlink:href="#DejaVuSans-70" x="663.085938"/>
      <use xlink:href="#DejaVuSans-65" x="726.5625"/>
      <use xlink:href="#DejaVuSans-64" x="788.085938"/>
      <use xlink:href="#DejaVuSans-61" x="851.5625"/>
      <use xlink:href="#DejaVuSans-6e" x="912.841797"/>
      <use xlink:href="#DejaVuSans-63" x="976.220703"/>
      <use xlink:href="#DejaVuSans-65" x="1031.201172"/>
     </g>
    </g>
   </g>
   <g id="patch_7">
    <path d="M 57.6 307.584 
L 57.6 41.472 
" style="fill: none; stroke: #000000; stroke-width: 0.8; stroke-linejoin: miter; stroke-linecap: square"/>
   </g>
   <g id="patch_8">
    <path d="M 414.72 307.584 
L 414.72 41.472 
" style="fill: none; stroke: #000000; stroke-width: 0.8; stroke-linejoin: miter; stroke-linecap: square"/>
   </g>
   <g id="patch_9">
    <path d="M 57.6 307.584 
L 414.72 307.584 
" style="fill: none; stroke: #000000; stroke-width: 0.8; stroke-linejoin: miter; stroke-linecap: square"/>
   </g>
   <g id="patch_10">
    <path d="M 57.6 41.472 
L 414.72 41.472 
" style="fill: none; stroke: #000000; stroke-width: 0.8; stroke-linejoin: miter; stroke-linecap: square"/>
   </g>
   <g id="text_3">
    <!-- $\omega t$ -->
    <g transform="translate(153.101404 266.138902) scale(0.14 -0.14)">
     <defs>
      <path id="DejaVuSans-Oblique-3c9" d="M 1369 -91 
Q 72 -91 434 1766 
Q 575 2500 1256 3500 
L 1875 3500 
Q 1231 2500 1088 1750 
Q 819 397 1519 397 
Q 2166 397 2478 2078 
L 3009 2078 
Q 2669 388 3316 397 
Q 4013 403 4275 1750 
Q 4419 2500 4169 3500 
L 4788 3500 
Q 5075 2500 4934 1766 
Q 4578 -94 3278 -91 
Q 2428 -88 2503 844 
Q 2194 -91 1369 -91 
z
" transform="scale(0.015625)"/>
      <path id="DejaVuSans-Oblique-74" d="M 2706 3500 
L 2619 3053 
L 1472 3053 
L 1100 1153 
Q 1081 1047 1072 975 
Q 1063 903 1063 863 
Q 1063 663 1183 572 
Q 1303 481 1569 481 
L 2150 481 
L 2053 0 
L 1503 0 
Q 991 0 739 200 
Q 488 400 488 806 
Q 488 878 497 964 
Q 506 1050 525 1153 
L 897 3053 
L 409 3053 
L 500 3500 
L 978 3500 
L 1172 4494 
L 1747 4494 
L 1556 3500 
L 2706 3500 
z
" transform="scale(0.015625)"/>
     </defs>
     <use xlink:href="#DejaVuSans-Oblique-3c9" transform="translate(0 0.78125)"/>
     <use xlink:href="#DejaVuSans-Oblique-74" transform="translate(83.740234 0.78125)"/>
    </g>
   </g>
   <g id="text_4">
    <!-- $Z_{total}$ -->
    <g transform="translate(200.595443 160.482148) scale(0.14 -0.14)">
     <defs>
      <path id="DejaVuSans-Oblique-5a" d="M 838 4666 
L 4500 4666 
L 4409 4184 
L 794 531 
L 3769 531 
L 3669 0 
L -141 0 
L -50 481 
L 3566 4134 
L 738 4134 
L 838 4666 
z
" transform="scale(0.015625)"/>
      <path id="DejaVuSans-Oblique-6f" d="M 1625 -91 
Q 1009 -91 651 289 
Q 294 669 294 1325 
Q 294 1706 417 2101 
Q 541 2497 738 2766 
Q 1047 3184 1428 3384 
Q 1809 3584 2291 3584 
Q 2888 3584 3255 3212 
Q 3622 2841 3622 2241 
Q 3622 1825 3500 1412 
Q 3378 1000 3181 728 
Q 2875 309 2494 109 
Q 2113 -91 1625 -91 
z
M 891 1344 
Q 891 869 1089 633 
Q 1288 397 1691 397 
Q 2269 397 2648 901 
Q 3028 1406 3028 2181 
Q 3028 2634 2825 2865 
Q 2622 3097 2228 3097 
Q 1903 3097 1650 2945 
Q 1397 2794 1197 2484 
Q 1050 2253 970 1956 
Q 891 1659 891 1344 
z
" transform="scale(0.015625)"/>
      <path id="DejaVuSans-Oblique-61" d="M 3438 1997 
L 3047 0 
L 2472 0 
L 2578 531 
Q 2325 219 2001 64 
Q 1678 -91 1281 -91 
Q 834 -91 548 182 
Q 263 456 263 884 
Q 263 1497 752 1853 
Q 1241 2209 2100 2209 
L 2900 2209 
L 2931 2363 
Q 2938 2388 2941 2417 
Q 2944 2447 2944 2509 
Q 2944 2788 2717 2942 
Q 2491 3097 2081 3097 
Q 1800 3097 1504 3025 
Q 1209 2953 897 2809 
L 997 3341 
Q 1322 3463 1633 3523 
Q 1944 3584 2234 3584 
Q 2853 3584 3176 3315 
Q 3500 3047 3500 2534 
Q 3500 2431 3484 2292 
Q 3469 2153 3438 1997 
z
M 2816 1759 
L 2241 1759 
Q 1534 1759 1195 1570 
Q 856 1381 856 984 
Q 856 709 1029 553 
Q 1203 397 1509 397 
Q 1978 397 2328 733 
Q 2678 1069 2791 1631 
L 2816 1759 
z
" transform="scale(0.015625)"/>
      <path id="DejaVuSans-Oblique-6c" d="M 1172 4863 
L 1747 4863 
L 800 0 
L 225 0 
L 1172 4863 
z
" transform="scale(0.015625)"/>
     </defs>
     <use xlink:href="#DejaVuSans-Oblique-5a" transform="translate(0 0.09375)"/>
     <use xlink:href="#DejaVuSans-Oblique-74" transform="translate(68.505859 -16.3125) scale(0.7)"/>
     <use xlink:href="#DejaVuSans-Oblique-6f" transform="translate(95.952148 -16.3125) scale(0.7)"/>
     <use xlink:href="#DejaVuSans-Oblique-74" transform="translate(138.779297 -16.3125) scale(0.7)"/>
     <use xlink:href="#DejaVuSans-Oblique-61" transform="translate(166.225586 -16.3125) scale(0.7)"/>
     <use xlink:href="#DejaVuSans-Oblique-6c" transform="translate(209.121094 -16.3125) scale(0.7)"/>
    </g>
   </g>
   <g id="text_5">
    <!-- $X_C$ -->
    <g transform="translate(358.908907 183.961427) scale(0.14 -0.14)">
     <defs>
      <path id="DejaVuSans-Oblique-58" d="M 878 4666 
L 1516 4666 
L 2316 2981 
L 3763 4666 
L 4500 4666 
L 2578 2438 
L 3738 0 
L 3103 0 
L 2163 1966 
L 459 0 
L -275 0 
L 1906 2509 
L 878 4666 
z
" transform="scale(0.015625)"/>
      <path id="DejaVuSans-Oblique-43" d="M 4447 4306 
L 4319 3641 
Q 4019 3944 3683 4091 
Q 3347 4238 2956 4238 
Q 2422 4238 2017 3981 
Q 1613 3725 1319 3200 
Q 1131 2863 1032 2486 
Q 934 2109 934 1728 
Q 934 1091 1264 756 
Q 1594 422 2222 422 
Q 2656 422 3056 561 
Q 3456 700 3834 978 
L 3688 231 
Q 3316 72 2936 -9 
Q 2556 -91 2175 -91 
Q 1278 -91 773 396 
Q 269 884 269 1753 
Q 269 2309 461 2846 
Q 653 3384 1013 3828 
Q 1394 4300 1883 4525 
Q 2372 4750 3022 4750 
Q 3422 4750 3780 4639 
Q 4138 4528 4447 4306 
z
" transform="scale(0.015625)"/>
     </defs>
     <use xlink:href="#DejaVuSans-Oblique-58" transform="translate(0 0.09375)"/>
     <use xlink:href="#DejaVuSans-Oblique-43" transform="translate(68.505859 -16.3125) scale(0.7)"/>
    </g>
   </g>
   <g id="text_6">
    <!-- $X_R$ -->
    <g transform="translate(232.258136 277.878541) scale(0.14 -0.14)">
     <defs>
      <path id="DejaVuSans-Oblique-52" d="M 1613 4147 
L 1294 2491 
L 2106 2491 
Q 2584 2491 2879 2755 
Q 3175 3019 3175 3444 
Q 3175 3784 2976 3965 
Q 2778 4147 2406 4147 
L 1613 4147 
z
M 2772 2241 
Q 2972 2194 3105 2009 
Q 3238 1825 3413 1275 
L 3809 0 
L 3144 0 
L 2778 1197 
Q 2638 1659 2453 1815 
Q 2269 1972 1888 1972 
L 1191 1972 
L 806 0 
L 172 0 
L 1081 4666 
L 2503 4666 
Q 3150 4666 3495 4373 
Q 3841 4081 3841 3531 
Q 3841 3044 3547 2687 
Q 3253 2331 2772 2241 
z
" transform="scale(0.015625)"/>
     </defs>
     <use xlink:href="#DejaVuSans-Oblique-58" transform="translate(0 0.09375)"/>
     <use xlink:href="#DejaVuSans-Oblique-52" transform="translate(68.505859 -16.3125) scale(0.7)"/>
    </g>
   </g>
  </g>
 </g>
 <defs>
  <clipPath id="pcf12c2df47">
   <rect x="57.6" y="41.472" width="357.12" height="266.112"/>
  </clipPath>
 </defs>
</svg>
