<?xml version="1.0" encoding="utf-8" standalone="no"?>
<!DOCTYPE svg PUBLIC "-//W3C//DTD SVG 1.1//EN"
  "http://www.w3.org/Graphics/SVG/1.1/DTD/svg11.dtd">
<svg xmlns:xlink="http://www.w3.org/1999/xlink" width="576pt" height="432pt" viewBox="0 0 576 432" xmlns="http://www.w3.org/2000/svg" version="1.1">
 <metadata>
  <rdf:RDF xmlns:dc="http://purl.org/dc/elements/1.1/" xmlns:cc="http://creativecommons.org/ns#" xmlns:rdf="http://www.w3.org/1999/02/22-rdf-syntax-ns#">
   <cc:Work>
    <dc:type rdf:resource="http://purl.org/dc/dcmitype/StillImage"/>
    <dc:date>2025-05-02T07:37:15.193000</dc:date>
    <dc:format>image/svg+xml</dc:format>
    <dc:creator>
     <cc:Agent>
      <dc:title>Matplotlib v3.8.4, https://matplotlib.org/</dc:title>
     </cc:Agent>
    </dc:creator>
   </cc:Work>
  </rdf:RDF>
 </metadata>
 <defs>
  <style type="text/css">*{stroke-linejoin: round; stroke-linecap: butt}</style>
 </defs>
 <g id="figure_1">
  <g id="patch_1">
   <path d="M 0 432 
L 576 432 
L 576 0 
L 0 0 
z
" style="fill: #ffffff"/>
  </g>
  <g id="axes_1">
   <g id="patch_2">
    <path d="M 72 203.04 
L 518.4 203.04 
L 518.4 51.84 
L 72 51.84 
z
" style="fill: #ffffff"/>
   </g>
   <g id="matplotlib.axis_1"/>
   <g id="matplotlib.axis_2"/>
   <g id="line2d_1">
    <path d="M 92.290909 58.712727 
L 150.380999 58.712727 
L 150.787224 196.167273 
L 208.471089 196.167273 
L 208.877314 58.712727 
L 266.561179 58.712727 
L 266.967404 196.167273 
L 324.651269 196.167273 
L 325.057494 58.712727 
L 382.74136 58.712727 
L 383.147584 196.167273 
L 440.83145 196.167273 
L 441.237674 58.712727 
L 498.109091 58.712727 
L 498.109091 58.712727 
" clip-path="url(#p443fcbe297)" style="fill: none; stroke: #0000ff; stroke-width: 1.5; stroke-linecap: square"/>
   </g>
   <g id="patch_3">
    <path d="M 72 203.04 
L 72 51.84 
" style="fill: none; stroke: #000000; stroke-width: 0.8; stroke-linejoin: miter; stroke-linecap: square"/>
   </g>
   <g id="patch_4">
    <path d="M 518.4 203.04 
L 518.4 51.84 
" style="fill: none; stroke: #000000; stroke-width: 0.8; stroke-linejoin: miter; stroke-linecap: square"/>
   </g>
   <g id="patch_5">
    <path d="M 72 203.04 
L 518.4 203.04 
" style="fill: none; stroke: #000000; stroke-width: 0.8; stroke-linejoin: miter; stroke-linecap: square"/>
   </g>
   <g id="patch_6">
    <path d="M 72 51.84 
L 518.4 51.84 
" style="fill: none; stroke: #000000; stroke-width: 0.8; stroke-linejoin: miter; stroke-linecap: square"/>
   </g>
   <g id="text_1">
    <!-- (a) -->
    <g transform="translate(493.45788 189.294545) scale(0.14 -0.14)">
     <defs>
      <path id="DejaVuSans-28" d="M 1984 4856 
Q 1566 4138 1362 3434 
Q 1159 2731 1159 2009 
Q 1159 1288 1364 580 
Q 1569 -128 1984 -844 
L 1484 -844 
Q 1016 -109 783 600 
Q 550 1309 550 2009 
Q 550 2706 781 3412 
Q 1013 4119 1484 4856 
L 1984 4856 
z
" transform="scale(0.015625)"/>
      <path id="DejaVuSans-61" d="M 2194 1759 
Q 1497 1759 1228 1600 
Q 959 1441 959 1056 
Q 959 750 1161 570 
Q 1363 391 1709 391 
Q 2188 391 2477 730 
Q 2766 1069 2766 1631 
L 2766 1759 
L 2194 1759 
z
M 3341 1997 
L 3341 0 
L 2766 0 
L 2766 531 
Q 2569 213 2275 61 
Q 1981 -91 1556 -91 
Q 1019 -91 701 211 
Q 384 513 384 1019 
Q 384 1609 779 1909 
Q 1175 2209 1959 2209 
L 2766 2209 
L 2766 2266 
Q 2766 2663 2505 2880 
Q 2244 3097 1772 3097 
Q 1472 3097 1187 3025 
Q 903 2953 641 2809 
L 641 3341 
Q 956 3463 1253 3523 
Q 1550 3584 1831 3584 
Q 2591 3584 2966 3190 
Q 3341 2797 3341 1997 
z
" transform="scale(0.015625)"/>
      <path id="DejaVuSans-29" d="M 513 4856 
L 1013 4856 
Q 1481 4119 1714 3412 
Q 1947 2706 1947 2009 
Q 1947 1309 1714 600 
Q 1481 -109 1013 -844 
L 513 -844 
Q 928 -128 1133 580 
Q 1338 1288 1338 2009 
Q 1338 2731 1133 3434 
Q 928 4138 513 4856 
z
" transform="scale(0.015625)"/>
     </defs>
     <use xlink:href="#DejaVuSans-28"/>
     <use xlink:href="#DejaVuSans-61" x="39.013672"/>
     <use xlink:href="#DejaVuSans-29" x="100.292969"/>
    </g>
   </g>
  </g>
  <g id="axes_2">
   <g id="patch_7">
    <path d="M 72 384.48 
L 518.4 384.48 
L 518.4 233.28 
L 72 233.28 
z
" style="fill: #ffffff"/>
   </g>
   <g id="matplotlib.axis_3"/>
   <g id="matplotlib.axis_4"/>
   <g id="line2d_2">
    <path d="M 92.290909 377.607273 
L 93.509582 357.611344 
L 94.728256 340.524284 
L 95.946929 325.92293 
L 97.165602 313.44568 
L 98.384275 302.783532 
L 99.602948 293.67244 
L 100.821622 285.886765 
L 102.040295 279.233696 
L 103.258968 273.54847 
L 104.477641 268.69029 
L 105.696314 264.538845 
L 106.914988 260.991322 
L 108.133661 257.959869 
L 109.758559 254.592552 
L 111.383456 251.861992 
L 113.008354 249.647779 
L 114.633251 247.852272 
L 116.258149 246.396294 
L 117.883047 245.21564 
L 119.914169 244.048648 
L 121.945291 243.150645 
L 124.382637 242.341856 
L 127.226208 241.669654 
L 130.476003 241.150198 
L 134.538247 240.743363 
L 139.819165 240.451585 
L 147.943653 240.257513 
L 150.787224 240.152727 
L 152.005897 260.148656 
L 153.22457 277.235716 
L 154.443243 291.83707 
L 155.661916 304.31432 
L 156.88059 314.976468 
L 158.099263 324.08756 
L 159.317936 331.873235 
L 160.536609 338.526304 
L 161.755283 344.21153 
L 162.973956 349.06971 
L 164.192629 353.221155 
L 165.411302 356.768678 
L 166.629975 359.800131 
L 168.254873 363.167448 
L 169.879771 365.898008 
L 171.504668 368.112221 
L 173.129566 369.907728 
L 174.754464 371.363706 
L 176.379361 372.54436 
L 178.410483 373.711352 
L 180.441605 374.609355 
L 182.878952 375.418144 
L 185.722523 376.090346 
L 188.972318 376.609802 
L 193.034562 377.016637 
L 198.315479 377.308415 
L 206.439967 377.502487 
L 208.471089 377.607273 
L 209.689762 357.611344 
L 210.908436 340.524284 
L 212.127109 325.92293 
L 213.345782 313.44568 
L 214.564455 302.783532 
L 215.783129 293.67244 
L 217.001802 285.886765 
L 218.220475 279.233696 
L 219.439148 273.54847 
L 220.657821 268.69029 
L 221.876495 264.538845 
L 223.095168 260.991322 
L 224.313841 257.959869 
L 225.938739 254.592552 
L 227.563636 251.861992 
L 229.188534 249.647779 
L 230.813432 247.852272 
L 232.438329 246.396294 
L 234.063227 245.21564 
L 236.094349 244.048648 
L 238.125471 243.150645 
L 240.562817 242.341856 
L 243.406388 241.669654 
L 246.656183 241.150198 
L 250.718428 240.743363 
L 255.999345 240.451585 
L 264.123833 240.257513 
L 266.967404 240.152727 
L 268.186077 260.148656 
L 269.40475 277.235716 
L 270.623423 291.83707 
L 271.842097 304.31432 
L 273.06077 314.976468 
L 274.279443 324.08756 
L 275.498116 331.873235 
L 276.71679 338.526304 
L 277.935463 344.21153 
L 279.154136 349.06971 
L 280.372809 353.221155 
L 281.591482 356.768678 
L 282.810156 359.800131 
L 284.435053 363.167448 
L 286.059951 365.898008 
L 287.684848 368.112221 
L 289.309746 369.907728 
L 290.934644 371.363706 
L 292.559541 372.54436 
L 294.590663 373.711352 
L 296.621785 374.609355 
L 299.059132 375.418144 
L 301.902703 376.090346 
L 305.152498 376.609802 
L 309.214742 377.016637 
L 314.495659 377.308415 
L 322.620147 377.502487 
L 324.651269 377.607273 
L 325.869943 357.611344 
L 327.088616 340.524284 
L 328.307289 325.92293 
L 329.525962 313.44568 
L 330.744636 302.783532 
L 331.963309 293.67244 
L 333.181982 285.886765 
L 334.400655 279.233696 
L 335.619328 273.54847 
L 336.838002 268.69029 
L 338.056675 264.538845 
L 339.275348 260.991322 
L 340.494021 257.959869 
L 342.118919 254.592552 
L 343.743817 251.861992 
L 345.368714 249.647779 
L 346.993612 247.852272 
L 348.618509 246.396294 
L 350.243407 245.21564 
L 352.274529 244.048648 
L 354.305651 243.150645 
L 356.742998 242.341856 
L 359.586568 241.669654 
L 362.836364 241.150198 
L 366.898608 240.743363 
L 372.179525 240.451585 
L 380.304013 240.257513 
L 383.147584 240.152727 
L 384.366257 260.148656 
L 385.58493 277.235716 
L 386.803604 291.83707 
L 388.022277 304.31432 
L 389.24095 314.976468 
L 390.459623 324.08756 
L 391.678296 331.873235 
L 392.89697 338.526304 
L 394.115643 344.21153 
L 395.334316 349.06971 
L 396.552989 353.221155 
L 397.771663 356.768678 
L 398.990336 359.800131 
L 400.615233 363.167448 
L 402.240131 365.898008 
L 403.865029 368.112221 
L 405.489926 369.907728 
L 407.114824 371.363706 
L 408.739722 372.54436 
L 410.770844 373.711352 
L 412.801966 374.609355 
L 415.239312 375.418144 
L 418.082883 376.090346 
L 421.332678 376.609802 
L 425.394922 377.016637 
L 430.675839 377.308415 
L 438.800328 377.502487 
L 440.83145 377.607273 
L 442.050123 357.611344 
L 443.268796 340.524284 
L 444.487469 325.92293 
L 445.706143 313.44568 
L 446.924816 302.783532 
L 448.143489 293.67244 
L 449.362162 285.886765 
L 450.580835 279.233696 
L 451.799509 273.54847 
L 453.018182 268.69029 
L 454.236855 264.538845 
L 455.455528 260.991322 
L 456.674201 257.959869 
L 458.299099 254.592552 
L 459.923997 251.861992 
L 461.548894 249.647779 
L 463.173792 247.852272 
L 464.79869 246.396294 
L 466.423587 245.21564 
L 468.454709 244.048648 
L 470.485831 243.150645 
L 472.923178 242.341856 
L 475.766749 241.669654 
L 479.016544 241.150198 
L 483.078788 240.743363 
L 488.359705 240.451585 
L 496.484193 240.257513 
L 498.109091 240.237698 
L 498.109091 240.237698 
" clip-path="url(#p820c69dd5b)" style="fill: none; stroke: #ff0000; stroke-width: 1.5; stroke-linecap: square"/>
   </g>
   <g id="patch_8">
    <path d="M 72 384.48 
L 72 233.28 
" style="fill: none; stroke: #000000; stroke-width: 0.8; stroke-linejoin: miter; stroke-linecap: square"/>
   </g>
   <g id="patch_9">
    <path d="M 518.4 384.48 
L 518.4 233.28 
" style="fill: none; stroke: #000000; stroke-width: 0.8; stroke-linejoin: miter; stroke-linecap: square"/>
   </g>
   <g id="patch_10">
    <path d="M 72 384.48 
L 518.4 384.48 
" style="fill: none; stroke: #000000; stroke-width: 0.8; stroke-linejoin: miter; stroke-linecap: square"/>
   </g>
   <g id="patch_11">
    <path d="M 72 233.28 
L 518.4 233.28 
" style="fill: none; stroke: #000000; stroke-width: 0.8; stroke-linejoin: miter; stroke-linecap: square"/>
   </g>
   <g id="text_2">
    <!-- (b) -->
    <g transform="translate(493.45788 370.734545) scale(0.14 -0.14)">
     <defs>
      <path id="DejaVuSans-62" d="M 3116 1747 
Q 3116 2381 2855 2742 
Q 2594 3103 2138 3103 
Q 1681 3103 1420 2742 
Q 1159 2381 1159 1747 
Q 1159 1113 1420 752 
Q 1681 391 2138 391 
Q 2594 391 2855 752 
Q 3116 1113 3116 1747 
z
M 1159 2969 
Q 1341 3281 1617 3432 
Q 1894 3584 2278 3584 
Q 2916 3584 3314 3078 
Q 3713 2572 3713 1747 
Q 3713 922 3314 415 
Q 2916 -91 2278 -91 
Q 1894 -91 1617 61 
Q 1341 213 1159 525 
L 1159 0 
L 581 0 
L 581 4863 
L 1159 4863 
L 1159 2969 
z
" transform="scale(0.015625)"/>
     </defs>
     <use xlink:href="#DejaVuSans-28"/>
     <use xlink:href="#DejaVuSans-62" x="39.013672"/>
     <use xlink:href="#DejaVuSans-29" x="102.490234"/>
    </g>
   </g>
  </g>
  <g id="text_3">
   <!-- Time -->
   <g transform="translate(273.319687 425.184375) scale(0.12 -0.12)">
    <defs>
     <path id="DejaVuSans-54" d="M -19 4666 
L 3928 4666 
L 3928 4134 
L 2272 4134 
L 2272 0 
L 1638 0 
L 1638 4134 
L -19 4134 
L -19 4666 
z
" transform="scale(0.015625)"/>
     <path id="DejaVuSans-69" d="M 603 3500 
L 1178 3500 
L 1178 0 
L 603 0 
L 603 3500 
z
M 603 4863 
L 1178 4863 
L 1178 4134 
L 603 4134 
L 603 4863 
z
" transform="scale(0.015625)"/>
     <path id="DejaVuSans-6d" d="M 3328 2828 
Q 3544 3216 3844 3400 
Q 4144 3584 4550 3584 
Q 5097 3584 5394 3201 
Q 5691 2819 5691 2113 
L 5691 0 
L 5113 0 
L 5113 2094 
Q 5113 2597 4934 2840 
Q 4756 3084 4391 3084 
Q 3944 3084 3684 2787 
Q 3425 2491 3425 1978 
L 3425 0 
L 2847 0 
L 2847 2094 
Q 2847 2600 2669 2842 
Q 2491 3084 2119 3084 
Q 1678 3084 1418 2786 
Q 1159 2488 1159 1978 
L 1159 0 
L 581 0 
L 581 3500 
L 1159 3500 
L 1159 2956 
Q 1356 3278 1631 3431 
Q 1906 3584 2284 3584 
Q 2666 3584 2933 3390 
Q 3200 3197 3328 2828 
z
" transform="scale(0.015625)"/>
     <path id="DejaVuSans-65" d="M 3597 1894 
L 3597 1613 
L 953 1613 
Q 991 1019 1311 708 
Q 1631 397 2203 397 
Q 2534 397 2845 478 
Q 3156 559 3463 722 
L 3463 178 
Q 3153 47 2828 -22 
Q 2503 -91 2169 -91 
Q 1331 -91 842 396 
Q 353 884 353 1716 
Q 353 2575 817 3079 
Q 1281 3584 2069 3584 
Q 2775 3584 3186 3129 
Q 3597 2675 3597 1894 
z
M 3022 2063 
Q 3016 2534 2758 2815 
Q 2500 3097 2075 3097 
Q 1594 3097 1305 2825 
Q 1016 2553 972 2059 
L 3022 2063 
z
" transform="scale(0.015625)"/>
    </defs>
    <use xlink:href="#DejaVuSans-54"/>
    <use xlink:href="#DejaVuSans-69" x="57.958984"/>
    <use xlink:href="#DejaVuSans-6d" x="85.742188"/>
    <use xlink:href="#DejaVuSans-65" x="183.154297"/>
   </g>
  </g>
  <g id="text_4">
   <!-- Voltage -->
   <g transform="translate(20.638125 238.5075) rotate(-90) scale(0.12 -0.12)">
    <defs>
     <path id="DejaVuSans-56" d="M 1831 0 
L 50 4666 
L 709 4666 
L 2188 738 
L 3669 4666 
L 4325 4666 
L 2547 0 
L 1831 0 
z
" transform="scale(0.015625)"/>
     <path id="DejaVuSans-6f" d="M 1959 3097 
Q 1497 3097 1228 2736 
Q 959 2375 959 1747 
Q 959 1119 1226 758 
Q 1494 397 1959 397 
Q 2419 397 2687 759 
Q 2956 1122 2956 1747 
Q 2956 2369 2687 2733 
Q 2419 3097 1959 3097 
z
M 1959 3584 
Q 2709 3584 3137 3096 
Q 3566 2609 3566 1747 
Q 3566 888 3137 398 
Q 2709 -91 1959 -91 
Q 1206 -91 779 398 
Q 353 888 353 1747 
Q 353 2609 779 3096 
Q 1206 3584 1959 3584 
z
" transform="scale(0.015625)"/>
     <path id="DejaVuSans-6c" d="M 603 4863 
L 1178 4863 
L 1178 0 
L 603 0 
L 603 4863 
z
" transform="scale(0.015625)"/>
     <path id="DejaVuSans-74" d="M 1172 4494 
L 1172 3500 
L 2356 3500 
L 2356 3053 
L 1172 3053 
L 1172 1153 
Q 1172 725 1289 603 
Q 1406 481 1766 481 
L 2356 481 
L 2356 0 
L 1766 0 
Q 1100 0 847 248 
Q 594 497 594 1153 
L 594 3053 
L 172 3053 
L 172 3500 
L 594 3500 
L 594 4494 
L 1172 4494 
z
" transform="scale(0.015625)"/>
     <path id="DejaVuSans-67" d="M 2906 1791 
Q 2906 2416 2648 2759 
Q 2391 3103 1925 3103 
Q 1463 3103 1205 2759 
Q 947 2416 947 1791 
Q 947 1169 1205 825 
Q 1463 481 1925 481 
Q 2391 481 2648 825 
Q 2906 1169 2906 1791 
z
M 3481 434 
Q 3481 -459 3084 -895 
Q 2688 -1331 1869 -1331 
Q 1566 -1331 1297 -1286 
Q 1028 -1241 775 -1147 
L 775 -588 
Q 1028 -725 1275 -790 
Q 1522 -856 1778 -856 
Q 2344 -856 2625 -561 
Q 2906 -266 2906 331 
L 2906 616 
Q 2728 306 2450 153 
Q 2172 0 1784 0 
Q 1141 0 747 490 
Q 353 981 353 1791 
Q 353 2603 747 3093 
Q 1141 3584 1784 3584 
Q 2172 3584 2450 3431 
Q 2728 3278 2906 2969 
L 2906 3500 
L 3481 3500 
L 3481 434 
z
" transform="scale(0.015625)"/>
    </defs>
    <use xlink:href="#DejaVuSans-56"/>
    <use xlink:href="#DejaVuSans-6f" x="60.658203"/>
    <use xlink:href="#DejaVuSans-6c" x="121.839844"/>
    <use xlink:href="#DejaVuSans-74" x="149.623047"/>
    <use xlink:href="#DejaVuSans-61" x="188.832031"/>
    <use xlink:href="#DejaVuSans-67" x="250.111328"/>
    <use xlink:href="#DejaVuSans-65" x="313.587891"/>
   </g>
  </g>
 </g>
 <defs>
  <clipPath id="p443fcbe297">
   <rect x="72" y="51.84" width="446.4" height="151.2"/>
  </clipPath>
  <clipPath id="p820c69dd5b">
   <rect x="72" y="233.28" width="446.4" height="151.2"/>
  </clipPath>
 </defs>
</svg>
