<?xml version="1.0" encoding="utf-8" standalone="no"?>
<!DOCTYPE svg PUBLIC "-//W3C//DTD SVG 1.1//EN"
  "http://www.w3.org/Graphics/SVG/1.1/DTD/svg11.dtd">
<svg xmlns:xlink="http://www.w3.org/1999/xlink" width="460.8pt" height="345.6pt" viewBox="0 0 460.8 345.6" xmlns="http://www.w3.org/2000/svg" version="1.1">
 <metadata>
  <rdf:RDF xmlns:dc="http://purl.org/dc/elements/1.1/" xmlns:cc="http://creativecommons.org/ns#" xmlns:rdf="http://www.w3.org/1999/02/22-rdf-syntax-ns#">
   <cc:Work>
    <dc:type rdf:resource="http://purl.org/dc/dcmitype/StillImage"/>
    <dc:date>2025-05-02T09:05:37.997000</dc:date>
    <dc:format>image/svg+xml</dc:format>
    <dc:creator>
     <cc:Agent>
      <dc:title>Matplotlib v3.8.4, https://matplotlib.org/</dc:title>
     </cc:Agent>
    </dc:creator>
   </cc:Work>
  </rdf:RDF>
 </metadata>
 <defs>
  <style type="text/css">*{stroke-linejoin: round; stroke-linecap: butt}</style>
 </defs>
 <g id="figure_1">
  <g id="patch_1">
   <path d="M 0 345.6 
L 460.8 345.6 
L 460.8 0 
L 0 0 
z
" style="fill: #ffffff"/>
  </g>
  <g id="axes_1">
   <g id="patch_2">
    <path d="M 57.6 307.584 
L 414.72 307.584 
L 414.72 41.472 
L 57.6 41.472 
z
" style="fill: #ffffff"/>
   </g>
   <g id="matplotlib.axis_1">
    <g id="text_1">
     <!-- Time -->
     <g transform="translate(223.926406 319.182437) scale(0.1 -0.1)">
      <defs>
       <path id="DejaVuSans-54" d="M -19 4666 
L 3928 4666 
L 3928 4134 
L 2272 4134 
L 2272 0 
L 1638 0 
L 1638 4134 
L -19 4134 
L -19 4666 
z
" transform="scale(0.015625)"/>
       <path id="DejaVuSans-69" d="M 603 3500 
L 1178 3500 
L 1178 0 
L 603 0 
L 603 3500 
z
M 603 4863 
L 1178 4863 
L 1178 4134 
L 603 4134 
L 603 4863 
z
" transform="scale(0.015625)"/>
       <path id="DejaVuSans-6d" d="M 3328 2828 
Q 3544 3216 3844 3400 
Q 4144 3584 4550 3584 
Q 5097 3584 5394 3201 
Q 5691 2819 5691 2113 
L 5691 0 
L 5113 0 
L 5113 2094 
Q 5113 2597 4934 2840 
Q 4756 3084 4391 3084 
Q 3944 3084 3684 2787 
Q 3425 2491 3425 1978 
L 3425 0 
L 2847 0 
L 2847 2094 
Q 2847 2600 2669 2842 
Q 2491 3084 2119 3084 
Q 1678 3084 1418 2786 
Q 1159 2488 1159 1978 
L 1159 0 
L 581 0 
L 581 3500 
L 1159 3500 
L 1159 2956 
Q 1356 3278 1631 3431 
Q 1906 3584 2284 3584 
Q 2666 3584 2933 3390 
Q 3200 3197 3328 2828 
z
" transform="scale(0.015625)"/>
       <path id="DejaVuSans-65" d="M 3597 1894 
L 3597 1613 
L 953 1613 
Q 991 1019 1311 708 
Q 1631 397 2203 397 
Q 2534 397 2845 478 
Q 3156 559 3463 722 
L 3463 178 
Q 3153 47 2828 -22 
Q 2503 -91 2169 -91 
Q 1331 -91 842 396 
Q 353 884 353 1716 
Q 353 2575 817 3079 
Q 1281 3584 2069 3584 
Q 2775 3584 3186 3129 
Q 3597 2675 3597 1894 
z
M 3022 2063 
Q 3016 2534 2758 2815 
Q 2500 3097 2075 3097 
Q 1594 3097 1305 2825 
Q 1016 2553 972 2059 
L 3022 2063 
z
" transform="scale(0.015625)"/>
      </defs>
      <use xlink:href="#DejaVuSans-54"/>
      <use xlink:href="#DejaVuSans-69" x="57.958984"/>
      <use xlink:href="#DejaVuSans-6d" x="85.742188"/>
      <use xlink:href="#DejaVuSans-65" x="183.154297"/>
     </g>
    </g>
   </g>
   <g id="matplotlib.axis_2">
    <g id="text_2">
     <!-- Voltage -->
     <g transform="translate(51.520313 193.28425) rotate(-90) scale(0.1 -0.1)">
      <defs>
       <path id="DejaVuSans-56" d="M 1831 0 
L 50 4666 
L 709 4666 
L 2188 738 
L 3669 4666 
L 4325 4666 
L 2547 0 
L 1831 0 
z
" transform="scale(0.015625)"/>
       <path id="DejaVuSans-6f" d="M 1959 3097 
Q 1497 3097 1228 2736 
Q 959 2375 959 1747 
Q 959 1119 1226 758 
Q 1494 397 1959 397 
Q 2419 397 2687 759 
Q 2956 1122 2956 1747 
Q 2956 2369 2687 2733 
Q 2419 3097 1959 3097 
z
M 1959 3584 
Q 2709 3584 3137 3096 
Q 3566 2609 3566 1747 
Q 3566 888 3137 398 
Q 2709 -91 1959 -91 
Q 1206 -91 779 398 
Q 353 888 353 1747 
Q 353 2609 779 3096 
Q 1206 3584 1959 3584 
z
" transform="scale(0.015625)"/>
       <path id="DejaVuSans-6c" d="M 603 4863 
L 1178 4863 
L 1178 0 
L 603 0 
L 603 4863 
z
" transform="scale(0.015625)"/>
       <path id="DejaVuSans-74" d="M 1172 4494 
L 1172 3500 
L 2356 3500 
L 2356 3053 
L 1172 3053 
L 1172 1153 
Q 1172 725 1289 603 
Q 1406 481 1766 481 
L 2356 481 
L 2356 0 
L 1766 0 
Q 1100 0 847 248 
Q 594 497 594 1153 
L 594 3053 
L 172 3053 
L 172 3500 
L 594 3500 
L 594 4494 
L 1172 4494 
z
" transform="scale(0.015625)"/>
       <path id="DejaVuSans-61" d="M 2194 1759 
Q 1497 1759 1228 1600 
Q 959 1441 959 1056 
Q 959 750 1161 570 
Q 1363 391 1709 391 
Q 2188 391 2477 730 
Q 2766 1069 2766 1631 
L 2766 1759 
L 2194 1759 
z
M 3341 1997 
L 3341 0 
L 2766 0 
L 2766 531 
Q 2569 213 2275 61 
Q 1981 -91 1556 -91 
Q 1019 -91 701 211 
Q 384 513 384 1019 
Q 384 1609 779 1909 
Q 1175 2209 1959 2209 
L 2766 2209 
L 2766 2266 
Q 2766 2663 2505 2880 
Q 2244 3097 1772 3097 
Q 1472 3097 1187 3025 
Q 903 2953 641 2809 
L 641 3341 
Q 956 3463 1253 3523 
Q 1550 3584 1831 3584 
Q 2591 3584 2966 3190 
Q 3341 2797 3341 1997 
z
" transform="scale(0.015625)"/>
       <path id="DejaVuSans-67" d="M 2906 1791 
Q 2906 2416 2648 2759 
Q 2391 3103 1925 3103 
Q 1463 3103 1205 2759 
Q 947 2416 947 1791 
Q 947 1169 1205 825 
Q 1463 481 1925 481 
Q 2391 481 2648 825 
Q 2906 1169 2906 1791 
z
M 3481 434 
Q 3481 -459 3084 -895 
Q 2688 -1331 1869 -1331 
Q 1566 -1331 1297 -1286 
Q 1028 -1241 775 -1147 
L 775 -588 
Q 1028 -725 1275 -790 
Q 1522 -856 1778 -856 
Q 2344 -856 2625 -561 
Q 2906 -266 2906 331 
L 2906 616 
Q 2728 306 2450 153 
Q 2172 0 1784 0 
Q 1141 0 747 490 
Q 353 981 353 1791 
Q 353 2603 747 3093 
Q 1141 3584 1784 3584 
Q 2172 3584 2450 3431 
Q 2728 3278 2906 2969 
L 2906 3500 
L 3481 3500 
L 3481 434 
z
" transform="scale(0.015625)"/>
      </defs>
      <use xlink:href="#DejaVuSans-56"/>
      <use xlink:href="#DejaVuSans-6f" x="60.658203"/>
      <use xlink:href="#DejaVuSans-6c" x="121.839844"/>
      <use xlink:href="#DejaVuSans-74" x="149.623047"/>
      <use xlink:href="#DejaVuSans-61" x="188.832031"/>
      <use xlink:href="#DejaVuSans-67" x="250.111328"/>
      <use xlink:href="#DejaVuSans-65" x="313.587891"/>
     </g>
    </g>
   </g>
   <g id="line2d_1">
    <path d="M 73.832727 174.528673 
L 82.932154 142.946263 
L 87.806847 126.793297 
L 92.031581 113.554871 
L 95.606355 103.06099 
L 98.856151 94.185583 
L 101.780966 86.806542 
L 104.705782 80.05954 
L 107.305618 74.632215 
L 109.580475 70.348895 
L 111.855332 66.51976 
L 114.130188 63.161504 
L 116.080066 60.668935 
L 118.029943 58.541093 
L 119.65484 57.051455 
L 121.279738 55.823169 
L 122.904636 54.858966 
L 124.529533 54.160992 
L 126.154431 53.7308 
L 127.779328 53.569346 
L 129.404226 53.67699 
L 131.029124 54.053492 
L 132.654021 54.698015 
L 134.278919 55.609125 
L 135.903817 56.784794 
L 137.528714 58.222408 
L 139.478591 60.288768 
L 141.428468 62.721072 
L 143.378346 65.51153 
L 145.653202 69.207743 
L 147.928059 73.363116 
L 150.202916 77.959534 
L 152.802752 83.726846 
L 155.402588 90.011145 
L 158.327404 97.654284 
L 161.577199 106.793746 
L 165.151974 117.53966 
L 169.051728 129.957641 
L 173.926421 146.263224 
L 180.750991 169.965082 
L 191.475315 207.211245 
L 196.350008 223.310458 
L 200.574742 236.485326 
L 204.149517 246.913848 
L 207.399312 255.721253 
L 210.324128 263.032613 
L 212.923964 268.997805 
L 215.5238 274.425131 
L 217.798657 278.708451 
L 220.073514 282.537586 
L 222.34837 285.895841 
L 224.298247 288.388411 
L 226.248124 290.516253 
L 227.873022 292.00589 
L 229.49792 293.234177 
L 231.122817 294.19838 
L 232.747715 294.896354 
L 234.372613 295.326546 
L 235.99751 295.488 
L 237.622408 295.380356 
L 239.247305 295.003854 
L 240.872203 294.359331 
L 242.497101 293.448221 
L 244.121998 292.272552 
L 245.746896 290.834938 
L 247.696773 288.768578 
L 249.64665 286.336273 
L 251.596527 283.545815 
L 253.871384 279.849603 
L 256.146241 275.694229 
L 258.421097 271.097812 
L 261.020934 265.3305 
L 263.62077 259.046201 
L 266.545586 251.403062 
L 269.795381 242.2636 
L 273.370156 231.517686 
L 277.26991 219.099705 
L 282.144603 202.794121 
L 288.969173 179.092264 
L 299.693497 141.846101 
L 304.56819 125.746888 
L 308.792924 112.57202 
L 312.367699 102.143498 
L 315.617494 93.336093 
L 318.54231 86.024733 
L 321.142146 80.05954 
L 323.741982 74.632215 
L 326.016839 70.348895 
L 328.291695 66.51976 
L 330.566552 63.161504 
L 332.516429 60.668935 
L 334.466306 58.541093 
L 336.091204 57.051455 
L 337.716102 55.823169 
L 339.340999 54.858966 
L 340.965897 54.160992 
L 342.590794 53.7308 
L 344.215692 53.569346 
L 345.84059 53.67699 
L 347.465487 54.053492 
L 349.090385 54.698015 
L 350.715283 55.609125 
L 352.34018 56.784794 
L 353.965078 58.222408 
L 355.914955 60.288768 
L 357.864832 62.721072 
L 359.814709 65.51153 
L 362.089566 69.207743 
L 364.364423 73.363116 
L 366.639279 77.959534 
L 369.239115 83.726846 
L 371.838952 90.011145 
L 374.763767 97.654284 
L 378.013563 106.793746 
L 381.588337 117.53966 
L 385.488092 129.957641 
L 390.362785 146.263224 
L 397.187355 169.965082 
L 398.487273 174.528673 
L 398.487273 174.528673 
" clip-path="url(#p5637659869)" style="fill: none; stroke: #1f77b4; stroke-width: 1.5; stroke-linecap: square"/>
   </g>
   <g id="line2d_2">
    <path d="M 73.832727 69.773657 
L 76.107584 66.010816 
L 78.057461 63.161504 
L 80.007338 60.668935 
L 81.957215 58.541093 
L 83.582113 57.051455 
L 85.207011 55.823169 
L 86.831908 54.858966 
L 88.456806 54.160992 
L 90.081704 53.7308 
L 91.706601 53.569346 
L 93.331499 53.67699 
L 94.956396 54.053492 
L 96.581294 54.698015 
L 98.206192 55.609125 
L 99.831089 56.784794 
L 101.455987 58.222408 
L 103.405864 60.288768 
L 105.355741 62.721072 
L 107.305618 65.51153 
L 109.580475 69.207743 
L 111.855332 73.363116 
L 114.130188 77.959534 
L 116.730025 83.726846 
L 119.329861 90.011145 
L 122.254676 97.654284 
L 125.504472 106.793746 
L 129.079247 117.53966 
L 132.979001 129.957641 
L 137.853694 146.263224 
L 144.678264 169.965082 
L 155.402588 207.211245 
L 160.277281 223.310458 
L 164.502015 236.485326 
L 168.07679 246.913848 
L 171.326585 255.721253 
L 174.2514 263.032613 
L 176.851237 268.997805 
L 179.451073 274.425131 
L 181.72593 278.708451 
L 184.000786 282.537586 
L 186.275643 285.895841 
L 188.22552 288.388411 
L 190.175397 290.516253 
L 191.800295 292.00589 
L 193.425192 293.234177 
L 195.05009 294.19838 
L 196.674988 294.896354 
L 198.299885 295.326546 
L 199.924783 295.488 
L 201.549681 295.380356 
L 203.174578 295.003854 
L 204.799476 294.359331 
L 206.424373 293.448221 
L 208.049271 292.272552 
L 209.674169 290.834938 
L 211.624046 288.768578 
L 213.573923 286.336273 
L 215.5238 283.545815 
L 217.798657 279.849603 
L 220.073514 275.694229 
L 222.34837 271.097812 
L 224.948206 265.3305 
L 227.548043 259.046201 
L 230.472858 251.403062 
L 233.722654 242.2636 
L 237.297428 231.517686 
L 241.197183 219.099705 
L 246.071876 202.794121 
L 252.896446 179.092264 
L 263.62077 141.846101 
L 268.495463 125.746888 
L 272.720197 112.57202 
L 276.294971 102.143498 
L 279.544767 93.336093 
L 282.469582 86.024733 
L 285.069419 80.05954 
L 287.669255 74.632215 
L 289.944111 70.348895 
L 292.218968 66.51976 
L 294.493825 63.161504 
L 296.443702 60.668935 
L 298.393579 58.541093 
L 300.018477 57.051455 
L 301.643374 55.823169 
L 303.268272 54.858966 
L 304.89317 54.160992 
L 306.518067 53.7308 
L 308.142965 53.569346 
L 309.767862 53.67699 
L 311.39276 54.053492 
L 313.017658 54.698015 
L 314.642555 55.609125 
L 316.267453 56.784794 
L 317.892351 58.222408 
L 319.842228 60.288768 
L 321.792105 62.721072 
L 323.741982 65.51153 
L 326.016839 69.207743 
L 328.291695 73.363116 
L 330.566552 77.959534 
L 333.166388 83.726846 
L 335.766224 90.011145 
L 338.69104 97.654284 
L 341.940835 106.793746 
L 345.51561 117.53966 
L 349.415364 129.957641 
L 354.290057 146.263224 
L 361.114627 169.965082 
L 371.838952 207.211245 
L 376.713645 223.310458 
L 380.938378 236.485326 
L 384.513153 246.913848 
L 387.762948 255.721253 
L 390.687764 263.032613 
L 393.2876 268.997805 
L 395.887437 274.425131 
L 398.162293 278.708451 
L 398.487273 279.283688 
L 398.487273 279.283688 
" clip-path="url(#p5637659869)" style="fill: none; stroke: #ff7f0e; stroke-width: 1.5; stroke-linecap: square"/>
   </g>
   <g id="LineCollection_1">
    <path d="M 73.832727 174.528673 
L 398.487273 174.528673 
" clip-path="url(#p5637659869)" style="fill: none; stroke-dasharray: 5.55,2.4; stroke-dashoffset: 0; stroke: #000000; stroke-width: 1.5"/>
   </g>
   <g id="LineCollection_2">
    <path d="M 93.312 174.528673 
L 93.312 53.568 
" clip-path="url(#p5637659869)" style="fill: none; stroke-dasharray: 5.55,2.4; stroke-dashoffset: 0; stroke: #000000; stroke-width: 1.5"/>
   </g>
   <g id="LineCollection_3">
    <path d="M 127.941818 174.528673 
L 127.941818 53.568 
" clip-path="url(#p5637659869)" style="fill: none; stroke-dasharray: 5.55,2.4; stroke-dashoffset: 0; stroke: #000000; stroke-width: 1.5"/>
   </g>
   <g id="patch_3">
    <path d="M 57.6 307.584 
L 57.6 41.472 
" style="fill: none; stroke: #000000; stroke-width: 0.8; stroke-linejoin: miter; stroke-linecap: square"/>
   </g>
   <g id="patch_4">
    <path d="M 414.72 307.584 
L 414.72 41.472 
" style="fill: none; stroke: #000000; stroke-width: 0.8; stroke-linejoin: miter; stroke-linecap: square"/>
   </g>
   <g id="patch_5">
    <path d="M 57.6 307.584 
L 414.72 307.584 
" style="fill: none; stroke: #000000; stroke-width: 0.8; stroke-linejoin: miter; stroke-linecap: square"/>
   </g>
   <g id="patch_6">
    <path d="M 57.6 41.472 
L 414.72 41.472 
" style="fill: none; stroke: #000000; stroke-width: 0.8; stroke-linejoin: miter; stroke-linecap: square"/>
   </g>
   <g id="text_3">
    <!-- $\Delta t$ -->
    <g transform="translate(106.298182 186.62474) scale(0.1 -0.1)">
     <defs>
      <path id="DejaVuSans-394" d="M 2188 4044 
L 906 525 
L 3472 525 
L 2188 4044 
z
M 50 0 
L 1831 4666 
L 2547 4666 
L 4325 0 
L 50 0 
z
" transform="scale(0.015625)"/>
      <path id="DejaVuSans-Oblique-74" d="M 2706 3500 
L 2619 3053 
L 1472 3053 
L 1100 1153 
Q 1081 1047 1072 975 
Q 1063 903 1063 863 
Q 1063 663 1183 572 
Q 1303 481 1569 481 
L 2150 481 
L 2053 0 
L 1503 0 
Q 991 0 739 200 
Q 488 400 488 806 
Q 488 878 497 964 
Q 506 1050 525 1153 
L 897 3053 
L 409 3053 
L 500 3500 
L 978 3500 
L 1172 4494 
L 1747 4494 
L 1556 3500 
L 2706 3500 
z
" transform="scale(0.015625)"/>
     </defs>
     <use xlink:href="#DejaVuSans-394" transform="translate(0 0.09375)"/>
     <use xlink:href="#DejaVuSans-Oblique-74" transform="translate(68.408203 0.09375)"/>
    </g>
   </g>
   <g id="legend_1">
    <g id="patch_7">
     <path d="M 64.6 302.584 
L 108.7 302.584 
Q 110.7 302.584 110.7 300.584 
L 110.7 272.22775 
Q 110.7 270.22775 108.7 270.22775 
L 64.6 270.22775 
Q 62.6 270.22775 62.6 272.22775 
L 62.6 300.584 
Q 62.6 302.584 64.6 302.584 
z
" style="fill: #ffffff; opacity: 0.8; stroke: #cccccc; stroke-linejoin: miter"/>
    </g>
    <g id="line2d_3">
     <path d="M 66.6 278.326187 
L 76.6 278.326187 
L 86.6 278.326187 
" style="fill: none; stroke: #1f77b4; stroke-width: 1.5; stroke-linecap: square"/>
    </g>
    <g id="text_4">
     <!-- $V_o$ -->
     <g transform="translate(94.6 281.826187) scale(0.1 -0.1)">
      <defs>
       <path id="DejaVuSans-Oblique-56" d="M 1319 0 
L 500 4666 
L 1119 4666 
L 1797 653 
L 4063 4666 
L 4750 4666 
L 2053 0 
L 1319 0 
z
" transform="scale(0.015625)"/>
       <path id="DejaVuSans-Oblique-6f" d="M 1625 -91 
Q 1009 -91 651 289 
Q 294 669 294 1325 
Q 294 1706 417 2101 
Q 541 2497 738 2766 
Q 1047 3184 1428 3384 
Q 1809 3584 2291 3584 
Q 2888 3584 3255 3212 
Q 3622 2841 3622 2241 
Q 3622 1825 3500 1412 
Q 3378 1000 3181 728 
Q 2875 309 2494 109 
Q 2113 -91 1625 -91 
z
M 891 1344 
Q 891 869 1089 633 
Q 1288 397 1691 397 
Q 2269 397 2648 901 
Q 3028 1406 3028 2181 
Q 3028 2634 2825 2865 
Q 2622 3097 2228 3097 
Q 1903 3097 1650 2945 
Q 1397 2794 1197 2484 
Q 1050 2253 970 1956 
Q 891 1659 891 1344 
z
" transform="scale(0.015625)"/>
      </defs>
      <use xlink:href="#DejaVuSans-Oblique-56" transform="translate(0 0.09375)"/>
      <use xlink:href="#DejaVuSans-Oblique-6f" transform="translate(68.408203 -16.3125) scale(0.7)"/>
     </g>
    </g>
    <g id="line2d_4">
     <path d="M 66.6 293.004312 
L 76.6 293.004312 
L 86.6 293.004312 
" style="fill: none; stroke: #ff7f0e; stroke-width: 1.5; stroke-linecap: square"/>
    </g>
    <g id="text_5">
     <!-- $V_C$ -->
     <g transform="translate(94.6 296.504312) scale(0.1 -0.1)">
      <defs>
       <path id="DejaVuSans-Oblique-43" d="M 4447 4306 
L 4319 3641 
Q 4019 3944 3683 4091 
Q 3347 4238 2956 4238 
Q 2422 4238 2017 3981 
Q 1613 3725 1319 3200 
Q 1131 2863 1032 2486 
Q 934 2109 934 1728 
Q 934 1091 1264 756 
Q 1594 422 2222 422 
Q 2656 422 3056 561 
Q 3456 700 3834 978 
L 3688 231 
Q 3316 72 2936 -9 
Q 2556 -91 2175 -91 
Q 1278 -91 773 396 
Q 269 884 269 1753 
Q 269 2309 461 2846 
Q 653 3384 1013 3828 
Q 1394 4300 1883 4525 
Q 2372 4750 3022 4750 
Q 3422 4750 3780 4639 
Q 4138 4528 4447 4306 
z
" transform="scale(0.015625)"/>
      </defs>
      <use xlink:href="#DejaVuSans-Oblique-56" transform="translate(0 0.09375)"/>
      <use xlink:href="#DejaVuSans-Oblique-43" transform="translate(68.408203 -16.3125) scale(0.7)"/>
     </g>
    </g>
   </g>
  </g>
 </g>
 <defs>
  <clipPath id="p5637659869">
   <rect x="57.6" y="41.472" width="357.12" height="266.112"/>
  </clipPath>
 </defs>
</svg>
