<?xml version="1.0" encoding="utf-8" standalone="no"?>
<!DOCTYPE svg PUBLIC "-//W3C//DTD SVG 1.1//EN"
  "http://www.w3.org/Graphics/SVG/1.1/DTD/svg11.dtd">
<svg xmlns:xlink="http://www.w3.org/1999/xlink" width="460.8pt" height="345.6pt" viewBox="0 0 460.8 345.6" xmlns="http://www.w3.org/2000/svg" version="1.1">
 <metadata>
  <rdf:RDF xmlns:dc="http://purl.org/dc/elements/1.1/" xmlns:cc="http://creativecommons.org/ns#" xmlns:rdf="http://www.w3.org/1999/02/22-rdf-syntax-ns#">
   <cc:Work>
    <dc:type rdf:resource="http://purl.org/dc/dcmitype/StillImage"/>
    <dc:date>2025-09-23T13:10:36.995000</dc:date>
    <dc:format>image/svg+xml</dc:format>
    <dc:creator>
     <cc:Agent>
      <dc:title>Matplotlib v3.8.4, https://matplotlib.org/</dc:title>
     </cc:Agent>
    </dc:creator>
   </cc:Work>
  </rdf:RDF>
 </metadata>
 <defs>
  <style type="text/css">*{stroke-linejoin: round; stroke-linecap: butt}</style>
 </defs>
 <g id="figure_1">
  <g id="patch_1">
   <path d="M 0 345.6 
L 460.8 345.6 
L 460.8 0 
L 0 0 
z
" style="fill: #ffffff"/>
  </g>
  <g id="axes_1">
   <g id="patch_2">
    <path d="M 57.6 307.584 
L 414.72 307.584 
L 414.72 41.472 
L 57.6 41.472 
z
" style="fill: #ffffff"/>
   </g>
   <g id="PolyCollection_1">
    <defs>
     <path id="m3c26c5e806" d="M 254.179817 -59.739429 
L 254.179817 -140.196571 
L 254.400445 -140.196571 
L 254.621073 -140.196571 
L 254.841701 -140.196571 
L 255.06233 -140.196571 
L 255.282958 -140.196571 
L 255.503586 -140.196571 
L 255.724215 -140.196571 
L 255.944843 -140.196571 
L 256.165471 -140.196571 
L 256.3861 -140.196571 
L 256.606728 -140.196571 
L 256.827356 -140.196571 
L 257.047984 -140.196571 
L 257.268613 -140.196571 
L 257.489241 -140.196571 
L 257.709869 -140.196571 
L 257.930498 -140.196571 
L 258.151126 -140.196571 
L 258.371754 -140.196571 
L 258.592383 -140.196571 
L 258.813011 -140.196571 
L 259.033639 -140.196571 
L 259.254267 -140.196571 
L 259.474896 -140.196571 
L 259.695524 -140.196571 
L 259.916152 -140.196571 
L 260.136781 -140.196571 
L 260.357409 -140.196571 
L 260.578037 -140.196571 
L 260.798666 -140.196571 
L 261.019294 -140.196571 
L 261.239922 -140.196571 
L 261.46055 -140.196571 
L 261.681179 -140.196571 
L 261.901807 -140.196571 
L 262.122435 -140.196571 
L 262.343064 -140.196571 
L 262.563692 -140.196571 
L 262.78432 -140.196571 
L 263.004949 -140.196571 
L 263.225577 -140.196571 
L 263.446205 -140.196571 
L 263.666833 -140.196571 
L 263.887462 -140.196571 
L 264.10809 -140.196571 
L 264.328718 -140.196571 
L 264.549347 -140.196571 
L 264.769975 -140.196571 
L 264.990603 -140.196571 
L 265.211232 -140.196571 
L 265.43186 -140.196571 
L 265.652488 -140.196571 
L 265.873116 -140.196571 
L 266.093745 -140.196571 
L 266.314373 -140.196571 
L 266.535001 -140.196571 
L 266.75563 -140.196571 
L 266.976258 -140.196571 
L 267.196886 -140.196571 
L 267.417515 -140.196571 
L 267.638143 -140.196571 
L 267.858771 -140.196571 
L 268.079399 -140.196571 
L 268.300028 -140.196571 
L 268.520656 -140.196571 
L 268.741284 -140.196571 
L 268.961913 -140.196571 
L 269.182541 -140.196571 
L 269.403169 -140.196571 
L 269.623798 -140.196571 
L 269.844426 -140.196571 
L 270.065054 -140.196571 
L 270.285683 -140.196571 
L 270.506311 -140.196571 
L 270.726939 -140.196571 
L 270.947567 -140.196571 
L 271.168196 -140.196571 
L 271.388824 -140.196571 
L 271.609452 -140.196571 
L 271.830081 -140.196571 
L 272.050709 -140.196571 
L 272.271337 -140.196571 
L 272.491966 -140.196571 
L 272.712594 -140.196571 
L 272.933222 -140.196571 
L 273.15385 -140.196571 
L 273.374479 -140.196571 
L 273.595107 -140.196571 
L 273.815735 -140.196571 
L 274.036364 -140.196571 
L 274.256992 -140.196571 
L 274.47762 -140.196571 
L 274.698249 -140.196571 
L 274.918877 -140.196571 
L 275.139505 -140.196571 
L 275.360133 -140.196571 
L 275.580762 -140.196571 
L 275.80139 -140.196571 
L 276.022018 -140.196571 
L 276.022018 -59.739429 
L 276.022018 -59.739429 
L 275.80139 -59.739429 
L 275.580762 -59.739429 
L 275.360133 -59.739429 
L 275.139505 -59.739429 
L 274.918877 -59.739429 
L 274.698249 -59.739429 
L 274.47762 -59.739429 
L 274.256992 -59.739429 
L 274.036364 -59.739429 
L 273.815735 -59.739429 
L 273.595107 -59.739429 
L 273.374479 -59.739429 
L 273.15385 -59.739429 
L 272.933222 -59.739429 
L 272.712594 -59.739429 
L 272.491966 -59.739429 
L 272.271337 -59.739429 
L 272.050709 -59.739429 
L 271.830081 -59.739429 
L 271.609452 -59.739429 
L 271.388824 -59.739429 
L 271.168196 -59.739429 
L 270.947567 -59.739429 
L 270.726939 -59.739429 
L 270.506311 -59.739429 
L 270.285683 -59.739429 
L 270.065054 -59.739429 
L 269.844426 -59.739429 
L 269.623798 -59.739429 
L 269.403169 -59.739429 
L 269.182541 -59.739429 
L 268.961913 -59.739429 
L 268.741284 -59.739429 
L 268.520656 -59.739429 
L 268.300028 -59.739429 
L 268.079399 -59.739429 
L 267.858771 -59.739429 
L 267.638143 -59.739429 
L 267.417515 -59.739429 
L 267.196886 -59.739429 
L 266.976258 -59.739429 
L 266.75563 -59.739429 
L 266.535001 -59.739429 
L 266.314373 -59.739429 
L 266.093745 -59.739429 
L 265.873116 -59.739429 
L 265.652488 -59.739429 
L 265.43186 -59.739429 
L 265.211232 -59.739429 
L 264.990603 -59.739429 
L 264.769975 -59.739429 
L 264.549347 -59.739429 
L 264.328718 -59.739429 
L 264.10809 -59.739429 
L 263.887462 -59.739429 
L 263.666833 -59.739429 
L 263.446205 -59.739429 
L 263.225577 -59.739429 
L 263.004949 -59.739429 
L 262.78432 -59.739429 
L 262.563692 -59.739429 
L 262.343064 -59.739429 
L 262.122435 -59.739429 
L 261.901807 -59.739429 
L 261.681179 -59.739429 
L 261.46055 -59.739429 
L 261.239922 -59.739429 
L 261.019294 -59.739429 
L 260.798666 -59.739429 
L 260.578037 -59.739429 
L 260.357409 -59.739429 
L 260.136781 -59.739429 
L 259.916152 -59.739429 
L 259.695524 -59.739429 
L 259.474896 -59.739429 
L 259.254267 -59.739429 
L 259.033639 -59.739429 
L 258.813011 -59.739429 
L 258.592383 -59.739429 
L 258.371754 -59.739429 
L 258.151126 -59.739429 
L 257.930498 -59.739429 
L 257.709869 -59.739429 
L 257.489241 -59.739429 
L 257.268613 -59.739429 
L 257.047984 -59.739429 
L 256.827356 -59.739429 
L 256.606728 -59.739429 
L 256.3861 -59.739429 
L 256.165471 -59.739429 
L 255.944843 -59.739429 
L 255.724215 -59.739429 
L 255.503586 -59.739429 
L 255.282958 -59.739429 
L 255.06233 -59.739429 
L 254.841701 -59.739429 
L 254.621073 -59.739429 
L 254.400445 -59.739429 
L 254.179817 -59.739429 
z
" style="stroke: #ff0000; stroke-opacity: 0.2"/>
    </defs>
    <g clip-path="url(#p17ef669e87)">
     <use xlink:href="#m3c26c5e806" x="0" y="345.6" style="fill: #ff0000; fill-opacity: 0.2; stroke: #ff0000; stroke-opacity: 0.2"/>
    </g>
   </g>
   <g id="matplotlib.axis_1"/>
   <g id="matplotlib.axis_2"/>
   <g id="line2d_1">
    <path d="M -1 285.860571 
L 90.081256 285.860571 
L 91.22584 68.626286 
L 253.756747 68.626286 
L 254.901331 285.860571 
L 417.432237 285.860571 
L 418.576821 68.626286 
L 461.8 68.626286 
L 461.8 68.626286 
" clip-path="url(#p17ef669e87)" style="fill: none; stroke: #0000ff; stroke-width: 1.5; stroke-linecap: square"/>
   </g>
   <g id="line2d_2">
    <path d="M -1 277.611204 
L 1.9483 278.655247 
L 6.526635 280.017768 
L 11.104971 281.122638 
L 15.683306 282.018578 
L 21.406225 282.90415 
L 28.273728 283.701744 
L 36.285815 284.364641 
L 45.442486 284.876908 
L 56.888325 285.278112 
L 71.767915 285.56585 
L 90.081256 285.860571 
L 92.370424 264.245821 
L 94.659592 244.781731 
L 96.948759 227.254314 
L 99.237927 211.470869 
L 101.527095 197.257873 
L 103.816263 184.459066 
L 106.10543 172.933736 
L 108.394598 162.555174 
L 110.683766 153.209276 
L 112.972933 144.793292 
L 115.262101 137.214696 
L 117.551269 130.390168 
L 119.840436 124.244679 
L 122.129604 118.710665 
L 124.418772 113.727283 
L 126.707939 109.239746 
L 128.997107 105.198718 
L 131.286275 101.559771 
L 133.575443 98.282899 
L 135.86461 95.332074 
L 138.153778 92.674856 
L 140.442946 90.28203 
L 142.732113 88.127289 
L 145.021281 86.186945 
L 148.455033 83.632343 
L 151.888784 81.449366 
L 155.322536 79.583954 
L 158.756287 77.989909 
L 162.190039 76.627754 
L 165.62379 75.463756 
L 170.202126 74.170796 
L 174.780461 73.122333 
L 180.50338 72.086002 
L 186.2263 71.288544 
L 193.093803 70.57031 
L 201.10589 69.973371 
L 210.262561 69.512075 
L 222.852983 69.124013 
L 240.021741 68.853074 
L 254.901331 68.626286 
L 257.190498 90.241037 
L 259.479666 109.705126 
L 261.768834 127.232544 
L 264.058001 143.015988 
L 266.347169 157.228984 
L 268.636337 170.027791 
L 270.925505 181.553121 
L 273.214672 191.931683 
L 275.50384 201.277581 
L 277.793008 209.693565 
L 280.082175 217.272161 
L 282.371343 224.096689 
L 284.660511 230.242178 
L 286.949678 235.776193 
L 289.238846 240.759574 
L 291.528014 245.247111 
L 293.817182 249.288139 
L 296.106349 252.927086 
L 298.395517 256.203958 
L 300.684685 259.154783 
L 302.973852 261.812002 
L 305.26302 264.204828 
L 307.552188 266.359568 
L 309.841355 268.299912 
L 313.275107 270.854515 
L 316.708859 273.037491 
L 320.14261 274.902903 
L 323.576362 276.496948 
L 327.010113 277.859103 
L 330.443865 279.023101 
L 335.0222 280.316061 
L 339.600536 281.364524 
L 345.323455 282.400855 
L 351.046374 283.198313 
L 357.913877 283.916547 
L 365.925964 284.513486 
L 375.082635 284.974782 
L 387.673057 285.362844 
L 404.841815 285.633783 
L 417.432237 285.860571 
L 419.721405 264.245821 
L 422.010573 244.781731 
L 424.29974 227.254314 
L 426.588908 211.470869 
L 428.878076 197.257873 
L 431.167244 184.459066 
L 433.456411 172.933736 
L 435.745579 162.555174 
L 438.034747 153.209276 
L 440.323914 144.793292 
L 442.613082 137.214696 
L 444.90225 130.390168 
L 447.191417 124.244679 
L 449.480585 118.710665 
L 451.769753 113.727283 
L 454.058921 109.239746 
L 456.348088 105.198718 
L 458.637256 101.559771 
L 460.926424 98.282899 
L 461.8 97.127328 
L 461.8 97.127328 
" clip-path="url(#p17ef669e87)" style="fill: none; stroke: #ff0000; stroke-width: 1.5; stroke-linecap: square"/>
   </g>
   <g id="LineCollection_1">
    <path d="M -1 68.626286 
L 254.179817 68.626286 
" clip-path="url(#p17ef669e87)" style="fill: none; stroke-dasharray: 5.55,2.4; stroke-dashoffset: 0; stroke: #000000; stroke-width: 1.5"/>
   </g>
   <g id="LineCollection_2">
    <path d="M -1 205.403429 
L 276.022018 205.403429 
" clip-path="url(#p17ef669e87)" style="fill: none; stroke-dasharray: 5.55,2.4; stroke-dashoffset: 0; stroke: #000000; stroke-width: 1.5"/>
   </g>
   <g id="LineCollection_3">
    <path d="M -1 285.860571 
L 461.8 285.860571 
" clip-path="url(#p17ef669e87)" style="fill: none; stroke-dasharray: 5.55,2.4; stroke-dashoffset: 0; stroke: #000000; stroke-width: 1.5"/>
   </g>
   <g id="LineCollection_4">
    <path d="M 276.022018 285.860571 
L 276.022018 205.403429 
" clip-path="url(#p17ef669e87)" style="fill: none; stroke-dasharray: 5.55,2.4; stroke-dashoffset: 0; stroke: #000000; stroke-width: 1.5"/>
   </g>
   <g id="patch_3">
    <path d="M 57.6 307.584 
L 57.6 41.472 
" style="fill: none; stroke: #000000; stroke-width: 0.8; stroke-linejoin: miter; stroke-linecap: square"/>
   </g>
   <g id="patch_4">
    <path d="M 414.72 307.584 
L 414.72 41.472 
" style="fill: none; stroke: #000000; stroke-width: 0.8; stroke-linejoin: miter; stroke-linecap: square"/>
   </g>
   <g id="patch_5">
    <path d="M 57.6 307.584 
L 414.72 307.584 
" style="fill: none; stroke: #000000; stroke-width: 0.8; stroke-linejoin: miter; stroke-linecap: square"/>
   </g>
   <g id="patch_6">
    <path d="M 57.6 41.472 
L 414.72 41.472 
" style="fill: none; stroke: #000000; stroke-width: 0.8; stroke-linejoin: miter; stroke-linecap: square"/>
   </g>
   <g id="text_1">
    <!-- $V_o$ -->
    <g transform="translate(31.389358 68.626286) scale(0.1 -0.1)">
     <defs>
      <path id="DejaVuSans-Oblique-56" d="M 1319 0 
L 500 4666 
L 1119 4666 
L 1797 653 
L 4063 4666 
L 4750 4666 
L 2053 0 
L 1319 0 
z
" transform="scale(0.015625)"/>
      <path id="DejaVuSans-Oblique-6f" d="M 1625 -91 
Q 1009 -91 651 289 
Q 294 669 294 1325 
Q 294 1706 417 2101 
Q 541 2497 738 2766 
Q 1047 3184 1428 3384 
Q 1809 3584 2291 3584 
Q 2888 3584 3255 3212 
Q 3622 2841 3622 2241 
Q 3622 1825 3500 1412 
Q 3378 1000 3181 728 
Q 2875 309 2494 109 
Q 2113 -91 1625 -91 
z
M 891 1344 
Q 891 869 1089 633 
Q 1288 397 1691 397 
Q 2269 397 2648 901 
Q 3028 1406 3028 2181 
Q 3028 2634 2825 2865 
Q 2622 3097 2228 3097 
Q 1903 3097 1650 2945 
Q 1397 2794 1197 2484 
Q 1050 2253 970 1956 
Q 891 1659 891 1344 
z
" transform="scale(0.015625)"/>
     </defs>
     <use xlink:href="#DejaVuSans-Oblique-56" transform="translate(0 0.09375)"/>
     <use xlink:href="#DejaVuSans-Oblique-6f" transform="translate(68.408203 -16.3125) scale(0.7)"/>
    </g>
   </g>
   <g id="text_2">
    <!-- $V_o/e$ -->
    <g transform="translate(24.836697 205.403429) scale(0.1 -0.1)">
     <defs>
      <path id="DejaVuSans-2f" d="M 1625 4666 
L 2156 4666 
L 531 -594 
L 0 -594 
L 1625 4666 
z
" transform="scale(0.015625)"/>
      <path id="DejaVuSans-Oblique-65" d="M 3078 2063 
Q 3088 2113 3092 2166 
Q 3097 2219 3097 2272 
Q 3097 2653 2873 2875 
Q 2650 3097 2266 3097 
Q 1838 3097 1509 2826 
Q 1181 2556 1013 2059 
L 3078 2063 
z
M 3578 1613 
L 903 1613 
Q 884 1494 878 1425 
Q 872 1356 872 1306 
Q 872 872 1139 634 
Q 1406 397 1894 397 
Q 2269 397 2603 481 
Q 2938 566 3225 728 
L 3116 159 
Q 2806 34 2476 -28 
Q 2147 -91 1806 -91 
Q 1078 -91 686 257 
Q 294 606 294 1247 
Q 294 1794 489 2264 
Q 684 2734 1063 3103 
Q 1306 3334 1642 3459 
Q 1978 3584 2356 3584 
Q 2950 3584 3301 3228 
Q 3653 2872 3653 2272 
Q 3653 2128 3634 1964 
Q 3616 1800 3578 1613 
z
" transform="scale(0.015625)"/>
     </defs>
     <use xlink:href="#DejaVuSans-Oblique-56" transform="translate(0 0.09375)"/>
     <use xlink:href="#DejaVuSans-Oblique-6f" transform="translate(68.408203 -16.3125) scale(0.7)"/>
     <use xlink:href="#DejaVuSans-2f" transform="translate(113.969727 0.09375)"/>
     <use xlink:href="#DejaVuSans-Oblique-65" transform="translate(147.661133 0.09375)"/>
    </g>
   </g>
   <g id="text_3">
    <!-- $V=0$ -->
    <g transform="translate(24.836697 285.860571) scale(0.1 -0.1)">
     <defs>
      <path id="DejaVuSans-3d" d="M 678 2906 
L 4684 2906 
L 4684 2381 
L 678 2381 
L 678 2906 
z
M 678 1631 
L 4684 1631 
L 4684 1100 
L 678 1100 
L 678 1631 
z
" transform="scale(0.015625)"/>
      <path id="DejaVuSans-30" d="M 2034 4250 
Q 1547 4250 1301 3770 
Q 1056 3291 1056 2328 
Q 1056 1369 1301 889 
Q 1547 409 2034 409 
Q 2525 409 2770 889 
Q 3016 1369 3016 2328 
Q 3016 3291 2770 3770 
Q 2525 4250 2034 4250 
z
M 2034 4750 
Q 2819 4750 3233 4129 
Q 3647 3509 3647 2328 
Q 3647 1150 3233 529 
Q 2819 -91 2034 -91 
Q 1250 -91 836 529 
Q 422 1150 422 2328 
Q 422 3509 836 4129 
Q 1250 4750 2034 4750 
z
" transform="scale(0.015625)"/>
     </defs>
     <use xlink:href="#DejaVuSans-Oblique-56" transform="translate(0 0.78125)"/>
     <use xlink:href="#DejaVuSans-3d" transform="translate(87.890625 0.78125)"/>
     <use xlink:href="#DejaVuSans-30" transform="translate(191.162109 0.78125)"/>
    </g>
   </g>
   <g id="text_4">
    <!-- $\Delta t=RC$ -->
    <g transform="translate(237.798165 302.153143) scale(0.1 -0.1)">
     <defs>
      <path id="DejaVuSans-394" d="M 2188 4044 
L 906 525 
L 3472 525 
L 2188 4044 
z
M 50 0 
L 1831 4666 
L 2547 4666 
L 4325 0 
L 50 0 
z
" transform="scale(0.015625)"/>
      <path id="DejaVuSans-Oblique-74" d="M 2706 3500 
L 2619 3053 
L 1472 3053 
L 1100 1153 
Q 1081 1047 1072 975 
Q 1063 903 1063 863 
Q 1063 663 1183 572 
Q 1303 481 1569 481 
L 2150 481 
L 2053 0 
L 1503 0 
Q 991 0 739 200 
Q 488 400 488 806 
Q 488 878 497 964 
Q 506 1050 525 1153 
L 897 3053 
L 409 3053 
L 500 3500 
L 978 3500 
L 1172 4494 
L 1747 4494 
L 1556 3500 
L 2706 3500 
z
" transform="scale(0.015625)"/>
      <path id="DejaVuSans-Oblique-52" d="M 1613 4147 
L 1294 2491 
L 2106 2491 
Q 2584 2491 2879 2755 
Q 3175 3019 3175 3444 
Q 3175 3784 2976 3965 
Q 2778 4147 2406 4147 
L 1613 4147 
z
M 2772 2241 
Q 2972 2194 3105 2009 
Q 3238 1825 3413 1275 
L 3809 0 
L 3144 0 
L 2778 1197 
Q 2638 1659 2453 1815 
Q 2269 1972 1888 1972 
L 1191 1972 
L 806 0 
L 172 0 
L 1081 4666 
L 2503 4666 
Q 3150 4666 3495 4373 
Q 3841 4081 3841 3531 
Q 3841 3044 3547 2687 
Q 3253 2331 2772 2241 
z
" transform="scale(0.015625)"/>
      <path id="DejaVuSans-Oblique-43" d="M 4447 4306 
L 4319 3641 
Q 4019 3944 3683 4091 
Q 3347 4238 2956 4238 
Q 2422 4238 2017 3981 
Q 1613 3725 1319 3200 
Q 1131 2863 1032 2486 
Q 934 2109 934 1728 
Q 934 1091 1264 756 
Q 1594 422 2222 422 
Q 2656 422 3056 561 
Q 3456 700 3834 978 
L 3688 231 
Q 3316 72 2936 -9 
Q 2556 -91 2175 -91 
Q 1278 -91 773 396 
Q 269 884 269 1753 
Q 269 2309 461 2846 
Q 653 3384 1013 3828 
Q 1394 4300 1883 4525 
Q 2372 4750 3022 4750 
Q 3422 4750 3780 4639 
Q 4138 4528 4447 4306 
z
" transform="scale(0.015625)"/>
     </defs>
     <use xlink:href="#DejaVuSans-394" transform="translate(0 0.78125)"/>
     <use xlink:href="#DejaVuSans-Oblique-74" transform="translate(68.408203 0.78125)"/>
     <use xlink:href="#DejaVuSans-3d" transform="translate(127.099609 0.78125)"/>
     <use xlink:href="#DejaVuSans-Oblique-52" transform="translate(230.371094 0.78125)"/>
     <use xlink:href="#DejaVuSans-Oblique-43" transform="translate(299.853516 0.78125)"/>
    </g>
   </g>
   <g id="legend_1">
    <g id="patch_7">
     <path d="M 363.62 78.82825 
L 407.72 78.82825 
Q 409.72 78.82825 409.72 76.82825 
L 409.72 48.472 
Q 409.72 46.472 407.72 46.472 
L 363.62 46.472 
Q 361.62 46.472 361.62 48.472 
L 361.62 76.82825 
Q 361.62 78.82825 363.62 78.82825 
z
" style="fill: #ffffff; opacity: 0.8; stroke: #cccccc; stroke-linejoin: miter"/>
    </g>
    <g id="line2d_3">
     <path d="M 365.62 54.570437 
L 375.62 54.570437 
L 385.62 54.570437 
" style="fill: none; stroke: #0000ff; stroke-width: 1.5; stroke-linecap: square"/>
    </g>
    <g id="text_5">
     <!-- $V_o$ -->
     <g transform="translate(393.62 58.070437) scale(0.1 -0.1)">
      <use xlink:href="#DejaVuSans-Oblique-56" transform="translate(0 0.09375)"/>
      <use xlink:href="#DejaVuSans-Oblique-6f" transform="translate(68.408203 -16.3125) scale(0.7)"/>
     </g>
    </g>
    <g id="line2d_4">
     <path d="M 365.62 69.248562 
L 375.62 69.248562 
L 385.62 69.248562 
" style="fill: none; stroke: #ff0000; stroke-width: 1.5; stroke-linecap: square"/>
    </g>
    <g id="text_6">
     <!-- $V_C$ -->
     <g transform="translate(393.62 72.748562) scale(0.1 -0.1)">
      <use xlink:href="#DejaVuSans-Oblique-56" transform="translate(0 0.09375)"/>
      <use xlink:href="#DejaVuSans-Oblique-43" transform="translate(68.408203 -16.3125) scale(0.7)"/>
     </g>
    </g>
   </g>
  </g>
 </g>
 <defs>
  <clipPath id="p17ef669e87">
   <rect x="57.6" y="41.472" width="357.12" height="266.112"/>
  </clipPath>
 </defs>
</svg>
