<?xml version="1.0" encoding="UTF-8" standalone="no"?>
<!-- Created with Inkscape (http://www.inkscape.org/) -->

<svg
   width="750mm"
   height="600mm"
   viewBox="0 0 750 600"
   version="1.1"
   id="svg1"
   inkscape:version="1.4 (86a8ad7, 2024-10-11)"
   sodipodi:docname="npnbjtamplifier.svg"
   xmlns:inkscape="http://www.inkscape.org/namespaces/inkscape"
   xmlns:sodipodi="http://sodipodi.sourceforge.net/DTD/sodipodi-0.dtd"
   xmlns="http://www.w3.org/2000/svg"
   xmlns:svg="http://www.w3.org/2000/svg"
   xmlns:ns3="http://www.iki.fi/pav/software/textext/">
  <sodipodi:namedview
     id="namedview1"
     pagecolor="#ffffff"
     bordercolor="#000000"
     borderopacity="0.25"
     inkscape:showpageshadow="2"
     inkscape:pageopacity="0.0"
     inkscape:pagecheckerboard="0"
     inkscape:deskcolor="#d1d1d1"
     inkscape:document-units="mm"
     inkscape:zoom="0.35411406"
     inkscape:cx="1262.3051"
     inkscape:cy="1227.0058"
     inkscape:window-width="1920"
     inkscape:window-height="1013"
     inkscape:window-x="-9"
     inkscape:window-y="-9"
     inkscape:window-maximized="1"
     inkscape:current-layer="svg1" />
  <defs
     id="defs1">
    <marker
       style="overflow:visible"
       id="marker115"
       refX="0"
       refY="0"
       orient="auto-start-reverse"
       inkscape:stockid="Concave triangle arrow"
       markerWidth="1"
       markerHeight="1"
       viewBox="0 0 1 1"
       inkscape:isstock="true"
       inkscape:collect="always"
       preserveAspectRatio="xMidYMid">
      <path
         transform="scale(0.7)"
         d="M -2,-4 9,0 -2,4 c 2,-2.33 2,-5.66 0,-8 z"
         style="fill:context-stroke;fill-rule:evenodd;stroke:none"
         id="path115" />
    </marker>
    <marker
       style="overflow:visible"
       id="ConcaveTriangle"
       refX="0"
       refY="0"
       orient="auto-start-reverse"
       inkscape:stockid="Concave triangle arrow"
       markerWidth="1"
       markerHeight="1"
       viewBox="0 0 1 1"
       inkscape:isstock="true"
       inkscape:collect="always"
       preserveAspectRatio="xMidYMid">
      <path
         transform="scale(0.7)"
         d="M -2,-4 9,0 -2,4 c 2,-2.33 2,-5.66 0,-8 z"
         style="fill:context-stroke;fill-rule:evenodd;stroke:none"
         id="path114" />
    </marker>
    <inkscape:path-effect
       effect="bspline"
       id="path-effect113"
       is_visible="true"
       lpeversion="1.3"
       weight="33.333333"
       steps="2"
       helper_size="0"
       apply_no_weight="true"
       apply_with_weight="true"
       only_selected="false"
       uniform="false" />
    <clipPath
       clipPathUnits="userSpaceOnUse"
       id="clipPath52">
      <path
         id="path52"
         style="stroke-width:0.1;stroke-linecap:square;paint-order:markers fill stroke;stop-color:#000000"
         d="m -880.82767,-187.29769 h 1640.84 v 73.28155 h -1640.84 z" />
    </clipPath>
    <marker
       style="overflow:visible"
       id="marker19"
       refX="2.5"
       refY="0"
       orient="auto"
       inkscape:stockid="Colored dot"
       markerWidth="1"
       markerHeight="1"
       viewBox="0 0 1 1"
       inkscape:isstock="true"
       inkscape:collect="always"
       preserveAspectRatio="xMidYMid">
      <path
         transform="scale(0.45)"
         style="fill:context-fill;fill-rule:evenodd;stroke:context-stroke;stroke-width:2"
         d="M 5,0 C 5,2.76 2.76,5 0,5 -2.76,5 -5,2.76 -5,0 c 0,-2.76 2.3,-5 5,-5 2.76,0 5,2.24 5,5 z"
         sodipodi:nodetypes="sssss"
         id="path19" />
    </marker>
    <marker
       style="overflow:visible"
       id="marker103"
       refX="-2.5"
       refY="0"
       orient="auto"
       inkscape:stockid="Colored dot"
       markerWidth="1"
       markerHeight="1"
       viewBox="0 0 1 1"
       inkscape:isstock="true"
       inkscape:collect="always"
       preserveAspectRatio="xMidYMid">
      <path
         transform="scale(0.45)"
         style="fill:context-fill;fill-rule:evenodd;stroke:context-stroke;stroke-width:2"
         d="M 5,0 C 5,2.76 2.76,5 0,5 -2.76,5 -5,2.76 -5,0 c 0,-2.76 2.3,-5 5,-5 2.76,0 5,2.24 5,5 z"
         sodipodi:nodetypes="sssss"
         id="path103" />
    </marker>
    <marker
       inkscape:stockid="BJTArrow"
       orient="auto"
       refY="0"
       refX="0"
       id="BJTArrow"
       style="overflow:visible">
      <path
         d="m 0,0 -3,1.25 v -2.5 z"
         style="fill:#000000;fill-opacity:1;fill-rule:evenodd;stroke:#000000;stroke-width:0.6;stroke-opacity:1"
         id="path9" />
    </marker>
  </defs>
  <g
     inkscape:label="Layer 1"
     inkscape:groupmode="layer"
     id="layer1" />
  <g
     inkscape:label="Resistor"
     id="g36"
     transform="matrix(0,-3,3,0,-236.72143,973.07942)">
    <g
       id="g35">
      <path
         inkscape:label="none"
         style="fill:none;fill-opacity:1;stroke:#000000;stroke-width:1;stroke-linecap:round;stroke-linejoin:round;stroke-dasharray:none;stroke-opacity:1"
         d="m 225,160 h 15.5 l 2,3 3,-6 3,6 3,-6 3,6 3,-6 2,3 H 275"
         id="path35" />
    </g>
  </g>
  <path
     style="fill:none;stroke:#000000;stroke-width:3;stroke-linecap:round;stroke-dasharray:none;stroke-opacity:1"
     d="M 243.27586,185.77048 V 147.64682"
     id="path37" />
  <g
     inkscape:label="Resistor"
     id="g40"
     transform="matrix(0,-3,3,0,-236.72143,1169.926)">
    <g
       id="g39">
      <path
         inkscape:label="none"
         style="fill:none;fill-opacity:1;stroke:#000000;stroke-width:1;stroke-linecap:round;stroke-linejoin:round;stroke-dasharray:none;stroke-opacity:1"
         d="m 225,160 h 15.5 l 2,3 3,-6 3,6 3,-6 3,6 3,-6 2,3 H 275"
         id="path38" />
    </g>
  </g>
  <g
     inkscape:label="Resistor"
     id="g42"
     transform="matrix(0,-3,3,0,-68.020693,1184.4139)">
    <g
       id="g41">
      <path
         inkscape:label="none"
         style="fill:none;fill-opacity:1;stroke:#000000;stroke-width:1;stroke-linecap:round;stroke-linejoin:round;stroke-dasharray:none;stroke-opacity:1"
         d="m 225,160 h 15.5 l 2,3 3,-6 3,6 3,-6 3,6 3,-6 2,3 H 275"
         id="path40" />
    </g>
  </g>
  <path
     style="opacity:1;fill:none;fill-opacity:1;stroke:#000000;stroke-width:3;stroke-linecap:round;stroke-miterlimit:0;stroke-dasharray:none;stroke-opacity:1;marker-start:url(#marker19)"
     d="m 74.707334,326.08814 71.611086,0.27456"
     id="path64" />
  <g
     inkscape:label="BJT"
     transform="matrix(3,0,0,3,67.181319,-153.85982)"
     id="g17">
    <g
       inkscape:label="BJT"
       id="g16">
      <path
         inkscape:label="none"
         style="fill:none;fill-opacity:1;stroke:#000000;stroke-width:1;stroke-linecap:round;stroke-linejoin:round;stroke-dasharray:none;stroke-opacity:1"
         d="m 80,160 h 28"
         id="path11" />
      <path
         inkscape:label="none"
         style="fill:none;fill-opacity:1;stroke:#000000;stroke-width:2;stroke-linecap:round;stroke-linejoin:round;stroke-dasharray:none;stroke-opacity:1"
         d="m 107.5,154 v 12"
         id="path12" />
      <path
         inkscape:label="none"
         style="fill:none;fill-opacity:1;stroke:#000000;stroke-width:1;stroke-linecap:round;stroke-linejoin:round;stroke-dasharray:none;stroke-opacity:1"
         d="m 108,157 7,-5 v -17"
         id="path13" />
      <path
         inkscape:label="none"
         style="fill:none;fill-opacity:1;stroke:#000000;stroke-width:1;stroke-linecap:round;stroke-linejoin:round;stroke-dasharray:none;stroke-opacity:1;marker-end:url(#BJTArrow)"
         d="m 108,163 7,5"
         id="path14" />
      <path
         inkscape:label="none"
         style="fill:none;fill-opacity:1;stroke:#000000;stroke-width:1;stroke-linecap:round;stroke-linejoin:round;stroke-dasharray:none;stroke-opacity:1"
         d="m 115,168 v 17"
         id="path15" />
      <circle
         inkscape:label="circle"
         style="fill:none;fill-opacity:1;stroke:#000000;stroke-width:1;stroke-linecap:round;stroke-linejoin:round;stroke-dasharray:none;stroke-opacity:1"
         id="path16"
         cx="112"
         cy="160"
         r="10" />
    </g>
  </g>
  <g
     inkscape:label="GND"
     id="g4"
     transform="matrix(3,0,0,3,-421.64413,-209.75434)"
     style="stroke:#000000;stroke-opacity:1">
    <path
       inkscape:label="none"
       style="fill:none;fill-opacity:1;stroke:#000000;stroke-width:1;stroke-linecap:round;stroke-linejoin:round;stroke-dasharray:none;stroke-opacity:1"
       d="m 250,240 v 10"
       id="path1" />
    <path
       inkscape:label="none"
       style="fill:none;fill-opacity:1;stroke:#000000;stroke-width:1;stroke-linecap:round;stroke-linejoin:round;stroke-dasharray:none;stroke-opacity:1"
       d="M 257,250 H 243"
       id="path2" />
    <path
       inkscape:label="none"
       style="fill:none;fill-opacity:1;stroke:#000000;stroke-width:1;stroke-linecap:round;stroke-linejoin:round;stroke-dasharray:none;stroke-opacity:1"
       d="m 253.5,252 h -7"
       id="path3" />
    <path
       inkscape:label="none"
       style="fill:none;fill-opacity:1;stroke:#000000;stroke-width:1;stroke-linecap:round;stroke-linejoin:round;stroke-dasharray:none;stroke-opacity:1"
       d="m 251,254 h -2"
       id="path4" />
  </g>
  <path
     style="fill:none;stroke:#000000;stroke-width:3;stroke-linecap:round;stroke-dasharray:none;stroke-opacity:1;marker-end:url(#marker103)"
     d="M 327.33947,146.18216 V 93.37728"
     id="path5" />
  <text
     xml:space="preserve"
     style="font-style:normal;font-variant:normal;font-weight:normal;font-stretch:normal;font-size:35.2778px;font-family:'Times New Roman';-inkscape-font-specification:'Times New Roman, Normal';font-variant-ligatures:normal;font-variant-caps:normal;font-variant-numeric:normal;font-variant-east-asian:normal;text-align:start;writing-mode:lr-tb;direction:ltr;text-anchor:start;opacity:1;fill:#000000;fill-opacity:1;stroke:#000000;stroke-width:0.25;stroke-linecap:round;stroke-dasharray:none;stroke-opacity:1"
     x="283.22073"
     y="64.203133"
     id="text5"><tspan
       sodipodi:role="line"
       id="tspan5"
       x="283.22073"
       y="64.203133">+15 V</tspan></text>
  <g
     inkscape:label="Resistor"
     id="g7"
     transform="matrix(0,-3,3,0,-67.815913,973.07942)">
    <g
       id="g6">
      <path
         inkscape:label="none"
         style="fill:none;fill-opacity:1;stroke:#000000;stroke-width:1;stroke-linecap:round;stroke-linejoin:round;stroke-dasharray:none;stroke-opacity:1"
         d="m 225,160 h 15.5 l 2,3 3,-6 3,6 3,-6 3,6 3,-6 2,3 H 275"
         id="path6" />
    </g>
  </g>
  <g
     inkscape:label="Capacitor"
     id="g19"
     transform="matrix(3,0,0,3,-257.58851,-243.71612)">
    <g
       id="g18">
      <path
         inkscape:label="none"
         style="fill:none;fill-opacity:1;stroke:#000000;stroke-width:1;stroke-linecap:round;stroke-linejoin:round;stroke-dasharray:none;stroke-opacity:1"
         d="m 142,190 h 23"
         id="path7" />
      <path
         inkscape:label="none"
         style="fill:none;fill-opacity:1;stroke:#000000;stroke-width:1;stroke-linecap:round;stroke-linejoin:round;stroke-dasharray:none;stroke-opacity:1"
         d="M 142,197 V 183"
         id="path8" />
      <path
         inkscape:label="none"
         style="fill:none;fill-opacity:1;stroke:#000000;stroke-width:1;stroke-linecap:round;stroke-linejoin:round;stroke-dasharray:none;stroke-opacity:1"
         d="M 138,190 H 115"
         id="path10" />
      <path
         inkscape:label="none"
         style="fill:none;fill-opacity:1;stroke:#000000;stroke-width:1;stroke-linecap:round;stroke-linejoin:round;stroke-dasharray:none;stroke-opacity:1"
         d="M 138,197 V 183"
         id="path17" />
    </g>
  </g>
  <circle
     id="path21"
     style="fill:#000000;stroke:#000000;stroke-width:0.264583"
     cx="205.47507"
     cy="326.62637"
     r="0.39896443" />
  <path
     style="fill:#000000;stroke:#000000;stroke-width:3;stroke-linecap:round;stroke-dasharray:none"
     d="m 203.36118,326.37768 105.13743,-0.26416"
     id="path22" />
  <path
     style="fill:#000000;stroke:#000000;stroke-width:3;stroke-linecap:round;stroke-dasharray:none"
     d="m 243.30123,297.36297 v 47.91226"
     id="path23" />
  <g
     inkscape:label="Capacitor"
     id="g29"
     transform="matrix(-3,0,0,3,1017.3788,-295.27084)">
    <g
       id="g28">
      <path
         inkscape:label="none"
         style="fill:none;fill-opacity:1;stroke:#000000;stroke-width:1;stroke-linecap:round;stroke-linejoin:round;stroke-dasharray:none;stroke-opacity:1"
         d="m 142,190 h 23"
         id="path25" />
      <path
         inkscape:label="none"
         style="fill:none;fill-opacity:1;stroke:#000000;stroke-width:1;stroke-linecap:round;stroke-linejoin:round;stroke-dasharray:none;stroke-opacity:1"
         d="M 142,197 V 183"
         id="path26" />
      <path
         inkscape:label="none"
         style="fill:none;fill-opacity:1;stroke:#000000;stroke-width:1;stroke-linecap:round;stroke-linejoin:round;stroke-dasharray:none;stroke-opacity:1"
         d="M 138,190 H 115"
         id="path27" />
      <path
         inkscape:label="none"
         style="fill:none;fill-opacity:1;stroke:#000000;stroke-width:1;stroke-linecap:round;stroke-linejoin:round;stroke-dasharray:none;stroke-opacity:1"
         d="M 138,197 V 183"
         id="path28" />
    </g>
  </g>
  <path
     style="fill:#000000;stroke:#000000;stroke-width:3;stroke-linecap:round;stroke-miterlimit:0;stroke-dasharray:none"
     d="m 243.25001,147.25803 168.80107,0.79249"
     id="path70" />
  <path
     style="fill:#000000;stroke:#000000;stroke-width:3;stroke-linecap:round;stroke-miterlimit:0;stroke-dasharray:none"
     d="m 243.25001,508.88822 168.80107,0.79249"
     id="path71" />
  <path
     style="fill:none;stroke:#000000;stroke-width:3;stroke-linecap:round;stroke-dasharray:none;stroke-opacity:1"
     d="M 243.27586,508.76584 V 470.64218"
     id="path72" />
  <g
     transform="matrix(3.57188,0,0,3.57188,-240.08925,55.714895)"
     ns3:version="1.11.1"
     ns3:texconverter="typst"
     ns3:pdfconverter="inkscape"
     ns3:text="$V_o$"
     ns3:preamble="C:\Users\messinat\AppData\Roaming\inkscape\extensions\textext\default_preamble_typst.typ"
     ns3:scale="10.125000141732132"
     ns3:alignment="middle center"
     ns3:inkscapeversion="1.4"
     ns3:jacobian_sqrt="3.57188"
     id="g95">
    <g
       id="g94">
      <g
         transform="translate(70.8661,78.3791)"
         id="g90">
        <g
           class="typst-text"
           transform="scale(1,-1)"
           id="g89">
          <g
             id="g88">
            <path
               d="M 7.381,7.48 C 7.172,7.48 6.512,7.513 6.303,7.513 6.138,7.513 6.05,7.425 6.05,7.2599998 6.05,7.15 6.127,7.095 6.27,7.084 6.578,7.073 6.732,6.963 6.732,6.776 6.732,6.677 6.677,6.545 6.578,6.38 L 3.3,1.177 2.574,6.809 c 0,0.187 0.231,0.275 0.7039999,0.275 C 3.498,7.084 3.597,7.161 3.597,7.348 3.597,7.458 3.531,7.513 3.399,7.513 3.157,7.513 2.299,7.48 2.057,7.48 1.837,7.48 1.089,7.513 0.869,7.513 0.704,7.513 0.616,7.425 0.616,7.2599998 0.616,7.139 0.726,7.084 0.935,7.084 1.122,7.084 1.254,7.062 1.342,7.04 1.518,6.985 1.507,6.963 1.54,6.754 l 0.858,-6.71 c 0.033,-0.187 0.121,-0.286 0.264,-0.286 0.143,0 0.253,0.077 0.341,0.22 L 6.919,6.204 C 7.172,6.6 7.414,6.853 7.656,6.952 7.821,7.029 8.03,7.073 8.272,7.084 8.393,7.095 8.448,7.172 8.459,7.337 8.47,7.458 8.404,7.513 8.272,7.513 8.107,7.513 7.546,7.48 7.381,7.48 Z"
               id="path88" />
          </g>
        </g>
      </g>
      <g
         transform="translate(76.1791,81.0961)"
         id="g93">
        <g
           class="typst-text"
           transform="scale(1,-1)"
           id="g92">
          <g
             id="g91">
            <path
               d="m 2.6873,3.3957 c -0.5544,0 -1.0549,-0.2156 -1.5169,-0.6468 -0.462,-0.4312 -0.693,-0.924 -0.693,-1.4707 0,-0.8085 0.6006,-1.3552 1.4091,-1.3552 0.5621,0 1.0626,0.21559999 1.5169,0.6468 0.4542999,0.4312 0.6853,0.9163 0.6853,1.4707 0,0.8085 -0.5852,1.3552 -1.4014,1.3552 z M 3.4111,2.31 C 3.4111,1.9018999 3.2031999,1.2397 3.0261,0.9394 2.8181999,0.5852 2.3947,0.1925 1.8942,0.1925 c -0.462,0 -0.7315001,0.3388 -0.7315001,0.8162 0,0.5236 0.2618001,1.2397 0.5082001,1.5631 0.2848999,0.3696 0.616,0.5544 1.0087,0.5544 0.462,0 0.7315,-0.3542 0.7315,-0.8162 z"
               id="path90" />
          </g>
        </g>
      </g>
    </g>
    <defs
       id="id-266638bd-58f7-4a1d-8b44-dc04e66333e9">
      <symbol
         id="id-3991554c-52c8-4e99-90fc-a02e1ff3e566"
         overflow="visible">
        <path
           d="M 7.381,7.48 C 7.172,7.48 6.512,7.513 6.303,7.513 6.138,7.513 6.05,7.425 6.05,7.2599998 6.05,7.15 6.127,7.095 6.27,7.084 6.578,7.073 6.732,6.963 6.732,6.776 6.732,6.677 6.677,6.545 6.578,6.38 L 3.3,1.177 2.574,6.809 c 0,0.187 0.231,0.275 0.7039999,0.275 C 3.498,7.084 3.597,7.161 3.597,7.348 3.597,7.458 3.531,7.513 3.399,7.513 3.157,7.513 2.299,7.48 2.057,7.48 1.837,7.48 1.089,7.513 0.869,7.513 0.704,7.513 0.616,7.425 0.616,7.2599998 0.616,7.139 0.726,7.084 0.935,7.084 1.122,7.084 1.254,7.062 1.342,7.04 1.518,6.985 1.507,6.963 1.54,6.754 l 0.858,-6.71 c 0.033,-0.187 0.121,-0.286 0.264,-0.286 0.143,0 0.253,0.077 0.341,0.22 L 6.919,6.204 C 7.172,6.6 7.414,6.853 7.656,6.952 7.821,7.029 8.03,7.073 8.272,7.084 8.393,7.095 8.448,7.172 8.459,7.337 8.47,7.458 8.404,7.513 8.272,7.513 8.107,7.513 7.546,7.48 7.381,7.48 Z"
           id="path94" />
      </symbol>
      <symbol
         id="id-d5b9819c-054e-458e-8282-c4af31e33e95"
         overflow="visible">
        <path
           d="m 2.6873,3.3957 c -0.5544,0 -1.0549,-0.2156 -1.5169,-0.6468 -0.462,-0.4312 -0.693,-0.924 -0.693,-1.4707 0,-0.8085 0.6006,-1.3552 1.4091,-1.3552 0.5621,0 1.0626,0.21559999 1.5169,0.6468 0.4542999,0.4312 0.6853,0.9163 0.6853,1.4707 0,0.8085 -0.5852,1.3552 -1.4014,1.3552 z M 3.4111,2.31 C 3.4111,1.9018999 3.2031999,1.2397 3.0261,0.9394 2.8181999,0.5852 2.3947,0.1925 1.8942,0.1925 c -0.462,0 -0.7315001,0.3388 -0.7315001,0.8162 0,0.5236 0.2618001,1.2397 0.5082001,1.5631 0.2848999,0.3696 0.616,0.5544 1.0087,0.5544 0.462,0 0.7315,-0.3542 0.7315,-0.8162 z"
           id="path95" />
      </symbol>
    </defs>
  </g>
  <g
     inkscape:label="Resistor"
     id="g106"
     transform="matrix(3,0,0,3,-254.32696,-94.267183)"
     style="stroke:#000000;stroke-dasharray:none;stroke-dashoffset:0;stroke-opacity:1">
    <g
       id="g105"
       style="stroke:#000000;stroke-dasharray:none;stroke-dashoffset:0;stroke-opacity:1">
      <path
         inkscape:label="none"
         style="fill:none;fill-opacity:1;stroke:#000000;stroke-width:1;stroke-linecap:round;stroke-linejoin:round;stroke-dasharray:none;stroke-dashoffset:0;stroke-opacity:1"
         d="m 225,160 h 15.5 l 2,3 3,-6 3,6 3,-6 3,6 3,-6 2,3 H 275"
         id="path105" />
    </g>
  </g>
  <path
     style="fill:none;stroke:#000000;stroke-width:3;stroke-linecap:round;stroke-miterlimit:0;stroke-dasharray:none;stroke-dashoffset:0;stroke-opacity:1;marker-start:url(#marker115)"
     d="m 570.75159,297.69707 -0.19183,88.1236 h -32.03512"
     id="path111" />
  <path
     style="fill:none;stroke:#000000;stroke-width:3;stroke-linecap:round;stroke-miterlimit:0;stroke-dasharray:none;stroke-dashoffset:0;stroke-opacity:1;marker-start:url(#ConcaveTriangle)"
     d="m 332.18894,348.91266 -0.38436,34.96509 73.98807,0.53792"
     id="path112" />
  <path
     style="fill:none;stroke:#000000;stroke-width:3;stroke-linecap:round;stroke-miterlimit:0;stroke-dasharray:none;stroke-dashoffset:0;stroke-opacity:1"
     d="m 468.84904,375.63962 c -2.67736,-2.24151 -5.35471,-4.48302 -7.78303,-4.57639 -2.42832,-0.0934 -4.60754,1.9613 -6.78678,4.016"
     id="path113"
     inkscape:path-effect="#path-effect113"
     inkscape:original-d="m 468.84904,375.63962 c -2.67734,-2.24153 -5.35471,-4.48302 -8.03206,-6.72452 -2.17929,2.05475 -4.35851,4.10943 -6.53775,6.16413"
     transform="translate(-48.683358,9.5250005)" />
  <path
     style="fill:none;stroke:#000000;stroke-width:2.99966;stroke-linecap:round;stroke-miterlimit:0;stroke-dasharray:none;stroke-dashoffset:0;stroke-opacity:1"
     d="m 412.53922,274.80075 109.77345,-0.0741"
     id="path116" />
  <path
     style="opacity:1;fill:none;fill-opacity:1;stroke:#000000;stroke-width:3;stroke-linecap:round;stroke-miterlimit:0;stroke-dasharray:none;stroke-opacity:1;marker-start:url(#marker19)"
     d="M 676.34488,274.8495 604.7338,274.57494"
     id="path121" />
  <text
     xml:space="preserve"
     style="font-style:normal;font-variant:normal;font-weight:normal;font-stretch:normal;font-size:35.2778px;font-family:'Times New Roman';-inkscape-font-specification:'Times New Roman, Normal';font-variant-ligatures:normal;font-variant-caps:normal;font-variant-numeric:normal;font-variant-east-asian:normal;text-align:start;writing-mode:lr-tb;direction:ltr;text-anchor:start;opacity:1;fill:#000000;fill-opacity:1;stroke:#000000;stroke-width:0.25;stroke-linecap:round;stroke-dasharray:none;stroke-opacity:1"
     x="283.22073"
     y="64.203133"
     id="text129"><tspan
       sodipodi:role="line"
       id="tspan129"
       x="283.22073"
       y="64.203133">+15 V</tspan></text>
  <g
     transform="matrix(3.57188,0,0,3.57188,-121.87157,-40.41474)"
     ns3:version="1.11.1"
     ns3:texconverter="typst"
     ns3:pdfconverter="inkscape"
     ns3:text="$21 k Omega$"
     ns3:preamble="C:\Users\messinat\AppData\Roaming\inkscape\extensions\textext\default_preamble_typst.typ"
     ns3:scale="10.125000141732132"
     ns3:alignment="middle center"
     ns3:inkscapeversion="1.4"
     ns3:jacobian_sqrt="3.57188"
     id="g50">
    <g
       id="g142">
      <g
         transform="translate(70.8661,78.3791)"
         id="g132">
        <g
           class="typst-text"
           transform="scale(1,-1)"
           id="g131">
          <g
             id="g130">
            <path
               d="M 2.6069999,7.3259997 C 2.046,7.3259997 1.573,7.128 1.166,6.732 0.759,6.336 0.55,5.874 0.55,5.313 0.55,4.939 0.825,4.664 1.166,4.664 1.496,4.664 1.771,4.95 1.771,5.2799997 1.771,5.643 1.507,5.896 1.155,5.896 1.122,5.896 1.1,5.896 1.078,5.885 1.287,6.424 1.771,6.897 2.464,6.897 3.366,6.897 3.872,6.116 3.872,5.17 3.872,4.433 3.498,3.641 2.75,2.805 L 0.682,0.473 C 0.539,0.308 0.55,0.319 0.55,0 H 4.631 L 4.95,1.98 H 4.587 C 4.499,1.419 4.422,1.1 4.356,1.001 4.301,0.946 3.971,0.924 3.366,0.924 H 1.529 l 1.067,1.045 c 0.7479999,0.704 1.694,1.463 2.013,2.046 0.22,0.385 0.33,0.77 0.33,1.155 0,1.298 -1.012,2.1559997 -2.3320001,2.1559997 z"
               id="path130" />
          </g>
        </g>
      </g>
      <g
         transform="translate(76.3661,78.3791)"
         id="g135">
        <g
           class="typst-text"
           transform="scale(1,-1)"
           id="g134">
          <g
             id="g133">
            <path
               d="M 2.9589999,7.3259997 C 2.508,6.864 1.848,6.633 0.979,6.633 V 6.204 c 0.572,0 1.045,0.088 1.408,0.264 V 0.902 C 2.387,0.704 2.343,0.572 2.244,0.517 2.145,0.462 1.87,0.429 1.43,0.429 H 1.045 V 0 C 1.3199999,0.022 1.914,0.033 2.827,0.033 3.74,0.033 4.334,0.022 4.609,0 V 0.429 H 4.224 C 3.773,0.429 3.498,0.462 3.41,0.517 3.322,0.572 3.267,0.704 3.267,0.902 v 6.094 c 0,0.2639998 -0.022,0.3299997 -0.3080001,0.3299997 z"
               id="path132" />
          </g>
        </g>
      </g>
      <g
         transform="translate(81.8661,78.3791)"
         id="g138">
        <g
           class="typst-text"
           transform="scale(1,-1)"
           id="g137">
          <g
             id="g136">
            <path
               d="m 4.499,3.883 c 0,-0.286 0.154,-0.429 0.451,-0.429 0.385,0 0.638,0.341 0.638,0.715 0,0.429 -0.352,0.726 -0.781,0.726 C 4.312,4.895 3.784,4.565 3.201,3.916 2.75,3.421 2.387,3.102 2.09,2.9589999 L 3.201,7.469 C 3.179,7.568 3.157,7.634 3.014,7.634 2.662,7.634 1.826,7.535 1.694,7.524 1.529,7.502 1.452,7.425 1.452,7.2599998 1.452,7.15 1.551,7.095 1.749,7.095 c 0.209,0 0.495,0.011 0.495,-0.143 L 0.649,0.473 C 0.616,0.352 0.605,0.275 0.605,0.231 0.605,0 0.726,-0.121 0.957,-0.121 c 0.187,0 0.33,0.088 0.407,0.253 0.055,0.099 0.253,0.88 0.605,2.354 0.572,-0.055 1.177,-0.33 1.177,-0.88 0,-0.165 -0.077,-0.495 -0.077,-0.605 0,-0.627 0.407,-1.122 1.034,-1.122 0.638,0 1.067,0.572 1.287,1.716 0,0.099 -0.055,0.154 -0.165,0.154 C 5.126,1.749 5.06,1.672 5.027,1.518 4.785,0.649 4.488,0.20899999 4.125,0.20899999 3.927,0.20899999 3.828,0.363 3.828,0.671 3.828,0.847 3.96,1.441 3.96,1.617 3.96,2.244 3.454,2.629 2.431,2.783 2.684,2.9589999 2.97,3.212 3.2779999,3.542 3.586,3.872 3.806,4.081 3.949,4.202 4.246,4.444 4.532,4.565 4.785,4.565 4.895,4.565 4.983,4.543 5.049,4.499 4.752,4.444 4.499,4.169 4.499,3.883 Z"
               id="path135" />
          </g>
        </g>
      </g>
      <g
         transform="translate(87.7621,78.3791)"
         id="g141">
        <g
           class="typst-text"
           transform="scale(1,-1)"
           id="g140">
          <g
             id="g139">
            <path
               d="M 2.937,0.275 C 2.937,0.803 2.739,1.617 2.354,2.706 1.9909999,3.685 1.8149999,4.444 1.8149999,4.994 1.8149999,6.336 2.651,7.425 3.96,7.425 5.269,7.425 6.116,6.336 6.116,4.994 6.116,4.455 5.907,3.608 5.5,2.475 5.159,1.507 4.994,0.77 4.994,0.275 4.994,0.011 5.038,0 5.313,0 H 7.084 L 7.458,1.848 H 7.095 C 7.029,1.496 6.963,1.221 6.897,1.023 6.853,0.902 6.754,0.83599997 6.611,0.803 6.578,0.792 6.446,0.792 6.215,0.792 H 5.401 C 5.511,1.21 5.83,1.804 6.358,2.574 6.996,3.531 7.315,4.334 7.315,4.983 7.315,5.808 6.952,6.49 6.237,7.029 5.588,7.513 4.829,7.755 3.971,7.755 3.102,7.755 2.343,7.513 1.694,7.029 0.979,6.501 0.616,5.819 0.616,4.983 0.616,4.345 0.935,3.542 1.573,2.574 1.9909999,1.958 2.354,1.419 2.53,0.792 H 1.716 C 1.342,0.792 1.122,0.847 1.067,0.946 0.957,1.298 0.88,1.595 0.83599997,1.848 H 0.473 L 0.847,0 h 1.782 c 0.253,0 0.308,0.022 0.308,0.275 z"
               id="path138" />
          </g>
        </g>
      </g>
    </g>
    <defs
       id="id-fb546351-2969-434f-b57d-f215e8b211c2">
      <symbol
         id="id-dd546ba0-71ce-4148-8942-14e9b9d992dc"
         overflow="visible">
        <path
           d="M 2.6069999,7.3259997 C 2.046,7.3259997 1.573,7.128 1.166,6.732 0.759,6.336 0.55,5.874 0.55,5.313 0.55,4.939 0.825,4.664 1.166,4.664 1.496,4.664 1.771,4.95 1.771,5.2799997 1.771,5.643 1.507,5.896 1.155,5.896 1.122,5.896 1.1,5.896 1.078,5.885 1.287,6.424 1.771,6.897 2.464,6.897 3.366,6.897 3.872,6.116 3.872,5.17 3.872,4.433 3.498,3.641 2.75,2.805 L 0.682,0.473 C 0.539,0.308 0.55,0.319 0.55,0 H 4.631 L 4.95,1.98 H 4.587 C 4.499,1.419 4.422,1.1 4.356,1.001 4.301,0.946 3.971,0.924 3.366,0.924 H 1.529 l 1.067,1.045 c 0.7479999,0.704 1.694,1.463 2.013,2.046 0.22,0.385 0.33,0.77 0.33,1.155 0,1.298 -1.012,2.1559997 -2.3320001,2.1559997 z"
           id="path142" />
      </symbol>
      <symbol
         id="id-4ead87cd-f0f4-4053-8e12-c06cfefa7a2c"
         overflow="visible">
        <path
           d="M 2.9589999,7.3259997 C 2.508,6.864 1.848,6.633 0.979,6.633 V 6.204 c 0.572,0 1.045,0.088 1.408,0.264 V 0.902 C 2.387,0.704 2.343,0.572 2.244,0.517 2.145,0.462 1.87,0.429 1.43,0.429 H 1.045 V 0 C 1.3199999,0.022 1.914,0.033 2.827,0.033 3.74,0.033 4.334,0.022 4.609,0 V 0.429 H 4.224 C 3.773,0.429 3.498,0.462 3.41,0.517 3.322,0.572 3.267,0.704 3.267,0.902 v 6.094 c 0,0.2639998 -0.022,0.3299997 -0.3080001,0.3299997 z"
           id="path143" />
      </symbol>
      <symbol
         id="id-a4ac255f-9183-44fc-b5d7-46490b495533"
         overflow="visible">
        <path
           d="m 4.499,3.883 c 0,-0.286 0.154,-0.429 0.451,-0.429 0.385,0 0.638,0.341 0.638,0.715 0,0.429 -0.352,0.726 -0.781,0.726 C 4.312,4.895 3.784,4.565 3.201,3.916 2.75,3.421 2.387,3.102 2.09,2.9589999 L 3.201,7.469 C 3.179,7.568 3.157,7.634 3.014,7.634 2.662,7.634 1.826,7.535 1.694,7.524 1.529,7.502 1.452,7.425 1.452,7.2599998 1.452,7.15 1.551,7.095 1.749,7.095 c 0.209,0 0.495,0.011 0.495,-0.143 L 0.649,0.473 C 0.616,0.352 0.605,0.275 0.605,0.231 0.605,0 0.726,-0.121 0.957,-0.121 c 0.187,0 0.33,0.088 0.407,0.253 0.055,0.099 0.253,0.88 0.605,2.354 0.572,-0.055 1.177,-0.33 1.177,-0.88 0,-0.165 -0.077,-0.495 -0.077,-0.605 0,-0.627 0.407,-1.122 1.034,-1.122 0.638,0 1.067,0.572 1.287,1.716 0,0.099 -0.055,0.154 -0.165,0.154 C 5.126,1.749 5.06,1.672 5.027,1.518 4.785,0.649 4.488,0.20899999 4.125,0.20899999 3.927,0.20899999 3.828,0.363 3.828,0.671 3.828,0.847 3.96,1.441 3.96,1.617 3.96,2.244 3.454,2.629 2.431,2.783 2.684,2.9589999 2.97,3.212 3.2779999,3.542 3.586,3.872 3.806,4.081 3.949,4.202 4.246,4.444 4.532,4.565 4.785,4.565 4.895,4.565 4.983,4.543 5.049,4.499 4.752,4.444 4.499,4.169 4.499,3.883 Z"
           id="path144" />
      </symbol>
      <symbol
         id="id-ab694137-5b79-4970-9b6a-7a228aecea7d"
         overflow="visible">
        <path
           d="M 2.937,0.275 C 2.937,0.803 2.739,1.617 2.354,2.706 1.9909999,3.685 1.8149999,4.444 1.8149999,4.994 1.8149999,6.336 2.651,7.425 3.96,7.425 5.269,7.425 6.116,6.336 6.116,4.994 6.116,4.455 5.907,3.608 5.5,2.475 5.159,1.507 4.994,0.77 4.994,0.275 4.994,0.011 5.038,0 5.313,0 H 7.084 L 7.458,1.848 H 7.095 C 7.029,1.496 6.963,1.221 6.897,1.023 6.853,0.902 6.754,0.83599997 6.611,0.803 6.578,0.792 6.446,0.792 6.215,0.792 H 5.401 C 5.511,1.21 5.83,1.804 6.358,2.574 6.996,3.531 7.315,4.334 7.315,4.983 7.315,5.808 6.952,6.49 6.237,7.029 5.588,7.513 4.829,7.755 3.971,7.755 3.102,7.755 2.343,7.513 1.694,7.029 0.979,6.501 0.616,5.819 0.616,4.983 0.616,4.345 0.935,3.542 1.573,2.574 1.9909999,1.958 2.354,1.419 2.53,0.792 H 1.716 C 1.342,0.792 1.122,0.847 1.067,0.946 0.957,1.298 0.88,1.595 0.83599997,1.848 H 0.473 L 0.847,0 h 1.782 c 0.253,0 0.308,0.022 0.308,0.275 z"
           id="path145" />
      </symbol>
    </defs>
  </g>
  <g
     transform="matrix(3.57188,0,0,3.57188,-104.5967,155.17717)"
     ns3:version="1.11.1"
     ns3:texconverter="typst"
     ns3:pdfconverter="inkscape"
     ns3:text="$1 k Omega$"
     ns3:preamble="C:\Users\messinat\AppData\Roaming\inkscape\extensions\textext\default_preamble_typst.typ"
     ns3:scale="10.125000141732132"
     ns3:alignment="middle center"
     ns3:inkscapeversion="1.4"
     ns3:jacobian_sqrt="3.57188"
     id="g61">
    <g
       id="g155">
      <g
         transform="translate(70.8661,78.3791)"
         id="g148">
        <g
           class="typst-text"
           transform="scale(1,-1)"
           id="g147">
          <g
             id="g146">
            <path
               d="M 2.9589999,7.3259997 C 2.508,6.864 1.848,6.633 0.979,6.633 V 6.204 c 0.572,0 1.045,0.088 1.408,0.264 V 0.902 C 2.387,0.704 2.343,0.572 2.244,0.517 2.145,0.462 1.87,0.429 1.43,0.429 H 1.045 V 0 C 1.3199999,0.022 1.914,0.033 2.827,0.033 3.74,0.033 4.334,0.022 4.609,0 V 0.429 H 4.224 C 3.773,0.429 3.498,0.462 3.41,0.517 3.322,0.572 3.267,0.704 3.267,0.902 v 6.094 c 0,0.2639998 -0.022,0.3299997 -0.3080001,0.3299997 z"
               id="path146" />
          </g>
        </g>
      </g>
      <g
         transform="translate(76.3661,78.3791)"
         id="g151">
        <g
           class="typst-text"
           transform="scale(1,-1)"
           id="g150">
          <g
             id="g149">
            <path
               d="m 4.499,3.883 c 0,-0.286 0.154,-0.429 0.451,-0.429 0.385,0 0.638,0.341 0.638,0.715 0,0.429 -0.352,0.726 -0.781,0.726 C 4.312,4.895 3.784,4.565 3.201,3.916 2.75,3.421 2.387,3.102 2.09,2.9589999 L 3.201,7.469 C 3.179,7.568 3.157,7.634 3.014,7.634 2.662,7.634 1.826,7.535 1.694,7.524 1.529,7.502 1.452,7.425 1.452,7.2599998 1.452,7.15 1.551,7.095 1.749,7.095 c 0.209,0 0.495,0.011 0.495,-0.143 L 0.649,0.473 C 0.616,0.352 0.605,0.275 0.605,0.231 0.605,0 0.726,-0.121 0.957,-0.121 c 0.187,0 0.33,0.088 0.407,0.253 0.055,0.099 0.253,0.88 0.605,2.354 0.572,-0.055 1.177,-0.33 1.177,-0.88 0,-0.165 -0.077,-0.495 -0.077,-0.605 0,-0.627 0.407,-1.122 1.034,-1.122 0.638,0 1.067,0.572 1.287,1.716 0,0.099 -0.055,0.154 -0.165,0.154 C 5.126,1.749 5.06,1.672 5.027,1.518 4.785,0.649 4.488,0.20899999 4.125,0.20899999 3.927,0.20899999 3.828,0.363 3.828,0.671 3.828,0.847 3.96,1.441 3.96,1.617 3.96,2.244 3.454,2.629 2.431,2.783 2.684,2.9589999 2.97,3.212 3.2779999,3.542 3.586,3.872 3.806,4.081 3.949,4.202 4.246,4.444 4.532,4.565 4.785,4.565 4.895,4.565 4.983,4.543 5.049,4.499 4.752,4.444 4.499,4.169 4.499,3.883 Z"
               id="path148" />
          </g>
        </g>
      </g>
      <g
         transform="translate(82.2621,78.3791)"
         id="g154">
        <g
           class="typst-text"
           transform="scale(1,-1)"
           id="g153">
          <g
             id="g152">
            <path
               d="M 2.937,0.275 C 2.937,0.803 2.739,1.617 2.354,2.706 1.9909999,3.685 1.8149999,4.444 1.8149999,4.994 1.8149999,6.336 2.651,7.425 3.96,7.425 5.269,7.425 6.116,6.336 6.116,4.994 6.116,4.455 5.907,3.608 5.5,2.475 5.159,1.507 4.994,0.77 4.994,0.275 4.994,0.011 5.038,0 5.313,0 H 7.084 L 7.458,1.848 H 7.095 C 7.029,1.496 6.963,1.221 6.897,1.023 6.853,0.902 6.754,0.83599997 6.611,0.803 6.578,0.792 6.446,0.792 6.215,0.792 H 5.401 C 5.511,1.21 5.83,1.804 6.358,2.574 6.996,3.531 7.315,4.334 7.315,4.983 7.315,5.808 6.952,6.49 6.237,7.029 5.588,7.513 4.829,7.755 3.971,7.755 3.102,7.755 2.343,7.513 1.694,7.029 0.979,6.501 0.616,5.819 0.616,4.983 0.616,4.345 0.935,3.542 1.573,2.574 1.9909999,1.958 2.354,1.419 2.53,0.792 H 1.716 C 1.342,0.792 1.122,0.847 1.067,0.946 0.957,1.298 0.88,1.595 0.83599997,1.848 H 0.473 L 0.847,0 h 1.782 c 0.253,0 0.308,0.022 0.308,0.275 z"
               id="path151" />
          </g>
        </g>
      </g>
    </g>
    <defs
       id="id-998112ad-c2e2-40b8-ab73-8ba7a52de47c">
      <symbol
         id="id-1df6ce0a-d4c1-4bb8-b788-3f84cb47d9b4"
         overflow="visible">
        <path
           d="M 2.9589999,7.3259997 C 2.508,6.864 1.848,6.633 0.979,6.633 V 6.204 c 0.572,0 1.045,0.088 1.408,0.264 V 0.902 C 2.387,0.704 2.343,0.572 2.244,0.517 2.145,0.462 1.87,0.429 1.43,0.429 H 1.045 V 0 C 1.3199999,0.022 1.914,0.033 2.827,0.033 3.74,0.033 4.334,0.022 4.609,0 V 0.429 H 4.224 C 3.773,0.429 3.498,0.462 3.41,0.517 3.322,0.572 3.267,0.704 3.267,0.902 v 6.094 c 0,0.2639998 -0.022,0.3299997 -0.3080001,0.3299997 z"
           id="path155" />
      </symbol>
      <symbol
         id="id-d4cf799e-0ec9-4218-9f69-90a82dcbff23"
         overflow="visible">
        <path
           d="m 4.499,3.883 c 0,-0.286 0.154,-0.429 0.451,-0.429 0.385,0 0.638,0.341 0.638,0.715 0,0.429 -0.352,0.726 -0.781,0.726 C 4.312,4.895 3.784,4.565 3.201,3.916 2.75,3.421 2.387,3.102 2.09,2.9589999 L 3.201,7.469 C 3.179,7.568 3.157,7.634 3.014,7.634 2.662,7.634 1.826,7.535 1.694,7.524 1.529,7.502 1.452,7.425 1.452,7.2599998 1.452,7.15 1.551,7.095 1.749,7.095 c 0.209,0 0.495,0.011 0.495,-0.143 L 0.649,0.473 C 0.616,0.352 0.605,0.275 0.605,0.231 0.605,0 0.726,-0.121 0.957,-0.121 c 0.187,0 0.33,0.088 0.407,0.253 0.055,0.099 0.253,0.88 0.605,2.354 0.572,-0.055 1.177,-0.33 1.177,-0.88 0,-0.165 -0.077,-0.495 -0.077,-0.605 0,-0.627 0.407,-1.122 1.034,-1.122 0.638,0 1.067,0.572 1.287,1.716 0,0.099 -0.055,0.154 -0.165,0.154 C 5.126,1.749 5.06,1.672 5.027,1.518 4.785,0.649 4.488,0.20899999 4.125,0.20899999 3.927,0.20899999 3.828,0.363 3.828,0.671 3.828,0.847 3.96,1.441 3.96,1.617 3.96,2.244 3.454,2.629 2.431,2.783 2.684,2.9589999 2.97,3.212 3.2779999,3.542 3.586,3.872 3.806,4.081 3.949,4.202 4.246,4.444 4.532,4.565 4.785,4.565 4.895,4.565 4.983,4.543 5.049,4.499 4.752,4.444 4.499,4.169 4.499,3.883 Z"
           id="path156" />
      </symbol>
      <symbol
         id="id-b279b6fc-db18-4336-8e70-a4eb7dad4caf"
         overflow="visible">
        <path
           d="M 2.937,0.275 C 2.937,0.803 2.739,1.617 2.354,2.706 1.9909999,3.685 1.8149999,4.444 1.8149999,4.994 1.8149999,6.336 2.651,7.425 3.96,7.425 5.269,7.425 6.116,6.336 6.116,4.994 6.116,4.455 5.907,3.608 5.5,2.475 5.159,1.507 4.994,0.77 4.994,0.275 4.994,0.011 5.038,0 5.313,0 H 7.084 L 7.458,1.848 H 7.095 C 7.029,1.496 6.963,1.221 6.897,1.023 6.853,0.902 6.754,0.83599997 6.611,0.803 6.578,0.792 6.446,0.792 6.215,0.792 H 5.401 C 5.511,1.21 5.83,1.804 6.358,2.574 6.996,3.531 7.315,4.334 7.315,4.983 7.315,5.808 6.952,6.49 6.237,7.029 5.588,7.513 4.829,7.755 3.971,7.755 3.102,7.755 2.343,7.513 1.694,7.029 0.979,6.501 0.616,5.819 0.616,4.983 0.616,4.345 0.935,3.542 1.573,2.574 1.9909999,1.958 2.354,1.419 2.53,0.792 H 1.716 C 1.342,0.792 1.122,0.847 1.067,0.946 0.957,1.298 0.88,1.595 0.83599997,1.848 H 0.473 L 0.847,0 h 1.782 c 0.253,0 0.308,0.022 0.308,0.275 z"
           id="path157" />
      </symbol>
    </defs>
  </g>
  <g
     transform="matrix(3.57188,0,0,3.57188,175.01175,168.21783)"
     ns3:version="1.11.1"
     ns3:texconverter="typst"
     ns3:pdfconverter="inkscape"
     ns3:text="$100 Omega$"
     ns3:preamble="C:\Users\messinat\AppData\Roaming\inkscape\extensions\textext\default_preamble_typst.typ"
     ns3:scale="10.125000141732132"
     ns3:alignment="middle center"
     ns3:inkscapeversion="1.4"
     ns3:jacobian_sqrt="3.57188"
     id="g80">
    <g
       id="g170">
      <g
         transform="translate(70.8661,78.3791)"
         id="g160">
        <g
           class="typst-text"
           transform="scale(1,-1)"
           id="g159">
          <g
             id="g158">
            <path
               d="M 2.9589999,7.3259997 C 2.508,6.864 1.848,6.633 0.979,6.633 V 6.204 c 0.572,0 1.045,0.088 1.408,0.264 V 0.902 C 2.387,0.704 2.343,0.572 2.244,0.517 2.145,0.462 1.87,0.429 1.43,0.429 H 1.045 V 0 C 1.3199999,0.022 1.914,0.033 2.827,0.033 3.74,0.033 4.334,0.022 4.609,0 V 0.429 H 4.224 C 3.773,0.429 3.498,0.462 3.41,0.517 3.322,0.572 3.267,0.704 3.267,0.902 v 6.094 c 0,0.2639998 -0.022,0.3299997 -0.3080001,0.3299997 z"
               id="path158" />
          </g>
        </g>
      </g>
      <g
         transform="translate(76.3661,78.3791)"
         id="g163">
        <g
           class="typst-text"
           transform="scale(1,-1)"
           id="g162">
          <g
             id="g161">
            <path
               d="M 2.739,-0.242 C 4.29,-0.242 5.06,1.012 5.06,3.52 5.06,5.203 4.708,6.325 4.015,6.875 3.6299999,7.172 3.201,7.3259997 2.75,7.3259997 1.199,7.3259997 0.429,6.061 0.429,3.52 c 0,-2.024 0.539,-3.762 2.31,-3.762 z M 3.971,5.764 C 4.048,5.379 4.081,4.675 4.081,3.652 4.081,2.6399999 4.037,1.892 3.96,1.408 3.817,0.528 3.41,0.088 2.739,0.088 2.486,0.088 2.233,0.187 2.002,0.374 1.705,0.627 1.529,1.144 1.452,1.936 1.419,2.211 1.408,2.783 1.408,3.652 c 0,0.957 0.033,1.6279997 0.088,1.991 0.099,0.605 0.297,0.99 0.605,1.155 0.242,0.132 0.451,0.198 0.638,0.198 0.715,0 1.111,-0.583 1.232,-1.232 z"
               id="path160" />
          </g>
        </g>
      </g>
      <g
         transform="translate(81.8661,78.3791)"
         id="g166">
        <g
           class="typst-text"
           transform="scale(1,-1)"
           id="g165">
          <g
             id="g164">
            <path
               d="M 2.739,-0.242 C 4.29,-0.242 5.06,1.012 5.06,3.52 5.06,5.203 4.708,6.325 4.015,6.875 3.6299999,7.172 3.201,7.3259997 2.75,7.3259997 1.199,7.3259997 0.429,6.061 0.429,3.52 c 0,-2.024 0.539,-3.762 2.31,-3.762 z M 3.971,5.764 C 4.048,5.379 4.081,4.675 4.081,3.652 4.081,2.6399999 4.037,1.892 3.96,1.408 3.817,0.528 3.41,0.088 2.739,0.088 2.486,0.088 2.233,0.187 2.002,0.374 1.705,0.627 1.529,1.144 1.452,1.936 1.419,2.211 1.408,2.783 1.408,3.652 c 0,0.957 0.033,1.6279997 0.088,1.991 0.099,0.605 0.297,0.99 0.605,1.155 0.242,0.132 0.451,0.198 0.638,0.198 0.715,0 1.111,-0.583 1.232,-1.232 z"
               id="path163" />
          </g>
        </g>
      </g>
      <g
         transform="translate(87.3661,78.3791)"
         id="g169">
        <g
           class="typst-text"
           transform="scale(1,-1)"
           id="g168">
          <g
             id="g167">
            <path
               d="M 2.937,0.275 C 2.937,0.803 2.739,1.617 2.354,2.706 1.9909999,3.685 1.8149999,4.444 1.8149999,4.994 1.8149999,6.336 2.651,7.425 3.96,7.425 5.269,7.425 6.116,6.336 6.116,4.994 6.116,4.455 5.907,3.608 5.5,2.475 5.159,1.507 4.994,0.77 4.994,0.275 4.994,0.011 5.038,0 5.313,0 H 7.084 L 7.458,1.848 H 7.095 C 7.029,1.496 6.963,1.221 6.897,1.023 6.853,0.902 6.754,0.83599997 6.611,0.803 6.578,0.792 6.446,0.792 6.215,0.792 H 5.401 C 5.511,1.21 5.83,1.804 6.358,2.574 6.996,3.531 7.315,4.334 7.315,4.983 7.315,5.808 6.952,6.49 6.237,7.029 5.588,7.513 4.829,7.755 3.971,7.755 3.102,7.755 2.343,7.513 1.694,7.029 0.979,6.501 0.616,5.819 0.616,4.983 0.616,4.345 0.935,3.542 1.573,2.574 1.9909999,1.958 2.354,1.419 2.53,0.792 H 1.716 C 1.342,0.792 1.122,0.847 1.067,0.946 0.957,1.298 0.88,1.595 0.83599997,1.848 H 0.473 L 0.847,0 h 1.782 c 0.253,0 0.308,0.022 0.308,0.275 z"
               id="path166" />
          </g>
        </g>
      </g>
    </g>
    <defs
       id="id-80cf1557-8255-4724-af11-f7474135d9c5">
      <symbol
         id="id-2e0bc4b2-edc2-4a39-85e0-6f216fd09aa0"
         overflow="visible">
        <path
           d="M 2.9589999,7.3259997 C 2.508,6.864 1.848,6.633 0.979,6.633 V 6.204 c 0.572,0 1.045,0.088 1.408,0.264 V 0.902 C 2.387,0.704 2.343,0.572 2.244,0.517 2.145,0.462 1.87,0.429 1.43,0.429 H 1.045 V 0 C 1.3199999,0.022 1.914,0.033 2.827,0.033 3.74,0.033 4.334,0.022 4.609,0 V 0.429 H 4.224 C 3.773,0.429 3.498,0.462 3.41,0.517 3.322,0.572 3.267,0.704 3.267,0.902 v 6.094 c 0,0.2639998 -0.022,0.3299997 -0.3080001,0.3299997 z"
           id="path170" />
      </symbol>
      <symbol
         id="id-c1871a5c-a300-486a-a045-db9f154490eb"
         overflow="visible">
        <path
           d="M 2.739,-0.242 C 4.29,-0.242 5.06,1.012 5.06,3.52 5.06,5.203 4.708,6.325 4.015,6.875 3.6299999,7.172 3.201,7.3259997 2.75,7.3259997 1.199,7.3259997 0.429,6.061 0.429,3.52 c 0,-2.024 0.539,-3.762 2.31,-3.762 z M 3.971,5.764 C 4.048,5.379 4.081,4.675 4.081,3.652 4.081,2.6399999 4.037,1.892 3.96,1.408 3.817,0.528 3.41,0.088 2.739,0.088 2.486,0.088 2.233,0.187 2.002,0.374 1.705,0.627 1.529,1.144 1.452,1.936 1.419,2.211 1.408,2.783 1.408,3.652 c 0,0.957 0.033,1.6279997 0.088,1.991 0.099,0.605 0.297,0.99 0.605,1.155 0.242,0.132 0.451,0.198 0.638,0.198 0.715,0 1.111,-0.583 1.232,-1.232 z"
           id="path171" />
      </symbol>
      <symbol
         id="id-f2259ec2-30f2-4559-9aed-cd9b26c370aa"
         overflow="visible">
        <path
           d="M 2.937,0.275 C 2.937,0.803 2.739,1.617 2.354,2.706 1.9909999,3.685 1.8149999,4.444 1.8149999,4.994 1.8149999,6.336 2.651,7.425 3.96,7.425 5.269,7.425 6.116,6.336 6.116,4.994 6.116,4.455 5.907,3.608 5.5,2.475 5.159,1.507 4.994,0.77 4.994,0.275 4.994,0.011 5.038,0 5.313,0 H 7.084 L 7.458,1.848 H 7.095 C 7.029,1.496 6.963,1.221 6.897,1.023 6.853,0.902 6.754,0.83599997 6.611,0.803 6.578,0.792 6.446,0.792 6.215,0.792 H 5.401 C 5.511,1.21 5.83,1.804 6.358,2.574 6.996,3.531 7.315,4.334 7.315,4.983 7.315,5.808 6.952,6.49 6.237,7.029 5.588,7.513 4.829,7.755 3.971,7.755 3.102,7.755 2.343,7.513 1.694,7.029 0.979,6.501 0.616,5.819 0.616,4.983 0.616,4.345 0.935,3.542 1.573,2.574 1.9909999,1.958 2.354,1.419 2.53,0.792 H 1.716 C 1.342,0.792 1.122,0.847 1.067,0.946 0.957,1.298 0.88,1.595 0.83599997,1.848 H 0.473 L 0.847,0 h 1.782 c 0.253,0 0.308,0.022 0.308,0.275 z"
           id="path172" />
      </symbol>
    </defs>
  </g>
  <g
     transform="matrix(3.57188,0,0,3.57188,204.301,83.068806)"
     ns3:version="1.11.1"
     ns3:texconverter="typst"
     ns3:pdfconverter="inkscape"
     ns3:text="$1 k Omega$"
     ns3:preamble="C:\Users\messinat\AppData\Roaming\inkscape\extensions\textext\default_preamble_typst.typ"
     ns3:scale="10.125000141732132"
     ns3:alignment="middle center"
     ns3:inkscapeversion="1.4"
     ns3:jacobian_sqrt="3.57188"
     id="g129">
    <g
       id="g182">
      <g
         transform="translate(70.8661,78.3791)"
         id="g175">
        <g
           class="typst-text"
           transform="scale(1,-1)"
           id="g174">
          <g
             id="g173">
            <path
               d="M 2.9589999,7.3259997 C 2.508,6.864 1.848,6.633 0.979,6.633 V 6.204 c 0.572,0 1.045,0.088 1.408,0.264 V 0.902 C 2.387,0.704 2.343,0.572 2.244,0.517 2.145,0.462 1.87,0.429 1.43,0.429 H 1.045 V 0 C 1.3199999,0.022 1.914,0.033 2.827,0.033 3.74,0.033 4.334,0.022 4.609,0 V 0.429 H 4.224 C 3.773,0.429 3.498,0.462 3.41,0.517 3.322,0.572 3.267,0.704 3.267,0.902 v 6.094 c 0,0.2639998 -0.022,0.3299997 -0.3080001,0.3299997 z"
               id="path173" />
          </g>
        </g>
      </g>
      <g
         transform="translate(76.3661,78.3791)"
         id="g178">
        <g
           class="typst-text"
           transform="scale(1,-1)"
           id="g177">
          <g
             id="g176">
            <path
               d="m 4.499,3.883 c 0,-0.286 0.154,-0.429 0.451,-0.429 0.385,0 0.638,0.341 0.638,0.715 0,0.429 -0.352,0.726 -0.781,0.726 C 4.312,4.895 3.784,4.565 3.201,3.916 2.75,3.421 2.387,3.102 2.09,2.9589999 L 3.201,7.469 C 3.179,7.568 3.157,7.634 3.014,7.634 2.662,7.634 1.826,7.535 1.694,7.524 1.529,7.502 1.452,7.425 1.452,7.2599998 1.452,7.15 1.551,7.095 1.749,7.095 c 0.209,0 0.495,0.011 0.495,-0.143 L 0.649,0.473 C 0.616,0.352 0.605,0.275 0.605,0.231 0.605,0 0.726,-0.121 0.957,-0.121 c 0.187,0 0.33,0.088 0.407,0.253 0.055,0.099 0.253,0.88 0.605,2.354 0.572,-0.055 1.177,-0.33 1.177,-0.88 0,-0.165 -0.077,-0.495 -0.077,-0.605 0,-0.627 0.407,-1.122 1.034,-1.122 0.638,0 1.067,0.572 1.287,1.716 0,0.099 -0.055,0.154 -0.165,0.154 C 5.126,1.749 5.06,1.672 5.027,1.518 4.785,0.649 4.488,0.20899999 4.125,0.20899999 3.927,0.20899999 3.828,0.363 3.828,0.671 3.828,0.847 3.96,1.441 3.96,1.617 3.96,2.244 3.454,2.629 2.431,2.783 2.684,2.9589999 2.97,3.212 3.2779999,3.542 3.586,3.872 3.806,4.081 3.949,4.202 4.246,4.444 4.532,4.565 4.785,4.565 4.895,4.565 4.983,4.543 5.049,4.499 4.752,4.444 4.499,4.169 4.499,3.883 Z"
               id="path175" />
          </g>
        </g>
      </g>
      <g
         transform="translate(82.2621,78.3791)"
         id="g181">
        <g
           class="typst-text"
           transform="scale(1,-1)"
           id="g180">
          <g
             id="g179">
            <path
               d="M 2.937,0.275 C 2.937,0.803 2.739,1.617 2.354,2.706 1.9909999,3.685 1.8149999,4.444 1.8149999,4.994 1.8149999,6.336 2.651,7.425 3.96,7.425 5.269,7.425 6.116,6.336 6.116,4.994 6.116,4.455 5.907,3.608 5.5,2.475 5.159,1.507 4.994,0.77 4.994,0.275 4.994,0.011 5.038,0 5.313,0 H 7.084 L 7.458,1.848 H 7.095 C 7.029,1.496 6.963,1.221 6.897,1.023 6.853,0.902 6.754,0.83599997 6.611,0.803 6.578,0.792 6.446,0.792 6.215,0.792 H 5.401 C 5.511,1.21 5.83,1.804 6.358,2.574 6.996,3.531 7.315,4.334 7.315,4.983 7.315,5.808 6.952,6.49 6.237,7.029 5.588,7.513 4.829,7.755 3.971,7.755 3.102,7.755 2.343,7.513 1.694,7.029 0.979,6.501 0.616,5.819 0.616,4.983 0.616,4.345 0.935,3.542 1.573,2.574 1.9909999,1.958 2.354,1.419 2.53,0.792 H 1.716 C 1.342,0.792 1.122,0.847 1.067,0.946 0.957,1.298 0.88,1.595 0.83599997,1.848 H 0.473 L 0.847,0 h 1.782 c 0.253,0 0.308,0.022 0.308,0.275 z"
               id="path178" />
          </g>
        </g>
      </g>
    </g>
    <defs
       id="id-9fd57b7e-5d08-4a5f-96d7-6358e1778043">
      <symbol
         id="id-760e91a6-8521-4a65-bcd3-5ac421a39cbb"
         overflow="visible">
        <path
           d="M 2.9589999,7.3259997 C 2.508,6.864 1.848,6.633 0.979,6.633 V 6.204 c 0.572,0 1.045,0.088 1.408,0.264 V 0.902 C 2.387,0.704 2.343,0.572 2.244,0.517 2.145,0.462 1.87,0.429 1.43,0.429 H 1.045 V 0 C 1.3199999,0.022 1.914,0.033 2.827,0.033 3.74,0.033 4.334,0.022 4.609,0 V 0.429 H 4.224 C 3.773,0.429 3.498,0.462 3.41,0.517 3.322,0.572 3.267,0.704 3.267,0.902 v 6.094 c 0,0.2639998 -0.022,0.3299997 -0.3080001,0.3299997 z"
           id="path182" />
      </symbol>
      <symbol
         id="id-f84aa2f7-9113-4a0d-bcdf-5afb81163cd9"
         overflow="visible">
        <path
           d="m 4.499,3.883 c 0,-0.286 0.154,-0.429 0.451,-0.429 0.385,0 0.638,0.341 0.638,0.715 0,0.429 -0.352,0.726 -0.781,0.726 C 4.312,4.895 3.784,4.565 3.201,3.916 2.75,3.421 2.387,3.102 2.09,2.9589999 L 3.201,7.469 C 3.179,7.568 3.157,7.634 3.014,7.634 2.662,7.634 1.826,7.535 1.694,7.524 1.529,7.502 1.452,7.425 1.452,7.2599998 1.452,7.15 1.551,7.095 1.749,7.095 c 0.209,0 0.495,0.011 0.495,-0.143 L 0.649,0.473 C 0.616,0.352 0.605,0.275 0.605,0.231 0.605,0 0.726,-0.121 0.957,-0.121 c 0.187,0 0.33,0.088 0.407,0.253 0.055,0.099 0.253,0.88 0.605,2.354 0.572,-0.055 1.177,-0.33 1.177,-0.88 0,-0.165 -0.077,-0.495 -0.077,-0.605 0,-0.627 0.407,-1.122 1.034,-1.122 0.638,0 1.067,0.572 1.287,1.716 0,0.099 -0.055,0.154 -0.165,0.154 C 5.126,1.749 5.06,1.672 5.027,1.518 4.785,0.649 4.488,0.20899999 4.125,0.20899999 3.927,0.20899999 3.828,0.363 3.828,0.671 3.828,0.847 3.96,1.441 3.96,1.617 3.96,2.244 3.454,2.629 2.431,2.783 2.684,2.9589999 2.97,3.212 3.2779999,3.542 3.586,3.872 3.806,4.081 3.949,4.202 4.246,4.444 4.532,4.565 4.785,4.565 4.895,4.565 4.983,4.543 5.049,4.499 4.752,4.444 4.499,4.169 4.499,3.883 Z"
           id="path183" />
      </symbol>
      <symbol
         id="id-fbf0b996-6650-466f-aabd-47edb6508e33"
         overflow="visible">
        <path
           d="M 2.937,0.275 C 2.937,0.803 2.739,1.617 2.354,2.706 1.9909999,3.685 1.8149999,4.444 1.8149999,4.994 1.8149999,6.336 2.651,7.425 3.96,7.425 5.269,7.425 6.116,6.336 6.116,4.994 6.116,4.455 5.907,3.608 5.5,2.475 5.159,1.507 4.994,0.77 4.994,0.275 4.994,0.011 5.038,0 5.313,0 H 7.084 L 7.458,1.848 H 7.095 C 7.029,1.496 6.963,1.221 6.897,1.023 6.853,0.902 6.754,0.83599997 6.611,0.803 6.578,0.792 6.446,0.792 6.215,0.792 H 5.401 C 5.511,1.21 5.83,1.804 6.358,2.574 6.996,3.531 7.315,4.334 7.315,4.983 7.315,5.808 6.952,6.49 6.237,7.029 5.588,7.513 4.829,7.755 3.971,7.755 3.102,7.755 2.343,7.513 1.694,7.029 0.979,6.501 0.616,5.819 0.616,4.983 0.616,4.345 0.935,3.542 1.573,2.574 1.9909999,1.958 2.354,1.419 2.53,0.792 H 1.716 C 1.342,0.792 1.122,0.847 1.067,0.946 0.957,1.298 0.88,1.595 0.83599997,1.848 H 0.473 L 0.847,0 h 1.782 c 0.253,0 0.308,0.022 0.308,0.275 z"
           id="path184" />
      </symbol>
    </defs>
  </g>
  <g
     transform="matrix(3.57188,0,0,3.57188,177.81367,-39.136)"
     ns3:version="1.11.1"
     ns3:texconverter="typst"
     ns3:pdfconverter="inkscape"
     ns3:text="$10 k Omega$"
     ns3:preamble="C:\Users\messinat\AppData\Roaming\inkscape\extensions\textext\default_preamble_typst.typ"
     ns3:scale="10.125000141732132"
     ns3:alignment="middle center"
     ns3:inkscapeversion="1.4"
     ns3:jacobian_sqrt="3.57188"
     id="g69">
    <g
       id="g197">
      <g
         transform="translate(70.8661,78.3791)"
         id="g187">
        <g
           class="typst-text"
           transform="scale(1,-1)"
           id="g186">
          <g
             id="g185">
            <path
               d="M 2.9589999,7.3259997 C 2.508,6.864 1.848,6.633 0.979,6.633 V 6.204 c 0.572,0 1.045,0.088 1.408,0.264 V 0.902 C 2.387,0.704 2.343,0.572 2.244,0.517 2.145,0.462 1.87,0.429 1.43,0.429 H 1.045 V 0 C 1.3199999,0.022 1.914,0.033 2.827,0.033 3.74,0.033 4.334,0.022 4.609,0 V 0.429 H 4.224 C 3.773,0.429 3.498,0.462 3.41,0.517 3.322,0.572 3.267,0.704 3.267,0.902 v 6.094 c 0,0.2639998 -0.022,0.3299997 -0.3080001,0.3299997 z"
               id="path185" />
          </g>
        </g>
      </g>
      <g
         transform="translate(76.3661,78.3791)"
         id="g190">
        <g
           class="typst-text"
           transform="scale(1,-1)"
           id="g189">
          <g
             id="g188">
            <path
               d="M 2.739,-0.242 C 4.29,-0.242 5.06,1.012 5.06,3.52 5.06,5.203 4.708,6.325 4.015,6.875 3.6299999,7.172 3.201,7.3259997 2.75,7.3259997 1.199,7.3259997 0.429,6.061 0.429,3.52 c 0,-2.024 0.539,-3.762 2.31,-3.762 z M 3.971,5.764 C 4.048,5.379 4.081,4.675 4.081,3.652 4.081,2.6399999 4.037,1.892 3.96,1.408 3.817,0.528 3.41,0.088 2.739,0.088 2.486,0.088 2.233,0.187 2.002,0.374 1.705,0.627 1.529,1.144 1.452,1.936 1.419,2.211 1.408,2.783 1.408,3.652 c 0,0.957 0.033,1.6279997 0.088,1.991 0.099,0.605 0.297,0.99 0.605,1.155 0.242,0.132 0.451,0.198 0.638,0.198 0.715,0 1.111,-0.583 1.232,-1.232 z"
               id="path187" />
          </g>
        </g>
      </g>
      <g
         transform="translate(81.8661,78.3791)"
         id="g193">
        <g
           class="typst-text"
           transform="scale(1,-1)"
           id="g192">
          <g
             id="g191">
            <path
               d="m 4.499,3.883 c 0,-0.286 0.154,-0.429 0.451,-0.429 0.385,0 0.638,0.341 0.638,0.715 0,0.429 -0.352,0.726 -0.781,0.726 C 4.312,4.895 3.784,4.565 3.201,3.916 2.75,3.421 2.387,3.102 2.09,2.9589999 L 3.201,7.469 C 3.179,7.568 3.157,7.634 3.014,7.634 2.662,7.634 1.826,7.535 1.694,7.524 1.529,7.502 1.452,7.425 1.452,7.2599998 1.452,7.15 1.551,7.095 1.749,7.095 c 0.209,0 0.495,0.011 0.495,-0.143 L 0.649,0.473 C 0.616,0.352 0.605,0.275 0.605,0.231 0.605,0 0.726,-0.121 0.957,-0.121 c 0.187,0 0.33,0.088 0.407,0.253 0.055,0.099 0.253,0.88 0.605,2.354 0.572,-0.055 1.177,-0.33 1.177,-0.88 0,-0.165 -0.077,-0.495 -0.077,-0.605 0,-0.627 0.407,-1.122 1.034,-1.122 0.638,0 1.067,0.572 1.287,1.716 0,0.099 -0.055,0.154 -0.165,0.154 C 5.126,1.749 5.06,1.672 5.027,1.518 4.785,0.649 4.488,0.20899999 4.125,0.20899999 3.927,0.20899999 3.828,0.363 3.828,0.671 3.828,0.847 3.96,1.441 3.96,1.617 3.96,2.244 3.454,2.629 2.431,2.783 2.684,2.9589999 2.97,3.212 3.2779999,3.542 3.586,3.872 3.806,4.081 3.949,4.202 4.246,4.444 4.532,4.565 4.785,4.565 4.895,4.565 4.983,4.543 5.049,4.499 4.752,4.444 4.499,4.169 4.499,3.883 Z"
               id="path190" />
          </g>
        </g>
      </g>
      <g
         transform="translate(87.7621,78.3791)"
         id="g196">
        <g
           class="typst-text"
           transform="scale(1,-1)"
           id="g195">
          <g
             id="g194">
            <path
               d="M 2.937,0.275 C 2.937,0.803 2.739,1.617 2.354,2.706 1.9909999,3.685 1.8149999,4.444 1.8149999,4.994 1.8149999,6.336 2.651,7.425 3.96,7.425 5.269,7.425 6.116,6.336 6.116,4.994 6.116,4.455 5.907,3.608 5.5,2.475 5.159,1.507 4.994,0.77 4.994,0.275 4.994,0.011 5.038,0 5.313,0 H 7.084 L 7.458,1.848 H 7.095 C 7.029,1.496 6.963,1.221 6.897,1.023 6.853,0.902 6.754,0.83599997 6.611,0.803 6.578,0.792 6.446,0.792 6.215,0.792 H 5.401 C 5.511,1.21 5.83,1.804 6.358,2.574 6.996,3.531 7.315,4.334 7.315,4.983 7.315,5.808 6.952,6.49 6.237,7.029 5.588,7.513 4.829,7.755 3.971,7.755 3.102,7.755 2.343,7.513 1.694,7.029 0.979,6.501 0.616,5.819 0.616,4.983 0.616,4.345 0.935,3.542 1.573,2.574 1.9909999,1.958 2.354,1.419 2.53,0.792 H 1.716 C 1.342,0.792 1.122,0.847 1.067,0.946 0.957,1.298 0.88,1.595 0.83599997,1.848 H 0.473 L 0.847,0 h 1.782 c 0.253,0 0.308,0.022 0.308,0.275 z"
               id="path193" />
          </g>
        </g>
      </g>
    </g>
    <defs
       id="id-2ee45f37-5fd2-4b5f-84e4-1164665f7383">
      <symbol
         id="id-d9d9c65b-16ae-48bc-a989-3421504e3d5c"
         overflow="visible">
        <path
           d="M 2.9589999,7.3259997 C 2.508,6.864 1.848,6.633 0.979,6.633 V 6.204 c 0.572,0 1.045,0.088 1.408,0.264 V 0.902 C 2.387,0.704 2.343,0.572 2.244,0.517 2.145,0.462 1.87,0.429 1.43,0.429 H 1.045 V 0 C 1.3199999,0.022 1.914,0.033 2.827,0.033 3.74,0.033 4.334,0.022 4.609,0 V 0.429 H 4.224 C 3.773,0.429 3.498,0.462 3.41,0.517 3.322,0.572 3.267,0.704 3.267,0.902 v 6.094 c 0,0.2639998 -0.022,0.3299997 -0.3080001,0.3299997 z"
           id="path197" />
      </symbol>
      <symbol
         id="id-d887167c-0e75-47f9-8e0d-ea2ee370c58b"
         overflow="visible">
        <path
           d="M 2.739,-0.242 C 4.29,-0.242 5.06,1.012 5.06,3.52 5.06,5.203 4.708,6.325 4.015,6.875 3.6299999,7.172 3.201,7.3259997 2.75,7.3259997 1.199,7.3259997 0.429,6.061 0.429,3.52 c 0,-2.024 0.539,-3.762 2.31,-3.762 z M 3.971,5.764 C 4.048,5.379 4.081,4.675 4.081,3.652 4.081,2.6399999 4.037,1.892 3.96,1.408 3.817,0.528 3.41,0.088 2.739,0.088 2.486,0.088 2.233,0.187 2.002,0.374 1.705,0.627 1.529,1.144 1.452,1.936 1.419,2.211 1.408,2.783 1.408,3.652 c 0,0.957 0.033,1.6279997 0.088,1.991 0.099,0.605 0.297,0.99 0.605,1.155 0.242,0.132 0.451,0.198 0.638,0.198 0.715,0 1.111,-0.583 1.232,-1.232 z"
           id="path198" />
      </symbol>
      <symbol
         id="id-3430e594-4098-41f5-a937-5edd298883e2"
         overflow="visible">
        <path
           d="m 4.499,3.883 c 0,-0.286 0.154,-0.429 0.451,-0.429 0.385,0 0.638,0.341 0.638,0.715 0,0.429 -0.352,0.726 -0.781,0.726 C 4.312,4.895 3.784,4.565 3.201,3.916 2.75,3.421 2.387,3.102 2.09,2.9589999 L 3.201,7.469 C 3.179,7.568 3.157,7.634 3.014,7.634 2.662,7.634 1.826,7.535 1.694,7.524 1.529,7.502 1.452,7.425 1.452,7.2599998 1.452,7.15 1.551,7.095 1.749,7.095 c 0.209,0 0.495,0.011 0.495,-0.143 L 0.649,0.473 C 0.616,0.352 0.605,0.275 0.605,0.231 0.605,0 0.726,-0.121 0.957,-0.121 c 0.187,0 0.33,0.088 0.407,0.253 0.055,0.099 0.253,0.88 0.605,2.354 0.572,-0.055 1.177,-0.33 1.177,-0.88 0,-0.165 -0.077,-0.495 -0.077,-0.605 0,-0.627 0.407,-1.122 1.034,-1.122 0.638,0 1.067,0.572 1.287,1.716 0,0.099 -0.055,0.154 -0.165,0.154 C 5.126,1.749 5.06,1.672 5.027,1.518 4.785,0.649 4.488,0.20899999 4.125,0.20899999 3.927,0.20899999 3.828,0.363 3.828,0.671 3.828,0.847 3.96,1.441 3.96,1.617 3.96,2.244 3.454,2.629 2.431,2.783 2.684,2.9589999 2.97,3.212 3.2779999,3.542 3.586,3.872 3.806,4.081 3.949,4.202 4.246,4.444 4.532,4.565 4.785,4.565 4.895,4.565 4.983,4.543 5.049,4.499 4.752,4.444 4.499,4.169 4.499,3.883 Z"
           id="path199" />
      </symbol>
      <symbol
         id="id-be083d61-961b-42c5-8cbd-c6dfc22df65f"
         overflow="visible">
        <path
           d="M 2.937,0.275 C 2.937,0.803 2.739,1.617 2.354,2.706 1.9909999,3.685 1.8149999,4.444 1.8149999,4.994 1.8149999,6.336 2.651,7.425 3.96,7.425 5.269,7.425 6.116,6.336 6.116,4.994 6.116,4.455 5.907,3.608 5.5,2.475 5.159,1.507 4.994,0.77 4.994,0.275 4.994,0.011 5.038,0 5.313,0 H 7.084 L 7.458,1.848 H 7.095 C 7.029,1.496 6.963,1.221 6.897,1.023 6.853,0.902 6.754,0.83599997 6.611,0.803 6.578,0.792 6.446,0.792 6.215,0.792 H 5.401 C 5.511,1.21 5.83,1.804 6.358,2.574 6.996,3.531 7.315,4.334 7.315,4.983 7.315,5.808 6.952,6.49 6.237,7.029 5.588,7.513 4.829,7.755 3.971,7.755 3.102,7.755 2.343,7.513 1.694,7.029 0.979,6.501 0.616,5.819 0.616,4.983 0.616,4.345 0.935,3.542 1.573,2.574 1.9909999,1.958 2.354,1.419 2.53,0.792 H 1.716 C 1.342,0.792 1.122,0.847 1.067,0.946 0.957,1.298 0.88,1.595 0.83599997,1.848 H 0.473 L 0.847,0 h 1.782 c 0.253,0 0.308,0.022 0.308,0.275 z"
           id="path200" />
      </symbol>
    </defs>
  </g>
  <g
     transform="matrix(3.57188 0 0 3.57188 447.989 3.7557)"
     ns3:version="1.11.1"
     ns3:texconverter="typst"
     ns3:pdfconverter="inkscape"
     ns3:text="$V_s$"
     ns3:preamble="C:\Users\messinat\AppData\Roaming\inkscape\extensions\textext\default_preamble_typst.typ"
     ns3:scale="10.125000141732132"
     ns3:alignment="middle center"
     ns3:inkscapeversion="1.4"
     ns3:jacobian_sqrt="3.57188"
     id="g215">
    <g
       id="g214">
      <g
         transform="translate(70.8661, 78.3791)"
         id="g210">
        <g
           class="typst-text"
           transform="scale(1, -1)"
           id="g209">
          <g
             id="g208"
             transform="translate(0,-0.7407397)">
            <path
               d="M 7.381,7.48 C 7.172,7.48 6.512,7.513 6.303,7.513 6.138,7.513 6.05,7.425 6.05,7.2599998 6.05,7.15 6.127,7.095 6.27,7.084 6.578,7.073 6.732,6.963 6.732,6.776 6.732,6.677 6.677,6.545 6.578,6.38 L 3.3,1.177 2.574,6.809 c 0,0.187 0.231,0.275 0.7039999,0.275 C 3.498,7.084 3.597,7.161 3.597,7.348 3.597,7.458 3.531,7.513 3.399,7.513 3.157,7.513 2.299,7.48 2.057,7.48 1.837,7.48 1.089,7.513 0.869,7.513 0.704,7.513 0.616,7.425 0.616,7.2599998 0.616,7.139 0.726,7.084 0.935,7.084 1.122,7.084 1.254,7.062 1.342,7.04 1.518,6.985 1.507,6.963 1.54,6.754 l 0.858,-6.71 c 0.033,-0.187 0.121,-0.286 0.264,-0.286 0.143,0 0.253,0.077 0.341,0.22 L 6.919,6.204 C 7.172,6.6 7.414,6.853 7.656,6.952 7.821,7.029 8.03,7.073 8.272,7.084 8.393,7.095 8.448,7.172 8.459,7.337 8.47,7.458 8.404,7.513 8.272,7.513 8.107,7.513 7.546,7.48 7.381,7.48 Z"
               id="path208" />
          </g>
        </g>
      </g>
      <g
         transform="translate(76.1791, 81.0961)"
         id="g213">
        <g
           class="typst-text"
           transform="scale(1, -1)"
           id="g212">
          <g
             id="g211">
            <path
               d="M 3.619 2.7104 C 3.619 3.1878 3.1185 3.3957 2.5872 3.3957 C 2.0328 3.3957 1.6401 3.234 1.4168 2.9106 C 1.2474 2.6719 1.1626999 2.4563 1.1626999 2.2638 C 1.1626999 1.9018999 1.3552 1.6554999 1.7402 1.5246 C 1.8095 1.5015 2.002 1.4629999 2.31 1.4090999 C 2.7181 1.3321 2.9259999 1.1781 2.9259999 0.9394 C 2.9259999 0.85469997 2.8952 0.7623 2.8336 0.6468 C 2.6719 0.3465 2.3253999 0.1925 1.8018 0.1925 C 1.3783 0.1925 1.0934 0.2849 0.9471 0.462 C 1.155 0.5005 1.3398 0.6776 1.3398 0.9163 C 1.3398 1.1242 1.232 1.2243 1.0164 1.2243 C 0.7238 1.2243 0.5467 0.97789997 0.5467 0.6853 C 0.5467 0.1463 1.1858 -0.077 1.7941 -0.077 C 2.3177 -0.077 2.7181 0.0462 2.9953 0.2849 C 3.3109999 0.55439997 3.465 0.8624 3.465 1.2012 C 3.465 1.6786 3.1108 1.9866 2.4024 2.1175 C 2.2714999 2.1483 2.1714 2.1714 2.1021 2.1791 C 1.8403 2.2253 1.7093999 2.3408 1.7093999 2.5256 C 1.7093999 2.6103 1.7402 2.6873 1.7941 2.772 C 1.9404 3.0107 2.2022 3.1262 2.5795 3.1262 C 2.9029 3.1262 3.1262 3.0492 3.2417 2.8952 C 3.0492 2.8336 2.9491 2.7104 2.9491 2.5179 C 2.9491 2.3408 3.0415 2.2484 3.2263 2.2484 C 3.4573 2.2484 3.619 2.4486 3.619 2.7104 Z "
               id="path210" />
          </g>
        </g>
      </g>
    </g>
    <defs
       id="id-1597f1ec-3e68-4289-ad3a-d114cfa11380">
      <symbol
         id="id-ed40bdc8-413c-4bbc-b0e5-1f4e1703a9ba"
         overflow="visible">
        <path
           d="M 7.381 7.48 C 7.172 7.48 6.512 7.513 6.303 7.513 C 6.138 7.513 6.05 7.425 6.05 7.2599998 C 6.05 7.15 6.127 7.095 6.27 7.084 C 6.578 7.073 6.732 6.963 6.732 6.776 C 6.732 6.677 6.677 6.545 6.578 6.38 L 3.3 1.177 L 2.574 6.809 C 2.574 6.996 2.805 7.084 3.2779999 7.084 C 3.498 7.084 3.597 7.161 3.597 7.348 C 3.597 7.458 3.531 7.513 3.399 7.513 C 3.157 7.513 2.299 7.48 2.057 7.48 C 1.837 7.48 1.089 7.513 0.869 7.513 C 0.704 7.513 0.616 7.425 0.616 7.2599998 C 0.616 7.139 0.726 7.084 0.935 7.084 C 1.122 7.084 1.254 7.062 1.342 7.04 C 1.518 6.985 1.507 6.963 1.54 6.754 L 2.398 0.044 C 2.431 -0.143 2.519 -0.242 2.662 -0.242 C 2.805 -0.242 2.915 -0.16499999 3.003 -0.022 L 6.919 6.204 C 7.172 6.6 7.414 6.853 7.656 6.952 C 7.821 7.029 8.03 7.073 8.272 7.084 C 8.393 7.095 8.448 7.172 8.459 7.337 C 8.47 7.458 8.404 7.513 8.272 7.513 C 8.107 7.513 7.546 7.48 7.381 7.48 Z "
           id="path214" />
      </symbol>
      <symbol
         id="id-fa064b9e-f695-4043-b365-171dee0bf89a"
         overflow="visible">
        <path
           d="M 3.619 2.7104 C 3.619 3.1878 3.1185 3.3957 2.5872 3.3957 C 2.0328 3.3957 1.6401 3.234 1.4168 2.9106 C 1.2474 2.6719 1.1626999 2.4563 1.1626999 2.2638 C 1.1626999 1.9018999 1.3552 1.6554999 1.7402 1.5246 C 1.8095 1.5015 2.002 1.4629999 2.31 1.4090999 C 2.7181 1.3321 2.9259999 1.1781 2.9259999 0.9394 C 2.9259999 0.85469997 2.8952 0.7623 2.8336 0.6468 C 2.6719 0.3465 2.3253999 0.1925 1.8018 0.1925 C 1.3783 0.1925 1.0934 0.2849 0.9471 0.462 C 1.155 0.5005 1.3398 0.6776 1.3398 0.9163 C 1.3398 1.1242 1.232 1.2243 1.0164 1.2243 C 0.7238 1.2243 0.5467 0.97789997 0.5467 0.6853 C 0.5467 0.1463 1.1858 -0.077 1.7941 -0.077 C 2.3177 -0.077 2.7181 0.0462 2.9953 0.2849 C 3.3109999 0.55439997 3.465 0.8624 3.465 1.2012 C 3.465 1.6786 3.1108 1.9866 2.4024 2.1175 C 2.2714999 2.1483 2.1714 2.1714 2.1021 2.1791 C 1.8403 2.2253 1.7093999 2.3408 1.7093999 2.5256 C 1.7093999 2.6103 1.7402 2.6873 1.7941 2.772 C 1.9404 3.0107 2.2022 3.1262 2.5795 3.1262 C 2.9029 3.1262 3.1262 3.0492 3.2417 2.8952 C 3.0492 2.8336 2.9491 2.7104 2.9491 2.5179 C 2.9491 2.3408 3.0415 2.2484 3.2263 2.2484 C 3.4573 2.2484 3.619 2.4486 3.619 2.7104 Z "
           id="path215" />
      </symbol>
    </defs>
  </g>
</svg>
