<?xml version="1.0" encoding="UTF-8" standalone="no"?>
<!-- Created with Inkscape (http://www.inkscape.org/) -->

<svg
   width="500mm"
   height="500mm"
   viewBox="0 0 500 500"
   version="1.1"
   id="svg1"
   inkscape:version="1.4 (86a8ad7, 2024-10-11)"
   sodipodi:docname="npnbjtswitch.svg"
   xml:space="preserve"
   xmlns:inkscape="http://www.inkscape.org/namespaces/inkscape"
   xmlns:sodipodi="http://sodipodi.sourceforge.net/DTD/sodipodi-0.dtd"
   xmlns="http://www.w3.org/2000/svg"
   xmlns:svg="http://www.w3.org/2000/svg"><sodipodi:namedview
     id="namedview1"
     pagecolor="#ffffff"
     bordercolor="#000000"
     borderopacity="0.25"
     inkscape:showpageshadow="2"
     inkscape:pageopacity="0.0"
     inkscape:pagecheckerboard="0"
     inkscape:deskcolor="#d1d1d1"
     inkscape:document-units="mm"
     inkscape:zoom="0.35411406"
     inkscape:cx="830.24097"
     inkscape:cy="941.78696"
     inkscape:window-width="1920"
     inkscape:window-height="1013"
     inkscape:window-x="-9"
     inkscape:window-y="-9"
     inkscape:window-maximized="1"
     inkscape:current-layer="layer1" /><defs
     id="defs1"><inkscape:path-effect
       effect="bspline"
       id="path-effect117"
       is_visible="true"
       lpeversion="1.3"
       weight="33.333333"
       steps="2"
       helper_size="0"
       apply_no_weight="true"
       apply_with_weight="true"
       only_selected="false"
       uniform="false" /><inkscape:path-effect
       effect="fillet_chamfer"
       id="path-effect116"
       is_visible="true"
       lpeversion="1"
       nodesatellites_param="C,0,0,1,0,0.52916666,0,1 @ C,0,0,1,0,0.52916666,0,1 @ F,0,1,1,0,1.5875,0,1 @ F,0,1,1,0,1.5875,0,1 @ F,0,1,1,0,1.5875,0,1 @ F,0,1,1,0,1.5875,0,1 @ C,0,0,1,0,0.52916666,0,1"
       radius="7"
       unit="px"
       method="auto"
       mode="F"
       chamfer_steps="1"
       flexible="false"
       use_knot_distance="true"
       apply_no_radius="true"
       apply_with_radius="true"
       only_selected="true"
       hide_knots="false" /><inkscape:path-effect
       effect="fillet_chamfer"
       id="path-effect107"
       is_visible="true"
       lpeversion="1"
       nodesatellites_param="C,0,0,1,0,0.52916666,0,1 @ C,0,0,1,0,0.52916666,0,1 @ F,0,1,1,0,1.5875,0,1 @ F,0,1,1,0,1.5875,0,1 @ F,0,1,1,0,1.5875,0,1 @ F,0,1,1,0,1.5875,0,1 @ C,0,0,1,0,0.52916666,0,1"
       radius="7"
       unit="px"
       method="auto"
       mode="F"
       chamfer_steps="1"
       flexible="false"
       use_knot_distance="true"
       apply_no_radius="true"
       apply_with_radius="true"
       only_selected="true"
       hide_knots="false" /><marker
       style="overflow:visible"
       id="marker103"
       refX="-2.5"
       refY="0"
       orient="auto"
       inkscape:stockid="Colored dot"
       markerWidth="1"
       markerHeight="1"
       viewBox="0 0 1 1"
       inkscape:isstock="true"
       inkscape:collect="always"
       preserveAspectRatio="xMidYMid"><path
         transform="scale(0.45)"
         style="fill:context-fill;fill-rule:evenodd;stroke:context-stroke;stroke-width:2"
         d="M 5,0 C 5,2.76 2.76,5 0,5 -2.76,5 -5,2.76 -5,0 c 0,-2.76 2.3,-5 5,-5 2.76,0 5,2.24 5,5 z"
         sodipodi:nodetypes="sssss"
         id="path103" /></marker><marker
       style="overflow:visible"
       id="marker99"
       refX="0"
       refY="0"
       orient="auto"
       inkscape:stockid="Colored dot"
       markerWidth="1"
       markerHeight="1"
       viewBox="0 0 1 1"
       inkscape:isstock="true"
       inkscape:collect="always"
       preserveAspectRatio="xMidYMid"><path
         transform="scale(0.45)"
         style="fill:context-fill;fill-rule:evenodd;stroke:context-stroke;stroke-width:2"
         d="M 5,0 C 5,2.76 2.76,5 0,5 -2.76,5 -5,2.76 -5,0 c 0,-2.76 2.3,-5 5,-5 2.76,0 5,2.24 5,5 z"
         sodipodi:nodetypes="sssss"
         id="path99" /></marker><marker
       style="overflow:visible"
       id="Dot"
       refX="0"
       refY="0"
       orient="auto"
       inkscape:stockid="Dot"
       markerWidth="1"
       markerHeight="1"
       viewBox="0 0 1 1"
       inkscape:isstock="true"
       inkscape:collect="always"
       preserveAspectRatio="xMidYMid"><path
         transform="scale(0.5)"
         style="fill:context-stroke;fill-rule:evenodd;stroke:none"
         d="M 5,0 C 5,2.76 2.76,5 0,5 -2.76,5 -5,2.76 -5,0 c 0,-2.76 2.3,-5 5,-5 2.76,0 5,2.24 5,5 z"
         sodipodi:nodetypes="sssss"
         id="path17" /></marker><marker
       style="overflow:visible"
       id="marker98"
       refX="0"
       refY="0"
       orient="auto"
       inkscape:stockid="Colored dot"
       markerWidth="1"
       markerHeight="1"
       viewBox="0 0 1 1"
       inkscape:isstock="true"
       inkscape:collect="always"
       preserveAspectRatio="xMidYMid"><path
         transform="scale(0.45)"
         style="fill:context-fill;fill-rule:evenodd;stroke:context-stroke;stroke-width:2"
         d="M 5,0 C 5,2.76 2.76,5 0,5 -2.76,5 -5,2.76 -5,0 c 0,-2.76 2.3,-5 5,-5 2.76,0 5,2.24 5,5 z"
         sodipodi:nodetypes="sssss"
         id="path98" /></marker><marker
       style="overflow:visible"
       id="ColoredDot"
       refX="0"
       refY="0"
       orient="auto"
       inkscape:stockid="Colored dot"
       markerWidth="1"
       markerHeight="1"
       viewBox="0 0 1 1"
       inkscape:isstock="true"
       inkscape:collect="always"
       preserveAspectRatio="xMidYMid"><path
         transform="scale(0.45)"
         style="fill:context-fill;fill-rule:evenodd;stroke:context-stroke;stroke-width:2"
         d="M 5,0 C 5,2.76 2.76,5 0,5 -2.76,5 -5,2.76 -5,0 c 0,-2.76 2.3,-5 5,-5 2.76,0 5,2.24 5,5 z"
         sodipodi:nodetypes="sssss"
         id="path97" /></marker><symbol
       id="id-70db9530-0438-4214-ba98-ffe2dbf090d9"
       overflow="visible"><path
         d="M 7.381,7.48 C 7.172,7.48 6.512,7.513 6.303,7.513 6.138,7.513 6.05,7.425 6.05,7.2599998 6.05,7.15 6.127,7.095 6.27,7.084 6.578,7.073 6.732,6.963 6.732,6.776 6.732,6.677 6.677,6.545 6.578,6.38 L 3.3,1.177 2.574,6.809 c 0,0.187 0.231,0.275 0.7039999,0.275 C 3.498,7.084 3.597,7.161 3.597,7.348 3.597,7.458 3.531,7.513 3.399,7.513 3.157,7.513 2.299,7.48 2.057,7.48 1.837,7.48 1.089,7.513 0.869,7.513 0.704,7.513 0.616,7.425 0.616,7.2599998 0.616,7.139 0.726,7.084 0.935,7.084 1.122,7.084 1.254,7.062 1.342,7.04 1.518,6.985 1.507,6.963 1.54,6.754 l 0.858,-6.71 c 0.033,-0.187 0.121,-0.286 0.264,-0.286 0.143,0 0.253,0.077 0.341,0.22 L 6.919,6.204 C 7.172,6.6 7.414,6.853 7.656,6.952 7.821,7.029 8.03,7.073 8.272,7.084 8.393,7.095 8.448,7.172 8.459,7.337 8.47,7.458 8.404,7.513 8.272,7.513 8.107,7.513 7.546,7.48 7.381,7.48 Z"
         id="path75" /></symbol><symbol
       id="id-4ac926c0-3004-4a77-b920-44c2edf224a9"
       overflow="visible"><path
         d="m 2.6873,3.3957 c -0.5544,0 -1.0549,-0.2156 -1.5169,-0.6468 -0.462,-0.4312 -0.693,-0.924 -0.693,-1.4707 0,-0.8085 0.6006,-1.3552 1.4091,-1.3552 0.5621,0 1.0626,0.21559999 1.5169,0.6468 0.4542999,0.4312 0.6853,0.9163 0.6853,1.4707 0,0.8085 -0.5852,1.3552 -1.4014,1.3552 z M 3.4111,2.31 C 3.4111,1.9018999 3.2031999,1.2397 3.0261,0.9394 2.8181999,0.5852 2.3947,0.1925 1.8942,0.1925 c -0.462,0 -0.7315001,0.3388 -0.7315001,0.8162 0,0.5236 0.2618001,1.2397 0.5082001,1.5631 0.2848999,0.3696 0.616,0.5544 1.0087,0.5544 0.462,0 0.7315,-0.3542 0.7315,-0.8162 z"
         id="path76" /></symbol><symbol
       id="id-57d36001-2b94-4b8a-8fdb-59ff85d96476"
       overflow="visible"
       style="stroke:#000001;stroke-width:0;stroke-opacity:1"><path
         d="m 8.129,5.841 c 0,0.561 -0.286,0.99 -0.847,1.298 C 6.831,7.392 6.292,7.513 5.687,7.513 H 2.585 C 2.332,7.513 2.222,7.502 2.222,7.249 2.222,7.172 2.255,7.117 2.321,7.106 2.431,7.095 2.519,7.084 2.574,7.084 2.904,7.073 3.091,7.051 3.146,7.04 3.201,7.029 3.234,6.996 3.234,6.941 3.234,6.919 3.223,6.853 3.19,6.743 L 1.738,0.902 C 1.683,0.65999997 1.573,0.506 1.408,0.451 1.331,0.429 1.133,0.418 0.792,0.418 0.55,0.418 0.451,0.407 0.451,0.16500001 0.451,0.044 0.517,-0.011 0.649,0 L 2.013,0.033 3.399,0 c 0.176,-0.011 0.2639999,0.088 0.2639999,0.253 0,0.11 -0.1209999,0.16499998 -0.352,0.16499998 C 2.871,0.41799998 2.651,0.473 2.651,0.572 c 0,0 0.011,0.022 0.033,0.176 L 3.388,3.597 H 4.653 C 5.412,3.597 5.797,3.2779999 5.797,2.651 5.797,2.552 5.742,2.31 5.643,1.914 5.522,1.452 5.467,1.144 5.467,0.979 c 0,-0.836 0.649,-1.221 1.485,-1.221 0.3079998,0 0.605,0.143 0.902,0.418 0.297,0.275 0.451,0.572 0.451,0.88 0,0.11 -0.055,0.165 -0.176,0.165 C 8.052,1.221 7.986,1.166 7.953,1.045 7.832,0.704 7.678,0.451 7.502,0.308 7.3259997,0.16499999 7.161,0.088 6.996,0.088 c -0.253,0 -0.385,0.209 -0.385,0.616 0,0.264 0.033,0.671 0.11,1.232 0.033,0.231 0.044,0.396 0.044,0.517 0,0.583 -0.308,1.012 -0.924,1.276 1.034,0.2529999 2.288,0.99 2.288,2.112 z M 6.699,6.776 C 6.919,6.633 7.029,6.391 7.029,6.05 7.029,5.83 6.985,5.577 6.886,5.2799997 6.5889997,4.378 5.841,3.927 4.642,3.927 H 3.476 L 4.169,6.71 c 0.055,0.231 0.143,0.352 0.264,0.363 0.055,0.011 0.275,0.011 0.66,0.011 0.715,0 1.133,-0.022 1.606,-0.308 z"
         style="stroke:#000001;stroke-width:0;stroke-opacity:1"
         id="path81" /></symbol><symbol
       id="id-c3de8105-0ba6-4ada-b095-fdf20658f2bd"
       overflow="visible"
       style="stroke:#000001;stroke-width:0;stroke-opacity:1"><path
         d="m 3.7973633,1.3642578 v 2.0893555 q 0,0.2524414 -0.034912,0.3571777 Q 3.727539,3.9155273 3.609375,4.0498047 3.270996,4.4472656 2.7177734,4.4418945 2.057129,4.4418945 1.6918945,3.894043 1.375,3.442871 1.375,2.4331055 1.375,1.4663086 1.7375488,0.93725586 2.1000977,0.40820313 2.583496,0.40820313 q 0.4296876,0 1.0366212,0.52636717 0.1772461,0.1557617 0.1772461,0.4296875 z M 3.6738281,0.55322266 q -0.8056641,-0.66064453 -1.375,-0.66064453 -0.8701172,0 -1.3696289,0.64721677 -0.4995117,0.6472168 -0.4995117,1.6945801 0,1.1762695 0.7573242,1.9335938 0.6928711,0.6606445 1.6489258,0.6606445 0.1665039,0 0.3652344,-0.04834 0.1987304,-0.04834 0.3410644,-0.093994 0.142334,-0.045654 0.1530762,-0.045654 0.09668,0 0.1020508,0.102051 v 1.4072263 q 0,0.3544922 -0.018799,0.5290527 -0.018799,0.1745606 -0.1396485,0.2578126 -0.1208496,0.083252 -0.1853027,0.088623 -0.064453,0.00537 -0.3652343,0.026855 -0.1235352,0.1235353 -0.064453,0.327637 0.9775392,0.075195 1.5415039,0.300781 0.1450193,0 0.1450193,-0.112793 -0.042968,-0.4404296 -0.04834,-1.154785 v -4.984375 q 0,-0.42968746 0.1503906,-0.5935058 Q 4.9628902,0.6713867 5.467773,0.62841797 5.521484,0.57470707 5.521484,0.4753418 q 0,-0.0993652 -0.053711,-0.14770508 -0.8808594,-0.0966797 -1.2998046,-0.43505859 -0.09668,-0.0429688 -0.2094728,0 -0.09668,0.38671875 -0.118164,0.64453127 -0.010742,0.0537109 -0.067139,0.0537109 -0.056396,0 -0.099364,-0.0375976 z"
         style="stroke:#000001;stroke-width:0;stroke-opacity:1"
         id="path89" /></symbol><symbol
       id="id-b5db3ca8-21e0-4dbe-9bcd-8cf8aae551e7"
       overflow="visible"
       style="stroke:#000001;stroke-width:0;stroke-opacity:1"><path
         d="m 0.98828125,6.590332 q 0,0.1987305 0.18798825,0.362549 0.1879883,0.163818 0.3867188,0.163818 0.2094726,0 0.3679199,-0.182617 Q 2.0893555,6.751465 2.0893555,6.5473633 2.0893555,6.359375 1.9147949,6.1875 1.7402344,6.015625 1.5200195,6.015625 q -0.1987304,0 -0.3652343,0.182617 -0.16650395,0.1826174 -0.16650395,0.39209 z M 1.9926758,1.3427734 q 0,-0.6606445 0.1315918,-0.81372067 0.1315918,-0.15307617 0.657959,-0.19067383 0.053711,-0.0537109 0.053711,-0.18530273 0,-0.13159179 -0.053711,-0.17456055 Q 2.057129,0 1.5629883,0 1.0581055,0 0.32763672,-0.02148438 q -0.0429687,0.04296876 -0.0429687,0.17456055 0,0.1315918 0.0429687,0.18530273 Q 0.8540039,0.3813477 0.98828125,0.5317383 1.1225586,0.6821289 1.1225586,1.3427734 v 2.1430664 q 0,0.4619142 -0.1262207,0.5827637 Q 0.8701172,4.189453 0.40820313,4.232422 0.34375,4.42041 0.38671875,4.5439453 1.4072266,4.6782227 1.890625,4.86084 q 0.1450195,0 0.1450195,-0.075195 -0.042969,-0.7036132 -0.042969,-1.2514648 z"
         style="stroke:#000001;stroke-width:0;stroke-opacity:1"
         id="path90" /></symbol><symbol
       id="id-7ebab62b-18c3-4560-b1c1-c349e3567199"
       overflow="visible"
       style="stroke:#000001;stroke-width:0;stroke-opacity:1"><path
         d="m 0.45117188,2.2558594 q 0,1.090332 0.60693362,1.8046876 0.6552734,0.7680663 1.7241211,0.7680663 0.7895507,0 1.3347168,-0.3894043 0.545166,-0.3894043 0.7600096,-0.9291992 0.214844,-0.539795 0.214844,-1.1574708 0,-1.149414 -0.7143556,-1.8476562 -0.628418,-0.61767577 -1.6166992,-0.61230467 -1.1010742,0 -1.7053223,0.71435547 Q 0.45117188,1.3212891 0.45117188,2.2558594 Z M 2.6157227,4.4418945 q -1.2192383,0 -1.2192383,-1.9335937 0,-0.3544922 0.083252,-0.717041 Q 1.5629883,1.4287109 1.7268066,1.0769043 1.890625,0.72509766 2.199463,0.49951172 2.5083008,0.27392578 2.916504,0.27392578 q 0.4833983,0 0.8566894,0.39746092 0.373291,0.397461 0.373291,1.3320313 0,1.1762695 -0.4082031,1.807373 -0.4082032,0.6311035 -1.1225586,0.6311035 z"
         style="stroke:#000001;stroke-width:0;stroke-opacity:1"
         id="path91" /></symbol><symbol
       id="id-c358d199-e4f3-479f-b7ea-7490416b330e"
       overflow="visible"
       style="stroke:#000001;stroke-width:0;stroke-opacity:1"><path
         d="m 1.3642578,3.1044922 1.9926758,0.032227 q 0.1665039,0 0.1611328,0.1503906 0,0.6284179 -0.2685547,0.8916016 -0.2685547,0.2631835 -0.6445312,0.2631835 -0.1450195,0 -0.284668,-0.037598 Q 2.180664,4.366699 1.9765625,4.2458496 1.7724609,4.125 1.605957,3.8295898 1.4394531,3.5341797 1.3642578,3.1044922 Z M 4.248535,1.0205078 q 0.1879884,-0.010742 0.230957,-0.171875 -0.7358397,-0.95605467 -1.8745115,-0.95605467 -1.0903321,0 -1.6811524,0.70361327 -0.51562497,0.5961914 -0.51562497,1.6274414 0,1.1655274 0.69824217,1.8745117 0.6982422,0.7089845 1.4985352,0.7089845 1.8583985,0 1.8583985,-1.9121095 0,-0.1879882 -0.2041017,-0.1879882 l -2.927246,0.021484 q 0,-0.9238281 0.349121,-1.5092773 0.4833985,-0.7895508 1.203125,-0.7895508 0.4619141,0 0.7546387,0.1315918 0.2927246,0.1315918 0.609619,0.4592288 z"
         style="stroke:#000001;stroke-width:0;stroke-opacity:1"
         id="path92" /></symbol><symbol
       id="id-bc5fa03b-7723-4e30-b602-60d413beb39b"
       overflow="visible"
       style="stroke:#000001;stroke-width:0;stroke-opacity:1"><path
         d="M 7.381,7.48 C 7.172,7.48 6.512,7.513 6.303,7.513 6.138,7.513 6.05,7.425 6.05,7.2599998 6.05,7.15 6.127,7.095 6.27,7.084 6.578,7.073 6.732,6.963 6.732,6.776 6.732,6.677 6.677,6.545 6.578,6.38 L 3.3,1.177 2.574,6.809 c 0,0.187 0.231,0.275 0.7039999,0.275 C 3.498,7.084 3.597,7.161 3.597,7.348 3.597,7.458 3.531,7.513 3.399,7.513 3.157,7.513 2.299,7.48 2.057,7.48 1.837,7.48 1.089,7.513 0.869,7.513 0.704,7.513 0.616,7.425 0.616,7.2599998 0.616,7.139 0.726,7.084 0.935,7.084 1.122,7.084 1.254,7.062 1.342,7.04 1.518,6.985 1.507,6.963 1.54,6.754 l 0.858,-6.71 c 0.033,-0.187 0.121,-0.286 0.264,-0.286 0.143,0 0.253,0.077 0.341,0.22 L 6.919,6.204 C 7.172,6.6 7.414,6.853 7.656,6.952 7.821,7.029 8.03,7.073 8.272,7.084 8.393,7.095 8.448,7.172 8.459,7.337 8.47,7.458 8.404,7.513 8.272,7.513 8.107,7.513 7.546,7.48 7.381,7.48 Z"
         style="stroke:#000001;stroke-width:0;stroke-opacity:1"
         id="path100" /></symbol><symbol
       id="id-f2acfc49-5e41-4c9b-ba9b-9ad6e70f5d55"
       overflow="visible"
       style="stroke:#000001;stroke-width:0;stroke-opacity:1"><path
         d="M 6.3063,4.0579 C 6.3063,4.466 6.0752997,4.774 5.621,4.9973 5.2591,5.1744 4.851,5.2591 4.3967,5.2591 H 2.0559 C 1.8788,5.2591 1.7787,5.236 1.7787,5.0589 1.7787,4.9742 1.8326,4.9357 1.9404,4.928 L 2.3408,4.9126 c 0.1001,-0.0077 0.1463,0 0.1463,-0.077 L 1.4476,0.6314 C 1.4090999,0.4774 1.3321,0.385 1.2166,0.3465 1.1781,0.3388 1.0395,0.3311 0.8085,0.3311 H 0.6776 C 0.5929,0.3234 0.5467,0.2618 0.5467,0.1463 0.5467,0.0462 0.6006,0 0.7007,0 1.0087,0 1.3552,0.0385 1.6709,0.0308 L 2.1637,0.0231 C 2.2561,0.0231 2.5718,0 2.6719,0 c 0.1309,0 0.1925,0.0616 0.1925,0.1848 0,0.0847 -0.0462,0.1386 -0.1309,0.1463 H 2.5795 C 2.3408,0.3311 2.2022,0.3465 2.1637,0.3773 2.156,0.385 2.156,0.40039998 2.156,0.4312 L 2.6565,2.4948 H 3.6729 C 4.158,2.4948 4.5815,2.2869 4.5815,1.8403 4.5815,1.7864 4.543,1.6093 4.4737,1.3167 4.389,0.9702 4.3505,0.77 4.3505,0.7161 c 0,-0.5852 0.5236,-0.8701 1.1473,-0.8701 0.231,0 0.462,0.1001 0.693,0.29259999 C 6.4218,0.3311 6.5373,0.539 6.5373,0.7623 6.5373,0.847 6.4834,0.8932 6.3756,0.8932 6.2986,0.8932 6.2447,0.847 6.2139,0.7469 6.1215,0.4697 5.8674,0.1232 5.5285997,0.1232 5.3207,0.1232 5.2206,0.27719998 5.2206,0.5852 c 0,0.1771 0.0231,0.4389 0.077,0.7854 0.0231,0.1386 0.0308,0.2618 0.0308,0.3619 0,0.4004 -0.2233,0.693 -0.6622,0.8778 0.7084,0.1848 1.6401,0.6853 1.6401,1.4476 z M 5.2206,4.697 C 5.3823,4.5969 5.4593,4.4275 5.4593,4.1734 5.4593,3.9963 5.4208,3.8115 5.3361,3.6113 5.1051,3.0492 4.5507,2.772 3.6806,2.772 H 2.7335 l 0.4774,1.9173 c 0.0462,0.1617 0.0308,0.2156 0.2078999,0.231 h 0.4928 C 4.5045,4.9203 4.8279,4.928 5.2206,4.697 Z"
         style="stroke:#000001;stroke-width:0;stroke-opacity:1"
         id="path101" /></symbol><marker
       inkscape:stockid="BJTArrow"
       orient="auto"
       refY="0.0"
       refX="0.0"
       id="BJTArrow"
       style="overflow:visible"><path
         d="M 0,0 l -3.000000,1.250000 l 0,-2.500000 z"
         style="fill:#000000;fill-opacity:1.0;fill-rule:evenodd;stroke:#000000;stroke-opacity:1.0;stroke-width:0.6"
         id="path9" /></marker><defs
       id="id-57e20596-2c6b-4c8f-8842-0d2956177000"
       style="stroke:#000001;stroke-width:0;stroke-opacity:1"><symbol
         id="id-8e1603f2-87d8-40a6-b4c1-8c093c136ff4"
         overflow="visible"
         style="stroke:#000001;stroke-width:0;stroke-opacity:1"><path
           d="M 7.381,7.48 C 7.172,7.48 6.512,7.513 6.303,7.513 6.138,7.513 6.05,7.425 6.05,7.2599998 6.05,7.15 6.127,7.095 6.27,7.084 6.578,7.073 6.732,6.963 6.732,6.776 6.732,6.677 6.677,6.545 6.578,6.38 L 3.3,1.177 2.574,6.809 c 0,0.187 0.231,0.275 0.7039999,0.275 C 3.498,7.084 3.597,7.161 3.597,7.348 3.597,7.458 3.531,7.513 3.399,7.513 3.157,7.513 2.299,7.48 2.057,7.48 1.837,7.48 1.089,7.513 0.869,7.513 0.704,7.513 0.616,7.425 0.616,7.2599998 0.616,7.139 0.726,7.084 0.935,7.084 1.122,7.084 1.254,7.062 1.342,7.04 1.518,6.985 1.507,6.963 1.54,6.754 l 0.858,-6.71 c 0.033,-0.187 0.121,-0.286 0.264,-0.286 0.143,0 0.253,0.077 0.341,0.22 L 6.919,6.204 C 7.172,6.6 7.414,6.853 7.656,6.952 7.821,7.029 8.03,7.073 8.272,7.084 8.393,7.095 8.448,7.172 8.459,7.337 8.47,7.458 8.404,7.513 8.272,7.513 8.107,7.513 7.546,7.48 7.381,7.48 Z"
           style="stroke:#000001;stroke-width:0;stroke-opacity:1"
           id="path88" /></symbol><symbol
         id="id-d935f23c-37a9-4c87-8d3e-314e7a9597c3"
         overflow="visible"
         style="stroke:#000001;stroke-width:0;stroke-opacity:1"><path
           d="M 7.678,4.037 H 0.88 C 0.704,4.037 0.616,3.949 0.616,3.784 0.616,3.619 0.704,3.531 0.88,3.531 h 6.798 c 0.176,0 0.264,0.088 0.264,0.253 0,0.132 -0.121,0.253 -0.264,0.253 z m 0,-2.068 H 0.88 C 0.704,1.969 0.616,1.881 0.616,1.716 0.616,1.551 0.704,1.4629999 0.88,1.4629999 h 6.798 c 0.176,0 0.264,0.088 0.264,0.2530001 0,0.143 -0.121,0.253 -0.264,0.253 z"
           style="stroke:#000001;stroke-width:0;stroke-opacity:1"
           id="path94" /></symbol><symbol
         id="id-51aa0df5-4e02-4ff8-969f-3d64ceae7973"
         overflow="visible"
         style="stroke:#000001;stroke-width:0;stroke-opacity:1"><path
           d="m 1.298,3.465 c 0.055,0 0.121,0.044 0.176,0.121 0.33,0.495 0.7809999,0.737 1.353,0.737 0.385,0 0.682,-0.22 0.88,-0.671 C 3.828,3.355 3.894,2.904 3.894,2.299 3.894,1.606 3.806,1.122 3.641,0.83599997 3.366,0.385 2.992,0.154 2.519,0.154 c -0.737,0 -1.32,0.528 -1.518,1.1 0.033,-0.011 0.055,0 0.099,0 0.33,0 0.605,0.253 0.605,0.583 0,0.341 -0.275,0.572 -0.605,0.572 -0.385,0 -0.55,-0.209 -0.55,-0.616 0,-1.1 0.891,-2.035 1.991,-2.035 0.671,0 1.243,0.242 1.705,0.726 C 4.708,0.968 4.939,1.551 4.939,2.222 4.939,2.86 4.752,3.41 4.378,3.883 3.971,4.4 3.465,4.653 2.849,4.653 2.332,4.653 1.881,4.488 1.518,4.158 v 1.958 c 0.2969999,-0.088 0.583,-0.132 0.88,-0.132 0.506,0 0.9459999,0.121 1.32,0.374 0.341,0.209 0.572,0.418 0.704,0.616 0.066,0.088 0.099,0.154 0.099,0.187 0,0.11 -0.055,0.1649997 -0.165,0.1649997 C 3.751,7.095 3.234,6.974 2.816,6.974 2.321,6.974 1.848,7.073 1.397,7.282 1.342,7.304 1.298,7.315 1.254,7.315 1.155,7.315 1.1,7.216 1.1,7.007 V 3.795 c 0,-0.231 0,-0.33 0.198,-0.33 z"
           style="stroke:#000001;stroke-width:0;stroke-opacity:1"
           id="path95" /></symbol></defs></defs><g
     inkscape:label="GND"
     id="g59"
     transform="matrix(3,0,0,3,-411.64511,-388.57771)"
     style="stroke:#000000;stroke-opacity:1"><path
       inkscape:label="none"
       style="fill:none;fill-opacity:1;stroke:#000000;stroke-width:1;stroke-linecap:round;stroke-linejoin:round;stroke-dasharray:none;stroke-opacity:1"
       d="m 250,240 v 10"
       id="path56" /><path
       inkscape:label="none"
       style="fill:none;fill-opacity:1;stroke:#000000;stroke-width:1;stroke-linecap:round;stroke-linejoin:round;stroke-dasharray:none;stroke-opacity:1"
       d="M 257,250 H 243"
       id="path57" /><path
       inkscape:label="none"
       style="fill:none;fill-opacity:1;stroke:#000000;stroke-width:1;stroke-linecap:round;stroke-linejoin:round;stroke-dasharray:none;stroke-opacity:1"
       d="m 253.5,252 h -7"
       id="path58" /><path
       inkscape:label="none"
       style="fill:none;fill-opacity:1;stroke:#000000;stroke-width:1;stroke-linecap:round;stroke-linejoin:round;stroke-dasharray:none;stroke-opacity:1"
       d="m 251,254 h -2"
       id="path59" /></g><g
     inkscape:label="Layer 1"
     inkscape:groupmode="layer"
     id="layer1"><g
       inkscape:label="Resistor"
       id="g38"
       transform="matrix(-3,0,0,-3,952.3847,740.71076)"><g
         id="g37"><path
           inkscape:label="none"
           style="fill:none;fill-opacity:1;stroke:#000000;stroke-width:1;stroke-linecap:round;stroke-linejoin:round;stroke-dasharray:none;stroke-opacity:1"
           d="m 225,160 h 15.5 l 2,3 3,-6 3,6 3,-6 3,6 3,-6 2,3 H 275"
           id="path36" /></g></g><path
       style="fill:none;stroke:#000000;stroke-width:3.00001;stroke-linecap:round;stroke-dasharray:none;stroke-opacity:1;marker-end:url(#marker103)"
       d="M 164.8529,260.71347 H 120.07704"
       id="path102" /><text
       xml:space="preserve"
       style="font-style:normal;font-variant:normal;font-weight:normal;font-stretch:normal;font-size:26.4583px;font-family:'Times New Roman';-inkscape-font-specification:'Times New Roman, Normal';font-variant-ligatures:normal;font-variant-caps:normal;font-variant-numeric:normal;font-variant-east-asian:normal;text-align:start;writing-mode:lr-tb;direction:ltr;text-anchor:start;fill:#00000f;fill-opacity:1;stroke:#000000;stroke-width:0.25;stroke-linecap:round;stroke-dasharray:none;stroke-opacity:1"
       x="27.53167"
       y="269.23157"
       id="text104"><tspan
         sodipodi:role="line"
         id="tspan104"
         style="font-style:normal;font-variant:normal;font-weight:normal;font-stretch:normal;font-size:26.4583px;font-family:'Times New Roman';-inkscape-font-specification:'Times New Roman, Normal';font-variant-ligatures:normal;font-variant-caps:normal;font-variant-numeric:normal;font-variant-east-asian:normal;fill:#00000f;fill-opacity:1;stroke-width:0.25;stroke-dasharray:none"
         x="27.53167"
         y="269.23157">+5 V</tspan></text><text
       xml:space="preserve"
       style="font-style:normal;font-variant:normal;font-weight:normal;font-stretch:normal;font-size:26.4583px;font-family:Symbol;-inkscape-font-specification:'Symbol, Normal';font-variant-ligatures:normal;font-variant-caps:normal;font-variant-numeric:normal;font-variant-east-asian:normal;text-align:start;writing-mode:lr-tb;direction:ltr;text-anchor:start;fill:#00000f;fill-opacity:1;stroke:#000000;stroke-width:0.25;stroke-linecap:round;stroke-dasharray:none;stroke-opacity:1"
       x="164.63838"
       y="236.73"
       id="text105"><tspan
         sodipodi:role="line"
         id="tspan105"
         x="164.63838"
         y="236.73"
         style="stroke-width:0.25">1000 W</tspan></text><text
       xml:space="preserve"
       style="font-style:normal;font-variant:normal;font-weight:normal;font-stretch:normal;font-size:26.4583px;font-family:'Times New Roman';-inkscape-font-specification:'Times New Roman, Normal';font-variant-ligatures:normal;font-variant-caps:normal;font-variant-numeric:normal;font-variant-east-asian:normal;text-align:start;writing-mode:lr-tb;direction:ltr;text-anchor:start;fill:#00000f;fill-opacity:1;stroke:#000000;stroke-width:0.25;stroke-linecap:round;stroke-dasharray:none;stroke-opacity:1"
       x="219.58507"
       y="25.841618"
       id="text106"><tspan
         sodipodi:role="line"
         id="tspan106"
         x="219.58507"
         y="25.841618">           +10 V </tspan><tspan
         sodipodi:role="line"
         id="tspan107"
         x="219.58507"
         y="58.914494">(from variable supply)</tspan></text><path
       style="fill:none;stroke:#000000;stroke-width:3;stroke-linecap:round;stroke-dasharray:none;stroke-opacity:1;marker-end:url(#marker103)"
       d="M 338.58318,163.79293 V 82.696799"
       id="path106" /><g
       id="g117"
       transform="matrix(0.5,0,0,0.5,394.36004,393.312)"><path
         id="rect107"
         style="fill:#f8a60c;fill-opacity:1;stroke:none;stroke-width:0.25;stroke-linecap:round;stroke-dasharray:none;stroke-opacity:1"
         d="M 122.75375,60.548426 C 98.862794,60.798561 79.544408,77.968284 79.228551,99.218251 l 0.0011,1.058289 c 0.255538,15.02624 10.144824,28.57542 25.39247,34.91549 0.80952,0.3366 1.60138,1.28427 1.75626,2.14723 l 5.77907,32.19991 a 1.8977817,1.8977817 39.912582 0 0 1.86794,1.56253 l 19.26233,0 a 1.89545,1.89545 140.05275 0 0 1.86604,-1.56287 l 5.78287,-32.44676 c 0.15383,-0.86315 0.94053,-1.82226 1.74415,-2.17272 14.86442,-6.48247 24.4222,-19.86407 24.65607,-34.64281 l 4.5e-4,-1.058287 C 167.02143,77.968281 147.70303,60.798556 123.81207,60.548426 Z"
         sodipodi:nodetypes="cccccccc"
         inkscape:path-effect="#path-effect107"
         inkscape:original-d="m 123.28291,60.545658 c -24.332773,-4.7e-5 -44.058384,17.55121 -44.058288,39.201742 0.03031,15.71721 10.608011,29.89885 26.873298,36.02933 l 6.33995,35.32497 h 22.43733 l 6.33995,-35.5725 c 15.88035,-6.29607 26.11459,-20.31271 26.12606,-35.7818 1e-4,-21.650537 -19.72552,-39.201795 -44.0583,-39.201742 z"
         transform="matrix(0.9999245,0,0,1.0540075,40.241482,-8.8705165)" /><rect
         style="fill:#6b655b;fill-opacity:1;stroke:#000000;stroke-width:0.25;stroke-linecap:round;stroke-dasharray:none;stroke-opacity:1"
         id="rect108"
         width="22.6521"
         height="2.9718497"
         x="152.18904"
         y="173.7989"
         ry="1.4859248" /><rect
         style="fill:#6b655b;fill-opacity:1;stroke:#000000;stroke-width:0.25;stroke-linecap:round;stroke-dasharray:none;stroke-opacity:1"
         id="rect109"
         width="22.6521"
         height="2.9718497"
         x="152.18904"
         y="179.09436"
         ry="1.4859248" /><rect
         style="fill:#6b655b;fill-opacity:1;stroke:#000000;stroke-width:0.25;stroke-linecap:round;stroke-dasharray:none;stroke-opacity:1"
         id="rect110"
         width="22.6521"
         height="2.9718497"
         x="152.18904"
         y="184.38983"
         ry="1.4859248" /><path
         id="rect112"
         style="fill:#2a200f;fill-opacity:1;stroke:#000000;stroke-width:0.31983;stroke-linecap:round;stroke-dasharray:none;stroke-opacity:1"
         d="m 154.91964,189.72021 c 2.14493,2.34663 5.19645,3.81068 8.59546,3.81068 3.39912,0 6.45053,-1.46392 8.59545,-3.81068 z" /><path
         id="path113"
         style="opacity:0.25;fill:#000000;fill-opacity:1;stroke:none;stroke-width:0.25;stroke-linecap:round;stroke-dasharray:none;stroke-opacity:1"
         d="m 122.7537,60.54851 c -0.76257,0.008 -1.52011,0.03395 -2.2729,0.07599 22.83157,1.275113 40.94655,18.022087 41.25228,38.593784 l -5.2e-4,1.058036 c -0.23387,14.77874 -9.79175,28.16059 -24.65617,34.64307 -0.80362,0.35046 -1.59038,1.3093 -1.74421,2.17245 l -5.78251,32.44708 a 1.89545,1.89545 0 0 1 -1.86618,1.56254 h 5.60422 a 1.89545,1.89545 0 0 0 1.86617,-1.56254 l 5.78252,-32.44708 c 0.15383,-0.86315 0.94059,-1.82199 1.74421,-2.17245 14.86443,-6.48248 24.4223,-19.86433 24.65617,-34.64307 l 5.1e-4,-1.058036 C 167.02144,77.968316 147.70308,60.79864 123.81212,60.54851 Z m 4.76596,112.7607 c 0.82327,0 1.48581,0.62904 1.48581,1.41006 0,0.78103 -0.66254,1.40957 -1.48581,1.40957 h 5.60422 c 0.82326,0 1.48581,-0.62855 1.48581,-1.40957 0,-0.78102 -0.66255,-1.41006 -1.48581,-1.41006 z m 0,5.02445 c 0.82327,0 1.48581,0.62853 1.48581,1.40957 0,0.78102 -0.66254,1.41006 -1.48581,1.41006 h 5.60422 c 0.82326,0 1.48581,-0.62904 1.48581,-1.41006 0,-0.78103 -0.66255,-1.40957 -1.48581,-1.40957 z m 0,5.02395 c 0.82327,0 1.48581,0.62904 1.48581,1.41006 0,0.78102 -0.66254,1.40957 -1.48581,1.40957 h 5.60422 c 0.82326,0 1.48581,-0.62855 1.48581,-1.40957 0,-0.78102 -0.66255,-1.41006 -1.48581,-1.41006 z m -1.24498,5.05729 c -1.53413,1.59237 -3.53681,2.74471 -5.79388,3.27854 0.89885,0.2126 1.83395,0.33682 2.80211,0.33682 3.39938,0 6.45091,-1.38885 8.59599,-3.61536 z"
         transform="matrix(0.9999245,0,0,1.0540075,40.241482,-8.8705165)" /><path
         style="opacity:1;fill:none;fill-opacity:1;stroke:#f5d8a3;stroke-width:5;stroke-linecap:round;stroke-dasharray:none;stroke-opacity:1"
         id="path116"
         sodipodi:type="arc"
         sodipodi:cx="160.29152"
         sodipodi:cy="96.198112"
         sodipodi:rx="29.366343"
         sodipodi:ry="28.829559"
         sodipodi:start="3.2038196"
         sodipodi:end="4.4289876"
         sodipodi:open="true"
         sodipodi:arc-type="arc"
         d="M 130.98201,94.405295 A 29.366343,28.829559 0 0 1 152.08002,68.518567" /></g><g
       id="g122"
       transform="matrix(0,0.5625,-0.5625,0,454.39976,133.09833)"><path
         id="rect119"
         style="opacity:1;fill:none;fill-opacity:1;stroke:#000000;stroke-width:3;stroke-linecap:round;stroke-dasharray:none;stroke-opacity:1"
         d="m 74.415094,63.727343 a 26.524527,34.743397 0 0 0 -26.52448,34.74362 26.524527,34.743397 0 0 0 0.0811,1.621597 V 172.422 h 52.793676 v -70.47012 a 26.524527,34.743397 0 0 0 0.17415,-3.480917 26.524527,34.743397 0 0 0 -26.524446,-34.74362 z" /><path
         id="path120"
         style="opacity:1;fill:none;fill-opacity:1;stroke:#000000;stroke-width:2.17263;stroke-linecap:round;stroke-dasharray:none;stroke-opacity:1"
         d="m 74.415094,90.911335 a 18.531136,26.08228 0 0 0 -18.5311,26.082455 18.531136,26.08228 0 0 0 0.0567,1.21735 v 54.29857 h 36.88385 v -52.90276 a 18.531136,26.08228 0 0 0 0.12165,-2.61316 18.531136,26.08228 0 0 0 -18.5311,-26.082455 z" /><path
         style="opacity:1;fill:none;fill-opacity:1;stroke:#000000;stroke-width:2;stroke-linecap:round;stroke-dasharray:none;stroke-opacity:1"
         d="m 56.002856,166.95191 -0.264163,36.98302"
         id="path121" /><path
         style="opacity:1;fill:none;fill-opacity:1;stroke:#000000;stroke-width:2;stroke-linecap:round;stroke-dasharray:none;stroke-opacity:1"
         d="m 92.845781,166.95191 -0.264163,36.98302"
         id="path122" /></g><g
       id="g126"
       transform="matrix(0.5625,0,0,0.5625,339.10239,380.33231)"><path
         id="path123"
         style="opacity:1;fill:none;fill-opacity:1;stroke:#000000;stroke-width:3;stroke-linecap:round;stroke-dasharray:none;stroke-opacity:1"
         d="m 74.415094,63.727343 a 26.524527,34.743397 0 0 0 -26.52448,34.74362 26.524527,34.743397 0 0 0 0.0811,1.621597 V 172.422 h 52.793676 v -70.47012 a 26.524527,34.743397 0 0 0 0.17415,-3.480917 26.524527,34.743397 0 0 0 -26.524446,-34.74362 z" /><path
         id="path124"
         style="opacity:1;fill:none;fill-opacity:1;stroke:#000000;stroke-width:2.17263;stroke-linecap:round;stroke-dasharray:none;stroke-opacity:1"
         d="m 74.415094,90.911335 a 18.531136,26.08228 0 0 0 -18.5311,26.082455 18.531136,26.08228 0 0 0 0.0567,1.21735 v 54.29857 h 36.88385 v -52.90276 a 18.531136,26.08228 0 0 0 0.12165,-2.61316 18.531136,26.08228 0 0 0 -18.5311,-26.082455 z" /><path
         style="opacity:1;fill:none;fill-opacity:1;stroke:#000000;stroke-width:2;stroke-linecap:round;stroke-dasharray:none;stroke-opacity:1"
         d="m 56.002856,166.95191 -0.264163,36.98302"
         id="path125" /><path
         style="opacity:1;fill:none;fill-opacity:1;stroke:#000000;stroke-width:2;stroke-linecap:round;stroke-dasharray:none;stroke-opacity:1"
         d="m 92.845781,166.95191 -0.264163,36.98302"
         id="path126" /></g><text
       xml:space="preserve"
       style="font-style:normal;font-variant:normal;font-weight:normal;font-stretch:normal;font-size:26.4583px;font-family:'Times New Roman';-inkscape-font-specification:'Times New Roman, Normal';font-variant-ligatures:normal;font-variant-caps:normal;font-variant-numeric:normal;font-variant-east-asian:normal;text-align:start;writing-mode:lr-tb;direction:ltr;text-anchor:start;fill:#00000f;fill-opacity:1;stroke:#000000;stroke-width:0.25;stroke-linecap:round;stroke-dasharray:none;stroke-opacity:1"
       x="238.98071"
       y="464.47632"
       id="text126"><tspan
         sodipodi:role="line"
         id="tspan126"
         x="238.98071"
         y="464.47632">Reminder</tspan></text><text
       xml:space="preserve"
       style="font-style:normal;font-variant:normal;font-weight:normal;font-stretch:normal;font-size:26.4583px;font-family:'Times New Roman';-inkscape-font-specification:'Times New Roman, Normal';font-variant-ligatures:normal;font-variant-caps:normal;font-variant-numeric:normal;font-variant-east-asian:normal;text-align:start;writing-mode:lr-tb;direction:ltr;text-anchor:start;fill:#00000f;fill-opacity:1;stroke:#000000;stroke-width:0.25;stroke-linecap:round;stroke-dasharray:none;stroke-opacity:1"
       x="417.96051"
       y="464.24377"
       id="text127"><tspan
         sodipodi:role="line"
         id="tspan127"
         x="417.96051"
         y="464.24377">=</tspan></text></g><g
     inkscape:label="BJT"
     transform="matrix(3,0,0,3,-6.6306452,-218.92219)"
     id="g17"><g
       inkscape:label="BJT"
       id="g16"><path
         inkscape:label="none"
         style="fill:none;fill-opacity:1;stroke:#000000;stroke-width:1;stroke-linecap:round;stroke-linejoin:round;stroke-dasharray:none;stroke-opacity:1"
         d="m 80,160 h 28"
         id="path11" /><path
         inkscape:label="none"
         style="fill:none;fill-opacity:1;stroke:#000000;stroke-width:2;stroke-linecap:round;stroke-linejoin:round;stroke-dasharray:none;stroke-opacity:1"
         d="m 107.5,154 v 12"
         id="path12" /><path
         inkscape:label="none"
         style="fill:none;fill-opacity:1;stroke:#000000;stroke-width:1;stroke-linecap:round;stroke-linejoin:round;stroke-dasharray:none;stroke-opacity:1"
         d="m 108,157 7,-5 v -17"
         id="path13" /><path
         inkscape:label="none"
         style="fill:none;fill-opacity:1;stroke:#000000;stroke-width:1;stroke-linecap:round;stroke-linejoin:round;stroke-dasharray:none;stroke-opacity:1;marker-end:url(#BJTArrow)"
         d="m 108,163 7,5"
         id="path14" /><path
         inkscape:label="none"
         style="fill:none;fill-opacity:1;stroke:#000000;stroke-width:1;stroke-linecap:round;stroke-linejoin:round;stroke-dasharray:none;stroke-opacity:1"
         d="m 115,168 v 17"
         id="path15" /><circle
         inkscape:label="circle"
         style="fill:none;fill-opacity:1;stroke:#000000;stroke-width:1;stroke-linecap:round;stroke-linejoin:round;stroke-dasharray:none;stroke-opacity:1"
         id="path16"
         cx="112"
         cy="160"
         r="10" /></g></g></svg>
