<?xml version="1.0" encoding="UTF-8" standalone="no"?>
<!-- Created with Inkscape (http://www.inkscape.org/) -->

<svg
   width="350mm"
   height="200mm"
   viewBox="0 0 350 200"
   version="1.1"
   id="svg1"
   xml:space="preserve"
   inkscape:version="1.4 (86a8ad7, 2024-10-11)"
   sodipodi:docname="555TimerMonostableLED.svg"
   xmlns:inkscape="http://www.inkscape.org/namespaces/inkscape"
   xmlns:sodipodi="http://sodipodi.sourceforge.net/DTD/sodipodi-0.dtd"
   xmlns="http://www.w3.org/2000/svg"
   xmlns:svg="http://www.w3.org/2000/svg"
   xmlns:ns3="http://www.iki.fi/pav/software/textext/"><sodipodi:namedview
     id="namedview1"
     pagecolor="#ffffff"
     bordercolor="#000000"
     borderopacity="0.25"
     inkscape:showpageshadow="2"
     inkscape:pageopacity="0.0"
     inkscape:pagecheckerboard="0"
     inkscape:deskcolor="#d1d1d1"
     inkscape:document-units="mm"
     inkscape:zoom="0.70710678"
     inkscape:cx="584.77731"
     inkscape:cy="535.27983"
     inkscape:window-width="1920"
     inkscape:window-height="1017"
     inkscape:window-x="-8"
     inkscape:window-y="-8"
     inkscape:window-maximized="1"
     inkscape:current-layer="layer1" /><defs
     id="defs1">
    <defs
   id="defs69">
        <symbol
   id="symbol68"
   overflow="visible">
            <path
   d="m 8.129,5.841 c 0,0.561 -0.286,0.99 -0.847,1.298 C 6.831,7.392 6.292,7.513 5.687,7.513 H 2.585 C 2.332,7.513 2.222,7.502 2.222,7.249 2.222,7.172 2.255,7.117 2.321,7.106 2.431,7.095 2.519,7.084 2.574,7.084 2.904,7.073 3.091,7.051 3.146,7.04 3.201,7.029 3.234,6.996 3.234,6.941 3.234,6.919 3.223,6.853 3.19,6.743 L 1.738,0.902 C 1.683,0.65999997 1.573,0.506 1.408,0.451 1.331,0.429 1.133,0.418 0.792,0.418 0.55,0.418 0.451,0.407 0.451,0.16500001 0.451,0.044 0.517,-0.011 0.649,0 L 2.013,0.033 3.399,0 c 0.176,-0.011 0.2639999,0.088 0.2639999,0.253 0,0.11 -0.1209999,0.16499998 -0.352,0.16499998 C 2.871,0.41799998 2.651,0.473 2.651,0.572 c 0,0 0.011,0.022 0.033,0.176 L 3.388,3.597 H 4.653 C 5.412,3.597 5.797,3.2779999 5.797,2.651 5.797,2.552 5.742,2.31 5.643,1.914 5.522,1.452 5.467,1.144 5.467,0.979 c 0,-0.836 0.649,-1.221 1.485,-1.221 0.3079998,0 0.605,0.143 0.902,0.418 0.297,0.275 0.451,0.572 0.451,0.88 0,0.11 -0.055,0.165 -0.176,0.165 C 8.052,1.221 7.986,1.166 7.953,1.045 7.832,0.704 7.678,0.451 7.502,0.308 7.3259997,0.16499999 7.161,0.088 6.996,0.088 c -0.253,0 -0.385,0.209 -0.385,0.616 0,0.264 0.033,0.671 0.11,1.232 0.033,0.231 0.044,0.396 0.044,0.517 0,0.583 -0.308,1.012 -0.924,1.276 1.034,0.2529999 2.288,0.99 2.288,2.112 z M 6.699,6.776 C 6.919,6.633 7.029,6.391 7.029,6.05 7.029,5.83 6.985,5.577 6.886,5.2799997 6.5889997,4.378 5.841,3.927 4.642,3.927 H 3.476 L 4.169,6.71 c 0.055,0.231 0.143,0.352 0.264,0.363 0.055,0.011 0.275,0.011 0.66,0.011 0.715,0 1.133,-0.022 1.606,-0.308 z"
   id="path68" />
        </symbol>
        <symbol
   id="symbol69"
   overflow="visible">
            <path
   d="M 2.3331,5.1128 C 2.002,4.7894 1.5092,4.6277 0.8393,4.6277 V 4.2889 c 0.4543,0 0.8161999,0.0693 1.0934,0.2002 V 0.6545 C 1.9327,0.55439997 1.925,0.4928 1.9018999,0.462 1.8634,0.3773 1.6324,0.3311 1.2089,0.3311 H 0.8932 V 0 L 2.2638,0.0308 3.6421,0 V 0.3311 H 3.3264 C 2.9029,0.3311 2.6719,0.3773 2.6257,0.462 2.6103,0.4928 2.6026,0.5544 2.6026,0.6545 v 4.2119 c 0,0.2079 -0.0308,0.2464 -0.2695,0.2464 z"
   id="path69" />
        </symbol>
    </defs>
<symbol
   id="id-66fe368e-ebd3-4e38-aede-6125414215d9"
   overflow="visible">
            <path
   d="m 8.129,5.841 c 0,0.561 -0.286,0.99 -0.847,1.298 C 6.831,7.392 6.292,7.513 5.687,7.513 H 2.585 C 2.332,7.513 2.222,7.502 2.222,7.249 2.222,7.172 2.255,7.117 2.321,7.106 2.431,7.095 2.519,7.084 2.574,7.084 2.904,7.073 3.091,7.051 3.146,7.04 3.201,7.029 3.234,6.996 3.234,6.941 3.234,6.919 3.223,6.853 3.19,6.743 L 1.738,0.902 C 1.683,0.65999997 1.573,0.506 1.408,0.451 1.331,0.429 1.133,0.418 0.792,0.418 0.55,0.418 0.451,0.407 0.451,0.16500001 0.451,0.044 0.517,-0.011 0.649,0 L 2.013,0.033 3.399,0 c 0.176,-0.011 0.2639999,0.088 0.2639999,0.253 0,0.11 -0.1209999,0.16499998 -0.352,0.16499998 C 2.871,0.41799998 2.651,0.473 2.651,0.572 c 0,0 0.011,0.022 0.033,0.176 L 3.388,3.597 H 4.653 C 5.412,3.597 5.797,3.2779999 5.797,2.651 5.797,2.552 5.742,2.31 5.643,1.914 5.522,1.452 5.467,1.144 5.467,0.979 c 0,-0.836 0.649,-1.221 1.485,-1.221 0.3079998,0 0.605,0.143 0.902,0.418 0.297,0.275 0.451,0.572 0.451,0.88 0,0.11 -0.055,0.165 -0.176,0.165 C 8.052,1.221 7.986,1.166 7.953,1.045 7.832,0.704 7.678,0.451 7.502,0.308 7.3259997,0.16499999 7.161,0.088 6.996,0.088 c -0.253,0 -0.385,0.209 -0.385,0.616 0,0.264 0.033,0.671 0.11,1.232 0.033,0.231 0.044,0.396 0.044,0.517 0,0.583 -0.308,1.012 -0.924,1.276 1.034,0.2529999 2.288,0.99 2.288,2.112 z M 6.699,6.776 C 6.919,6.633 7.029,6.391 7.029,6.05 7.029,5.83 6.985,5.577 6.886,5.2799997 6.5889997,4.378 5.841,3.927 4.642,3.927 H 3.476 L 4.169,6.71 c 0.055,0.231 0.143,0.352 0.264,0.363 0.055,0.011 0.275,0.011 0.66,0.011 0.715,0 1.133,-0.022 1.606,-0.308 z"
   id="path118" />
        </symbol><symbol
   id="id-5b271848-bd89-4b36-bccd-f8c88458b53a"
   overflow="visible">
            <path
   d="M 2.7181,2.7181 C 3.234,2.9259999 3.7268,3.3803 3.7268,4.0348 3.7268,4.3813 3.542,4.6585 3.1801,4.8587 2.8798,5.0281 2.541,5.1128 2.1637,5.1128 1.7864,5.1128 1.4553,5.0358 1.1704,4.8741 0.8239,4.6816 0.6468,4.4121 0.6468,4.0656 c 0,-0.2926 0.1463,-0.4389 0.4312,-0.4389 0.2387,0 0.4158,0.1848 0.4158,0.4235 0,0.2387 -0.1232,0.3773 -0.3619,0.4158 0.2233,0.2387 0.5544,0.3619 1.0087,0.3619 0.5005,0 0.7853999,-0.3003 0.7853999,-0.7931 C 2.9259999,3.6729 2.8259,3.3803 2.6334,3.1493 2.4178,2.8952 2.2638,2.8567 1.8172,2.8259 1.6093,2.8105 1.4707,2.8336 1.4707,2.6796 1.4707,2.5872 1.5477,2.541 1.694,2.541 h 0.4081 c 0.6621999,0 0.9856,-0.5005 0.9856,-1.1935 0,-0.6776 -0.308,-1.1935 -0.9548,-1.1935 -0.5621,0 -0.9702001,0.154 -1.2243,0.4697 0.2695,0.0308 0.4081,0.1848 0.4081,0.4543 0,0.2541 -0.1925,0.4466 -0.4466,0.4466 -0.3003,0 -0.4543,-0.154 -0.4543,-0.4697 0,-0.3927 0.2002,-0.7084 0.5929,-0.9317 0.3311,-0.1848 0.7084,-0.2772 1.1396,-0.2772 0.4697,0 0.8778,0.1309 1.232,0.3927 0.385,0.2849 0.5775,0.6545 0.5775,1.1088 0,0.7161 -0.6237,1.2089 -1.2397,1.3706 z"
   id="path119" />
        </symbol><marker
   inkscape:stockid="arrowSwitchStart"
   orient="auto"
   refY="0.0"
   refX="0.0"
   id="arrowSwitchStart"
   style="overflow:visible"><path
     d="M 0.0,0.0 L 5.0,-5.0 L -12.5,0.0 L 5.0,5.0 L 0.0,0.0 z "
     style="fill:#FF0000;fill-opacity:1.0;fill-rule:evenodd;stroke:#FF0000;stroke-opacity:1.0;stroke-width:1.0"
     transform="scale(0.25) rotate(0) translate(7.2925,0)"
     id="path64" /></marker><marker
   inkscape:stockid="arrowSwitchEnd"
   orient="auto"
   refY="0.0"
   refX="0.0"
   id="arrowSwitchEnd"
   style="overflow:visible"><path
     d="M 0.0,0.0 L 5.0,-5.0 L -12.5,0.0 L 5.0,5.0 L 0.0,0.0 z "
     style="fill:#FF0000;fill-opacity:1.0;fill-rule:evenodd;stroke:#FF0000;stroke-opacity:1.0;stroke-width:1.0"
     transform="scale(0.25) rotate(180) translate(7.2925,0)"
     id="path65" /></marker></defs><g
     inkscape:label="Layer 1"
     inkscape:groupmode="layer"
     id="layer1"><path
       style="fill:none;fill-opacity:1;stroke:#000000;stroke-width:0.7;stroke-dasharray:none;stroke-opacity:1;paint-order:stroke markers fill"
       d="M 76.725576,72.683946 136.31352,72.543629"
       id="path49" /><path
       style="fill:none;fill-opacity:1;stroke:#000000;stroke-width:0.699747;stroke-dasharray:none;stroke-opacity:1;paint-order:stroke markers fill"
       d="m 76.664939,190.15233 0.04674,3.29744 90.181491,-0.0234 0.18695,-48.73678"
       id="path52" /><path
       style="fill:none;fill-opacity:1;stroke:#000000;stroke-width:0.7;stroke-dasharray:none;stroke-opacity:1;paint-order:stroke markers fill"
       d="m 166.87933,193.40307 150.62276,0.0702 0.0233,-70.48598"
       id="path53" /><g
       transform="matrix(0.952501,0,0,0.952501,-11.854943,-36.638705)"
       ns3:version="1.11.1"
       ns3:texconverter="typst"
       ns3:pdfconverter="inkscape"
       ns3:text="$R_1$"
       ns3:preamble="C:\Users\messinat\AppData\Roaming\inkscape\extensions\textext\default_preamble_typst.typ"
       ns3:scale="26.999999999999993"
       ns3:alignment="middle center"
       ns3:jacobian_sqrt="9.52501"
       id="g61"><g
   id="g60">
        <g
   transform="translate(70.8662,78.3792)"
   id="g56">
            <g
   class="typst-text"
   transform="scale(1,-1)"
   id="g55">
                <g
   id="g54"><path
   d="m 8.129,5.841 c 0,0.561 -0.286,0.99 -0.847,1.298 C 6.831,7.392 6.292,7.513 5.687,7.513 H 2.585 C 2.332,7.513 2.222,7.502 2.222,7.249 2.222,7.172 2.255,7.117 2.321,7.106 2.431,7.095 2.519,7.084 2.574,7.084 2.904,7.073 3.091,7.051 3.146,7.04 3.201,7.029 3.234,6.996 3.234,6.941 3.234,6.919 3.223,6.853 3.19,6.743 L 1.738,0.902 C 1.683,0.65999997 1.573,0.506 1.408,0.451 1.331,0.429 1.133,0.418 0.792,0.418 0.55,0.418 0.451,0.407 0.451,0.16500001 0.451,0.044 0.517,-0.011 0.649,0 L 2.013,0.033 3.399,0 c 0.176,-0.011 0.2639999,0.088 0.2639999,0.253 0,0.11 -0.1209999,0.16499998 -0.352,0.16499998 C 2.871,0.41799998 2.651,0.473 2.651,0.572 c 0,0 0.011,0.022 0.033,0.176 L 3.388,3.597 H 4.653 C 5.412,3.597 5.797,3.2779999 5.797,2.651 5.797,2.552 5.742,2.31 5.643,1.914 5.522,1.452 5.467,1.144 5.467,0.979 c 0,-0.836 0.649,-1.221 1.485,-1.221 0.3079998,0 0.605,0.143 0.902,0.418 0.297,0.275 0.451,0.572 0.451,0.88 0,0.11 -0.055,0.165 -0.176,0.165 C 8.052,1.221 7.986,1.166 7.953,1.045 7.832,0.704 7.678,0.451 7.502,0.308 7.3259997,0.16499999 7.161,0.088 6.996,0.088 c -0.253,0 -0.385,0.209 -0.385,0.616 0,0.264 0.033,0.671 0.11,1.232 0.033,0.231 0.044,0.396 0.044,0.517 0,0.583 -0.308,1.012 -0.924,1.276 1.034,0.2529999 2.288,0.99 2.288,2.112 z M 6.699,6.776 C 6.919,6.633 7.029,6.391 7.029,6.05 7.029,5.83 6.985,5.577 6.886,5.2799997 6.5889997,4.378 5.841,3.927 4.642,3.927 H 3.476 L 4.169,6.71 c 0.055,0.231 0.143,0.352 0.264,0.363 0.055,0.011 0.275,0.011 0.66,0.011 0.715,0 1.133,-0.022 1.606,-0.308 z"
   id="path54" />
        </g></g>
        </g>
        <g
   transform="translate(79.2152,81.0962)"
   id="g59">
            <g
   class="typst-text"
   transform="scale(1,-1)"
   id="g58">
                <g
   id="g57"><path
   d="M 2.3331,5.1128 C 2.002,4.7894 1.5092,4.6277 0.8393,4.6277 V 4.2889 c 0.4543,0 0.8161999,0.0693 1.0934,0.2002 V 0.6545 C 1.9327,0.55439997 1.925,0.4928 1.9018999,0.462 1.8634,0.3773 1.6324,0.3311 1.2089,0.3311 H 0.8932 V 0 L 2.2638,0.0308 3.6421,0 V 0.3311 H 3.3264 C 2.9029,0.3311 2.6719,0.3773 2.6257,0.462 2.6103,0.4928 2.6026,0.5544 2.6026,0.6545 v 4.2119 c 0,0.2079 -0.0308,0.2464 -0.2695,0.2464 z"
   id="path56" />
        </g></g>
        </g>
    </g>
    <defs
   id="id-056c638f-e74d-4c23-8336-586dba899a3e">
        <symbol
   id="id-3bd79a8b-71b5-450f-afc1-439f8f4a375f"
   overflow="visible">
            <path
   d="m 8.129,5.841 c 0,0.561 -0.286,0.99 -0.847,1.298 C 6.831,7.392 6.292,7.513 5.687,7.513 H 2.585 C 2.332,7.513 2.222,7.502 2.222,7.249 2.222,7.172 2.255,7.117 2.321,7.106 2.431,7.095 2.519,7.084 2.574,7.084 2.904,7.073 3.091,7.051 3.146,7.04 3.201,7.029 3.234,6.996 3.234,6.941 3.234,6.919 3.223,6.853 3.19,6.743 L 1.738,0.902 C 1.683,0.65999997 1.573,0.506 1.408,0.451 1.331,0.429 1.133,0.418 0.792,0.418 0.55,0.418 0.451,0.407 0.451,0.16500001 0.451,0.044 0.517,-0.011 0.649,0 L 2.013,0.033 3.399,0 c 0.176,-0.011 0.2639999,0.088 0.2639999,0.253 0,0.11 -0.1209999,0.16499998 -0.352,0.16499998 C 2.871,0.41799998 2.651,0.473 2.651,0.572 c 0,0 0.011,0.022 0.033,0.176 L 3.388,3.597 H 4.653 C 5.412,3.597 5.797,3.2779999 5.797,2.651 5.797,2.552 5.742,2.31 5.643,1.914 5.522,1.452 5.467,1.144 5.467,0.979 c 0,-0.836 0.649,-1.221 1.485,-1.221 0.3079998,0 0.605,0.143 0.902,0.418 0.297,0.275 0.451,0.572 0.451,0.88 0,0.11 -0.055,0.165 -0.176,0.165 C 8.052,1.221 7.986,1.166 7.953,1.045 7.832,0.704 7.678,0.451 7.502,0.308 7.3259997,0.16499999 7.161,0.088 6.996,0.088 c -0.253,0 -0.385,0.209 -0.385,0.616 0,0.264 0.033,0.671 0.11,1.232 0.033,0.231 0.044,0.396 0.044,0.517 0,0.583 -0.308,1.012 -0.924,1.276 1.034,0.2529999 2.288,0.99 2.288,2.112 z M 6.699,6.776 C 6.919,6.633 7.029,6.391 7.029,6.05 7.029,5.83 6.985,5.577 6.886,5.2799997 6.5889997,4.378 5.841,3.927 4.642,3.927 H 3.476 L 4.169,6.71 c 0.055,0.231 0.143,0.352 0.264,0.363 0.055,0.011 0.275,0.011 0.66,0.011 0.715,0 1.133,-0.022 1.606,-0.308 z"
   id="path60" />
        </symbol>
        <symbol
   id="id-190f0c3f-0b07-46f4-8a68-edbfb5b5aa16"
   overflow="visible">
            <path
   d="M 2.3331,5.1128 C 2.002,4.7894 1.5092,4.6277 0.8393,4.6277 V 4.2889 c 0.4543,0 0.8161999,0.0693 1.0934,0.2002 V 0.6545 C 1.9327,0.55439997 1.925,0.4928 1.9018999,0.462 1.8634,0.3773 1.6324,0.3311 1.2089,0.3311 H 0.8932 V 0 L 2.2638,0.0308 3.6421,0 V 0.3311 H 3.3264 C 2.9029,0.3311 2.6719,0.3773 2.6257,0.462 2.6103,0.4928 2.6026,0.5544 2.6026,0.6545 v 4.2119 c 0,0.2079 -0.0308,0.2464 -0.2695,0.2464 z"
   id="path61" />
        </symbol>
    </defs>
</g><g
       transform="matrix(0.952501,0,0,0.952501,-12.168083,95.655207)"
       ns3:version="1.11.1"
       ns3:texconverter="typst"
       ns3:pdfconverter="inkscape"
       ns3:text="$C_1$"
       ns3:preamble="C:\Users\messinat\AppData\Roaming\inkscape\extensions\textext\default_preamble_typst.typ"
       ns3:scale="26.999999999999993"
       ns3:alignment="middle center"
       ns3:jacobian_sqrt="9.52501"
       id="g85"><g
   id="g84">
        <g
   transform="translate(70.8662,78.3792)"
   id="g80">
            <g
   class="typst-text"
   transform="scale(1,-1)"
   id="g79">
                <g
   id="g78"><path
   d="m 1.628,2.398 c 0,1.408 0.616,2.838 1.309,3.63 0.561,0.649 1.529,1.2979997 2.618,1.2979997 1.144,0 1.7049998,-0.8689997 1.7049998,-2.0569997 0,-0.099 -0.033,-0.451 -0.033,-0.55 0,-0.099 0.066,-0.154 0.2090002,-0.154 0.055,0 0.099,0.011 0.132,0.022 0.055,0.077 0.088,0.154 0.11,0.231 L 8.36,7.601 C 8.36,7.7 8.305,7.755 8.195,7.755 8.151,7.755 8.085,7.711 7.9969997,7.612 L 7.282,6.809 C 6.853,7.436 6.248,7.755 5.467,7.755 4.862,7.755 4.268,7.612 3.6629999,7.337 2.442,6.765 1.551,5.863 0.979,4.631 0.693,4.026 0.55,3.41 0.55,2.783 c 0,-0.88 0.275,-1.595 0.836,-2.167 0.561,-0.572 1.276,-0.858 2.156,-0.858 0.869,0 1.661,0.319 2.3759997,0.946 C 6.215,0.957 6.468,1.265 6.677,1.606 6.974,2.101 7.128,2.442 7.128,2.651 7.128,2.75 7.073,2.805 6.952,2.805 6.853,2.805 6.798,2.761 6.776,2.662 6.545,1.947 6.182,1.375 5.687,0.968 5.06,0.451 4.4,0.187 3.718,0.187 c -1.32,0 -2.09,0.891 -2.09,2.211 z"
   id="path78" />
        </g></g>
        </g>
        <g
   transform="translate(78.7312,81.0962)"
   id="g83">
            <g
   class="typst-text"
   transform="scale(1,-1)"
   id="g82">
                <g
   id="g81"><path
   d="M 2.3331,5.1128 C 2.002,4.7894 1.5092,4.6277 0.8393,4.6277 V 4.2889 c 0.4543,0 0.8161999,0.0693 1.0934,0.2002 V 0.6545 C 1.9327,0.55439997 1.925,0.4928 1.9018999,0.462 1.8634,0.3773 1.6324,0.3311 1.2089,0.3311 H 0.8932 V 0 L 2.2638,0.0308 3.6421,0 V 0.3311 H 3.3264 C 2.9029,0.3311 2.6719,0.3773 2.6257,0.462 2.6103,0.4928 2.6026,0.5544 2.6026,0.6545 v 4.2119 c 0,0.2079 -0.0308,0.2464 -0.2695,0.2464 z"
   id="path80" />
        </g></g>
        </g>
    </g>
    <defs
   id="id-099a8b25-2f19-48e7-9a22-3e956432071d">
        <symbol
   id="id-911b68c5-6375-4616-997b-728ac8774e8a"
   overflow="visible">
            <path
   d="m 1.628,2.398 c 0,1.408 0.616,2.838 1.309,3.63 0.561,0.649 1.529,1.2979997 2.618,1.2979997 1.144,0 1.7049998,-0.8689997 1.7049998,-2.0569997 0,-0.099 -0.033,-0.451 -0.033,-0.55 0,-0.099 0.066,-0.154 0.2090002,-0.154 0.055,0 0.099,0.011 0.132,0.022 0.055,0.077 0.088,0.154 0.11,0.231 L 8.36,7.601 C 8.36,7.7 8.305,7.755 8.195,7.755 8.151,7.755 8.085,7.711 7.9969997,7.612 L 7.282,6.809 C 6.853,7.436 6.248,7.755 5.467,7.755 4.862,7.755 4.268,7.612 3.6629999,7.337 2.442,6.765 1.551,5.863 0.979,4.631 0.693,4.026 0.55,3.41 0.55,2.783 c 0,-0.88 0.275,-1.595 0.836,-2.167 0.561,-0.572 1.276,-0.858 2.156,-0.858 0.869,0 1.661,0.319 2.3759997,0.946 C 6.215,0.957 6.468,1.265 6.677,1.606 6.974,2.101 7.128,2.442 7.128,2.651 7.128,2.75 7.073,2.805 6.952,2.805 6.853,2.805 6.798,2.761 6.776,2.662 6.545,1.947 6.182,1.375 5.687,0.968 5.06,0.451 4.4,0.187 3.718,0.187 c -1.32,0 -2.09,0.891 -2.09,2.211 z"
   id="path84" />
        </symbol>
        <symbol
   id="id-01a9f13c-e9bf-4ab3-a9df-c1f9786abe16"
   overflow="visible">
            <path
   d="M 2.3331,5.1128 C 2.002,4.7894 1.5092,4.6277 0.8393,4.6277 V 4.2889 c 0.4543,0 0.8161999,0.0693 1.0934,0.2002 V 0.6545 C 1.9327,0.55439997 1.925,0.4928 1.9018999,0.462 1.8634,0.3773 1.6324,0.3311 1.2089,0.3311 H 0.8932 V 0 L 2.2638,0.0308 3.6421,0 V 0.3311 H 3.3264 C 2.9029,0.3311 2.6719,0.3773 2.6257,0.462 2.6103,0.4928 2.6026,0.5544 2.6026,0.6545 v 4.2119 c 0,0.2079 -0.0308,0.2464 -0.2695,0.2464 z"
   id="path85" />
        </symbol>
    </defs>
</g><g
       transform="matrix(0.952501,0,0,0.952501,134.66665,96.841938)"
       ns3:version="1.11.1"
       ns3:texconverter="typst"
       ns3:pdfconverter="inkscape"
       ns3:text="$C_2$"
       ns3:preamble="C:\Users\messinat\AppData\Roaming\inkscape\extensions\textext\default_preamble_typst.typ"
       ns3:scale="26.999999999999993"
       ns3:alignment="middle center"
       ns3:jacobian_sqrt="9.52501"
       id="g93"><g
   id="g92">
        <g
   transform="translate(70.8662,78.3792)"
   id="g88">
            <g
   class="typst-text"
   transform="scale(1,-1)"
   id="g87">
                <g
   id="g86"><path
   d="m 1.628,2.398 c 0,1.408 0.616,2.838 1.309,3.63 0.561,0.649 1.529,1.2979997 2.618,1.2979997 1.144,0 1.7049998,-0.8689997 1.7049998,-2.0569997 0,-0.099 -0.033,-0.451 -0.033,-0.55 0,-0.099 0.066,-0.154 0.2090002,-0.154 0.055,0 0.099,0.011 0.132,0.022 0.055,0.077 0.088,0.154 0.11,0.231 L 8.36,7.601 C 8.36,7.7 8.305,7.755 8.195,7.755 8.151,7.755 8.085,7.711 7.9969997,7.612 L 7.282,6.809 C 6.853,7.436 6.248,7.755 5.467,7.755 4.862,7.755 4.268,7.612 3.6629999,7.337 2.442,6.765 1.551,5.863 0.979,4.631 0.693,4.026 0.55,3.41 0.55,2.783 c 0,-0.88 0.275,-1.595 0.836,-2.167 0.561,-0.572 1.276,-0.858 2.156,-0.858 0.869,0 1.661,0.319 2.3759997,0.946 C 6.215,0.957 6.468,1.265 6.677,1.606 6.974,2.101 7.128,2.442 7.128,2.651 7.128,2.75 7.073,2.805 6.952,2.805 6.853,2.805 6.798,2.761 6.776,2.662 6.545,1.947 6.182,1.375 5.687,0.968 5.06,0.451 4.4,0.187 3.718,0.187 c -1.32,0 -2.09,0.891 -2.09,2.211 z"
   id="path86" />
        </g></g>
        </g>
        <g
   transform="translate(78.7312,81.0962)"
   id="g91">
            <g
   class="typst-text"
   transform="scale(1,-1)"
   id="g90">
                <g
   id="g89"><path
   d="m 0.9163,3.2648 c 0.2463999,0 0.4312,0.1848 0.4312,0.4312 0,0.2772 -0.1463,0.4235 -0.4312,0.4312 0.1694,0.3619 0.5544,0.6545 1.0549,0.6545 0.6776,0 1.1242,-0.5082 1.1242,-1.1858 C 3.0954,3.2263 2.9645,2.8720999 2.695,2.5256 2.5641,2.3485 2.464,2.2253 2.3947,2.156 L 0.5698,0.3465 C 0.4697,0.2541 0.4851,0.231 0.4851,0 H 3.6575 L 3.8962,1.4476 H 3.5728 C 3.5189,1.0395 3.4573,0.80079997 3.388,0.7469 3.3495,0.7238 3.1108,0.7084 2.6565,0.7084 H 1.3475 C 1.8634,1.1626999 2.3408,1.5708 2.7951,1.9327 3.1416,2.2022 3.388,2.4409 3.542,2.6488 3.773,2.9491 3.8885,3.2648 3.8885,3.5959 3.8885,4.0733 3.7037,4.4506 3.3264,4.7278 2.9953,4.9818997 2.5795,5.1128 2.0867,5.1128 1.6632,5.1128 1.3013,4.9896 0.9856,4.7432 0.6545,4.4737 0.4851,4.1349 0.4851,3.7191 c 0,-0.2618 0.1925,-0.4543 0.4312,-0.4543 z"
   id="path88" />
        </g></g>
        </g>
    </g>
    <defs
   id="id-4289c6de-8bc1-4784-aa40-f68cb0811085">
        <symbol
   id="id-1515c77c-0003-4f79-a554-f0a2b41acc33"
   overflow="visible">
            <path
   d="m 1.628,2.398 c 0,1.408 0.616,2.838 1.309,3.63 0.561,0.649 1.529,1.2979997 2.618,1.2979997 1.144,0 1.7049998,-0.8689997 1.7049998,-2.0569997 0,-0.099 -0.033,-0.451 -0.033,-0.55 0,-0.099 0.066,-0.154 0.2090002,-0.154 0.055,0 0.099,0.011 0.132,0.022 0.055,0.077 0.088,0.154 0.11,0.231 L 8.36,7.601 C 8.36,7.7 8.305,7.755 8.195,7.755 8.151,7.755 8.085,7.711 7.9969997,7.612 L 7.282,6.809 C 6.853,7.436 6.248,7.755 5.467,7.755 4.862,7.755 4.268,7.612 3.6629999,7.337 2.442,6.765 1.551,5.863 0.979,4.631 0.693,4.026 0.55,3.41 0.55,2.783 c 0,-0.88 0.275,-1.595 0.836,-2.167 0.561,-0.572 1.276,-0.858 2.156,-0.858 0.869,0 1.661,0.319 2.3759997,0.946 C 6.215,0.957 6.468,1.265 6.677,1.606 6.974,2.101 7.128,2.442 7.128,2.651 7.128,2.75 7.073,2.805 6.952,2.805 6.853,2.805 6.798,2.761 6.776,2.662 6.545,1.947 6.182,1.375 5.687,0.968 5.06,0.451 4.4,0.187 3.718,0.187 c -1.32,0 -2.09,0.891 -2.09,2.211 z"
   id="path92" />
        </symbol>
        <symbol
   id="id-863606cf-501d-4772-899b-b8769273775f"
   overflow="visible">
            <path
   d="m 0.9163,3.2648 c 0.2463999,0 0.4312,0.1848 0.4312,0.4312 0,0.2772 -0.1463,0.4235 -0.4312,0.4312 0.1694,0.3619 0.5544,0.6545 1.0549,0.6545 0.6776,0 1.1242,-0.5082 1.1242,-1.1858 C 3.0954,3.2263 2.9645,2.8720999 2.695,2.5256 2.5641,2.3485 2.464,2.2253 2.3947,2.156 L 0.5698,0.3465 C 0.4697,0.2541 0.4851,0.231 0.4851,0 H 3.6575 L 3.8962,1.4476 H 3.5728 C 3.5189,1.0395 3.4573,0.80079997 3.388,0.7469 3.3495,0.7238 3.1108,0.7084 2.6565,0.7084 H 1.3475 C 1.8634,1.1626999 2.3408,1.5708 2.7951,1.9327 3.1416,2.2022 3.388,2.4409 3.542,2.6488 3.773,2.9491 3.8885,3.2648 3.8885,3.5959 3.8885,4.0733 3.7037,4.4506 3.3264,4.7278 2.9953,4.9818997 2.5795,5.1128 2.0867,5.1128 1.6632,5.1128 1.3013,4.9896 0.9856,4.7432 0.6545,4.4737 0.4851,4.1349 0.4851,3.7191 c 0,-0.2618 0.1925,-0.4543 0.4312,-0.4543 z"
   id="path93" />
        </symbol>
    </defs>
</g><path
       style="fill:#ec1111;fill-opacity:1;stroke:#000000;stroke-width:0.7;stroke-opacity:1;paint-order:stroke markers fill"
       d="M 76.669249,73.421874 V 141.72571"
       id="path13" /><path
       style="fill:#ec1111;fill-opacity:1;stroke:#000000;stroke-width:0.7;stroke-opacity:1;paint-order:stroke markers fill"
       d="m 76.725576,102.71168 59.541174,0.0702"
       id="path14" /><path
       style="fill:#ec1111;fill-opacity:1;stroke:#000000;stroke-width:0.7;stroke-dasharray:none;stroke-opacity:1;paint-order:stroke markers fill"
       d="m 136.32671,120.71614 -57.811496,0.0165"
       id="path15" /><path
       style="fill:none;fill-opacity:1;stroke:#000000;stroke-width:0.7;stroke-dasharray:none;stroke-opacity:1;marker-end:;paint-order:stroke markers fill"
       d="m 80.242875,120.72843 -55.314912,-0.013"
       id="path16" /><path
       style="fill:#ff0000;fill-opacity:1;stroke:#000000;stroke-width:0.7;stroke-dasharray:none;stroke-opacity:1;paint-order:stroke markers fill"
       d="m 237.65447,172.46146 v 21.05091"
       id="path111" /><g
       inkscape:label="diode"
       id="g109"
       transform="rotate(90,179.98579,187.66542)"
       style="stroke-width:0.7;stroke-dasharray:none"><g
         id="g106"
         style="fill:#000000;fill-opacity:1;stroke-width:0.7;stroke-dasharray:none"><path
           inkscape:label="none"
           style="fill:#000000;fill-opacity:1;stroke:#000000;stroke-width:0.7;stroke-linecap:round;stroke-linejoin:round;stroke-dasharray:none;stroke-opacity:1"
           d="m 146,130 h 19"
           id="path98" /><path
           inkscape:label="none"
           style="fill:#000000;fill-opacity:1;stroke:#000000;stroke-width:0.7;stroke-linecap:round;stroke-linejoin:round;stroke-dasharray:none;stroke-opacity:1"
           d="M 134,130 H 115"
           id="path99" /><path
           inkscape:label="none"
           style="fill:#000000;fill-opacity:1;stroke:#000000;stroke-width:0.7;stroke-linecap:round;stroke-linejoin:round;stroke-dasharray:none;stroke-opacity:1"
           d="m 146,130 -12,6 v -12 l 12,6"
           id="path100" /><path
           inkscape:label="none"
           style="fill:#000000;fill-opacity:1;stroke:#000000;stroke-width:0.7;stroke-linecap:round;stroke-linejoin:round;stroke-dasharray:none;stroke-opacity:1"
           d="m 146,124 v 12"
           id="path101" /><g
           transform="rotate(-60,131.5718,128.59808)"
           id="g103"
           style="fill:#000000;fill-opacity:1;stroke-width:0.7;stroke-dasharray:none"><path
             inkscape:label="none"
             style="fill:#000000;fill-opacity:1;stroke:#000000;stroke-width:0.7;stroke-linecap:round;stroke-linejoin:round;stroke-dasharray:none;stroke-opacity:1"
             d="m 140,130 h 7"
             id="path102" /><path
             inkscape:label="none"
             style="fill:#000000;fill-opacity:1;stroke:#000000;stroke-width:0.7;stroke-linecap:round;stroke-linejoin:round;stroke-dasharray:none;stroke-opacity:1"
             d="m 145.5,131.5 1.5,-1.5 -1.5,-1.5"
             id="path103" /></g><g
           transform="rotate(-60,135.80385,125.26795)"
           id="g105"
           style="fill:#000000;fill-opacity:1;stroke-width:0.7;stroke-dasharray:none"><path
             inkscape:label="none"
             style="fill:#000000;fill-opacity:1;stroke:#000000;stroke-width:0.7;stroke-linecap:round;stroke-linejoin:round;stroke-dasharray:none;stroke-opacity:1"
             d="m 140,130 h 7"
             id="path104" /><path
             inkscape:label="none"
             style="fill:#000000;fill-opacity:1;stroke:#000000;stroke-width:0.7;stroke-linecap:round;stroke-linejoin:round;stroke-dasharray:none;stroke-opacity:1"
             d="m 145.5,131.5 1.5,-1.5 -1.5,-1.5"
             id="path105" /></g></g><g
         transform="matrix(0,-0.952501,0.952501,0,18.054687,190.07948)"
         ns3:version="1.11.1"
         ns3:texconverter="typst"
         ns3:pdfconverter="inkscape"
         ns3:text="$R_3$"
         ns3:preamble="C:\Users\messinat\AppData\Roaming\inkscape\extensions\textext\default_preamble_typst.typ"
         ns3:scale="26.999999999999993"
         ns3:alignment="middle center"
         ns3:inkscapeversion="1.4"
         ns3:jacobian_sqrt="9.52501"
         id="g119"><g
   id="g118">
        <g
   transform="translate(70.8662,78.3792)"
   id="g114">
            <g
   class="typst-text"
   transform="scale(1,-1)"
   id="g113">
                <g
   id="g112"><path
   d="m 8.129,5.841 c 0,0.561 -0.286,0.99 -0.847,1.298 C 6.831,7.392 6.292,7.513 5.687,7.513 H 2.585 C 2.332,7.513 2.222,7.502 2.222,7.249 2.222,7.172 2.255,7.117 2.321,7.106 2.431,7.095 2.519,7.084 2.574,7.084 2.904,7.073 3.091,7.051 3.146,7.04 3.201,7.029 3.234,6.996 3.234,6.941 3.234,6.919 3.223,6.853 3.19,6.743 L 1.738,0.902 C 1.683,0.65999997 1.573,0.506 1.408,0.451 1.331,0.429 1.133,0.418 0.792,0.418 0.55,0.418 0.451,0.407 0.451,0.16500001 0.451,0.044 0.517,-0.011 0.649,0 L 2.013,0.033 3.399,0 c 0.176,-0.011 0.2639999,0.088 0.2639999,0.253 0,0.11 -0.1209999,0.16499998 -0.352,0.16499998 C 2.871,0.41799998 2.651,0.473 2.651,0.572 c 0,0 0.011,0.022 0.033,0.176 L 3.388,3.597 H 4.653 C 5.412,3.597 5.797,3.2779999 5.797,2.651 5.797,2.552 5.742,2.31 5.643,1.914 5.522,1.452 5.467,1.144 5.467,0.979 c 0,-0.836 0.649,-1.221 1.485,-1.221 0.3079998,0 0.605,0.143 0.902,0.418 0.297,0.275 0.451,0.572 0.451,0.88 0,0.11 -0.055,0.165 -0.176,0.165 C 8.052,1.221 7.986,1.166 7.953,1.045 7.832,0.704 7.678,0.451 7.502,0.308 7.3259997,0.16499999 7.161,0.088 6.996,0.088 c -0.253,0 -0.385,0.209 -0.385,0.616 0,0.264 0.033,0.671 0.11,1.232 0.033,0.231 0.044,0.396 0.044,0.517 0,0.583 -0.308,1.012 -0.924,1.276 1.034,0.2529999 2.288,0.99 2.288,2.112 z M 6.699,6.776 C 6.919,6.633 7.029,6.391 7.029,6.05 7.029,5.83 6.985,5.577 6.886,5.2799997 6.5889997,4.378 5.841,3.927 4.642,3.927 H 3.476 L 4.169,6.71 c 0.055,0.231 0.143,0.352 0.264,0.363 0.055,0.011 0.275,0.011 0.66,0.011 0.715,0 1.133,-0.022 1.606,-0.308 z"
   id="path112" />
        </g></g>
        </g>
        <g
   transform="translate(79.2152,81.0962)"
   id="g117">
            <g
   class="typst-text"
   transform="scale(1,-1)"
   id="g116">
                <g
   id="g115"><path
   d="M 2.7181,2.7181 C 3.234,2.9259999 3.7268,3.3803 3.7268,4.0348 3.7268,4.3813 3.542,4.6585 3.1801,4.8587 2.8798,5.0281 2.541,5.1128 2.1637,5.1128 1.7864,5.1128 1.4553,5.0358 1.1704,4.8741 0.8239,4.6816 0.6468,4.4121 0.6468,4.0656 c 0,-0.2926 0.1463,-0.4389 0.4312,-0.4389 0.2387,0 0.4158,0.1848 0.4158,0.4235 0,0.2387 -0.1232,0.3773 -0.3619,0.4158 0.2233,0.2387 0.5544,0.3619 1.0087,0.3619 0.5005,0 0.7853999,-0.3003 0.7853999,-0.7931 C 2.9259999,3.6729 2.8259,3.3803 2.6334,3.1493 2.4178,2.8952 2.2638,2.8567 1.8172,2.8259 1.6093,2.8105 1.4707,2.8336 1.4707,2.6796 1.4707,2.5872 1.5477,2.541 1.694,2.541 h 0.4081 c 0.6621999,0 0.9856,-0.5005 0.9856,-1.1935 0,-0.6776 -0.308,-1.1935 -0.9548,-1.1935 -0.5621,0 -0.9702001,0.154 -1.2243,0.4697 0.2695,0.0308 0.4081,0.1848 0.4081,0.4543 0,0.2541 -0.1925,0.4466 -0.4466,0.4466 -0.3003,0 -0.4543,-0.154 -0.4543,-0.4697 0,-0.3927 0.2002,-0.7084 0.5929,-0.9317 0.3311,-0.1848 0.7084,-0.2772 1.1396,-0.2772 0.4697,0 0.8778,0.1309 1.232,0.3927 0.385,0.2849 0.5775,0.6545 0.5775,1.1088 0,0.7161 -0.6237,1.2089 -1.2397,1.3706 z"
   id="path114" />
        </g></g>
        </g>
    </g>
    <defs
   id="id-9c61fa91-4fb1-4b40-862e-86977295f789">
        <symbol
   id="symbol37"
   overflow="visible">
            <path
   d="m 8.129,5.841 c 0,0.561 -0.286,0.99 -0.847,1.298 C 6.831,7.392 6.292,7.513 5.687,7.513 H 2.585 C 2.332,7.513 2.222,7.502 2.222,7.249 2.222,7.172 2.255,7.117 2.321,7.106 2.431,7.095 2.519,7.084 2.574,7.084 2.904,7.073 3.091,7.051 3.146,7.04 3.201,7.029 3.234,6.996 3.234,6.941 3.234,6.919 3.223,6.853 3.19,6.743 L 1.738,0.902 C 1.683,0.65999997 1.573,0.506 1.408,0.451 1.331,0.429 1.133,0.418 0.792,0.418 0.55,0.418 0.451,0.407 0.451,0.16500001 0.451,0.044 0.517,-0.011 0.649,0 L 2.013,0.033 3.399,0 c 0.176,-0.011 0.2639999,0.088 0.2639999,0.253 0,0.11 -0.1209999,0.16499998 -0.352,0.16499998 C 2.871,0.41799998 2.651,0.473 2.651,0.572 c 0,0 0.011,0.022 0.033,0.176 L 3.388,3.597 H 4.653 C 5.412,3.597 5.797,3.2779999 5.797,2.651 5.797,2.552 5.742,2.31 5.643,1.914 5.522,1.452 5.467,1.144 5.467,0.979 c 0,-0.836 0.649,-1.221 1.485,-1.221 0.3079998,0 0.605,0.143 0.902,0.418 0.297,0.275 0.451,0.572 0.451,0.88 0,0.11 -0.055,0.165 -0.176,0.165 C 8.052,1.221 7.986,1.166 7.953,1.045 7.832,0.704 7.678,0.451 7.502,0.308 7.3259997,0.16499999 7.161,0.088 6.996,0.088 c -0.253,0 -0.385,0.209 -0.385,0.616 0,0.264 0.033,0.671 0.11,1.232 0.033,0.231 0.044,0.396 0.044,0.517 0,0.583 -0.308,1.012 -0.924,1.276 1.034,0.2529999 2.288,0.99 2.288,2.112 z M 6.699,6.776 C 6.919,6.633 7.029,6.391 7.029,6.05 7.029,5.83 6.985,5.577 6.886,5.2799997 6.5889997,4.378 5.841,3.927 4.642,3.927 H 3.476 L 4.169,6.71 c 0.055,0.231 0.143,0.352 0.264,0.363 0.055,0.011 0.275,0.011 0.66,0.011 0.715,0 1.133,-0.022 1.606,-0.308 z"
   id="path37" />
        </symbol>
        <symbol
   id="symbol38"
   overflow="visible">
            <path
   d="M 2.7181,2.7181 C 3.234,2.9259999 3.7268,3.3803 3.7268,4.0348 3.7268,4.3813 3.542,4.6585 3.1801,4.8587 2.8798,5.0281 2.541,5.1128 2.1637,5.1128 1.7864,5.1128 1.4553,5.0358 1.1704,4.8741 0.8239,4.6816 0.6468,4.4121 0.6468,4.0656 c 0,-0.2926 0.1463,-0.4389 0.4312,-0.4389 0.2387,0 0.4158,0.1848 0.4158,0.4235 0,0.2387 -0.1232,0.3773 -0.3619,0.4158 0.2233,0.2387 0.5544,0.3619 1.0087,0.3619 0.5005,0 0.7853999,-0.3003 0.7853999,-0.7931 C 2.9259999,3.6729 2.8259,3.3803 2.6334,3.1493 2.4178,2.8952 2.2638,2.8567 1.8172,2.8259 1.6093,2.8105 1.4707,2.8336 1.4707,2.6796 1.4707,2.5872 1.5477,2.541 1.694,2.541 h 0.4081 c 0.6621999,0 0.9856,-0.5005 0.9856,-1.1935 0,-0.6776 -0.308,-1.1935 -0.9548,-1.1935 -0.5621,0 -0.9702001,0.154 -1.2243,0.4697 0.2695,0.0308 0.4081,0.1848 0.4081,0.4543 0,0.2541 -0.1925,0.4466 -0.4466,0.4466 -0.3003,0 -0.4543,-0.154 -0.4543,-0.4697 0,-0.3927 0.2002,-0.7084 0.5929,-0.9317 0.3311,-0.1848 0.7084,-0.2772 1.1396,-0.2772 0.4697,0 0.8778,0.1309 1.232,0.3927 0.385,0.2849 0.5775,0.6545 0.5775,1.1088 0,0.7161 -0.6237,1.2089 -1.2397,1.3706 z"
   id="path38" />
        </symbol>
    </defs>
</g></g><g
       inkscape:label="Resistor"
       id="g111"
       transform="rotate(90,199.94462,187.70869)"
       style="stroke-width:0.7;stroke-dasharray:none"><g
         id="g110"
         style="stroke-width:0.7;stroke-dasharray:none"><path
           inkscape:label="none"
           style="fill:none;fill-opacity:1;stroke:#000000;stroke-width:0.7;stroke-linecap:round;stroke-linejoin:round;stroke-dasharray:none;stroke-opacity:1"
           d="m 85,150 h 15.5 l 2,3 3,-6 3,6 3,-6 3,6 3,-6 2,3 H 135"
           id="path109" /></g></g><text
       xml:space="preserve"
       style="font-style:normal;font-variant:normal;font-weight:normal;font-stretch:normal;font-size:6.35px;font-family:sans-serif;-inkscape-font-specification:'sans-serif, Normal';font-variant-ligatures:normal;font-variant-caps:normal;font-variant-numeric:normal;font-variant-east-asian:normal;text-align:start;writing-mode:lr-tb;direction:ltr;text-anchor:start;fill:#000000;fill-opacity:1;stroke:#000000;stroke-width:0.25;stroke-dasharray:none;paint-order:stroke markers fill"
       x="256.71982"
       y="150.96779"
       id="text119"><tspan
         sodipodi:role="line"
         id="tspan119"
         x="256.71982"
         y="150.96779">LED</tspan></text><g
       transform="matrix(0.952501 0 0 0.952501 -63.2383 -36.6387)"
       ns3:version="1.11.1"
       ns3:texconverter="typst"
       ns3:pdfconverter="inkscape"
       ns3:text="$R_2$"
       ns3:preamble="C:\Users\messinat\AppData\Roaming\inkscape\extensions\textext\default_preamble_typst.typ"
       ns3:scale="2.6999999999999993"
       ns3:alignment="middle center"
       ns3:inkscapeversion="1.4"
       ns3:jacobian_sqrt="0.952501"
       id="g51"><g
   id="g96">
        <g
   transform="translate(70.8662, 78.3792)"
   id="g76">
            <g
   class="typst-text"
   transform="scale(1, -1)"
   id="g75">
                <g
   id="g74"><path
   d="M 8.129 5.841 C 8.129 6.402 7.843 6.831 7.282 7.139 C 6.831 7.392 6.292 7.513 5.687 7.513 L 2.585 7.513 C 2.332 7.513 2.222 7.502 2.222 7.249 C 2.222 7.172 2.2549999 7.117 2.321 7.106 C 2.431 7.095 2.519 7.084 2.574 7.084 C 2.904 7.073 3.091 7.051 3.146 7.04 C 3.201 7.029 3.234 6.996 3.234 6.941 C 3.234 6.919 3.223 6.853 3.19 6.743 L 1.738 0.902 C 1.683 0.65999997 1.573 0.506 1.408 0.451 C 1.331 0.429 1.133 0.41799998 0.792 0.41799998 C 0.55 0.41799998 0.451 0.407 0.451 0.16499999 C 0.451 0.044 0.517 -0.011 0.649 0 L 2.013 0.033 L 3.399 0 C 3.575 -0.011 3.6629999 0.088 3.6629999 0.253 C 3.6629999 0.363 3.542 0.41799998 3.3109999 0.41799998 C 2.871 0.41799998 2.651 0.473 2.651 0.572 C 2.651 0.572 2.662 0.594 2.684 0.748 L 3.388 3.597 L 4.653 3.597 C 5.412 3.597 5.797 3.2779999 5.797 2.651 C 5.797 2.552 5.742 2.31 5.643 1.914 C 5.522 1.452 5.467 1.144 5.467 0.979 C 5.467 0.143 6.116 -0.242 6.952 -0.242 C 7.2599998 -0.242 7.557 -0.099 7.854 0.176 C 8.151 0.451 8.305 0.748 8.305 1.056 C 8.305 1.166 8.25 1.221 8.129 1.221 C 8.052 1.221 7.986 1.166 7.953 1.045 C 7.832 0.704 7.678 0.451 7.502 0.308 C 7.3259997 0.16499999 7.161 0.088 6.996 0.088 C 6.743 0.088 6.611 0.297 6.611 0.704 C 6.611 0.968 6.644 1.375 6.721 1.936 C 6.754 2.167 6.765 2.332 6.765 2.453 C 6.765 3.036 6.457 3.465 5.841 3.729 C 6.875 3.9819999 8.129 4.719 8.129 5.841 Z M 6.699 6.776 C 6.919 6.633 7.029 6.391 7.029 6.05 C 7.029 5.83 6.985 5.577 6.886 5.2799997 C 6.5889997 4.378 5.841 3.927 4.642 3.927 L 3.476 3.927 L 4.169 6.71 C 4.224 6.941 4.312 7.062 4.433 7.073 C 4.488 7.084 4.708 7.084 5.093 7.084 C 5.808 7.084 6.226 7.062 6.699 6.776 Z "
   id="path74" />
        </g></g>
        </g>
        <g
   transform="translate(79.2152, 81.0962)"
   id="g95">
            <g
   class="typst-text"
   transform="scale(1, -1)"
   id="g94">
                <g
   id="g77"><path
   d="M 0.9163 3.2648 C 1.1626999 3.2648 1.3475 3.4496 1.3475 3.696 C 1.3475 3.9732 1.2012 4.1195 0.9163 4.1272 C 1.0857 4.4891 1.4707 4.7817 1.9712 4.7817 C 2.6488 4.7817 3.0954 4.2735 3.0954 3.5959 C 3.0954 3.2263 2.9645 2.8720999 2.695 2.5256 C 2.5641 2.3485 2.464 2.2253 2.3947 2.156 L 0.5698 0.3465 C 0.4697 0.2541 0.4851 0.231 0.4851 0 L 3.6575 0 L 3.8962 1.4476 L 3.5728 1.4476 C 3.5189 1.0395 3.4573 0.80079997 3.388 0.7469 C 3.3495 0.7238 3.1108 0.7084 2.6565 0.7084 L 1.3475 0.7084 C 1.8634 1.1626999 2.3408 1.5708 2.7951 1.9327 C 3.1416 2.2022 3.388 2.4409 3.542 2.6488 C 3.773 2.9491 3.8885 3.2648 3.8885 3.5959 C 3.8885 4.0733 3.7037 4.4506 3.3264 4.7278 C 2.9953 4.9818997 2.5795 5.1128 2.0867 5.1128 C 1.6632 5.1128 1.3013 4.9896 0.9856 4.7432 C 0.6545 4.4737 0.4851 4.1349 0.4851 3.7191 C 0.4851 3.4573 0.6776 3.2648 0.9163 3.2648 Z "
   id="path76" />
        </g></g>
        </g>
    </g>
    <defs
   id="id-cb034305-3a23-41e9-846a-6c580dbfeb3e">
        <symbol
   id="id-0459d112-5528-4f9d-abfb-246972e25068"
   overflow="visible">
            <path
   d="M 8.129 5.841 C 8.129 6.402 7.843 6.831 7.282 7.139 C 6.831 7.392 6.292 7.513 5.687 7.513 L 2.585 7.513 C 2.332 7.513 2.222 7.502 2.222 7.249 C 2.222 7.172 2.2549999 7.117 2.321 7.106 C 2.431 7.095 2.519 7.084 2.574 7.084 C 2.904 7.073 3.091 7.051 3.146 7.04 C 3.201 7.029 3.234 6.996 3.234 6.941 C 3.234 6.919 3.223 6.853 3.19 6.743 L 1.738 0.902 C 1.683 0.65999997 1.573 0.506 1.408 0.451 C 1.331 0.429 1.133 0.41799998 0.792 0.41799998 C 0.55 0.41799998 0.451 0.407 0.451 0.16499999 C 0.451 0.044 0.517 -0.011 0.649 0 L 2.013 0.033 L 3.399 0 C 3.575 -0.011 3.6629999 0.088 3.6629999 0.253 C 3.6629999 0.363 3.542 0.41799998 3.3109999 0.41799998 C 2.871 0.41799998 2.651 0.473 2.651 0.572 C 2.651 0.572 2.662 0.594 2.684 0.748 L 3.388 3.597 L 4.653 3.597 C 5.412 3.597 5.797 3.2779999 5.797 2.651 C 5.797 2.552 5.742 2.31 5.643 1.914 C 5.522 1.452 5.467 1.144 5.467 0.979 C 5.467 0.143 6.116 -0.242 6.952 -0.242 C 7.2599998 -0.242 7.557 -0.099 7.854 0.176 C 8.151 0.451 8.305 0.748 8.305 1.056 C 8.305 1.166 8.25 1.221 8.129 1.221 C 8.052 1.221 7.986 1.166 7.953 1.045 C 7.832 0.704 7.678 0.451 7.502 0.308 C 7.3259997 0.16499999 7.161 0.088 6.996 0.088 C 6.743 0.088 6.611 0.297 6.611 0.704 C 6.611 0.968 6.644 1.375 6.721 1.936 C 6.754 2.167 6.765 2.332 6.765 2.453 C 6.765 3.036 6.457 3.465 5.841 3.729 C 6.875 3.9819999 8.129 4.719 8.129 5.841 Z M 6.699 6.776 C 6.919 6.633 7.029 6.391 7.029 6.05 C 7.029 5.83 6.985 5.577 6.886 5.2799997 C 6.5889997 4.378 5.841 3.927 4.642 3.927 L 3.476 3.927 L 4.169 6.71 C 4.224 6.941 4.312 7.062 4.433 7.073 C 4.488 7.084 4.708 7.084 5.093 7.084 C 5.808 7.084 6.226 7.062 6.699 6.776 Z "
   id="path96" />
        </symbol>
        <symbol
   id="id-baa345db-02c9-49f6-9101-79084d0d85ee"
   overflow="visible">
            <path
   d="M 0.9163 3.2648 C 1.1626999 3.2648 1.3475 3.4496 1.3475 3.696 C 1.3475 3.9732 1.2012 4.1195 0.9163 4.1272 C 1.0857 4.4891 1.4707 4.7817 1.9712 4.7817 C 2.6488 4.7817 3.0954 4.2735 3.0954 3.5959 C 3.0954 3.2263 2.9645 2.8720999 2.695 2.5256 C 2.5641 2.3485 2.464 2.2253 2.3947 2.156 L 0.5698 0.3465 C 0.4697 0.2541 0.4851 0.231 0.4851 0 L 3.6575 0 L 3.8962 1.4476 L 3.5728 1.4476 C 3.5189 1.0395 3.4573 0.80079997 3.388 0.7469 C 3.3495 0.7238 3.1108 0.7084 2.6565 0.7084 L 1.3475 0.7084 C 1.8634 1.1626999 2.3408 1.5708 2.7951 1.9327 C 3.1416 2.2022 3.388 2.4409 3.542 2.6488 C 3.773 2.9491 3.8885 3.2648 3.8885 3.5959 C 3.8885 4.0733 3.7037 4.4506 3.3264 4.7278 C 2.9953 4.9818997 2.5795 5.1128 2.0867 5.1128 C 1.6632 5.1128 1.3013 4.9896 0.9856 4.7432 C 0.6545 4.4737 0.4851 4.1349 0.4851 3.7191 C 0.4851 3.4573 0.6776 3.2648 0.9163 3.2648 Z "
   id="path97" />
        </symbol>
    </defs>
</g><g
       transform="matrix(0.952501 0 0 0.952501 -62.4101 86.2067)"
       ns3:version="1.11.1"
       ns3:texconverter="typst"
       ns3:pdfconverter="inkscape"
       ns3:text="$S_1$"
       ns3:preamble="C:\Users\messinat\AppData\Roaming\inkscape\extensions\textext\default_preamble_typst.typ"
       ns3:scale="2.6999999999999993"
       ns3:alignment="middle center"
       ns3:inkscapeversion="1.4"
       ns3:jacobian_sqrt="0.952501"
       id="g132"><g
   id="g131">
        <g
   transform="translate(70.8662, 78.3792)"
   id="g127">
            <g
   class="typst-text"
   transform="scale(1, -1)"
   id="g126">
                <g
   id="g125"><path
   d="M 1.4629999 1.727 C 1.4629999 1.9909999 1.496 2.211 1.551 2.387 C 1.551 2.497 1.496 2.552 1.375 2.552 C 1.3199999 2.552 1.276 2.53 1.254 2.508 C 1.199 2.453 0.572 0.088 0.572 -0.088 C 0.572 -0.187 0.627 -0.242 0.737 -0.242 C 0.792 -0.242 0.869 -0.187 0.968 -0.066 L 1.4629999 0.517 C 1.848 0.011 2.464 -0.242 3.3 -0.242 C 4.026 -0.242 4.664 0.055 5.236 0.638 C 5.808 1.221 6.094 1.87 6.094 2.596 C 6.094 3.113 5.9179997 3.553 5.555 3.905 C 5.39 4.048 5.17 4.169 4.895 4.268 C 4.642 4.323 4.4 4.389 4.158 4.455 L 3.432 4.653 C 3.069 4.752 2.794 5.159 2.794 5.599 C 2.794 6.072 2.981 6.479 3.366 6.831 C 3.751 7.183 4.18 7.3589997 4.653 7.3589997 C 5.665 7.3589997 6.171 6.809 6.171 5.72 C 6.171 5.522 6.127 5.302 6.127 5.115 L 6.127 5.082 C 6.16 5.005 6.215 4.961 6.303 4.961 C 6.402 4.961 6.468 5.049 6.512 5.2139997 L 7.095 7.601 C 7.095 7.7 7.04 7.755 6.93 7.755 C 6.875 7.755 6.798 7.7 6.699 7.579 L 6.226 7.007 C 5.9179997 7.502 5.401 7.755 4.664 7.755 C 3.971 7.755 3.3439999 7.491 2.794 6.974 C 2.222 6.446 1.936 5.841 1.936 5.148 C 1.936 4.356 2.453 3.729 3.102 3.553 L 4.257 3.256 C 4.851 3.091 5.225 2.882 5.225 2.145 C 5.225 1.6389999 5.027 1.188 4.642 0.792 C 4.257 0.396 3.817 0.187 3.322 0.187 C 2.244 0.187 1.4629999 0.65999997 1.4629999 1.727 Z "
   id="path125" />
        </g></g>
        </g>
        <g
   transform="translate(77.6092, 81.0962)"
   id="g130">
            <g
   class="typst-text"
   transform="scale(1, -1)"
   id="g129">
                <g
   id="g128"><path
   d="M 2.3331 5.1128 C 2.002 4.7894 1.5092 4.6277 0.8393 4.6277 L 0.8393 4.2889 C 1.2936 4.2889 1.6554999 4.3582 1.9327 4.4891 L 1.9327 0.6545 C 1.9327 0.55439997 1.925 0.4928 1.9018999 0.462 C 1.8634 0.3773 1.6324 0.3311 1.2089 0.3311 L 0.8932 0.3311 L 0.8932 0 L 2.2638 0.0308 L 3.6421 0 L 3.6421 0.3311 L 3.3264 0.3311 C 2.9029 0.3311 2.6719 0.3773 2.6257 0.462 C 2.6103 0.4928 2.6026 0.55439997 2.6026 0.6545 L 2.6026 4.8664 C 2.6026 5.0743 2.5718 5.1128 2.3331 5.1128 Z "
   id="path127" />
        </g></g>
        </g>
    </g>
    <defs
   id="id-eface855-76c7-4e50-b01d-b881d5e46547">
        <symbol
   id="id-c9178f21-fb1d-44db-aa7c-ced761ab41d7"
   overflow="visible">
            <path
   d="M 1.4629999 1.727 C 1.4629999 1.9909999 1.496 2.211 1.551 2.387 C 1.551 2.497 1.496 2.552 1.375 2.552 C 1.3199999 2.552 1.276 2.53 1.254 2.508 C 1.199 2.453 0.572 0.088 0.572 -0.088 C 0.572 -0.187 0.627 -0.242 0.737 -0.242 C 0.792 -0.242 0.869 -0.187 0.968 -0.066 L 1.4629999 0.517 C 1.848 0.011 2.464 -0.242 3.3 -0.242 C 4.026 -0.242 4.664 0.055 5.236 0.638 C 5.808 1.221 6.094 1.87 6.094 2.596 C 6.094 3.113 5.9179997 3.553 5.555 3.905 C 5.39 4.048 5.17 4.169 4.895 4.268 C 4.642 4.323 4.4 4.389 4.158 4.455 L 3.432 4.653 C 3.069 4.752 2.794 5.159 2.794 5.599 C 2.794 6.072 2.981 6.479 3.366 6.831 C 3.751 7.183 4.18 7.3589997 4.653 7.3589997 C 5.665 7.3589997 6.171 6.809 6.171 5.72 C 6.171 5.522 6.127 5.302 6.127 5.115 L 6.127 5.082 C 6.16 5.005 6.215 4.961 6.303 4.961 C 6.402 4.961 6.468 5.049 6.512 5.2139997 L 7.095 7.601 C 7.095 7.7 7.04 7.755 6.93 7.755 C 6.875 7.755 6.798 7.7 6.699 7.579 L 6.226 7.007 C 5.9179997 7.502 5.401 7.755 4.664 7.755 C 3.971 7.755 3.3439999 7.491 2.794 6.974 C 2.222 6.446 1.936 5.841 1.936 5.148 C 1.936 4.356 2.453 3.729 3.102 3.553 L 4.257 3.256 C 4.851 3.091 5.225 2.882 5.225 2.145 C 5.225 1.6389999 5.027 1.188 4.642 0.792 C 4.257 0.396 3.817 0.187 3.322 0.187 C 2.244 0.187 1.4629999 0.65999997 1.4629999 1.727 Z "
   id="path131" />
        </symbol>
        <symbol
   id="id-9668acea-dbf2-47ef-8c26-5e95b08dcfc2"
   overflow="visible">
            <path
   d="M 2.3331 5.1128 C 2.002 4.7894 1.5092 4.6277 0.8393 4.6277 L 0.8393 4.2889 C 1.2936 4.2889 1.6554999 4.3582 1.9327 4.4891 L 1.9327 0.6545 C 1.9327 0.55439997 1.925 0.4928 1.9018999 0.462 C 1.8634 0.3773 1.6324 0.3311 1.2089 0.3311 L 0.8932 0.3311 L 0.8932 0 L 2.2638 0.0308 L 3.6421 0 L 3.6421 0.3311 L 3.3264 0.3311 C 2.9029 0.3311 2.6719 0.3773 2.6257 0.462 C 2.6103 0.4928 2.6026 0.55439997 2.6026 0.6545 L 2.6026 4.8664 C 2.6026 5.0743 2.5718 5.1128 2.3331 5.1128 Z "
   id="path132" />
        </symbol>
    </defs>
</g><text
       xml:space="preserve"
       style="font-style:italic;font-variant:normal;font-weight:normal;font-stretch:normal;font-size:9.87778px;font-family:'Times New Roman';-inkscape-font-specification:'Times New Roman, Italic';font-variant-ligatures:normal;font-variant-caps:normal;font-variant-numeric:normal;font-variant-east-asian:normal;text-align:start;writing-mode:lr-tb;direction:ltr;text-anchor:start;fill:#000000;fill-opacity:1;stroke:#000000;stroke-width:0.1;stroke-dasharray:none;stroke-opacity:1;paint-order:stroke markers fill"
       x="328.15353"
       y="99.905342"
       id="text140"><tspan
         sodipodi:role="line"
         id="tspan140"
         style="font-style:italic;font-variant:normal;font-weight:normal;font-stretch:normal;font-size:9.87778px;font-family:'Times New Roman';-inkscape-font-specification:'Times New Roman, Italic';font-variant-ligatures:normal;font-variant-caps:normal;font-variant-numeric:normal;font-variant-east-asian:normal;fill:#000000;fill-opacity:1;stroke-width:0.1;stroke-dasharray:none"
         x="328.15353"
         y="99.905342">V<tspan
   style="font-style:italic;font-variant:normal;font-weight:normal;font-stretch:normal;font-size:9.87778px;font-family:'Times New Roman';-inkscape-font-specification:'Times New Roman, Italic';font-variant-ligatures:normal;font-variant-caps:normal;font-variant-numeric:normal;font-variant-east-asian:normal;baseline-shift:sub;fill:#000000;fill-opacity:1;stroke-width:0.1;stroke-dasharray:none"
   id="tspan141">cc</tspan></tspan></text></g><g
     inkscape:label="Resistor"
     id="g2"
     transform="rotate(90,152.33306,74.32914)"
     style="stroke-width:0.7;stroke-dasharray:none"><g
       id="g1"
       style="stroke-width:0.7;stroke-dasharray:none"><path
         inkscape:label="none"
         style="fill:none;fill-opacity:1;stroke:#000000;stroke-width:0.7;stroke-linecap:round;stroke-linejoin:round;stroke-dasharray:none;stroke-opacity:1"
         d="m 85,150 h 15.5 l 2,3 3,-6 3,6 3,-6 3,6 3,-6 2,3 H 135"
         id="path1" /></g></g><g
     inkscape:label="Capacitor"
     id="g6"
     transform="matrix(0,0.965291,-1.0012406,0,341.41345,62.884543)"
     style="stroke-width:0.712032;stroke-dasharray:none"><g
       id="g5"
       style="stroke-width:0.712032;stroke-dasharray:none"><path
         inkscape:label="none"
         style="fill:none;fill-opacity:1;stroke:#000000;stroke-width:0.712032;stroke-linecap:round;stroke-linejoin:round;stroke-dasharray:none;stroke-opacity:1"
         d="m 112,150 h 23"
         id="path2" /><path
         inkscape:label="none"
         style="fill:none;fill-opacity:1;stroke:#000000;stroke-width:0.712032;stroke-linecap:round;stroke-linejoin:round;stroke-dasharray:none;stroke-opacity:1"
         d="M 112,157 V 143"
         id="path3" /><path
         inkscape:label="none"
         style="fill:none;fill-opacity:1;stroke:#000000;stroke-width:0.712032;stroke-linecap:round;stroke-linejoin:round;stroke-dasharray:none;stroke-opacity:1"
         d="M 108,150 H 85"
         id="path4" /><path
         inkscape:label="none"
         style="fill:none;fill-opacity:1;stroke:#000000;stroke-width:0.712032;stroke-linecap:round;stroke-linejoin:round;stroke-dasharray:none;stroke-opacity:1"
         d="M 108,157 V 143"
         id="path5" /></g></g><g
     inkscape:label="Source"
     id="g13"
     transform="rotate(-90,187.78724,20.272814)"><g
       inkscape:label="Source"
       id="g12"
       style="stroke-width:0.7;stroke-dasharray:none"
       transform="translate(0,0.01653646)"><path
         inkscape:label="none"
         style="fill:none;fill-opacity:1;stroke:#000000;stroke-width:0.7;stroke-linecap:round;stroke-linejoin:round;stroke-dasharray:none;stroke-opacity:1"
         d="M 109,150 H 85"
         id="path6" /><path
         inkscape:label="none"
         style="fill:none;fill-opacity:1;stroke:#000000;stroke-width:0.7;stroke-linecap:round;stroke-linejoin:round;stroke-dasharray:none;stroke-opacity:1"
         d="m 112,150 h 23"
         id="path7" /><path
         inkscape:label="none"
         style="fill:none;fill-opacity:1;stroke:#000000;stroke-width:0.7;stroke-linecap:round;stroke-linejoin:round;stroke-dasharray:none;stroke-opacity:1"
         d="m 114,144 h 2"
         id="path8" /><path
         inkscape:label="none"
         style="fill:none;fill-opacity:1;stroke:#000000;stroke-width:0.7;stroke-linecap:round;stroke-linejoin:round;stroke-dasharray:none;stroke-opacity:1"
         d="m 115,143 v 2"
         id="path9" /><path
         inkscape:label="none"
         style="fill:none;fill-opacity:1;stroke:#000000;stroke-width:0.7;stroke-linecap:round;stroke-linejoin:round;stroke-dasharray:none;stroke-opacity:1"
         d="m 106,143 v 2"
         id="path10" /><path
         inkscape:label="none"
         style="fill:none;fill-opacity:1;stroke:#000000;stroke-width:0.7;stroke-linecap:round;stroke-linejoin:round;stroke-dasharray:none;stroke-opacity:1"
         d="m 109,153 v -6"
         id="path11" /><path
         inkscape:label="none"
         style="fill:none;fill-opacity:1;stroke:#000000;stroke-width:0.7;stroke-linecap:round;stroke-linejoin:round;stroke-dasharray:none;stroke-opacity:1"
         d="M 112,157 V 143"
         id="path12" /></g><path
       style="fill:none;fill-opacity:1;stroke:#000000;stroke-width:0.7;stroke-dasharray:none;stroke-opacity:1;paint-order:stroke markers fill"
       d="m 201.04884,-90.8517 0.76068,0.03307 0.19844,90.38828044 -35.55339,0.0330729"
       id="path45" /><path
       style="fill:none;fill-opacity:1;stroke:#000000;stroke-width:0.7;stroke-dasharray:none;stroke-opacity:1;paint-order:stroke markers fill"
       d="m 201.97488,-0.39727365 0.0661,24.11015565 -35.48724,-0.03307"
       id="path46" /><path
       style="fill:none;fill-opacity:1;stroke:#000000;stroke-width:0.7;stroke-dasharray:none;stroke-opacity:1;paint-order:stroke markers fill"
       d="m 202.04103,23.779028 -0.0331,126.503902 -67.13802,-0.26458"
       id="path47" /><path
       style="fill:none;fill-opacity:1;stroke:#000000;stroke-width:0.7;stroke-dasharray:none;stroke-opacity:1;paint-order:stroke markers fill"
       d="M 151.23212,-90.835944 H 134.16028"
       id="path48" /></g><g
     inkscape:label="Capacitor"
     id="g26"
     transform="rotate(-90,101.52066,174.85456)"
     style="stroke-width:0.7;stroke-dasharray:none"><g
       id="g25"
       style="stroke-width:0.7;stroke-dasharray:none"><path
         inkscape:label="none"
         style="fill:none;fill-opacity:1;stroke:#000000;stroke-width:0.7;stroke-linecap:round;stroke-linejoin:round;stroke-dasharray:none;stroke-opacity:1"
         d="m 112,150 h 23"
         id="path21" /><path
         inkscape:label="none"
         style="fill:none;fill-opacity:1;stroke:#000000;stroke-width:0.7;stroke-linecap:round;stroke-linejoin:round;stroke-dasharray:none;stroke-opacity:1"
         d="M 112,157 V 143"
         id="path22" /><path
         inkscape:label="none"
         style="fill:none;fill-opacity:1;stroke:#000000;stroke-width:0.7;stroke-linecap:round;stroke-linejoin:round;stroke-dasharray:none;stroke-opacity:1"
         d="M 109,150 H 86"
         id="path23" /><path
         inkscape:label="none"
         style="fill:none;fill-opacity:1;stroke:#000000;stroke-width:0.7;stroke-linecap:round;stroke-linejoin:round;stroke-dasharray:none;stroke-opacity:1"
         d="m 116,144 h -2"
         id="path24" /><path
         inkscape:label="none"
         style="fill:none;fill-opacity:1;stroke:#000000;stroke-width:0.7;stroke-linecap:round;stroke-linejoin:round;stroke-dasharray:none;stroke-opacity:1"
         d="m 115,143 v 2"
         id="path25" /></g><path
       inkscape:label="arc"
       style="fill:none;fill-opacity:1;stroke:#000000;stroke-width:0.7;stroke-linecap:round;stroke-linejoin:round;stroke-dasharray:none;stroke-opacity:1"
       sodipodi:type="arc"
       sodipodi:rx="13.25"
       sodipodi:ry="13.25"
       sodipodi:cx="95.75"
       sodipodi:cy="150"
       sodipodi:start="5.726586"
       sodipodi:end="0.55659932"
       d="m 107,143 a 13.25,13.25 0 0 1 0,14"
       sodipodi:arc-type="arc"
       id="path26"
       sodipodi:open="true" /></g><rect
     style="fill:#aba7a3;fill-opacity:0.468599;stroke:#000000;stroke-width:0.7;paint-order:stroke markers fill"
     id="rect26"
     width="72.495834"
     height="102.65833"
     x="136.52483"
     y="41.804165"
     ry="8.9958334" /><text
     xml:space="preserve"
     style="font-style:normal;font-variant:normal;font-weight:normal;font-stretch:normal;font-size:6.35px;font-family:sans-serif;-inkscape-font-specification:'sans-serif, Normal';font-variant-ligatures:normal;font-variant-caps:normal;font-variant-numeric:normal;font-variant-east-asian:normal;text-align:start;writing-mode:lr-tb;direction:ltr;text-anchor:start;fill:#000000;fill-opacity:1;stroke:#000000;stroke-width:0.25;stroke-dasharray:none;paint-order:stroke markers fill"
     x="159.27872"
     y="50.270832"
     id="text26"><tspan
       sodipodi:role="line"
       id="tspan26"
       style="font-style:normal;font-variant:normal;font-weight:normal;font-stretch:normal;font-size:6.35px;font-family:sans-serif;-inkscape-font-specification:'sans-serif, Normal';font-variant-ligatures:normal;font-variant-caps:normal;font-variant-numeric:normal;font-variant-east-asian:normal;fill:#000000;fill-opacity:1;stroke-width:0.25;stroke-dasharray:none"
       x="159.27872"
       y="50.270832">Pin 8</tspan></text><text
     xml:space="preserve"
     style="font-style:normal;font-variant:normal;font-weight:normal;font-stretch:normal;font-size:6.35px;font-family:sans-serif;-inkscape-font-specification:'sans-serif, Normal';font-variant-ligatures:normal;font-variant-caps:normal;font-variant-numeric:normal;font-variant-east-asian:normal;text-align:start;writing-mode:lr-tb;direction:ltr;text-anchor:start;fill:#000000;fill-opacity:1;stroke:#000000;stroke-width:0.25;stroke-dasharray:none;paint-order:stroke markers fill"
     x="183.09108"
     y="50.270832"
     id="text27"><tspan
       sodipodi:role="line"
       id="tspan27"
       x="183.09108"
       y="50.270832">Pin 4</tspan></text><text
     xml:space="preserve"
     style="font-style:normal;font-variant:normal;font-weight:normal;font-stretch:normal;font-size:6.35px;font-family:sans-serif;-inkscape-font-specification:'sans-serif, Normal';font-variant-ligatures:normal;font-variant-caps:normal;font-variant-numeric:normal;font-variant-east-asian:normal;text-align:start;writing-mode:lr-tb;direction:ltr;text-anchor:start;fill:#000000;fill-opacity:1;stroke:#000000;stroke-width:0.25;stroke-dasharray:none;paint-order:stroke markers fill"
     x="159.27872"
     y="141.02292"
     id="text28"><tspan
       sodipodi:role="line"
       id="tspan30"
       x="159.27872"
       y="141.02292">Pin 1</tspan></text><text
     xml:space="preserve"
     style="font-style:normal;font-variant:normal;font-weight:normal;font-stretch:normal;font-size:6.35px;font-family:sans-serif;-inkscape-font-specification:'sans-serif, Normal';font-variant-ligatures:normal;font-variant-caps:normal;font-variant-numeric:normal;font-variant-east-asian:normal;text-align:start;writing-mode:lr-tb;direction:ltr;text-anchor:start;fill:#000000;fill-opacity:1;stroke:#000000;stroke-width:0.25;stroke-dasharray:none;paint-order:stroke markers fill"
     x="183.09108"
     y="141.02292"
     id="text29"><tspan
       sodipodi:role="line"
       id="tspan31"
       x="183.09108"
       y="141.02292">Pin 5</tspan></text><text
     xml:space="preserve"
     style="font-style:normal;font-variant:normal;font-weight:normal;font-stretch:normal;font-size:6.35px;font-family:sans-serif;-inkscape-font-specification:'sans-serif, Normal';font-variant-ligatures:normal;font-variant-caps:normal;font-variant-numeric:normal;font-variant-east-asian:normal;text-align:start;writing-mode:lr-tb;direction:ltr;text-anchor:start;fill:#000000;fill-opacity:1;stroke:#000000;stroke-width:0.25;stroke-dasharray:none;paint-order:stroke markers fill"
     x="190.49931"
     y="74.612503"
     id="text32"><tspan
       sodipodi:role="line"
       id="tspan32"
       x="190.49931"
       y="74.612503">Pin 3</tspan></text><text
     xml:space="preserve"
     style="font-style:normal;font-variant:normal;font-weight:normal;font-stretch:normal;font-size:6.35px;font-family:sans-serif;-inkscape-font-specification:'sans-serif, Normal';font-variant-ligatures:normal;font-variant-caps:normal;font-variant-numeric:normal;font-variant-east-asian:normal;text-align:start;writing-mode:lr-tb;direction:ltr;text-anchor:start;fill:#000000;fill-opacity:1;stroke:#000000;stroke-width:0.25;stroke-dasharray:none;paint-order:stroke markers fill"
     x="139.69972"
     y="74.612503"
     id="text33"><tspan
       sodipodi:role="line"
       id="tspan33"
       x="139.69972"
       y="74.612503">Pin 7</tspan></text><text
     xml:space="preserve"
     style="font-style:normal;font-variant:normal;font-weight:normal;font-stretch:normal;font-size:6.35px;font-family:sans-serif;-inkscape-font-specification:'sans-serif, Normal';font-variant-ligatures:normal;font-variant-caps:normal;font-variant-numeric:normal;font-variant-east-asian:normal;text-align:start;writing-mode:lr-tb;direction:ltr;text-anchor:start;fill:#000000;fill-opacity:1;stroke:#000000;stroke-width:0.25;stroke-dasharray:none;paint-order:stroke markers fill"
     x="139.69972"
     y="105.0396"
     id="text34"><tspan
       sodipodi:role="line"
       id="tspan34"
       x="139.69972"
       y="105.0396">Pin 6</tspan></text><text
     xml:space="preserve"
     style="font-style:normal;font-variant:normal;font-weight:normal;font-stretch:normal;font-size:6.35px;font-family:sans-serif;-inkscape-font-specification:'sans-serif, Normal';font-variant-ligatures:normal;font-variant-caps:normal;font-variant-numeric:normal;font-variant-east-asian:normal;text-align:start;writing-mode:lr-tb;direction:ltr;text-anchor:start;fill:#000000;fill-opacity:1;stroke:#000000;stroke-width:0.25;stroke-dasharray:none;paint-order:stroke markers fill"
     x="139.69972"
     y="123.29585"
     id="text35"><tspan
       sodipodi:role="line"
       id="tspan35"
       x="139.69972"
       y="123.29585">Pin 2</tspan></text><text
     xml:space="preserve"
     style="font-style:normal;font-variant:normal;font-weight:normal;font-stretch:normal;font-size:7.05556px;font-family:sans-serif;-inkscape-font-specification:'sans-serif, Normal';font-variant-ligatures:normal;font-variant-caps:normal;font-variant-numeric:normal;font-variant-east-asian:normal;text-align:start;writing-mode:lr-tb;direction:ltr;text-anchor:start;fill:#000000;fill-opacity:1;stroke:#000000;stroke-width:0.25;stroke-dasharray:none;paint-order:stroke markers fill"
     x="126.20628"
     y="38.629166"
     id="text36"><tspan
       sodipodi:role="line"
       id="tspan36"
       x="126.20628"
       y="38.629166">555 Timer</tspan></text><path
     style="fill:#000000;fill-opacity:1;stroke:#000000;stroke-width:0.7;stroke-dasharray:none;paint-order:stroke markers fill"
     d="m 209.21954,72.69427 28.77344,-0.06615"
     id="path36" /><g
     inkscape:label="Resistor"
     id="g63"
     transform="rotate(90,126.50347,48.499554)"
     style="stroke-width:0.7;stroke-dasharray:none"><g
       id="g62"
       style="stroke-width:0.7;stroke-dasharray:none"><path
         inkscape:label="none"
         style="fill:none;fill-opacity:1;stroke:#000000;stroke-width:0.7;stroke-linecap:round;stroke-linejoin:round;stroke-dasharray:none;stroke-opacity:1"
         d="m 85,150 h 15.5 l 2,3 3,-6 3,6 3,-6 3,6 3,-6 2,3 H 135"
         id="path55" /></g></g><rect
     style="fill:none;fill-opacity:1;stroke:#ec1111;stroke-width:0.101787;stroke-dasharray:none;stroke-opacity:1;paint-order:stroke markers fill"
     id="rect63"
     width="51.604427"
     height="187.19026"
     x="25.01239"
     y="6.2938972" /><path
     style="fill:none;fill-opacity:1;stroke:#000000;stroke-width:0.7;stroke-dasharray:none;stroke-opacity:1;paint-order:stroke markers fill"
     d="M 24.9997,6.9322007 25.008,6.2583401 76.651359,6.2500701"
     id="path63" /><g
     inkscape:label="Switch"
     id="g73"
     transform="rotate(-90,35.948889,130.93868)"
     style="stroke-width:0.7;stroke-dasharray:none"><g
       inkscape:label="Switch"
       id="g72"
       style="stroke-width:0.7;stroke-dasharray:none"><path
         inkscape:label="none"
         style="fill:none;fill-opacity:1;stroke:#000000;stroke-width:0.7;stroke-linecap:round;stroke-linejoin:round;stroke-dasharray:none;stroke-opacity:1"
         d="M 0,120 H -15"
         id="path66" /><path
         inkscape:label="none"
         style="fill:none;fill-opacity:1;stroke:#000000;stroke-width:0.7;stroke-linecap:round;stroke-linejoin:round;stroke-dasharray:none;stroke-opacity:1"
         d="M 20,120 H 35"
         id="path67" /><path
         inkscape:label="none"
         style="fill:none;fill-opacity:1;stroke:#000000;stroke-width:0.7;stroke-linecap:round;stroke-linejoin:round;stroke-dasharray:none;stroke-opacity:1"
         d="m 0,120 20,-8"
         id="path70" /><circle
         inkscape:label="circle"
         style="fill:#ffffff;fill-opacity:1;stroke:#000000;stroke-width:0.7;stroke-linecap:round;stroke-linejoin:round;stroke-dasharray:none;stroke-opacity:1"
         id="path71"
         cx="20"
         cy="120"
         r="1.2" /><circle
         inkscape:label="circle"
         style="fill:#ffffff;fill-opacity:1;stroke:#000000;stroke-width:0.7;stroke-linecap:round;stroke-linejoin:round;stroke-dasharray:none;stroke-opacity:1"
         id="path72"
         cx="0"
         cy="120"
         r="1.2" /></g></g><path
     style="fill:none;fill-opacity:1;stroke:#000000;stroke-width:0.7;stroke-dasharray:none;stroke-opacity:1;paint-order:stroke markers fill"
     d="M 25.011416,56.734638 V 131.89167"
     id="path73" /><path
     style="fill:none;fill-opacity:1;stroke:#000000;stroke-width:0.698047;stroke-dasharray:none;stroke-opacity:1;paint-order:stroke markers fill"
     d="M 76.66592,193.46177 H 25.00477 V 181.8736"
     id="path106" /></svg>
