<?xml version="1.0" encoding="UTF-8" standalone="no"?>
<!-- Created with Inkscape (http://www.inkscape.org/) -->

<svg
   width="300mm"
   height="200mm"
   viewBox="0 0 300 200"
   version="1.1"
   id="svg1"
   xml:space="preserve"
   inkscape:version="1.4 (86a8ad7, 2024-10-11)"
   sodipodi:docname="555TimerMonostableMode.svg"
   xmlns:inkscape="http://www.inkscape.org/namespaces/inkscape"
   xmlns:sodipodi="http://sodipodi.sourceforge.net/DTD/sodipodi-0.dtd"
   xmlns="http://www.w3.org/2000/svg"
   xmlns:svg="http://www.w3.org/2000/svg"
   xmlns:ns3="http://www.iki.fi/pav/software/textext/"><sodipodi:namedview
     id="namedview1"
     pagecolor="#ffffff"
     bordercolor="#000000"
     borderopacity="0.25"
     inkscape:showpageshadow="2"
     inkscape:pageopacity="0.0"
     inkscape:pagecheckerboard="0"
     inkscape:deskcolor="#d1d1d1"
     inkscape:document-units="mm"
     inkscape:zoom="0.70710678"
     inkscape:cx="613.06158"
     inkscape:cy="253.85133"
     inkscape:window-width="1920"
     inkscape:window-height="1017"
     inkscape:window-x="-8"
     inkscape:window-y="-8"
     inkscape:window-maximized="1"
     inkscape:current-layer="layer1" /><defs
     id="defs1"><marker
   style="overflow:visible"
   id="ColoredDot"
   refX="-2"
   refY="0"
   orient="auto"
   inkscape:stockid="Colored dot"
   markerWidth="1"
   markerHeight="1"
   viewBox="0 0 1 1"
   inkscape:isstock="true"
   inkscape:collect="always"
   preserveAspectRatio="xMidYMid"><path
     transform="scale(0.45)"
     style="fill:context-fill;fill-rule:evenodd;stroke:context-stroke;stroke-width:2"
     d="M 5,0 C 5,2.76 2.76,5 0,5 -2.76,5 -5,2.76 -5,0 c 0,-2.76 2.3,-5 5,-5 2.76,0 5,2.24 5,5 z"
     sodipodi:nodetypes="sssss"
     id="path20" /></marker><marker
   style="overflow:visible"
   id="Dot"
   refX="0"
   refY="0"
   orient="auto"
   inkscape:stockid="Dot"
   markerWidth="1"
   markerHeight="1"
   viewBox="0 0 1 1"
   inkscape:isstock="true"
   inkscape:collect="always"
   preserveAspectRatio="xMidYMid"><path
     transform="scale(0.5)"
     style="fill:context-stroke;fill-rule:evenodd;stroke:none"
     d="M 5,0 C 5,2.76 2.76,5 0,5 -2.76,5 -5,2.76 -5,0 c 0,-2.76 2.3,-5 5,-5 2.76,0 5,2.24 5,5 z"
     sodipodi:nodetypes="sssss"
     id="path17" /></marker>
    <defs
   id="defs69">
        <symbol
   id="symbol68"
   overflow="visible">
            <path
   d="m 8.129,5.841 c 0,0.561 -0.286,0.99 -0.847,1.298 C 6.831,7.392 6.292,7.513 5.687,7.513 H 2.585 C 2.332,7.513 2.222,7.502 2.222,7.249 2.222,7.172 2.255,7.117 2.321,7.106 2.431,7.095 2.519,7.084 2.574,7.084 2.904,7.073 3.091,7.051 3.146,7.04 3.201,7.029 3.234,6.996 3.234,6.941 3.234,6.919 3.223,6.853 3.19,6.743 L 1.738,0.902 C 1.683,0.65999997 1.573,0.506 1.408,0.451 1.331,0.429 1.133,0.418 0.792,0.418 0.55,0.418 0.451,0.407 0.451,0.16500001 0.451,0.044 0.517,-0.011 0.649,0 L 2.013,0.033 3.399,0 c 0.176,-0.011 0.2639999,0.088 0.2639999,0.253 0,0.11 -0.1209999,0.16499998 -0.352,0.16499998 C 2.871,0.41799998 2.651,0.473 2.651,0.572 c 0,0 0.011,0.022 0.033,0.176 L 3.388,3.597 H 4.653 C 5.412,3.597 5.797,3.2779999 5.797,2.651 5.797,2.552 5.742,2.31 5.643,1.914 5.522,1.452 5.467,1.144 5.467,0.979 c 0,-0.836 0.649,-1.221 1.485,-1.221 0.3079998,0 0.605,0.143 0.902,0.418 0.297,0.275 0.451,0.572 0.451,0.88 0,0.11 -0.055,0.165 -0.176,0.165 C 8.052,1.221 7.986,1.166 7.953,1.045 7.832,0.704 7.678,0.451 7.502,0.308 7.3259997,0.16499999 7.161,0.088 6.996,0.088 c -0.253,0 -0.385,0.209 -0.385,0.616 0,0.264 0.033,0.671 0.11,1.232 0.033,0.231 0.044,0.396 0.044,0.517 0,0.583 -0.308,1.012 -0.924,1.276 1.034,0.2529999 2.288,0.99 2.288,2.112 z M 6.699,6.776 C 6.919,6.633 7.029,6.391 7.029,6.05 7.029,5.83 6.985,5.577 6.886,5.2799997 6.5889997,4.378 5.841,3.927 4.642,3.927 H 3.476 L 4.169,6.71 c 0.055,0.231 0.143,0.352 0.264,0.363 0.055,0.011 0.275,0.011 0.66,0.011 0.715,0 1.133,-0.022 1.606,-0.308 z"
   id="path68" />
        </symbol>
        <symbol
   id="symbol69"
   overflow="visible">
            <path
   d="M 2.3331,5.1128 C 2.002,4.7894 1.5092,4.6277 0.8393,4.6277 V 4.2889 c 0.4543,0 0.8161999,0.0693 1.0934,0.2002 V 0.6545 C 1.9327,0.55439997 1.925,0.4928 1.9018999,0.462 1.8634,0.3773 1.6324,0.3311 1.2089,0.3311 H 0.8932 V 0 L 2.2638,0.0308 3.6421,0 V 0.3311 H 3.3264 C 2.9029,0.3311 2.6719,0.3773 2.6257,0.462 2.6103,0.4928 2.6026,0.5544 2.6026,0.6545 v 4.2119 c 0,0.2079 -0.0308,0.2464 -0.2695,0.2464 z"
   id="path69" />
        </symbol>
    </defs>
</defs><g
     inkscape:label="Layer 1"
     inkscape:groupmode="layer"
     id="layer1"><path
       style="fill:none;fill-opacity:1;stroke:#000000;stroke-width:0.7;stroke-dasharray:none;stroke-opacity:1;paint-order:stroke markers fill"
       d="M 45.504723,72.683946 105.09249,72.543629"
       id="path49" /><path
       style="fill:none;fill-opacity:1;stroke:#000000;stroke-width:0.699747;stroke-dasharray:none;stroke-opacity:1;paint-order:stroke markers fill"
       d="m 45.444086,190.15233 0.04674,3.29744 90.181314,-0.0234 0.18695,-48.73678"
       id="path52" /><path
       style="fill:none;fill-opacity:1;stroke:#000000;stroke-width:0.7;stroke-dasharray:none;stroke-opacity:1;paint-order:stroke markers fill"
       d="m 135.6583,193.40307 150.62276,0.0702 0.0233,-70.48598"
       id="path53" /><g
       transform="matrix(0.952501,0,0,0.952501,-43.075796,-36.638705)"
       ns3:version="1.11.1"
       ns3:texconverter="typst"
       ns3:pdfconverter="inkscape"
       ns3:text="$R_1$"
       ns3:preamble="C:\Users\messinat\AppData\Roaming\inkscape\extensions\textext\default_preamble_typst.typ"
       ns3:scale="26.999999999999993"
       ns3:alignment="middle center"
       ns3:jacobian_sqrt="9.52501"
       id="g61"><g
   id="g60">
        <g
   transform="translate(70.8662,78.3792)"
   id="g56">
            <g
   class="typst-text"
   transform="scale(1,-1)"
   id="g55">
                <g
   id="g54"><path
   d="m 8.129,5.841 c 0,0.561 -0.286,0.99 -0.847,1.298 C 6.831,7.392 6.292,7.513 5.687,7.513 H 2.585 C 2.332,7.513 2.222,7.502 2.222,7.249 2.222,7.172 2.255,7.117 2.321,7.106 2.431,7.095 2.519,7.084 2.574,7.084 2.904,7.073 3.091,7.051 3.146,7.04 3.201,7.029 3.234,6.996 3.234,6.941 3.234,6.919 3.223,6.853 3.19,6.743 L 1.738,0.902 C 1.683,0.65999997 1.573,0.506 1.408,0.451 1.331,0.429 1.133,0.418 0.792,0.418 0.55,0.418 0.451,0.407 0.451,0.16500001 0.451,0.044 0.517,-0.011 0.649,0 L 2.013,0.033 3.399,0 c 0.176,-0.011 0.2639999,0.088 0.2639999,0.253 0,0.11 -0.1209999,0.16499998 -0.352,0.16499998 C 2.871,0.41799998 2.651,0.473 2.651,0.572 c 0,0 0.011,0.022 0.033,0.176 L 3.388,3.597 H 4.653 C 5.412,3.597 5.797,3.2779999 5.797,2.651 5.797,2.552 5.742,2.31 5.643,1.914 5.522,1.452 5.467,1.144 5.467,0.979 c 0,-0.836 0.649,-1.221 1.485,-1.221 0.3079998,0 0.605,0.143 0.902,0.418 0.297,0.275 0.451,0.572 0.451,0.88 0,0.11 -0.055,0.165 -0.176,0.165 C 8.052,1.221 7.986,1.166 7.953,1.045 7.832,0.704 7.678,0.451 7.502,0.308 7.3259997,0.16499999 7.161,0.088 6.996,0.088 c -0.253,0 -0.385,0.209 -0.385,0.616 0,0.264 0.033,0.671 0.11,1.232 0.033,0.231 0.044,0.396 0.044,0.517 0,0.583 -0.308,1.012 -0.924,1.276 1.034,0.2529999 2.288,0.99 2.288,2.112 z M 6.699,6.776 C 6.919,6.633 7.029,6.391 7.029,6.05 7.029,5.83 6.985,5.577 6.886,5.2799997 6.5889997,4.378 5.841,3.927 4.642,3.927 H 3.476 L 4.169,6.71 c 0.055,0.231 0.143,0.352 0.264,0.363 0.055,0.011 0.275,0.011 0.66,0.011 0.715,0 1.133,-0.022 1.606,-0.308 z"
   id="path54" />
        </g></g>
        </g>
        <g
   transform="translate(79.2152,81.0962)"
   id="g59">
            <g
   class="typst-text"
   transform="scale(1,-1)"
   id="g58">
                <g
   id="g57"><path
   d="M 2.3331,5.1128 C 2.002,4.7894 1.5092,4.6277 0.8393,4.6277 V 4.2889 c 0.4543,0 0.8161999,0.0693 1.0934,0.2002 V 0.6545 C 1.9327,0.55439997 1.925,0.4928 1.9018999,0.462 1.8634,0.3773 1.6324,0.3311 1.2089,0.3311 H 0.8932 V 0 L 2.2638,0.0308 3.6421,0 V 0.3311 H 3.3264 C 2.9029,0.3311 2.6719,0.3773 2.6257,0.462 2.6103,0.4928 2.6026,0.5544 2.6026,0.6545 v 4.2119 c 0,0.2079 -0.0308,0.2464 -0.2695,0.2464 z"
   id="path56" />
        </g></g>
        </g>
    </g>
    <defs
   id="id-056c638f-e74d-4c23-8336-586dba899a3e">
        <symbol
   id="id-3bd79a8b-71b5-450f-afc1-439f8f4a375f"
   overflow="visible">
            <path
   d="m 8.129,5.841 c 0,0.561 -0.286,0.99 -0.847,1.298 C 6.831,7.392 6.292,7.513 5.687,7.513 H 2.585 C 2.332,7.513 2.222,7.502 2.222,7.249 2.222,7.172 2.255,7.117 2.321,7.106 2.431,7.095 2.519,7.084 2.574,7.084 2.904,7.073 3.091,7.051 3.146,7.04 3.201,7.029 3.234,6.996 3.234,6.941 3.234,6.919 3.223,6.853 3.19,6.743 L 1.738,0.902 C 1.683,0.65999997 1.573,0.506 1.408,0.451 1.331,0.429 1.133,0.418 0.792,0.418 0.55,0.418 0.451,0.407 0.451,0.16500001 0.451,0.044 0.517,-0.011 0.649,0 L 2.013,0.033 3.399,0 c 0.176,-0.011 0.2639999,0.088 0.2639999,0.253 0,0.11 -0.1209999,0.16499998 -0.352,0.16499998 C 2.871,0.41799998 2.651,0.473 2.651,0.572 c 0,0 0.011,0.022 0.033,0.176 L 3.388,3.597 H 4.653 C 5.412,3.597 5.797,3.2779999 5.797,2.651 5.797,2.552 5.742,2.31 5.643,1.914 5.522,1.452 5.467,1.144 5.467,0.979 c 0,-0.836 0.649,-1.221 1.485,-1.221 0.3079998,0 0.605,0.143 0.902,0.418 0.297,0.275 0.451,0.572 0.451,0.88 0,0.11 -0.055,0.165 -0.176,0.165 C 8.052,1.221 7.986,1.166 7.953,1.045 7.832,0.704 7.678,0.451 7.502,0.308 7.3259997,0.16499999 7.161,0.088 6.996,0.088 c -0.253,0 -0.385,0.209 -0.385,0.616 0,0.264 0.033,0.671 0.11,1.232 0.033,0.231 0.044,0.396 0.044,0.517 0,0.583 -0.308,1.012 -0.924,1.276 1.034,0.2529999 2.288,0.99 2.288,2.112 z M 6.699,6.776 C 6.919,6.633 7.029,6.391 7.029,6.05 7.029,5.83 6.985,5.577 6.886,5.2799997 6.5889997,4.378 5.841,3.927 4.642,3.927 H 3.476 L 4.169,6.71 c 0.055,0.231 0.143,0.352 0.264,0.363 0.055,0.011 0.275,0.011 0.66,0.011 0.715,0 1.133,-0.022 1.606,-0.308 z"
   id="path60" />
        </symbol>
        <symbol
   id="id-190f0c3f-0b07-46f4-8a68-edbfb5b5aa16"
   overflow="visible">
            <path
   d="M 2.3331,5.1128 C 2.002,4.7894 1.5092,4.6277 0.8393,4.6277 V 4.2889 c 0.4543,0 0.8161999,0.0693 1.0934,0.2002 V 0.6545 C 1.9327,0.55439997 1.925,0.4928 1.9018999,0.462 1.8634,0.3773 1.6324,0.3311 1.2089,0.3311 H 0.8932 V 0 L 2.2638,0.0308 3.6421,0 V 0.3311 H 3.3264 C 2.9029,0.3311 2.6719,0.3773 2.6257,0.462 2.6103,0.4928 2.6026,0.5544 2.6026,0.6545 v 4.2119 c 0,0.2079 -0.0308,0.2464 -0.2695,0.2464 z"
   id="path61" />
        </symbol>
    </defs>
</g><g
       transform="matrix(0.952501,0,0,0.952501,-43.388936,95.655207)"
       ns3:version="1.11.1"
       ns3:texconverter="typst"
       ns3:pdfconverter="inkscape"
       ns3:text="$C_1$"
       ns3:preamble="C:\Users\messinat\AppData\Roaming\inkscape\extensions\textext\default_preamble_typst.typ"
       ns3:scale="26.999999999999993"
       ns3:alignment="middle center"
       ns3:jacobian_sqrt="9.52501"
       id="g85"><g
   id="g84">
        <g
   transform="translate(70.8662,78.3792)"
   id="g80">
            <g
   class="typst-text"
   transform="scale(1,-1)"
   id="g79">
                <g
   id="g78"><path
   d="m 1.628,2.398 c 0,1.408 0.616,2.838 1.309,3.63 0.561,0.649 1.529,1.2979997 2.618,1.2979997 1.144,0 1.7049998,-0.8689997 1.7049998,-2.0569997 0,-0.099 -0.033,-0.451 -0.033,-0.55 0,-0.099 0.066,-0.154 0.2090002,-0.154 0.055,0 0.099,0.011 0.132,0.022 0.055,0.077 0.088,0.154 0.11,0.231 L 8.36,7.601 C 8.36,7.7 8.305,7.755 8.195,7.755 8.151,7.755 8.085,7.711 7.9969997,7.612 L 7.282,6.809 C 6.853,7.436 6.248,7.755 5.467,7.755 4.862,7.755 4.268,7.612 3.6629999,7.337 2.442,6.765 1.551,5.863 0.979,4.631 0.693,4.026 0.55,3.41 0.55,2.783 c 0,-0.88 0.275,-1.595 0.836,-2.167 0.561,-0.572 1.276,-0.858 2.156,-0.858 0.869,0 1.661,0.319 2.3759997,0.946 C 6.215,0.957 6.468,1.265 6.677,1.606 6.974,2.101 7.128,2.442 7.128,2.651 7.128,2.75 7.073,2.805 6.952,2.805 6.853,2.805 6.798,2.761 6.776,2.662 6.545,1.947 6.182,1.375 5.687,0.968 5.06,0.451 4.4,0.187 3.718,0.187 c -1.32,0 -2.09,0.891 -2.09,2.211 z"
   id="path78" />
        </g></g>
        </g>
        <g
   transform="translate(78.7312,81.0962)"
   id="g83">
            <g
   class="typst-text"
   transform="scale(1,-1)"
   id="g82">
                <g
   id="g81"><path
   d="M 2.3331,5.1128 C 2.002,4.7894 1.5092,4.6277 0.8393,4.6277 V 4.2889 c 0.4543,0 0.8161999,0.0693 1.0934,0.2002 V 0.6545 C 1.9327,0.55439997 1.925,0.4928 1.9018999,0.462 1.8634,0.3773 1.6324,0.3311 1.2089,0.3311 H 0.8932 V 0 L 2.2638,0.0308 3.6421,0 V 0.3311 H 3.3264 C 2.9029,0.3311 2.6719,0.3773 2.6257,0.462 2.6103,0.4928 2.6026,0.5544 2.6026,0.6545 v 4.2119 c 0,0.2079 -0.0308,0.2464 -0.2695,0.2464 z"
   id="path80" />
        </g></g>
        </g>
    </g>
    <defs
   id="id-099a8b25-2f19-48e7-9a22-3e956432071d">
        <symbol
   id="id-911b68c5-6375-4616-997b-728ac8774e8a"
   overflow="visible">
            <path
   d="m 1.628,2.398 c 0,1.408 0.616,2.838 1.309,3.63 0.561,0.649 1.529,1.2979997 2.618,1.2979997 1.144,0 1.7049998,-0.8689997 1.7049998,-2.0569997 0,-0.099 -0.033,-0.451 -0.033,-0.55 0,-0.099 0.066,-0.154 0.2090002,-0.154 0.055,0 0.099,0.011 0.132,0.022 0.055,0.077 0.088,0.154 0.11,0.231 L 8.36,7.601 C 8.36,7.7 8.305,7.755 8.195,7.755 8.151,7.755 8.085,7.711 7.9969997,7.612 L 7.282,6.809 C 6.853,7.436 6.248,7.755 5.467,7.755 4.862,7.755 4.268,7.612 3.6629999,7.337 2.442,6.765 1.551,5.863 0.979,4.631 0.693,4.026 0.55,3.41 0.55,2.783 c 0,-0.88 0.275,-1.595 0.836,-2.167 0.561,-0.572 1.276,-0.858 2.156,-0.858 0.869,0 1.661,0.319 2.3759997,0.946 C 6.215,0.957 6.468,1.265 6.677,1.606 6.974,2.101 7.128,2.442 7.128,2.651 7.128,2.75 7.073,2.805 6.952,2.805 6.853,2.805 6.798,2.761 6.776,2.662 6.545,1.947 6.182,1.375 5.687,0.968 5.06,0.451 4.4,0.187 3.718,0.187 c -1.32,0 -2.09,0.891 -2.09,2.211 z"
   id="path84" />
        </symbol>
        <symbol
   id="id-01a9f13c-e9bf-4ab3-a9df-c1f9786abe16"
   overflow="visible">
            <path
   d="M 2.3331,5.1128 C 2.002,4.7894 1.5092,4.6277 0.8393,4.6277 V 4.2889 c 0.4543,0 0.8161999,0.0693 1.0934,0.2002 V 0.6545 C 1.9327,0.55439997 1.925,0.4928 1.9018999,0.462 1.8634,0.3773 1.6324,0.3311 1.2089,0.3311 H 0.8932 V 0 L 2.2638,0.0308 3.6421,0 V 0.3311 H 3.3264 C 2.9029,0.3311 2.6719,0.3773 2.6257,0.462 2.6103,0.4928 2.6026,0.5544 2.6026,0.6545 v 4.2119 c 0,0.2079 -0.0308,0.2464 -0.2695,0.2464 z"
   id="path85" />
        </symbol>
    </defs>
</g><g
       transform="matrix(0.952501,0,0,0.952501,103.44562,96.841938)"
       ns3:version="1.11.1"
       ns3:texconverter="typst"
       ns3:pdfconverter="inkscape"
       ns3:text="$C_2$"
       ns3:preamble="C:\Users\messinat\AppData\Roaming\inkscape\extensions\textext\default_preamble_typst.typ"
       ns3:scale="26.999999999999993"
       ns3:alignment="middle center"
       ns3:jacobian_sqrt="9.52501"
       id="g93"><g
   id="g92">
        <g
   transform="translate(70.8662,78.3792)"
   id="g88">
            <g
   class="typst-text"
   transform="scale(1,-1)"
   id="g87">
                <g
   id="g86"><path
   d="m 1.628,2.398 c 0,1.408 0.616,2.838 1.309,3.63 0.561,0.649 1.529,1.2979997 2.618,1.2979997 1.144,0 1.7049998,-0.8689997 1.7049998,-2.0569997 0,-0.099 -0.033,-0.451 -0.033,-0.55 0,-0.099 0.066,-0.154 0.2090002,-0.154 0.055,0 0.099,0.011 0.132,0.022 0.055,0.077 0.088,0.154 0.11,0.231 L 8.36,7.601 C 8.36,7.7 8.305,7.755 8.195,7.755 8.151,7.755 8.085,7.711 7.9969997,7.612 L 7.282,6.809 C 6.853,7.436 6.248,7.755 5.467,7.755 4.862,7.755 4.268,7.612 3.6629999,7.337 2.442,6.765 1.551,5.863 0.979,4.631 0.693,4.026 0.55,3.41 0.55,2.783 c 0,-0.88 0.275,-1.595 0.836,-2.167 0.561,-0.572 1.276,-0.858 2.156,-0.858 0.869,0 1.661,0.319 2.3759997,0.946 C 6.215,0.957 6.468,1.265 6.677,1.606 6.974,2.101 7.128,2.442 7.128,2.651 7.128,2.75 7.073,2.805 6.952,2.805 6.853,2.805 6.798,2.761 6.776,2.662 6.545,1.947 6.182,1.375 5.687,0.968 5.06,0.451 4.4,0.187 3.718,0.187 c -1.32,0 -2.09,0.891 -2.09,2.211 z"
   id="path86" />
        </g></g>
        </g>
        <g
   transform="translate(78.7312,81.0962)"
   id="g91">
            <g
   class="typst-text"
   transform="scale(1,-1)"
   id="g90">
                <g
   id="g89"><path
   d="m 0.9163,3.2648 c 0.2463999,0 0.4312,0.1848 0.4312,0.4312 0,0.2772 -0.1463,0.4235 -0.4312,0.4312 0.1694,0.3619 0.5544,0.6545 1.0549,0.6545 0.6776,0 1.1242,-0.5082 1.1242,-1.1858 C 3.0954,3.2263 2.9645,2.8720999 2.695,2.5256 2.5641,2.3485 2.464,2.2253 2.3947,2.156 L 0.5698,0.3465 C 0.4697,0.2541 0.4851,0.231 0.4851,0 H 3.6575 L 3.8962,1.4476 H 3.5728 C 3.5189,1.0395 3.4573,0.80079997 3.388,0.7469 3.3495,0.7238 3.1108,0.7084 2.6565,0.7084 H 1.3475 C 1.8634,1.1626999 2.3408,1.5708 2.7951,1.9327 3.1416,2.2022 3.388,2.4409 3.542,2.6488 3.773,2.9491 3.8885,3.2648 3.8885,3.5959 3.8885,4.0733 3.7037,4.4506 3.3264,4.7278 2.9953,4.9818997 2.5795,5.1128 2.0867,5.1128 1.6632,5.1128 1.3013,4.9896 0.9856,4.7432 0.6545,4.4737 0.4851,4.1349 0.4851,3.7191 c 0,-0.2618 0.1925,-0.4543 0.4312,-0.4543 z"
   id="path88" />
        </g></g>
        </g>
    </g>
    <defs
   id="id-4289c6de-8bc1-4784-aa40-f68cb0811085">
        <symbol
   id="id-1515c77c-0003-4f79-a554-f0a2b41acc33"
   overflow="visible">
            <path
   d="m 1.628,2.398 c 0,1.408 0.616,2.838 1.309,3.63 0.561,0.649 1.529,1.2979997 2.618,1.2979997 1.144,0 1.7049998,-0.8689997 1.7049998,-2.0569997 0,-0.099 -0.033,-0.451 -0.033,-0.55 0,-0.099 0.066,-0.154 0.2090002,-0.154 0.055,0 0.099,0.011 0.132,0.022 0.055,0.077 0.088,0.154 0.11,0.231 L 8.36,7.601 C 8.36,7.7 8.305,7.755 8.195,7.755 8.151,7.755 8.085,7.711 7.9969997,7.612 L 7.282,6.809 C 6.853,7.436 6.248,7.755 5.467,7.755 4.862,7.755 4.268,7.612 3.6629999,7.337 2.442,6.765 1.551,5.863 0.979,4.631 0.693,4.026 0.55,3.41 0.55,2.783 c 0,-0.88 0.275,-1.595 0.836,-2.167 0.561,-0.572 1.276,-0.858 2.156,-0.858 0.869,0 1.661,0.319 2.3759997,0.946 C 6.215,0.957 6.468,1.265 6.677,1.606 6.974,2.101 7.128,2.442 7.128,2.651 7.128,2.75 7.073,2.805 6.952,2.805 6.853,2.805 6.798,2.761 6.776,2.662 6.545,1.947 6.182,1.375 5.687,0.968 5.06,0.451 4.4,0.187 3.718,0.187 c -1.32,0 -2.09,0.891 -2.09,2.211 z"
   id="path92" />
        </symbol>
        <symbol
   id="id-863606cf-501d-4772-899b-b8769273775f"
   overflow="visible">
            <path
   d="m 0.9163,3.2648 c 0.2463999,0 0.4312,0.1848 0.4312,0.4312 0,0.2772 -0.1463,0.4235 -0.4312,0.4312 0.1694,0.3619 0.5544,0.6545 1.0549,0.6545 0.6776,0 1.1242,-0.5082 1.1242,-1.1858 C 3.0954,3.2263 2.9645,2.8720999 2.695,2.5256 2.5641,2.3485 2.464,2.2253 2.3947,2.156 L 0.5698,0.3465 C 0.4697,0.2541 0.4851,0.231 0.4851,0 H 3.6575 L 3.8962,1.4476 H 3.5728 C 3.5189,1.0395 3.4573,0.80079997 3.388,0.7469 3.3495,0.7238 3.1108,0.7084 2.6565,0.7084 H 1.3475 C 1.8634,1.1626999 2.3408,1.5708 2.7951,1.9327 3.1416,2.2022 3.388,2.4409 3.542,2.6488 3.773,2.9491 3.8885,3.2648 3.8885,3.5959 3.8885,4.0733 3.7037,4.4506 3.3264,4.7278 2.9953,4.9818997 2.5795,5.1128 2.0867,5.1128 1.6632,5.1128 1.3013,4.9896 0.9856,4.7432 0.6545,4.4737 0.4851,4.1349 0.4851,3.7191 c 0,-0.2618 0.1925,-0.4543 0.4312,-0.4543 z"
   id="path93" />
        </symbol>
    </defs>
</g><path
       style="fill:#ec1111;fill-opacity:1;stroke:#000000;stroke-width:0.7;stroke-opacity:1;paint-order:stroke markers fill"
       d="M 45.448396,73.421874 V 141.72571"
       id="path13" /><path
       style="fill:#ec1111;fill-opacity:1;stroke:#000000;stroke-width:0.7;stroke-opacity:1;paint-order:stroke markers fill"
       d="m 45.504723,102.71168 59.540997,0.0702"
       id="path14" /><path
       style="fill:#ec1111;fill-opacity:1;stroke:#000000;stroke-width:0.7;stroke-dasharray:none;stroke-opacity:1;paint-order:stroke markers fill"
       d="m 105.10568,120.71614 -57.811319,0.0165"
       id="path15" /><path
       style="fill:none;fill-opacity:1;stroke:#000000;stroke-width:0.7;stroke-dasharray:none;stroke-opacity:1;marker-end:url(#ColoredDot);paint-order:stroke markers fill"
       d="m 43.803498,120.76574 -13.704244,-0.0468"
       id="path16" /><path
       style="fill:none;fill-opacity:1;stroke:#ec1111;stroke-width:0.7;stroke-dasharray:none;stroke-opacity:1;paint-order:stroke markers fill"
       d="m 3.0355935,128.62346 4.373199,0.0234 v 3.81194 l 3.1103485,0.0234 v -3.88209 l 17.866968,0.0468"
       id="path19" /><path
       style="fill:none;fill-opacity:1;stroke:#ec1111;stroke-width:0.7;stroke-dasharray:none;stroke-opacity:1;paint-order:stroke markers fill"
       d="m 212.18227,76.401358 6.38318,0.06598 0.0234,-7.225573 37.73788,0.06598 0.0234,7.126599 6.47671,0.033"
       id="path27" /></g><g
     inkscape:label="Resistor"
     id="g2"
     transform="rotate(90,136.72284,58.718743)"
     style="stroke-width:0.7;stroke-dasharray:none"><g
       id="g1"
       style="stroke-width:0.7;stroke-dasharray:none"><path
         inkscape:label="none"
         style="fill:none;fill-opacity:1;stroke:#000000;stroke-width:0.7;stroke-linecap:round;stroke-linejoin:round;stroke-dasharray:none;stroke-opacity:1"
         d="m 85,150 h 15.5 l 2,3 3,-6 3,6 3,-6 3,6 3,-6 2,3 H 135"
         id="path1" /></g></g><g
     inkscape:label="Capacitor"
     id="g6"
     transform="matrix(0,0.965291,-1.0012406,0,310.19242,62.884543)"
     style="stroke-width:0.712032;stroke-dasharray:none"><g
       id="g5"
       style="stroke-width:0.712032;stroke-dasharray:none"><path
         inkscape:label="none"
         style="fill:none;fill-opacity:1;stroke:#000000;stroke-width:0.712032;stroke-linecap:round;stroke-linejoin:round;stroke-dasharray:none;stroke-opacity:1"
         d="m 112,150 h 23"
         id="path2" /><path
         inkscape:label="none"
         style="fill:none;fill-opacity:1;stroke:#000000;stroke-width:0.712032;stroke-linecap:round;stroke-linejoin:round;stroke-dasharray:none;stroke-opacity:1"
         d="M 112,157 V 143"
         id="path3" /><path
         inkscape:label="none"
         style="fill:none;fill-opacity:1;stroke:#000000;stroke-width:0.712032;stroke-linecap:round;stroke-linejoin:round;stroke-dasharray:none;stroke-opacity:1"
         d="M 108,150 H 85"
         id="path4" /><path
         inkscape:label="none"
         style="fill:none;fill-opacity:1;stroke:#000000;stroke-width:0.712032;stroke-linecap:round;stroke-linejoin:round;stroke-dasharray:none;stroke-opacity:1"
         d="M 108,157 V 143"
         id="path5" /></g></g><g
     inkscape:label="Source"
     id="g13"
     transform="rotate(-90,172.17702,35.883211)"><g
       inkscape:label="Source"
       id="g12"
       style="stroke-width:0.7;stroke-dasharray:none"
       transform="translate(0,0.01653646)"><path
         inkscape:label="none"
         style="fill:none;fill-opacity:1;stroke:#000000;stroke-width:0.7;stroke-linecap:round;stroke-linejoin:round;stroke-dasharray:none;stroke-opacity:1"
         d="M 109,150 H 85"
         id="path6" /><path
         inkscape:label="none"
         style="fill:none;fill-opacity:1;stroke:#000000;stroke-width:0.7;stroke-linecap:round;stroke-linejoin:round;stroke-dasharray:none;stroke-opacity:1"
         d="m 112,150 h 23"
         id="path7" /><path
         inkscape:label="none"
         style="fill:none;fill-opacity:1;stroke:#000000;stroke-width:0.7;stroke-linecap:round;stroke-linejoin:round;stroke-dasharray:none;stroke-opacity:1"
         d="m 114,144 h 2"
         id="path8" /><path
         inkscape:label="none"
         style="fill:none;fill-opacity:1;stroke:#000000;stroke-width:0.7;stroke-linecap:round;stroke-linejoin:round;stroke-dasharray:none;stroke-opacity:1"
         d="m 115,143 v 2"
         id="path9" /><path
         inkscape:label="none"
         style="fill:none;fill-opacity:1;stroke:#000000;stroke-width:0.7;stroke-linecap:round;stroke-linejoin:round;stroke-dasharray:none;stroke-opacity:1"
         d="m 106,143 v 2"
         id="path10" /><path
         inkscape:label="none"
         style="fill:none;fill-opacity:1;stroke:#000000;stroke-width:0.7;stroke-linecap:round;stroke-linejoin:round;stroke-dasharray:none;stroke-opacity:1"
         d="m 109,153 v -6"
         id="path11" /><path
         inkscape:label="none"
         style="fill:none;fill-opacity:1;stroke:#000000;stroke-width:0.7;stroke-linecap:round;stroke-linejoin:round;stroke-dasharray:none;stroke-opacity:1"
         d="M 112,157 V 143"
         id="path12" /></g><path
       style="fill:none;fill-opacity:1;stroke:#000000;stroke-width:0.7;stroke-dasharray:none;stroke-opacity:1;paint-order:stroke markers fill"
       d="m 201.04884,-90.8517 0.76068,0.03307 0.19844,90.38828044 -35.55339,0.0330729"
       id="path45" /><path
       style="fill:none;fill-opacity:1;stroke:#000000;stroke-width:0.7;stroke-dasharray:none;stroke-opacity:1;paint-order:stroke markers fill"
       d="m 201.97488,-0.39727365 0.0661,24.11015565 -35.48724,-0.03307"
       id="path46" /><path
       style="fill:none;fill-opacity:1;stroke:#000000;stroke-width:0.7;stroke-dasharray:none;stroke-opacity:1;paint-order:stroke markers fill"
       d="m 202.04103,23.779028 -0.0331,126.503902 -67.13802,-0.26458"
       id="path47" /><path
       style="fill:none;fill-opacity:1;stroke:#000000;stroke-width:0.7;stroke-dasharray:none;stroke-opacity:1;paint-order:stroke markers fill"
       d="M 151.23212,-90.835944 H 134.16028"
       id="path48" /></g><g
     inkscape:label="Capacitor"
     id="g26"
     transform="rotate(-90,85.91028,190.46478)"
     style="stroke-width:0.7;stroke-dasharray:none"><g
       id="g25"
       style="stroke-width:0.7;stroke-dasharray:none"><path
         inkscape:label="none"
         style="fill:none;fill-opacity:1;stroke:#000000;stroke-width:0.7;stroke-linecap:round;stroke-linejoin:round;stroke-dasharray:none;stroke-opacity:1"
         d="m 112,150 h 23"
         id="path21" /><path
         inkscape:label="none"
         style="fill:none;fill-opacity:1;stroke:#000000;stroke-width:0.7;stroke-linecap:round;stroke-linejoin:round;stroke-dasharray:none;stroke-opacity:1"
         d="M 112,157 V 143"
         id="path22" /><path
         inkscape:label="none"
         style="fill:none;fill-opacity:1;stroke:#000000;stroke-width:0.7;stroke-linecap:round;stroke-linejoin:round;stroke-dasharray:none;stroke-opacity:1"
         d="M 109,150 H 86"
         id="path23" /><path
         inkscape:label="none"
         style="fill:none;fill-opacity:1;stroke:#000000;stroke-width:0.7;stroke-linecap:round;stroke-linejoin:round;stroke-dasharray:none;stroke-opacity:1"
         d="m 116,144 h -2"
         id="path24" /><path
         inkscape:label="none"
         style="fill:none;fill-opacity:1;stroke:#000000;stroke-width:0.7;stroke-linecap:round;stroke-linejoin:round;stroke-dasharray:none;stroke-opacity:1"
         d="m 115,143 v 2"
         id="path25" /></g><path
       inkscape:label="arc"
       style="fill:none;fill-opacity:1;stroke:#000000;stroke-width:0.7;stroke-linecap:round;stroke-linejoin:round;stroke-dasharray:none;stroke-opacity:1"
       sodipodi:type="arc"
       sodipodi:rx="13.25"
       sodipodi:ry="13.25"
       sodipodi:cx="95.75"
       sodipodi:cy="150"
       sodipodi:start="5.726586"
       sodipodi:end="0.55659932"
       d="m 107,143 a 13.25,13.25 0 0 1 0,14"
       sodipodi:arc-type="arc"
       id="path26"
       sodipodi:open="true" /></g><rect
     style="fill:#aba7a3;fill-opacity:0.468599;stroke:#000000;stroke-width:0.7;paint-order:stroke markers fill"
     id="rect26"
     width="72.495834"
     height="102.65833"
     x="105.30415"
     y="41.804165"
     ry="8.9958334" /><text
     xml:space="preserve"
     style="font-style:normal;font-variant:normal;font-weight:normal;font-stretch:normal;font-size:6.35px;font-family:sans-serif;-inkscape-font-specification:'sans-serif, Normal';font-variant-ligatures:normal;font-variant-caps:normal;font-variant-numeric:normal;font-variant-east-asian:normal;text-align:start;writing-mode:lr-tb;direction:ltr;text-anchor:start;fill:#000000;fill-opacity:1;stroke:#000000;stroke-width:0.25;stroke-dasharray:none;paint-order:stroke markers fill"
     x="128.0583"
     y="50.270832"
     id="text26"><tspan
       sodipodi:role="line"
       id="tspan26"
       style="font-style:normal;font-variant:normal;font-weight:normal;font-stretch:normal;font-size:6.35px;font-family:sans-serif;-inkscape-font-specification:'sans-serif, Normal';font-variant-ligatures:normal;font-variant-caps:normal;font-variant-numeric:normal;font-variant-east-asian:normal;fill:#000000;fill-opacity:1;stroke-width:0.25;stroke-dasharray:none"
       x="128.0583"
       y="50.270832">Pin 8</tspan></text><text
     xml:space="preserve"
     style="font-style:normal;font-variant:normal;font-weight:normal;font-stretch:normal;font-size:6.35px;font-family:sans-serif;-inkscape-font-specification:'sans-serif, Normal';font-variant-ligatures:normal;font-variant-caps:normal;font-variant-numeric:normal;font-variant-east-asian:normal;text-align:start;writing-mode:lr-tb;direction:ltr;text-anchor:start;fill:#000000;fill-opacity:1;stroke:#000000;stroke-width:0.25;stroke-dasharray:none;paint-order:stroke markers fill"
     x="151.87067"
     y="50.270832"
     id="text27"><tspan
       sodipodi:role="line"
       id="tspan27"
       x="151.87067"
       y="50.270832">Pin 4</tspan></text><text
     xml:space="preserve"
     style="font-style:normal;font-variant:normal;font-weight:normal;font-stretch:normal;font-size:6.35px;font-family:sans-serif;-inkscape-font-specification:'sans-serif, Normal';font-variant-ligatures:normal;font-variant-caps:normal;font-variant-numeric:normal;font-variant-east-asian:normal;text-align:start;writing-mode:lr-tb;direction:ltr;text-anchor:start;fill:#000000;fill-opacity:1;stroke:#000000;stroke-width:0.25;stroke-dasharray:none;paint-order:stroke markers fill"
     x="128.0583"
     y="141.02292"
     id="text28"><tspan
       sodipodi:role="line"
       id="tspan30"
       x="128.0583"
       y="141.02292">Pin 1</tspan></text><text
     xml:space="preserve"
     style="font-style:normal;font-variant:normal;font-weight:normal;font-stretch:normal;font-size:6.35px;font-family:sans-serif;-inkscape-font-specification:'sans-serif, Normal';font-variant-ligatures:normal;font-variant-caps:normal;font-variant-numeric:normal;font-variant-east-asian:normal;text-align:start;writing-mode:lr-tb;direction:ltr;text-anchor:start;fill:#000000;fill-opacity:1;stroke:#000000;stroke-width:0.25;stroke-dasharray:none;paint-order:stroke markers fill"
     x="151.87067"
     y="141.02292"
     id="text29"><tspan
       sodipodi:role="line"
       id="tspan31"
       x="151.87067"
       y="141.02292">Pin 5</tspan></text><text
     xml:space="preserve"
     style="font-style:normal;font-variant:normal;font-weight:normal;font-stretch:normal;font-size:6.35px;font-family:sans-serif;-inkscape-font-specification:'sans-serif, Normal';font-variant-ligatures:normal;font-variant-caps:normal;font-variant-numeric:normal;font-variant-east-asian:normal;text-align:start;writing-mode:lr-tb;direction:ltr;text-anchor:start;fill:#000000;fill-opacity:1;stroke:#000000;stroke-width:0.25;stroke-dasharray:none;paint-order:stroke markers fill"
     x="159.2789"
     y="74.612503"
     id="text32"><tspan
       sodipodi:role="line"
       id="tspan32"
       x="159.2789"
       y="74.612503">Pin 3</tspan></text><text
     xml:space="preserve"
     style="font-style:normal;font-variant:normal;font-weight:normal;font-stretch:normal;font-size:6.35px;font-family:sans-serif;-inkscape-font-specification:'sans-serif, Normal';font-variant-ligatures:normal;font-variant-caps:normal;font-variant-numeric:normal;font-variant-east-asian:normal;text-align:start;writing-mode:lr-tb;direction:ltr;text-anchor:start;fill:#000000;fill-opacity:1;stroke:#000000;stroke-width:0.25;stroke-dasharray:none;paint-order:stroke markers fill"
     x="108.47906"
     y="74.612503"
     id="text33"><tspan
       sodipodi:role="line"
       id="tspan33"
       x="108.47906"
       y="74.612503">Pin 7</tspan></text><text
     xml:space="preserve"
     style="font-style:normal;font-variant:normal;font-weight:normal;font-stretch:normal;font-size:6.35px;font-family:sans-serif;-inkscape-font-specification:'sans-serif, Normal';font-variant-ligatures:normal;font-variant-caps:normal;font-variant-numeric:normal;font-variant-east-asian:normal;text-align:start;writing-mode:lr-tb;direction:ltr;text-anchor:start;fill:#000000;fill-opacity:1;stroke:#000000;stroke-width:0.25;stroke-dasharray:none;paint-order:stroke markers fill"
     x="108.47906"
     y="105.0396"
     id="text34"><tspan
       sodipodi:role="line"
       id="tspan34"
       x="108.47906"
       y="105.0396">Pin 6</tspan></text><text
     xml:space="preserve"
     style="font-style:normal;font-variant:normal;font-weight:normal;font-stretch:normal;font-size:6.35px;font-family:sans-serif;-inkscape-font-specification:'sans-serif, Normal';font-variant-ligatures:normal;font-variant-caps:normal;font-variant-numeric:normal;font-variant-east-asian:normal;text-align:start;writing-mode:lr-tb;direction:ltr;text-anchor:start;fill:#000000;fill-opacity:1;stroke:#000000;stroke-width:0.25;stroke-dasharray:none;paint-order:stroke markers fill"
     x="108.47906"
     y="123.29585"
     id="text35"><tspan
       sodipodi:role="line"
       id="tspan35"
       x="108.47906"
       y="123.29585">Pin 2</tspan></text><text
     xml:space="preserve"
     style="font-style:normal;font-variant:normal;font-weight:normal;font-stretch:normal;font-size:7.05556px;font-family:sans-serif;-inkscape-font-specification:'sans-serif, Normal';font-variant-ligatures:normal;font-variant-caps:normal;font-variant-numeric:normal;font-variant-east-asian:normal;text-align:start;writing-mode:lr-tb;direction:ltr;text-anchor:start;fill:#000000;fill-opacity:1;stroke:#000000;stroke-width:0.25;stroke-dasharray:none;paint-order:stroke markers fill"
     x="94.98542"
     y="38.629166"
     id="text36"><tspan
       sodipodi:role="line"
       id="tspan36"
       x="94.98542"
       y="38.629166">555 Timer</tspan></text><path
     style="fill:#000000;fill-opacity:1;stroke:#000000;stroke-width:0.7;stroke-dasharray:none;marker-end:url(#Dot);paint-order:stroke markers fill"
     d="m 177.99851,72.69427 28.77344,-0.06615"
     id="path36" /><text
     xml:space="preserve"
     style="font-style:normal;font-variant:normal;font-weight:normal;font-stretch:normal;font-size:7.05556px;font-family:sans-serif;-inkscape-font-specification:'sans-serif, Normal';font-variant-ligatures:normal;font-variant-caps:normal;font-variant-numeric:normal;font-variant-east-asian:normal;text-align:start;writing-mode:lr-tb;direction:ltr;text-anchor:start;fill:#ff0000;fill-opacity:1;stroke:#ff0000;stroke-width:0.25;stroke-dasharray:none;stroke-opacity:1;paint-order:stroke markers fill"
     x="222.64661"
     y="62.573963"
     id="text44"><tspan
       sodipodi:role="line"
       id="tspan44"
       x="222.64661"
       y="62.573963">OUTPUT</tspan></text><text
     xml:space="preserve"
     style="font-style:normal;font-variant:normal;font-weight:normal;font-stretch:normal;font-size:7.05556px;font-family:sans-serif;-inkscape-font-specification:'sans-serif, Normal';font-variant-ligatures:normal;font-variant-caps:normal;font-variant-numeric:normal;font-variant-east-asian:normal;text-align:start;writing-mode:lr-tb;direction:ltr;text-anchor:start;fill:#ff0000;fill-opacity:1;stroke:#ff0000;stroke-width:0.25;stroke-dasharray:none;stroke-opacity:1;paint-order:stroke markers fill"
     x="3.3788373"
     y="123.1907"
     id="text30"><tspan
       sodipodi:role="line"
       id="tspan37"
       x="3.3788373"
       y="123.1907">INPUT</tspan></text></svg>
